<?xml version="1.0" encoding="utf-8"?>
<!-- Generator: Adobe Illustrator 15.1.0, SVG Export Plug-In . SVG Version: 6.00 Build 0)  -->
<!DOCTYPE svg PUBLIC "-//W3C//DTD SVG 1.1//EN" "http://www.w3.org/Graphics/SVG/1.1/DTD/svg11.dtd">
<svg version="1.1" id="Layer_1" xmlns="http://www.w3.org/2000/svg" xmlns:xlink="http://www.w3.org/1999/xlink" x="0px" y="0px"
	 width="575px" height="575px" viewBox="0 0 575 575" enable-background="new 0 0 575 575" xml:space="preserve">
<g>
	<g>
		<path d="M138.122,463.766c2.129-3.478-1.881-9.364-8.51-5.675c-2.122,1.198-5.064,2.827-5.303,2.96
			c-0.271,1.349-0.516,2.664-0.8,4.027c0.417-0.133,1.613-0.151,2.224,0.934c1.328,2.384,5.656,10.169,6.938,12.457
			c4.731-2.25,6.44-3.19,8.058-4.355C146.486,469.995,142.526,463.582,138.122,463.766z M127.701,462.334
			c0.667-0.372,1.396-0.78,2.485-1.39c4.364-2.434,7.335,3.046,2.428,4.592c-0.125,0.645-0.399,2.117-0.695,3.45
			c-1.245-2.227-2.469-4.423-2.725-4.893C128.771,463.34,128.244,462.766,127.701,462.334z M137.683,472.677
			c-0.656,0.369-1.272,0.78-2.901,1.445c-0.249-0.449-1.481-2.651-2.724-4.881c0.003-0.012,0.006-0.024,0.006-0.033
			c-0.003,0-0.007,0.009-0.018,0.009c-0.041-0.073-0.083-0.145-0.124-0.219c0.794-0.449,1.671-0.937,2.132-1.174
			C139.054,465.196,141.771,470.395,137.683,472.677z"/>
		<path d="M117.501,482.132c-0.422,0.172-3.284,1.39-3.99,1.691c-1.298-3.054-3.858-9.086-4.479-10.546
			c-1.165-2.753-3.721-3.466-4.534-3.549c-0.405,1.301-0.791,2.588-1.22,3.912c0.429-0.092,1.619,0.018,2.106,1.171
			c1.067,2.504,4.126,9.707,5.57,13.112c1.711-0.732,10.521-4.473,11.778-5.002c-0.999-0.633-2.598-1.662-3.637-2.354
			C119.063,481.455,117.882,481.961,117.501,482.132z"/>
		<path d="M182.157,445.833c-1.571-2.931-4.04-7.558-4.797-8.956c-0.343-0.656-0.81-1.346-1.471-1.603
			c1.412-0.757,2.29-1.224,2.485-1.33c1.158-0.615,1.892-0.589,2.253-0.252c0.316-1.434,0.567-2.696,0.955-4.612
			c-2.2,1.186-11.605,6.218-13.902,7.445c-0.157,0.718-0.738,3.459-0.988,4.627c0.518-0.805,1.059-1.534,2.382-2.247
			c1.021-0.544,1.122-0.598,2.289-1.218c0.847-0.456,1.837-0.207,2.411,0.857c1.287,2.412,5.407,10.111,7.151,13.367
			c1.018-1.508,2.36-3.504,3.08-4.577C183.561,447.296,182.858,447.157,182.157,445.833z"/>
		<path d="M442.292,458.987c1.393,0.798,2.25,1.283,2.445,1.396c1.149,0.645,1.514,1.283,1.422,1.773
			c1.378-0.505,2.575-0.957,4.405-1.646c-2.173-1.242-11.439-6.514-13.701-7.806c-0.695,0.251-3.317,1.215-4.441,1.626
			c0.952,0.009,1.863,0.08,3.164,0.822c1.002,0.576,1.1,0.636,2.247,1.289c0.84,0.482,1.159,1.443,0.559,2.501
			c-1.352,2.366-5.68,9.958-7.498,13.163c1.818,0.057,4.222,0.128,5.518,0.172c-0.213-0.393-0.462-1.067,0.274-2.359
			c1.645-2.892,4.246-7.445,5.029-8.838C442.085,460.436,442.422,459.682,442.292,458.987z"/>
		<path d="M391.641,427.906c-2.171-1.085-3.025-1.505-5.391-2.679l-0.003-0.006c-0.006,0-0.006,0-0.006,0
			c-1.256,0.535-2.483,1.079-3.752,1.617c0.334,0.26,1.029,1.245,0.471,2.359c-1.219,2.439-4.924,9.899-6.564,13.199
			c1.544-0.03,3.892-0.089,5.49-0.14c-0.28-0.429-0.52-0.979,0.151-2.32c0.595-1.201,0.984-1.996,1.274-2.576
			C393.926,445.705,399.896,432.013,391.641,427.906z M386.638,435.925c-0.955,0.417-2.525,1.094-3.32,1.422
			c1.28-2.555,2.638-5.289,3.185-6.374c0.384-0.775,0.564-1.532,0.611-2.224c0.672,0.331,1.405,0.691,2.496,1.242
			C394.089,432.217,390.68,439.106,386.638,435.925z"/>
		<path d="M170.501,453.13c-1.945-0.278-3.521-0.76-5.93-1.954c6.643-5.178-0.102-13.234-6.926-9.326
			c-2.108,1.213-5.035,2.895-5.275,3.031c-0.248,1.342-0.476,2.664-0.74,4.033c0.408-0.143,1.606-0.172,2.225,0.907
			c1.36,2.365,6.035,10.521,7.336,12.791c0.916-1.396,2.201-3.436,2.957-4.648c-0.456-0.032-1.153-0.136-1.918-1.47
			c-0.516-0.904-1.226-2.164-1.812-3.189c-1.287-2.241-2.576-4.485-3.124-5.44c-0.429-0.757-0.958-1.325-1.508-1.748
			c0.656-0.381,1.381-0.795,2.465-1.416c4.337-2.489,7.7,3.524,2.813,5.127c-0.192,1.032-0.574,3.052-0.646,3.478
			c4.569,2.688,7.645,3.494,9.572,3.604c3.588,0.23,5.271-3.853,5.686-5.608C175.465,452.004,173.786,453.579,170.501,453.13z"/>
		<path d="M377.587,432.992c-0.26,0.523-1.348,1.454-3.533,1.088c-0.423-4.988-1.067-14.601-1.067-14.601l-15.289,15.07l3.3,1.295
			c0,0,1.209-1.2,2.747-2.696c1.327,0.523,4.627,1.807,6.416,2.514c0.035,0.319,0.254,3.689,0.319,4.467
			c1.561-0.186,2.667-0.316,4.802-0.559c-0.914-0.615-1.012-2.028-1.098-3.157C376.145,435.942,377.271,434.112,377.587,432.992z
			 M365.938,430.996c1.479-1.458,2.907-2.856,3.655-3.587c0.105,1.49,0.228,3.314,0.372,5.169
			C368.392,431.966,366.819,431.345,365.938,430.996z"/>
		<path d="M467.565,480.485c-0.293,0.515-1.434,1.375-3.59,0.866c-0.112-5.003-0.156-14.627-0.156-14.627l-16.188,14.086
			l3.208,1.493c0,0,1.28-1.105,2.903-2.511c1.295,0.598,4.503,2.082,6.256,2.895c0.009,0.322,0.021,3.696,0.045,4.486
			c1.566-0.089,2.679-0.151,4.825-0.267c-0.872-0.668-0.888-2.091-0.902-3.217C465.948,483.339,467.193,481.588,467.565,480.485z
			 M456.073,477.771c1.566-1.36,3.074-2.664,3.858-3.354c0.026,1.508,0.026,3.326,0.056,5.187
			C458.456,478.883,456.931,478.173,456.073,477.771z"/>
		<path d="M153.866,463.097c-1.286,0.751-1.842,1.067-3.722,2.165c-0.816-1.393-1.792-3.081-2.799-4.802
			c0.67-0.388,1.202-0.704,1.743-1.012c1.141-0.668,1.867-0.668,2.244-0.34c0.248-1.443,0.456-2.705,0.777-4.63
			c-0.485,0.271-4.16,2.418-6.156,3.592c-0.849-1.442-1.356-2.324-1.588-2.714c-0.438-0.754-0.97-1.315-1.528-1.741
			c1.801-1.05,2.126-1.245,3.397-1.976c1.139-0.668,1.871-0.668,2.245-0.34c0.258-1.458,0.46-2.712,0.782-4.642
			c-4.117,2.412-5.894,3.444-9.834,5.741c-0.095,0.621-0.461,2.673-0.715,4.039c0.406-0.142,1.604-0.175,2.231,0.904
			c1.375,2.356,5.315,9.122,7.178,12.31c1.988-1.162,8.839-5.151,11.06-6.449c-1.292-0.594-2.676-1.254-3.918-1.88
			C155.362,462.216,154.222,462.887,153.866,463.097z"/>
		<path d="M405.803,454.357c-1.289-0.752-1.842-1.077-3.729-2.15c0.808-1.413,1.774-3.086,2.771-4.822
			c0.672,0.391,1.201,0.692,1.742,1.003c1.141,0.659,1.511,1.292,1.419,1.779c1.366-0.496,2.563-0.952,4.402-1.635
			c-0.485-0.275-4.172-2.401-6.186-3.548c0.831-1.452,1.343-2.324,1.57-2.727c0.432-0.76,0.656-1.496,0.745-2.19
			c1.807,1.038,2.141,1.224,3.406,1.96c1.144,0.656,1.505,1.295,1.407,1.777c1.387-0.491,2.587-0.943,4.423-1.627
			c-4.143-2.38-5.919-3.396-9.878-5.67c-0.586,0.225-2.552,0.922-3.858,1.387c0.322,0.283,0.952,1.301,0.325,2.383
			c-1.357,2.368-5.263,9.15-7.108,12.355c2.002,1.147,8.879,5.098,11.103,6.39c-0.127-1.428-0.242-2.963-0.325-4.334
			C407.313,455.211,406.158,454.552,405.803,454.357z"/>
		<path d="M126.334,476.697c-1.44-3.007-3.634-7.586-4.32-9.021c-1.289-2.688-3.87-3.294-4.685-3.335
			c-0.351,1.327-0.674,2.619-1.039,3.965c0.42-0.106,1.614-0.051,2.152,1.079c1.18,2.457,4.788,10,6.385,13.332
			c1.09-1.479,2.521-3.403,3.28-4.444C127.67,478.215,126.981,478.037,126.334,476.697z"/>
		<path d="M447.693,476.068c1.683-2.868,4.243-7.253,5.044-8.625c1.505-2.581,0.56-5.056,0.14-5.76
			c-1.292,0.458-2.555,0.91-3.865,1.366c0.323,0.286,0.946,1.307,0.313,2.389c-1.374,2.356-5.588,9.577-7.456,12.768
			c1.827,0.073,4.233,0.165,5.52,0.225C447.188,478.034,446.948,477.357,447.693,476.068z"/>
		<path d="M401.276,438.796c1.467-2.611,0.473-5.068,0.041-5.76c-1.286,0.473-2.536,0.952-3.844,1.419
			c0.331,0.284,0.973,1.301,0.353,2.387c-1.331,2.38-5.426,9.668-7.235,12.894c1.821,0.042,4.225,0.101,5.518,0.121
			c-0.204-0.381-0.462-1.052,0.271-2.354C398,444.603,400.499,440.171,401.276,438.796z"/>
		<path d="M272.569,478.034c-2.431,0-3.371,0-6.021,0c0,0-0.003,0-0.006-0.009c0,0.009,0,0.009,0,0.009l0,0
			c-0.889,1.041-1.741,2.069-2.646,3.113c0.417,0.089,1.476,0.659,1.476,1.91c0,2.729,0,11.04,0,14.736
			c1.372-0.71,3.447-1.812,4.861-2.569c-0.445-0.252-0.909-0.647-0.909-2.146c0-1.325,0-2.224,0.001-2.868
			C282.542,492.953,281.791,478.034,272.569,478.034z M271.67,487.445c-0.676,0.789-1.789,2.097-2.345,2.75c0-2.859,0-5.91,0-7.135
			c0-0.863-0.168-1.62-0.435-2.253c0.748,0,1.568,0,2.791,0C276.673,480.808,276.702,488.486,271.67,487.445z"/>
		<path d="M296.576,483.141c0,2.723,0,12.122,0,14.742c1.49-0.757,3.619-1.89,4.879-2.569c-0.378-0.246-0.935-0.689-0.935-2.221
			c0-1.038,0.012-2.493,0.012-3.682c0-2.587,0-5.174,0-6.268c0-0.866-0.174-1.617-0.44-2.271c0.767,0,1.597,0,2.845,0
			c5.003,0,4.923,6.897-0.109,5.851c-0.677,0.793-2.017,2.368-2.295,2.688c2.623,4.613,4.899,6.836,6.511,7.897
			c3.007,1.979,6.49-0.727,7.727-2.043c-0.532,0.509-2.773,1.041-5.394-0.987c-1.552-1.2-2.682-2.403-4.181-4.64
			c8.329-1.197,6.502-11.536-1.369-11.536c-2.431,0-5.798,0-6.076,0c-0.887,1.052-1.747,2.078-2.646,3.131
			C295.524,481.319,296.576,481.89,296.576,483.141z"/>
		<path d="M291.618,481.63c0.961-1.133,1.771-2.108,3.019-3.616c-4.774,0-6.823,0.003-11.388,0.003
			c-0.399,0.487-1.748,2.084-2.654,3.131c0.425,0.086,1.48,0.653,1.48,1.904c0,2.726-0.004,10.55-0.004,14.245
			c2.303,0,10.229,0,12.805,0c-0.815-1.165-1.685-2.434-2.441-3.592c-0.37,0.812-1.691,0.821-2.097,0.821c-1.496,0-2.134,0-4.308,0
			c0-1.617,0-3.56,0-5.556c0.77,0,1.391,0,2.011,0c1.321,0,1.954,0.37,2.11,0.84c0.94-1.114,1.76-2.105,3.007-3.619
			c-0.556,0-4.815,0-7.128,0.003c-0.002-1.667-0.002-2.676-0.002-3.134c0-0.866-0.178-1.626-0.447-2.273c2.088,0,2.463,0,3.932,0
			C290.829,480.787,291.465,481.153,291.618,481.63z"/>
		<path d="M318.501,488.314c2.858,0.187,3.527,2.362,6.602,2.362c2.842,0,4.621-1.732,5.396-3.565
			c-1.556,1.354-3.016,1.534-4.379,1.534c-2.511,0-3.9-2.383-6.706-2.383c-4.021,0-5.222,2.986-5.476,3.562
			C316.162,488.063,318.045,488.291,318.501,488.314z"/>
		<path d="M249.372,486.177c-4.018,0-5.219,2.972-5.473,3.56c2.219-1.762,4.105-1.543,4.558-1.508
			c2.866,0.175,3.527,2.359,6.605,2.359c2.847,0,4.624-1.735,5.393-3.565c-1.552,1.349-3.008,1.528-4.37,1.528
			C253.573,488.551,252.183,486.177,249.372,486.177z"/>
		<path d="M199.542,437.587c2.739-2.103,1.821-4.743,1.049-6.032c0.267,0.695,0.253,2.534-3.305,4.201
			c-4.495-3.681-11.39-9.34-11.39-9.34l0.435,21.442l3.217-1.505c0,0-0.035-1.677-0.071-3.826c1.296-0.609,4.127-1.934,6.248-2.934
			c1.616,1.34,3.001,2.481,3.458,2.833c0.918-1.254,2.204-2.986,2.878-3.87C201.264,438.73,200.388,438.234,199.542,437.587z
			 M189.418,439.449c-0.041-2.088-0.077-4.101-0.092-5.15c0.808,0.656,2.359,1.948,4.007,3.309
			C191.789,438.335,190.267,439.05,189.418,439.449z"/>
		<path d="M207.053,426.168c-2.68,0.064-4.351-0.018-4.936-1.517c-0.479-1.213,0.096-2.729,2.231-3.569
			c2.1-0.825,3.136-0.062,3.371,0.707l1.257-3.752c-1.375-0.408-3.507-0.233-5.538,0.567c-4.256,1.671-5.9,5.038-4.689,8.119
			c1.029,2.619,3.634,3.513,7.046,3.386c2.472-0.083,3.93-0.089,4.565,1.522c0.567,1.454-0.138,2.995-1.995,3.726
			c-1.725,0.674-3.147,0.038-3.356-0.825l-2.525,2.945c1.855,1.368,4.644,1.194,6.706,0.381c4.559-1.783,5.818-5.236,4.624-8.261
			C212.708,426.771,210.456,426.073,207.053,426.168z"/>
		<path d="M355.79,423.332c-1.998-1.779-3.157-2.989-2.566-4.468c0.488-1.224,1.946-1.939,4.078-1.085
			c2.093,0.84,2.32,2.103,1.969,2.827l3.48-1.878c-0.707-1.247-2.387-2.569-4.421-3.373c-4.243-1.7-7.752-0.364-8.979,2.702
			c-1.041,2.622,0.245,5.056,2.83,7.291c1.854,1.638,2.921,2.632,2.279,4.24c-0.58,1.454-2.146,2.09-4.007,1.351
			c-1.718-0.688-2.317-2.129-1.883-2.906l-3.847,0.423c0.402,2.268,2.561,4.048,4.618,4.873c4.554,1.818,7.829,0.159,9.03-2.859
			C359.498,427.641,358.33,425.606,355.79,423.332z"/>
		<path d="M430.92,454.153c1.133-1.929,0.435-3.785,0.121-4.312c-0.97,0.34-1.919,0.668-2.903,1.003
			c0.246,0.225,0.707,0.993,0.23,1.797c-0.614,1.041-2.717,4.595-4.745,8.037c0,0-1.222-14.264-2.782-16.862
			c-1.111,0.375-2.318,0.801-3.864,1.348c0.292,0.29,0.922,1.296,0.299,2.345c-1.032,1.751-6.121,10.391-7.528,12.768
			c1.366,0.065,3.17,0.145,4.137,0.184c-0.154-0.293-0.334-0.802,0.23-1.763c0.713-1.203,2.874-4.86,4.353-7.365
			c0.603,5.585,1.756,15.127,1.756,15.127s3.161,0.142,4.131,0.186c-0.154-0.292-0.331-0.795,0.233-1.756
			C425.853,462.742,430.317,455.176,430.92,454.153z"/>
		<path d="M483.576,476.275c0.745,0.357,0.952,1.425,0.263,2.164c-1.466,1.594-3.188,3.22-5.901,6.158
			c-1.064-4.053-2.584-10.227-3.024-11.93c-0.236-0.929-0.79-1.824-1.343-2.354c-0.846,0.582-2.501,1.738-3.364,2.326
			c0.408,0.192,1.215,1.064,0.919,2.162c-0.538,1.975-3.163,11.655-3.888,14.331c1.336-0.302,3.087-0.698,4.036-0.917
			c-0.225-0.242-0.535-0.683-0.243-1.768c0.278-1.032,1.062-3.897,1.653-6.109l2.936,11.07l7.593-8.137
			c-0.89,3.279-1.986,7.312-2.575,9.488c1.78-0.399,4.125-0.926,5.382-1.216c-0.299-0.337-0.707-0.913-0.313-2.356
			c0.872-3.208,2.202-8.113,2.616-9.647c0.774-2.877-0.777-5.029-1.372-5.594C485.82,474.72,484.724,475.503,483.576,476.275z"/>
		<path d="M105.173,385.377c-3.714,6.094-11.457,11.685-22.474,19.071c-3.156,6.304-13.981,13.751-30.128,20.312
			c8.326-9.84,10.597-21.699,9.676-28.902c-9.09,20.703-17.678,30.812-24.747,37.876c21.971,2.521,71.715-35.227,71.715-35.227
			S110.731,389.928,105.173,385.377z"/>
		<path d="M58.208,380.824c26.253-24.76,52.523-26.272,54.541-62.148C100.627,346.971,70.329,357.08,58.208,380.824z"/>
		<path d="M229.664,297.146c-2.518-0.529-7.104,1.71-7.077,5.669c0,3.201,0,5.975,0,10.67c0.787,0.446,3.779,0.952,6.538,1.04
			c0.05,0.725-2.085,5.273-6.538,5.025c0,6.718,0,10.879,0,16.69c0.568,0.483,3.54,1.264,7.036,1.382
			c0.055,0.729-2.71,5.768-7.036,4.95c0,2.526,0,3.128,0,4.596c0,0.288,0.017,0.552,0.039,0.794c0.02,0.169,0.047,0.316,0.068,0.479
			c0.001,0.01,0.002,0.026,0.002,0.041c0.637,3.93,4.069,5.05,6.191,3.787c6.823,0.322,29.49-0.018,29.898-0.01
			c1.266-2.206,6.139-4.345,7.989-5.205c0.645-0.015,1.005,0.01,1.503,0.01c0-0.663,0.011-49.91,0.011-49.91
			S234.802,297.126,229.664,297.146z M264.177,343.498c-1.435,0.918-4.367,2.188-5.246,3.273l-0.179-39.702
			c-3.384-0.014-5.09-0.009-8.076,0h-18.247c0.008,0.01,0.014,0.021,0.02,0.03c-1.122-0.007-2.253-0.016-3.409-0.03
			c0,0-2.951,0.502-2.809-2.865c0.079-1.873,1.652-3.04,3.197-2.821c0.59-0.018,32.38-0.03,34.791-0.009L264.177,343.498z"/>
		<path d="M297.671,415.63c2.758-6.83,9.751-10.683,19.821-11.498c-4.73-5.37-12.368-2.791-12.368-2.791s5.612-4.858,5.993-10.979
			c-5.993-1.067-11.868,4.045-11.868,4.045s3.099-6.378,1.142-12.437c-6.694,1.378-9.16,8.835-9.16,8.835s0.819-7.956-3.719-11.741
			c-0.003,0.006-0.009,0.021-0.012,0.029c0-0.009-0.004-0.023-0.009-0.029c-4.541,3.785-3.721,11.741-3.721,11.741
			s-2.466-7.448-9.152-8.835c-1.964,6.059,1.135,12.437,1.135,12.437s-5.875-5.112-11.865-4.045
			c0.377,6.129,5.99,10.987,5.99,10.987s-7.637-2.588-12.373,2.782c10.073,0.815,17.071,4.668,19.833,11.498H297.671z"/>
		<path d="M297.041,430.357c0.961,6.821,2.351,10.094,5.145,15.336c0.47,1.145-0.763,3.513-3.22,2.088
			c0,3.093-3.785,5.115-6.724,2.809c-0.695,3.977-4.73,3.329-4.73,3.329v-0.021c-0.009,0.009-0.021,0.023-0.021,0.023
			s-4.039,0.645-4.729-3.332c-2.938,2.307-6.728,0.284-6.728-2.809c-2.457,1.425-3.689-0.943-3.214-2.088
			c2.794-5.242,4.181-8.515,5.145-15.336H297.041z"/>
		<path d="M392.362,123.252c4.29-4.479,12.678-7.065,23.064-1.043c-10.576-0.219-13.474,4.32-13.414,8.359
			c0.127,8.39,5.993,15.706,13.79,23.037c-1.786,1.387-3.241,1.912-4.515,2.416c3.077,2.056,6.158,2.628,9.233,2.042
			c6.836,6.438,14.349,12.977,17.229,21.092c-0.94-6.603-4.991-15.482-12.587-22.464c3.072-1.365,5.446-3.35,6.28-4.687
			c4.793,9.723,22.971,29.674,49.743,24.119c-30.557-9.344-34.596-33.962-48.992-49.878c20.963,6.064,35.483,32.142,55.303,32.77
			c0.757-6.061,16.478-4.928,24.617-8.711c8.157-3.786,14.68-23.897-10.771-30.733c3.14,5.764,4.873,21.265-3.049,24.669
			c7.765-0.379,11.363-9.848,9.657-17.229c14.588,9.465,0.86,26.467-12.495,18.369c-17.803-10.801-24.245-16.1-42.553-22.164
			c7.578-2.645,25.25-4.036,34.594,2.53c-4.16-11.744-10.352-13.893-16.664-14.647c3.79-3.791,7.956-24.756-15.156-31.195
			c9.852,4.799,10.23,28.799-12.113,29.17c-11.496,0.2-28.837-0.841-42.234,1.836c-17.007,3.389-21.596,17.988-13.828,28.976
			C386.183,134.355,388.074,127.731,392.362,123.252z M418.922,151.158c-3.876-3.713-7.85-8.233-10.026-12.591
			c-3.689-7.445-1.229-13.963,10.387-12.293C423.366,132.701,425.128,143.87,418.922,151.158z"/>
		<path d="M62.877,150.304c8.146,3.783,23.862,2.654,24.622,8.711c19.818-0.628,34.344-26.706,55.301-32.77
			c-14.396,15.916-18.436,40.534-48.986,49.878c26.767,5.556,44.944-14.396,49.74-24.115c0.834,1.333,3.205,3.317,6.28,4.683
			c-7.601,6.982-11.648,15.861-12.589,22.464c2.88-8.116,10.395-14.651,17.232-21.092c3.07,0.59,6.161,0.014,9.233-2.042
			c-1.854-0.735-3.171-1.361-4.517-2.416c7.532-7.233,13.979-14.502,13.727-23.541c-0.126-4.471-3.987-8.103-13.354-7.856
			c19.914-11.192,30.763,6.595,27.929,17.677c7.768-10.988,3.179-25.586-13.825-28.976c-13.4-2.677-30.741-1.636-42.236-1.836
			c-22.351-0.371-21.966-24.372-12.117-29.17c-23.108,6.444-18.942,27.408-15.154,31.195c-6.312,0.754-12.501,2.903-16.667,14.647
			c9.345-6.562,27.02-5.175,34.595-2.53c-18.304,6.064-24.744,11.367-42.548,22.164c-13.357,8.098-27.082-8.904-12.504-18.369
			c-1.699,7.382,1.899,16.85,9.663,17.229c-7.953-3.218-6.092-19.347-3.064-24.646C48.281,126.407,54.732,146.519,62.877,150.304z
			 M155.718,126.273c11.607-1.67,14.073,4.848,10.378,12.293c-2.171,4.358-6.145,8.878-10.023,12.591
			C149.87,143.87,151.634,132.701,155.718,126.273z"/>
		<path d="M279.446,77.469c0,0-1.076-2.079-2.243-2.079c-1.169,0-2.079,2.11-2.079,2.11s1.63,1.85,2.079,3.099
			C278.181,78.669,279.446,77.469,279.446,77.469z"/>
		<path d="M271.141,73.906c0.036,0.289,1.015,0.461,1.078,0.692c0.809,3.107,2.986,1.176,3.344-0.062
			C274.523,73.382,272.472,72.453,271.141,73.906z"/>
		<path d="M282.017,74.694c0.062-0.233,1.038-0.402,1.075-0.698c-1.323-1.454-3.173-0.735-4.423,0.631
			C279.021,75.868,281.208,77.801,282.017,74.694z"/>
		<path d="M512.75,395.858c-0.479,7.014,0.585,17.918,9.668,28.894c-6.528-2.744-24.907-10.526-30.12-20.304
			c-11.017-7.396-18.766-12.978-22.474-19.071c-5.55,4.548-4.039,13.131-4.039,13.131s49.747,37.748,71.715,35.227
			C530.428,426.67,521.842,416.562,512.75,395.858z"/>
		<path d="M257.698,222.202c15.781,6.694,29.793,16.92,29.793,16.92l0.009-0.006l0.012,0.006c0,0,14.012-10.226,29.785-16.92
			c-13.879-0.499-29.785,10.957-29.785,10.957l-0.012,0.013l-0.009-0.013C287.491,233.159,271.587,221.703,257.698,222.202z"/>
		<path d="M516.788,380.824c-12.119-23.747-42.416-33.854-54.542-62.151C464.274,354.552,490.533,356.064,516.788,380.824z"/>
	</g>
	<path d="M300.335,423.122c0,1.881-1.526,3.406-3.406,3.406h-18.545c-1.881,0-3.406-1.525-3.406-3.406l0,0
		c0-1.88,1.525-3.406,3.406-3.406h18.545C298.809,419.716,300.335,421.242,300.335,423.122L300.335,423.122z"/>
	<path d="M431.932,226.407"/>
	<path d="M315.576,297.241c-2.516-0.531-7.102,1.709-7.075,5.668c0,3.2,0,5.976,0,10.669c0.786,0.446,3.778,0.952,6.537,1.042
		c0.051,0.725-2.084,5.272-6.537,5.023c0,6.718,0,10.88,0,16.69c0.567,0.485,3.539,1.266,7.034,1.381
		c0.056,0.73-2.709,5.769-7.034,4.953c0,2.524,0,3.125,0,4.595c0,0.288,0.015,0.553,0.038,0.794
		c0.019,0.167,0.048,0.316,0.068,0.477c0,0.013,0.003,0.027,0.003,0.042c0.636,3.931,4.068,5.053,6.191,3.787
		c6.821,0.322,29.49-0.015,29.898-0.009c1.265-2.205,6.138-4.346,7.988-5.205c0.645-0.014,1.006,0.011,1.502,0.011
		c0-0.663,0.012-49.912,0.012-49.912S320.715,297.217,315.576,297.241z M350.09,343.592c-1.434,0.918-4.367,2.188-5.245,3.272
		l-0.181-39.7c-3.382-0.016-5.088-0.011-8.074,0h-18.249c0.009,0.009,0.015,0.021,0.021,0.029c-1.123-0.008-2.253-0.017-3.409-0.029
		c0,0-2.95,0.502-2.809-2.867c0.08-1.873,1.652-3.039,3.196-2.822c0.591-0.015,32.382-0.029,34.791-0.007L350.09,343.592z"/>
	<path d="M442.351,359.488c17.409,0.086,27.217,15.502,30.504,17.424c0.057-1.668,1.544-2.836,5.672-1.732
		c19.363,5.174,45.098,26.179,53.924,32.926c0.503-15.528-11.617-90.441-77.776-120.243c57.576,36.883,68.303,96.249,70.322,105.85
		c-15.149-14.91-30.17-23.373-52.898-36.002c-6.569-0.763-30.998-9.666-45.192-22.501c-11.881-4.023-19.328-22.219-11.753-36.991
		c-13.485,8.809-7.812,26.05-6.818,29.177c-17.358-12.042-22.835-32.889-16.98-45.916c12.569-26.692,60.523-37.157,68.362-62.675
		c5.286-17.188-14.894-24.244-28.429-22.115c-0.175-1.27-0.535-3.188-1.614-3.785c-4.081,13.681-20.869,17.037-34.186,10.921
		c-3.238-5.763,1.951-7.823,5.517-9.121c1.322-0.477,10.668,3.115,11.987-4.916c3.725-0.36,7.56-1.321,8.882-2.876
		c-3.48,0.114-10.293-1.221-14.876-0.363c-5.156,0.957-5.871,2.282-6.96,4.794c-0.937,2.205-2.616-0.997-6.351-2.037
		c3.959-4.317,14.922-12.612,36.997-4.09c26.262,0.249,38.638,10.792,41.414,22.719c8.329,35.86-51.012,52.781-54.042,74.497
		c11.365-1.642,20.203-0.247,28.535,1.89c-2.649-2.015-8.584-5.672-17.424-7.444c3.418-11.019,35.058-24.742,45.701-46.018
		c9.819-0.474,19.898,1.631,25.893,9.02c-3.883-10.566-13.596-13.385-24.159-13.088c1.499-4.123,2.214-8.519,1.877-13.212
		c9.532,1.633,16.268,5.184,21.428,10.014c8.896,8.34,4.36,25.604-8.998,27.182c-10.413,1.228-15.247-5.404-14.954-9.941
		c-7.836,15.146,9.018,24.302,9.018,24.302s-12.247,32.324,21.844,41.036c-17.424-12.118-13.255-32.959-4.163-43.56
		c9.086-10.609,15.044-23.866,5.267-37.617c-4.87-6.849-14.781-13.56-30.064-15.849c-3.335-16.037-16.959-26.066-45.223-28.25
		c-17.202-25.112-62.011-27.683-66.339-49.531c3.024,3.979,10.034,7.386,19.124,7.955c-10.414-3.222-19.787-14.42-24.843-21.239
		c-10.407,36.9,51.337,43.553,66.315,61.375c-25.146-7.78-36.984,8.679-36.984,8.679s-7.916,0.18-6.893,8.851
		c-1.81,3.004-6.152,5.02-10.452,6.697c-0.041-2.105,0.083-4.29,0.225-6.463h0.213c2.283,0,4.134-1.848,4.134-4.133
		c0-2.236-1.771-4.045-3.977-4.123c1.035-12.18,12.113-10.362,17.013-8.77c-3.604-11.316-17.099-8.234-17.099-8.234
		s1.668-14.912-5.535-20.05c-7.199,5.138-5.522,20.05-5.522,20.05s-13.504-3.082-17.102,8.234c4.898-1.593,15.978-3.411,17.016,8.77
		c-2.215,0.078-3.983,1.887-3.983,4.123c0,2.286,1.852,4.133,4.134,4.133h0.219c0.535,8.492,0.899,17.236-8.512,20.513
		c5.759,3.074,11.51,0.698,13.751-2.683c2.244,3.381,8.004,5.757,13.764,2.683c-4.615-1.604-6.877-4.523-7.924-8.078
		c6.531-0.837,12.436,0,19.236-1.278c5.39,1.801,26.622,7.315,38.62-8.277c1.067-0.085,2.135-0.147,3.173-0.188
		c-0.308,10.187-6.655,18.675-14.583,23.432c-12.619,7.58-42.423,13.503-61.105,1.894c-11.738-7.299-20.688-23.165-34.614-32.948
		c4.462-0.541,6.871-3.428,7.648-6.463c1.053-4.1-0.597-9.359-4.849-12.603l0.057-40.092v-13.133l-2.928,1.527l-4.65-25.08v-0.777
		c0.922-0.298,1.591-1.152,1.591-2.188c0-1.267-1.023-2.303-2.277-2.303c-1.256,0-2.273,1.036-2.273,2.303
		c0,1.055,0.695,1.93,1.635,2.207v0.771l-4.639,25.059l-2.924-1.519v10.546h-0.019v6.819h-0.727
		c-1.751-4.022-3.519-8.339-6.346-16.041c1.328,1.14,5.305,3.223,6.251,3.415c-3.596-12.5-7.141-33.927-20.579-41.796
		c-0.547-0.325-1.736-1.61-1.643-4.044c0.104-2.439,0.219-7.195-2.08-9.855c-1.835-2.122-5.281-2.759-8.146-2.841
		c-2.402-0.075-4.475,0.215-6.5,1.45c-5.809,3.541-4.169,14.271-4.169,14.271s-1.27,4.741-1.27,6.767
		c-7.822,10.86,5.182,20.993,9.354,24.877c1.102,8.456,1.514,8.897,2.268,13.446c-0.189,1.63-1.097,7.5-3.478,10.352h-8.879
		l-0.018-17.362l-2.927,1.523l-4.648-25.067v-0.771c0.949-0.277,1.645-1.148,1.645-2.207c0-1.267-1.021-2.303-2.275-2.303
		c-1.261,0-2.275,1.036-2.275,2.303c0,1.036,0.668,1.895,1.585,2.191v0.787l-4.633,25l-2.945-1.457v10.543v0.098v2.489h0.003
		l0.057,40.092c-4.249,3.244-5.905,8.503-4.853,12.603c0.781,3.04,3.192,5.928,7.649,6.463
		c-13.92,9.784-22.873,25.649-34.614,32.948c-18.684,11.609-48.483,5.687-61.105-1.894c-7.928-4.757-14.256-13.245-14.574-23.432
		c1.041,0.04,2.1,0.105,3.168,0.193c11.996,15.59,33.224,10.073,38.622,8.275c6.798,1.274,12.702,0.438,19.235,1.278
		c-1.053,3.551-3.313,6.471-7.929,8.074c5.767,3.074,11.521,0.698,13.76-2.683c2.248,3.381,7.995,5.757,13.761,2.683
		c-9.423-3.276-9.054-12.017-8.515-20.508h0.219c2.282,0,4.133-1.849,4.133-4.138c0-2.236-1.768-4.042-3.98-4.123
		c1.036-12.176,12.116-10.362,17.017-8.77c-3.601-11.316-17.102-8.234-17.102-8.234s1.674-14.912-5.532-20.05
		c-7.199,5.138-5.528,20.05-5.528,20.05s-13.499-3.082-17.097,8.234c4.897-1.593,15.976-3.407,17.013,8.77
		c-2.209,0.082-3.98,1.887-3.98,4.123c0,2.289,1.847,4.138,4.139,4.138h0.213c0.143,2.171,0.266,4.353,0.219,6.458
		c-4.293-1.677-8.64-3.693-10.443-6.697c1.013-8.671-6.901-8.851-6.901-8.851s-11.835-16.459-36.982-8.679
		c14.979-17.818,76.536-24.287,66.317-61.375c-5.047,6.819-14.429,18.021-24.844,21.239c9.089-0.569,16.1-3.977,19.127-7.955
		c-4.334,21.845-49.289,24.516-66.503,49.603c-27.984,1.931-41.962,12.411-45.055,28.18c-16.889,2.697-25.262,9.391-29.818,15.596
		c-10.162,13.838-4.075,27.26,5.015,37.869c9.091,10.601,13.257,31.441-4.164,43.56c34.088-8.712,21.841-41.03,21.841-41.03
		s16.856-9.161,9.027-24.308c0.289,4.541-4.545,11.169-14.961,9.941c-13.35-1.578-17.904-18.848-8.995-27.182
		c5.025-4.701,11.867-8.397,21.411-10.031c-0.349,4.702,0.382,9.108,1.881,13.238c-10.567-0.296-20.271,2.509-24.147,13.084
		c5.987-7.394,16.072-9.495,25.892-9.02c10.65,21.269,42.284,34.998,45.702,46.013c-8.843,1.772-14.776,5.43-17.429,7.444
		c8.341-2.137,17.174-3.527,28.538-1.89c-3.026-21.712-62.371-38.637-54.039-74.492c2.771-11.931,15.149-22.475,41.408-22.724
		c22.074-8.522,33.041-0.227,37,4.09c-3.731,1.044-5.414,4.242-6.359,2.041c-1.076-2.517-1.795-3.842-6.957-4.798
		c-4.577-0.857-11.389,0.477-14.873,0.363c1.322,1.555,5.163,2.516,8.879,2.876c1.325,8.034,10.671,4.438,11.996,4.916
		c3.561,1.297,8.752,3.357,5.516,9.121c-13.315,6.116-30.109,2.759-34.185-10.921c-1.079,0.597-1.439,2.516-1.617,3.785
		c-13.535-2.128-33.718,4.933-28.435,22.115c7.848,25.521,56.065,36.298,68.631,62.99c3.9,10.252,3.9,27.408-14.86,44.158
		c-1.442,0.981-2.383,1.442-2.383,1.442s7.196-20.465-6.816-29.177c7.578,14.772,0.125,32.968-11.758,36.991
		c-14.188,12.835-38.62,21.742-45.187,22.501c-22.726,12.629-37.753,21.092-52.901,36.002c2.02-9.601,12.752-68.967,70.325-105.85
		C54.164,317.664,42.044,392.58,42.55,408.108c40.55-32.551,60.229-36.839,59.596-31.196c5.175-4.128,13.676-17.099,30.303-17.438
		c9.312-0.19-1.378,12.244-4.799,19.463c-7.202,15.153-10.225,24.242-9.849,28.789c0.44,5.34-5.807,3.025-7.069-2.646
		c0,2.398-0.506,3.028-0.506,7.07c0,4.032,9.092,15.02,9.849,25.371c6.307-1.266,6.501,2.848,17.608,3.35
		c0.073,0,0.141,0,0.21,0.003c-16.064,9.278-30.907,17.619-40.571,20.55c-4.798,1.448-10.113,2.85-15.154,3.438
		c1.854-3.87,4.581-7.037,7.858-8.841c-5.678-9.284-14.015-17.234-22.604-21.909c-15.147-0.378-23.736,25.253-13.632,33.843
		c6.449,0.76,19.453,22.364,31.1,30.507c2.915,2.279,6.558,3.693,11.296,3.693c1.841,0,3.847-0.21,6.039-0.663
		c18.438-3.799,39.307-15.931,61.408-28.771c23.242-13.494,47.079-27.344,67.604-30.616c3.814,7.268-9.808,15.022-14.701,16.892
		c-3.068,1.159-8.759,1.476-6.364,4.42c0.305,0.391,0.583,0.736,0.828,1.041c7.377,9.261,14.688,19.65,21.196,35.276l0.246,0.595
		l0.526,0.375c7.338,5.254,36.661,8.013,54.493,8.107c0.015,0,0.026,0,0.038,0c0.017,0,0.025,0,0.043,0
		c17.83-0.095,47.184-2.715,55.037-8.438c5-12.158,10.644-22.519,22.211-36.923c0.479-0.598,0.7-1.08,0.614-1.49
		c-0.343-1.642-4.494-2.037-6.945-2.963c-4.896-1.869-18.509-9.624-14.703-16.892c20.525,3.272,44.362,17.122,67.61,30.616
		c22.09,12.838,42.97,24.973,61.399,28.771c2.193,0.453,4.198,0.66,6.043,0.66c4.73,0,8.365-1.398,11.277-3.679
		c11.649-8.137,24.664-29.759,31.125-30.521c10.097-8.587,1.511-34.218-13.64-33.84c-8.589,4.675-16.924,12.625-22.604,21.909
		c3.282,1.804,6.011,4.971,7.861,8.841c-5.041-0.589-10.354-1.99-15.155-3.438c-9.657-2.931-24.509-11.271-40.569-20.55
		c0.074-0.003,0.13-0.003,0.21-0.003c11.108-0.508,11.301-4.615,17.607-3.35c0.754-10.352,9.854-21.339,9.854-25.371
		c0-4.042-0.509-4.672-0.503-7.073c-1.271,5.675-7.521,7.983-7.075,2.649c0.379-4.547-2.649-13.636-9.852-28.795
		c-1.712-3.607-6.085-9.675-7.599-13.459C438.711,362.88,437.549,359.465,442.351,359.488z M439.004,199.925
		c6.056,0.297,11.25,1.867,14.656,5.994c0.854,1.044,1.321,1.942,1.78,3.181c-5.84,0.892-11.786,2.79-18.107,5.424
		C438.723,209.717,439.275,204.744,439.004,199.925z M435.71,219.189c6.614-3.212,13.669-5.15,20.649-6.034
		c0.198,5.624-3.128,12.396-10.783,19.027c-0.438,0.379-0.919,0.767-1.445,1.169c-13.781,4.419-27.119,9.672-37.184,10.949
		C421.695,240.954,431.932,226.407,435.71,219.189z M325.251,230.986c12.994,18.733,33.239,39.233,58.46,29.987
		c-19.984-1.729-29.248-14.396-31.676-21.952c7.623,4.801,20.312,10.414,34.683,11.14c15.274,0.763,29.709-3.027,41.325-6.842
		c-24.2,14.087-59.456,35.293-43.566,64.747c1.514,11.62,7.063,22.734,11.108,31.326c4.038,8.591,9.092,14.657,11.105,17.176
		c2.021,2.532,3.408,13.146-9.719,12.129c-13.131-1.006-14.882-2.782-17.806-8.459c-4.29-8.342-0.503-16.925-2.779-19.961
		c-2.753-3.664-2.265-11.191-4.793-14.023c-0.57-0.627-1.549-1.479-2.54-1.783c0.006-11.149,0-20.988-0.006-31.124
		c-0.012-7.015-0.012-14.225-0.012-22.169v-2.638l-2.637-0.013c-4.5-0.021-15.402-0.016-25.047-0.008
		c-1.801-3.124-8.802-11.262-19.967-12.587C320.251,252.021,322.663,238.808,325.251,230.986z M363.688,350.727
		c-0.012,3.621-0.026,7.409-0.05,11.391c-0.045,9.46-3.427,20.247-8.873,31.237l-58.416-42.412v-50.266
		c3.648-2.144,7.268-5.061,10.153-7.826l1.739-1.665l-1.757-1.638c-2.141-1.993-2.161-4.213-1.795-5.729
		c0.606-2.552,2.721-4.831,5.13-5.521c1.996-0.578,3.938,0,5.642,1.652l2.066,2.024l1.479-2.488c1.517-2.572,3.294-4.365,5.133-5.64
		c2.836-0.007,28.748-0.047,39.6-0.023c0,6.917,0.003,13.302,0.006,19.531c0.012,14.521,0.026,28.455-0.021,46.494
		c-1.145,0.136-3.117,0.438-5.518,2.199C360.761,343.189,362.443,346.659,363.688,350.727z M287.5,465.314
		c-17.353-7.759-41.905-31.279-58.4-56.564l58.403-42.38l58.392,42.38C329.401,434.035,304.855,457.556,287.5,465.314z
		 M319.952,447.979c0.757,6.597,7.519,14.266,11.186,17.982c-12.454,1.321-25.779,1.913-37.382,2.149
		C301.712,463.756,310.852,456.695,319.952,447.979z M287.512,468.209l-0.012,0.051l-0.009-0.051l0.009-0.023L287.512,468.209z
		 M281.25,468.111c-11.603-0.236-24.934-0.828-37.391-2.149c3.665-3.717,10.432-11.386,11.18-17.982
		C264.151,456.695,273.295,463.756,281.25,468.111z M211.273,339.849c-0.046-18.039-0.032-31.974-0.021-46.494
		c0.003-6.229,0.009-12.614,0.009-19.531c10.853-0.023,36.764,0.02,39.597,0.023c1.839,1.274,3.617,3.067,5.135,5.64l1.473,2.496
		l2.071-2.032c1.702-1.652,3.653-2.23,5.646-1.652c2.413,0.69,4.519,2.97,5.131,5.521c0.363,1.516,0.34,3.735-1.791,5.729
		l-1.758,1.638l1.736,1.665c2.887,2.773,6.516,5.688,10.168,7.841v50.241l-58.437,42.422c-5.446-10.99-8.832-21.777-8.878-31.237
		c-0.018-3.981-0.03-7.77-0.045-11.391c1.241-4.067,2.928-7.537,5.481-8.679C214.39,340.286,212.416,339.984,211.273,339.849z
		 M261.148,216.174c2.471,0.694,4.502,1.273,5.294,1.497c12.302,3.745,21.049,8.193,21.049,8.193l0.009-0.047l0.012,0.047
		c0,0,8.739-4.448,21.042-8.193c0.796-0.224,2.83-0.803,5.305-1.497c0.68-0.184,1.357-0.36,2.058-0.536
		c-0.023-0.012-0.044-0.023-0.067-0.031c0.251-0.074,0.505-0.145,0.757-0.215c1.044-0.301,4.143-3.138,5.021-7.146
		c-0.523,9.92-2.232,19.505-3.637,27.407c-1.627,9.147-2.854,16.163-2.049,20.984c-2.868,0.855-5.396,2.062-7.658,3.518
		c-5.299,3.633-9.24,7.944-11.103,9.938c-3.433,3.668-6.419,6.845-9.68,7.839c-3.263-0.994-6.247-4.171-9.68-7.839
		c-1.863-1.993-12.05-12.107-18.761-13.455c0.8-4.821-0.427-11.837-2.051-20.984c-1.402-7.902-3.111-17.487-3.638-27.407
		c0.874,4.009,3.979,6.846,5.023,7.146c0.25,0.075,0.506,0.141,0.754,0.215c-0.021,0.008-0.044,0.024-0.065,0.035
		C259.782,215.813,260.467,215.994,261.148,216.174z M258.25,261.104c7.069,2.294,11.938,7.476,16.259,12.095
		c3.842,4.106,7.486,7.991,12.134,9.206c0.204,0.074,0.394,0.126,0.562,0.141c0.082,0.017,0.181,0.024,0.305,0.024
		c0.112,0,0.201-0.008,0.283-0.018c0.173-0.021,0.37-0.073,0.583-0.147c4.639-1.22,8.278-5.1,12.119-9.206
		c4.255-4.54,9.021-9.633,15.904-11.977c1.333-0.508,2.167-0.508,2.167-0.508c6.528,0.526,10.981,3.343,13.689,5.79
		c-4.988,0.309-11.188,2.385-15.741,8.522c-2.437-1.504-5.187-1.901-7.96-1.104c-3.962,1.152-7.294,4.699-8.287,8.842
		c-0.698,2.943-0.154,5.855,1.52,8.266c-5.28,4.71-10.833,7.959-14.286,8.304c-3.453-0.351-9-3.594-14.28-8.304
		c1.664-2.41,2.216-5.322,1.52-8.266c-0.993-4.143-4.324-7.689-8.291-8.834c-2.773-0.805-5.525-0.407-7.962,1.101
		c-4.555-6.142-10.763-8.218-15.743-8.522c2.707-2.451,7.163-5.26,13.688-5.794C256.432,260.714,256.881,260.662,258.25,261.104z
		 M286.867,303.834l-0.115,0.062l-0.147-0.098C286.693,303.813,286.782,303.83,286.867,303.834z M314.447,173.474
		c2.527,0.579,4.893,1.218,6.93,1.899c4.604,1.536,6.81,6.065,5.97,9.328c-0.63,2.438-2.847,3.489-6.235,3.028
		c-4.098-4.107-3.456-9.928-8.065-14.571C313.309,173.215,314.447,173.474,314.447,173.474z M316.591,199.862
		c0.331,2.893,1.815,10.656-6.878,11.95c-0.981-0.571-2.046-1.137-3.264-1.723c-10.984,0.945-18.938,5.837-18.938,5.837
		l-0.012,0.048l-0.009-0.044c0,0-7.95-4.896-18.938-5.841c-1.218,0.586-2.278,1.151-3.262,1.723
		c-4.822-0.377-8.605-4.289-6.883-11.95c4.149-5.76,9.068-9.608,16.354-11.469c3.161-0.484,6.456-0.854,10.271-1.054
		c0.193,3.145,0.949,14.415,2.42,25.263c0.014,0.13,0.028,0.258,0.037,0.387c0.005-0.016,0.009-0.034,0.009-0.051
		c0.003,0.017,0.009,0.035,0.012,0.051c0.009-0.129,0.021-0.257,0.039-0.382c1.469-10.853,2.226-22.13,2.421-25.268
		c3.813,0.194,7.104,0.57,10.269,1.054C307.528,190.253,312.439,194.102,316.591,199.862z M309.32,185.345
		c-1.993-0.508-4.093-0.879-6.283-1.101c-1.878-0.325-3.775-0.61-5.769-0.849c-4.411-3.672-4.793-9.722-11.17-13.188
		c0.5-0.011,0.99-0.015,1.476-0.015c4.015,0.011,8.579,0.35,13.189,0.909C306.174,175.42,306.57,181.88,309.32,185.345z
		 M288.886,137.363c-0.535-0.36-0.935-0.854-0.875-1.489c0.436-4.385,0.745-6.976,0.745-6.976s1.763-1.322,3.472-2.654
		c1.289,1.864,3.264,6.178,5.349,11.118H288.886z M297.801,152.939c0,0,0.006,0.016,0.006,0.02c0.053,0.027,4.917,2.341,4.982,5.392
		c0.07,3.522,0.103,6.506,0.115,8.429c-3.451-0.457-6.907-0.789-10.198-0.973c0.015-1.892,0.045-4.49,0.106-7.471
		C292.875,155.264,297.801,152.939,297.801,152.939z M269.311,82.682c-0.248-3.916-0.564-9.346,2.468-12.571
		c1.447-1.32,3.47-1.195,5.425-1.235c2.116-0.034,3.956,0.525,4.862,1.427c2.652,2.653,2.022,9.988,2.301,11.336
		c0.352,1.676,1.324,2.278,1.896,2.842c14.327,9.253,19.365,34.621,19.365,34.621s-26.212-14.442-23.688-30.101
		c-6.186,5.556-2.476,15.429,1.262,19.319c3.736,3.89,10.109,9.883,10.109,9.883s-0.506,3.784-6.058,6.434
		c-0.09-0.356-0.722-2.093-1.119-3.667c-2.538,2.279-5.584,3.388-5.584,3.388s-0.498-1.634-1.079-5.784l-0.038,0.007l-1.255-8.323
		C264.505,99.711,268.064,87.374,269.311,82.682z M283.118,137.363h-2.48l-0.813-1.36c0,0-1.043-5.459,0.477-6.85
		c1.39-1.009,4.417-2.782,4.417-2.782S285.292,131.998,283.118,137.363z M272.216,158.351c0.063-3.047,4.924-5.365,4.981-5.392
		c0-0.004,0.005-0.02,0.005-0.02s4.926,2.325,4.989,5.397c0.058,2.985,0.093,5.579,0.105,7.471
		c-3.29,0.184-6.751,0.516-10.196,0.973C272.11,164.857,272.145,161.873,272.216,158.351z M274.7,171.043
		c5.776,2.926,7.575,8.503,10.369,11.746c-4.095,0.2-7.604,0.594-10.945,1.103c-4.684-2.755-6.191-8.214-12.268-10.71
		C265.893,172.294,270.315,171.566,274.7,171.043z M247.646,184.701c-0.703-2.755,0.772-6.388,4.016-8.382
		c5.369,2.451,7.865,7.46,11.194,9.699c-2.543,0.52-5.262,1.067-8.347,1.634C250.751,188.338,248.315,187.292,247.646,184.701z
		 M121.334,205.919c3.412-4.121,8.603-5.694,14.656-5.994c-0.266,4.819,0.284,9.792,1.678,14.6
		c-5.89-2.775-12.303-4.536-18.142-5.424C119.984,207.862,120.477,206.963,121.334,205.919z M129.415,232.183
		c-7.644-6.619-10.973-13.391-10.777-19.018c6.98,0.882,14.034,2.812,20.652,6.024c0.343,0.824,10.418,20.629,28.766,25.111
		c-10.064-1.273-23.399-6.519-37.175-10.938C130.343,232.962,129.859,232.562,129.415,232.183z M168.301,356.571
		c2.022-2.521,7.073-8.588,11.114-17.179c4.042-8.592,9.597-19.706,11.108-31.326c15.737-29.182-18.392-50.051-43.969-64.968
		c42.764,14.963,65.095,2.649,76.385-4.101c-1.872,7.391-12.21,20.461-31.656,21.976c31.538,11.181,53.545-23.679,58.59-29.985
		c3.532,11.858,4.543,21.547,3.815,24.946c-12.016,1.419-18.166,9.935-19.957,12.585c-1.709-0.002-20.382-0.015-25.134,0.008
		l-2.638,0.017v2.638c0,7.94-0.007,15.15-0.012,22.165c-0.013,10.136-0.015,19.975-0.009,31.127
		c-0.984,0.309-1.969,1.153-2.533,1.78c-2.531,2.832-2.043,10.359-4.801,14.023c-2.273,3.036,1.519,11.619-2.774,19.961
		c-2.924,5.677-4.675,7.453-17.807,8.465C164.896,369.714,166.282,359.101,168.301,356.571z M126.511,423.643
		c-2.271-6.824-1.135-18.562,2.401-25.135c2.397-4.459,7.823-11.759,11.852-15.36c0.772-0.697,1.97-1.644,3.587-3.119
		c2.046,1.65,2.046,4.11,5.646,5.725c2.914,1.307,16.546-7.072,42.802-8.841c0.757-3.794,8.584-6.323,13.388-8.085
		c0.113-0.039,0.222-0.121,0.331-0.219c1.617,12.461,7.409,25.249,13.97,36.312c-11.546-1.197-28.913,6.221-47.983,16.371
		c-1.764-1.555-5.981-4.391-9.752-0.178c-3.284,1.769-11.86,6.76-20.708,9.083C131.248,433.048,127.801,427.498,126.511,423.643z
		 M161.353,468.791c-21.767,12.646-42.334,24.595-60.044,28.249c-6.591,1.362-11.016,0.245-14.398-2.804
		c-1.157-1.144-2.17-2.359-3.037-3.618c-0.03-0.042-0.065-0.092-0.094-0.148c-0.119-0.162-0.226-0.343-0.338-0.517
		c-0.511-0.825-0.994-1.707-1.47-2.641c-2.732-5.748-2.986-12.138-1.524-17.743c6.077-0.426,12.484-2.07,18.195-3.8
		c11.143-3.37,28.299-13.302,46.463-23.816c1.18-0.683,2.375-1.374,3.572-2.066c2.294-0.49,3.294-0.656,3.971,0.984
		c3.094-1.83,3.222-3.409,3.599-4.733c3.03-1.712,6.63-4.166,8.143-2.087c0.716-1.683,0.804-2.776,0.667-3.495
		c23.998-13.364,48.225-24.958,58.842-20.129c4.131,6.395,8.325,12.001,11.779,16.335c2.827,3.542,5.763,6.987,8.755,10.293
		C219.976,434.742,190.216,452.03,161.353,468.791z M356.181,466.429c-6.381,9.134-12.61,17.779-18.229,31.188
		c-6.495,3.829-31.367,6.567-50.452,6.665c-19.085-0.098-43.963-2.836-50.453-6.665c-5.62-13.408-11.848-22.054-18.229-31.181
		c18.79,4.783,46.271,5.735,68.674,5.972l0.009-0.044l0.012,0.044C309.908,472.171,337.391,471.219,356.181,466.429z
		 M476.358,465.77c5.707,1.729,12.117,3.374,18.195,3.8c1.464,5.614,1.204,12.007-1.537,17.758c-0.467,0.919-0.949,1.783-1.437,2.59
		c-0.137,0.195-0.246,0.394-0.376,0.586c-0.021,0.035-0.041,0.062-0.059,0.097c-0.867,1.263-1.893,2.487-3.049,3.637
		c-3.389,3.043-7.812,4.16-14.408,2.804c-17.71-3.654-38.271-15.603-60.047-28.249c-28.863-16.761-58.617-34.049-83.081-31.736
		c2.995-3.306,5.929-6.751,8.758-10.293c3.457-4.34,7.649-9.943,11.779-16.345c10.618-4.819,34.839,6.774,58.845,20.139
		c-0.142,0.719-0.051,1.812,0.668,3.495c1.511-2.082,5.112,0.375,8.143,2.087c0.373,1.324,0.497,2.903,3.59,4.733
		c0.686-1.641,1.68-1.475,3.971-0.984c1.2,0.689,2.395,1.384,3.575,2.066C448.054,452.468,465.215,462.399,476.358,465.77z
		 M446.088,398.508c3.533,6.572,4.663,18.311,2.396,25.126c-1.29,3.864-4.737,9.414-15.529,6.563
		c-8.844-2.323-17.424-7.314-20.709-9.083c-3.767-4.216-7.988-1.377-9.754,0.169c-19.064-10.142-36.441-17.56-47.981-16.362
		c6.559-11.063,12.354-23.857,13.971-36.312c0.109,0.098,0.216,0.18,0.331,0.219c4.805,1.762,12.631,4.291,13.388,8.085
		c26.259,1.769,39.499,9.955,42.523,8.93c3.53-1.201,4.542-5.236,6.056-5.742c1.561,1.422,2.699,2.368,3.453,3.048
		C438.259,386.749,443.685,394.049,446.088,398.508z"/>
</g>
</svg>
