<?xml version="1.0" encoding="utf-8"?>
<!-- Generator: Adobe Illustrator 15.1.0, SVG Export Plug-In . SVG Version: 6.00 Build 0)  -->
<!DOCTYPE svg PUBLIC "-//W3C//DTD SVG 1.1//EN" "http://www.w3.org/Graphics/SVG/1.1/DTD/svg11.dtd">
<svg version="1.1" id="Layer_1" xmlns="http://www.w3.org/2000/svg" xmlns:xlink="http://www.w3.org/1999/xlink" x="0px" y="0px"
	 width="575px" height="575px" viewBox="0 0 575 575" enable-background="new 0 0 575 575" xml:space="preserve">
<g>
	<g>
		<path d="M105.173,385.378c-3.713,6.091-11.457,11.685-22.474,19.067c-3.156,6.307-13.981,13.755-30.127,20.315
			c8.326-9.84,10.597-21.699,9.676-28.901c-9.09,20.703-17.678,30.809-24.748,37.875c21.971,2.522,71.715-35.226,71.715-35.226
			S110.731,389.928,105.173,385.378z"/>
		<path d="M58.208,380.824c26.253-24.762,52.523-26.272,54.541-62.149C100.627,346.971,70.33,357.079,58.208,380.824z"/>
		<path d="M229.665,297.147c-2.518-0.532-7.104,1.708-7.077,5.668c0,3.198,0,5.975,0,10.667c0.786,0.447,3.778,0.952,6.537,1.044
			c0.051,0.725-2.084,5.271-6.537,5.023c0,6.718,0,10.878,0,16.69c0.567,0.485,3.539,1.266,7.035,1.381
			c0.055,0.73-2.71,5.769-7.035,4.953c0,2.524,0,3.125,0,4.594c0,0.287,0.017,0.554,0.038,0.793c0.02,0.168,0.048,0.316,0.068,0.479
			c0.002,0.012,0.003,0.027,0.003,0.042c0.636,3.929,4.068,5.053,6.191,3.787c6.822,0.322,29.49-0.015,29.898-0.009
			c1.265-2.206,6.138-4.347,7.988-5.207c0.645-0.012,1.006,0.012,1.504,0.012c0-0.662,0.011-49.911,0.011-49.911
			S234.802,297.123,229.665,297.147z M264.177,343.496c-1.434,0.92-4.367,2.188-5.245,3.273l-0.179-39.7
			c-3.384-0.015-5.09-0.012-8.076,0H232.43c0.007,0.009,0.013,0.021,0.019,0.03c-1.122-0.009-2.253-0.019-3.409-0.03
			c0,0-2.95,0.503-2.809-2.867c0.08-1.872,1.653-3.04,3.198-2.821c0.59-0.015,32.38-0.029,34.791-0.009L264.177,343.496z"/>
		<path d="M297.672,415.631c2.757-6.83,9.751-10.683,19.82-11.502c-4.729-5.366-12.366-2.788-12.366-2.788s5.611-4.857,5.991-10.98
			c-5.991-1.067-11.866,4.047-11.866,4.047s3.099-6.38,1.141-12.438c-6.693,1.381-9.159,8.838-9.159,8.838s0.818-7.957-3.72-11.744
			c-0.003,0.009-0.009,0.023-0.012,0.032c0-0.009-0.005-0.023-0.009-0.032c-4.542,3.787-3.722,11.744-3.722,11.744
			s-2.466-7.448-9.152-8.838c-1.963,6.059,1.136,12.438,1.136,12.438s-5.875-5.114-11.865-4.047
			c0.377,6.132,5.99,10.986,5.99,10.986s-7.638-2.584-12.374,2.782c10.073,0.819,17.072,4.672,19.834,11.502H297.672z"/>
		<path d="M297.042,430.358c0.959,6.821,2.351,10.094,5.144,15.333c0.472,1.147-0.762,3.516-3.22,2.091
			c0,3.093-3.785,5.112-6.723,2.806c-0.694,3.979-4.73,3.329-4.73,3.329v-0.018c-0.009,0.009-0.021,0.023-0.021,0.023
			s-4.039,0.645-4.729-3.335c-2.938,2.307-6.729,0.287-6.729-2.806c-2.457,1.425-3.689-0.943-3.214-2.091
			c2.795-5.239,4.181-8.512,5.146-15.333H297.042z"/>
		<path d="M392.363,123.251c4.288-4.479,12.678-7.065,23.063-1.044c-10.574-0.219-13.474,4.32-13.413,8.36
			c0.126,8.39,5.992,15.706,13.788,23.037c-1.785,1.387-3.24,1.912-4.515,2.416c3.078,2.055,6.16,2.628,9.235,2.042
			c6.836,6.438,14.348,12.976,17.229,21.092c-0.941-6.603-4.99-15.481-12.586-22.463c3.07-1.365,5.444-3.35,6.279-4.687
			c4.793,9.723,22.97,29.675,49.742,24.119c-30.558-9.345-34.596-33.963-48.991-49.879c20.963,6.064,35.483,32.142,55.301,32.771
			c0.759-6.06,16.479-4.927,24.619-8.712c8.156-3.785,14.679-23.896-10.772-30.732c3.14,5.764,4.872,21.265-3.047,24.669
			c7.763-0.38,11.362-9.848,9.655-17.23c14.588,9.466,0.861,26.469-12.495,18.37c-17.803-10.801-24.245-16.099-42.553-22.164
			c7.577-2.646,25.251-4.036,34.593,2.53c-4.16-11.743-10.35-13.892-16.662-14.646c3.789-3.791,7.955-24.757-15.157-31.196
			c9.853,4.799,10.231,28.8-12.114,29.171c-11.494,0.201-28.837-0.84-42.231,1.836c-17.009,3.388-21.598,17.989-13.829,28.976
			C386.182,134.354,388.074,127.731,392.363,123.251z M418.923,151.157c-3.878-3.713-7.85-8.234-10.026-12.591
			c-3.691-7.447-1.229-13.963,10.386-12.293C423.365,132.701,425.128,143.869,418.923,151.157z"/>
		<path d="M62.877,150.302c8.146,3.785,23.862,2.655,24.622,8.712c19.819-0.628,34.344-26.707,55.301-32.771
			c-14.396,15.916-18.435,40.535-48.986,49.879c26.767,5.556,44.945-14.396,49.74-24.115c0.834,1.332,3.205,3.317,6.28,4.682
			c-7.6,6.982-11.648,15.861-12.588,22.463c2.88-8.116,10.395-14.65,17.232-21.092c3.07,0.59,6.162,0.014,9.233-2.042
			c-1.854-0.735-3.171-1.361-4.516-2.416c7.532-7.233,13.979-14.503,13.727-23.542c-0.126-4.47-3.987-8.101-13.354-7.856
			c19.915-11.191,30.763,6.597,27.929,17.678c7.768-10.987,3.179-25.587-13.825-28.976c-13.4-2.676-30.741-1.635-42.237-1.836
			c-22.35-0.371-21.965-24.372-12.116-29.171c-23.108,6.444-18.942,27.409-15.155,31.196c-6.312,0.754-12.501,2.903-16.667,14.646
			c9.345-6.562,27.02-5.176,34.595-2.53c-18.304,6.064-24.745,11.366-42.548,22.164c-13.357,8.099-27.082-8.904-12.504-18.37
			c-1.699,7.383,1.899,16.851,9.664,17.23c-7.953-3.219-6.092-19.347-3.064-24.646C48.282,126.406,54.733,146.518,62.877,150.302z
			 M155.718,126.273c11.608-1.67,14.074,4.846,10.378,12.293c-2.17,4.356-6.144,8.877-10.023,12.591
			C149.871,143.869,151.634,132.701,155.718,126.273z"/>
		<path d="M279.446,77.468c0,0-1.076-2.079-2.242-2.079c-1.17,0-2.08,2.11-2.08,2.11s1.631,1.85,2.08,3.099
			C278.182,78.667,279.446,77.468,279.446,77.468z"/>
		<path d="M271.142,73.904c0.035,0.29,1.014,0.461,1.077,0.692c0.809,3.107,2.986,1.177,3.345-0.062
			C274.523,73.381,272.472,72.453,271.142,73.904z"/>
		<path d="M282.018,74.693c0.062-0.233,1.038-0.402,1.075-0.698c-1.323-1.455-3.173-0.736-4.424,0.63
			C279.022,75.867,281.209,77.801,282.018,74.693z"/>
		<path d="M512.749,395.859c-0.479,7.014,0.586,17.915,9.669,28.89c-6.528-2.743-24.907-10.522-30.118-20.304
			c-11.017-7.392-18.768-12.977-22.476-19.067c-5.55,4.544-4.039,13.131-4.039,13.131s49.746,37.748,71.715,35.226
			C530.428,426.668,521.841,416.562,512.749,395.859z"/>
		<path d="M257.698,222.201c15.782,6.695,29.794,16.921,29.794,16.921l0.009-0.006l0.012,0.006c0,0,14.012-10.226,29.784-16.921
			c-13.877-0.499-29.784,10.957-29.784,10.957l-0.012,0.012l-0.009-0.012C287.492,233.158,271.588,221.702,257.698,222.201z"/>
		<path d="M516.79,380.824c-12.121-23.748-42.419-33.854-54.544-62.152C464.274,354.552,490.534,356.062,516.79,380.824z"/>
	</g>
	<path d="M300.334,423.12c0,1.881-1.523,3.406-3.406,3.406h-18.544c-1.881,0-3.406-1.525-3.406-3.406l0,0
		c0-1.881,1.525-3.406,3.406-3.406h18.544C298.811,419.714,300.334,421.239,300.334,423.12L300.334,423.12z"/>
	<path d="M431.933,226.407"/>
	<path d="M315.577,297.238c-2.518-0.529-7.104,1.709-7.076,5.668c0,3.202,0,5.976,0,10.671c0.786,0.446,3.778,0.952,6.537,1.041
		c0.05,0.725-2.085,5.271-6.537,5.023c0,6.718,0,10.881,0,16.69c0.567,0.485,3.539,1.266,7.035,1.384
		c0.055,0.728-2.71,5.766-7.035,4.949c0,2.525,0,3.129,0,4.595c0,0.29,0.016,0.553,0.038,0.796c0.02,0.168,0.048,0.316,0.068,0.479
		c0.001,0.009,0.003,0.026,0.003,0.042c0.636,3.929,4.068,5.05,6.191,3.787c6.822,0.322,29.49-0.018,29.897-0.012
		c1.266-2.206,6.139-4.344,7.989-5.204c0.645-0.015,1.006,0.009,1.504,0.009c0-0.662,0.01-49.909,0.01-49.909
		S320.715,297.218,315.577,297.238z M350.09,343.591c-1.435,0.917-4.367,2.188-5.245,3.273l-0.18-39.703
		c-3.384-0.015-5.09-0.009-8.076,0h-18.247c0.008,0.009,0.014,0.021,0.02,0.029c-1.122-0.006-2.253-0.015-3.409-0.029
		c0,0-2.951,0.503-2.809-2.865c0.08-1.874,1.652-3.039,3.197-2.82c0.59-0.018,32.381-0.032,34.792-0.009L350.09,343.591z"/>
	<path d="M442.351,359.486c17.409,0.086,27.218,15.505,30.504,17.427c0.057-1.671,1.544-2.839,5.671-1.736
		c19.363,5.175,45.099,26.179,53.926,32.927c0.501-15.529-11.616-90.44-77.777-120.243c57.576,36.884,68.305,96.251,70.322,105.852
		c-15.148-14.911-30.17-23.376-52.898-36.004c-6.568-0.763-30.996-9.665-45.193-22.5c-11.88-4.024-19.327-22.22-11.751-36.991
		c-13.487,8.808-7.813,26.048-6.818,29.176c-17.36-12.042-22.836-32.89-16.981-45.916c12.568-26.692,60.524-37.158,68.363-62.675
		c5.285-17.188-14.894-24.245-28.431-22.116c-0.174-1.269-0.535-3.188-1.614-3.785c-4.078,13.681-20.868,17.037-34.186,10.922
		c-3.235-5.764,1.953-7.824,5.518-9.122c1.323-0.476,10.669,3.115,11.988-4.916c3.726-0.359,7.559-1.32,8.882-2.875
		c-3.481,0.112-10.294-1.221-14.877-0.364c-5.156,0.957-5.87,2.283-6.959,4.794c-0.937,2.204-2.617-0.998-6.352-2.036
		c3.96-4.318,14.924-12.613,36.997-4.092c26.261,0.25,38.638,10.793,41.414,22.719c8.331,35.86-51.011,52.781-54.041,74.497
		c11.365-1.641,20.202-0.247,28.534,1.89c-2.648-2.014-8.582-5.671-17.424-7.443c3.418-11.019,35.057-24.743,45.701-46.019
		c9.819-0.473,19.898,1.631,25.892,9.02c-3.882-10.565-13.595-13.385-24.159-13.088c1.499-4.123,2.215-8.519,1.878-13.212
		c9.532,1.634,16.269,5.183,21.427,10.015c8.898,8.339,4.361,25.604-8.997,27.181c-10.413,1.227-15.246-5.403-14.955-9.94
		c-7.834,15.147,9.02,24.301,9.02,24.301s-12.247,32.323,21.844,41.037c-17.424-12.119-13.256-32.958-4.164-43.56
		c9.087-10.61,15.044-23.865,5.266-37.616c-4.869-6.848-14.78-13.56-30.063-15.85c-3.335-16.037-16.96-26.066-45.223-28.25
		c-17.201-25.112-62.011-27.684-66.338-49.53c3.024,3.977,10.035,7.386,19.122,7.954c-10.413-3.222-19.786-14.42-24.842-21.238
		c-10.407,36.9,51.339,43.552,66.317,61.375c-25.146-7.779-36.985,8.679-36.985,8.679s-7.915,0.179-6.894,8.851
		c-1.809,3.004-6.153,5.02-10.451,6.697c-0.041-2.105,0.082-4.29,0.224-6.463h0.213c2.282,0,4.135-1.848,4.135-4.133
		c0-2.235-1.771-4.045-3.978-4.122c1.034-12.181,12.113-10.363,17.013-8.77c-3.603-11.316-17.098-8.234-17.098-8.234
		s1.668-14.912-5.535-20.049c-7.199,5.137-5.524,20.049-5.524,20.049s-13.502-3.082-17.102,8.234
		c4.899-1.593,15.979-3.412,17.016,8.77c-2.213,0.077-3.982,1.887-3.982,4.122c0,2.285,1.852,4.133,4.135,4.133h0.219
		c0.535,8.492,0.899,17.237-8.514,20.514c5.76,3.075,11.512,0.697,13.753-2.684c2.243,3.381,8.003,5.759,13.763,2.684
		c-4.615-1.604-6.876-4.523-7.923-8.078c6.531-0.837,12.436,0,19.235-1.279c5.391,1.802,26.623,7.314,38.62-8.277
		c1.068-0.084,2.135-0.148,3.174-0.187c-0.308,10.186-6.655,18.675-14.584,23.432c-12.617,7.578-42.421,13.504-61.104,1.893
		c-11.739-7.299-20.689-23.164-34.614-32.948c4.46-0.54,6.871-3.428,7.649-6.463c1.053-4.1-0.598-9.359-4.85-12.603l0.057-40.093
		v-13.134l-2.929,1.529l-4.649-25.081v-0.777c0.921-0.297,1.589-1.152,1.589-2.188c0-1.267-1.022-2.302-2.274-2.302
		c-1.259,0-2.274,1.035-2.274,2.302c0,1.054,0.693,1.929,1.636,2.207v0.772l-4.64,25.058l-2.924-1.52v10.546h-0.018v6.82h-0.728
		c-1.752-4.022-3.519-8.339-6.346-16.042c1.328,1.141,5.305,3.223,6.251,3.415c-3.596-12.5-7.142-33.927-20.58-41.796
		c-0.546-0.325-1.735-1.61-1.643-4.045c0.104-2.439,0.219-7.194-2.08-9.854c-1.835-2.122-5.28-2.759-8.146-2.842
		c-2.402-0.074-4.475,0.216-6.5,1.451c-5.809,3.541-4.169,14.271-4.169,14.271s-1.271,4.742-1.271,6.768
		c-7.821,10.86,5.182,20.993,9.354,24.878c1.102,8.456,1.514,8.896,2.268,13.444c-0.188,1.632-1.097,7.501-3.477,10.353h-8.879
		L264.513,120l-2.928,1.524l-4.647-25.067v-0.772c0.949-0.278,1.644-1.148,1.644-2.207c0-1.267-1.021-2.302-2.275-2.302
		c-1.261,0-2.274,1.035-2.274,2.302c0,1.036,0.668,1.894,1.584,2.192v0.787l-4.633,24.999L248.038,120v10.542v0.098v2.49h0.003
		l0.056,40.093c-4.249,3.244-5.904,8.503-4.852,12.603c0.78,3.041,3.191,5.928,7.648,6.463
		c-13.92,9.784-22.873,25.649-34.613,32.948c-18.684,11.611-48.484,5.686-61.106-1.893c-7.927-4.757-14.256-13.246-14.574-23.432
		c1.041,0.039,2.099,0.105,3.168,0.192c11.996,15.591,33.223,10.073,38.622,8.276c6.797,1.274,12.702,0.438,19.235,1.277
		c-1.053,3.551-3.313,6.47-7.929,8.075c5.767,3.075,11.522,0.697,13.761-2.684c2.247,3.381,7.995,5.759,13.761,2.684
		c-9.424-3.276-9.054-12.018-8.516-20.508h0.219c2.282,0,4.134-1.85,4.134-4.139c0-2.235-1.769-4.042-3.981-4.122
		c1.036-12.177,12.116-10.363,17.018-8.77c-3.602-11.316-17.102-8.234-17.102-8.234s1.673-14.912-5.532-20.049
		c-7.2,5.137-5.529,20.049-5.529,20.049s-13.499-3.082-17.097,8.234c4.897-1.593,15.977-3.407,17.013,8.77
		c-2.209,0.08-3.98,1.887-3.98,4.122c0,2.29,1.847,4.139,4.138,4.139h0.213c0.144,2.17,0.266,4.352,0.219,6.458
		c-4.293-1.677-8.64-3.693-10.443-6.697c1.013-8.672-6.901-8.851-6.901-8.851s-11.835-16.458-36.982-8.679
		c14.979-17.817,76.536-24.287,66.318-61.375c-5.048,6.818-14.429,18.021-24.844,21.238c9.089-0.568,16.099-3.977,19.127-7.954
		c-4.335,21.844-49.29,24.514-66.504,49.602c-27.984,1.931-41.961,12.412-45.054,28.18c-16.889,2.697-25.262,9.39-29.818,15.596
		c-10.162,13.838-4.076,27.258,5.015,37.868c9.09,10.602,13.256,31.441-4.165,43.56c34.088-8.714,21.841-41.031,21.841-41.031
		s16.856-9.159,9.027-24.307c0.29,4.541-4.544,11.167-14.961,9.94c-13.35-1.577-17.904-18.846-8.995-27.181
		c5.025-4.701,11.867-8.397,21.411-10.032c-0.349,4.702,0.381,9.109,1.88,13.24c-10.567-0.298-20.271,2.507-24.147,13.083
		c5.987-7.395,16.073-9.495,25.892-9.021c10.65,21.271,42.284,34.998,45.702,46.014c-8.842,1.772-14.776,5.43-17.428,7.443
		c8.341-2.137,17.174-3.527,28.538-1.89c-3.026-21.711-62.372-38.637-54.04-74.491c2.771-11.932,15.15-22.475,41.408-22.725
		c22.075-8.521,33.042-0.226,37,4.092c-3.731,1.043-5.414,4.24-6.36,2.04c-1.076-2.516-1.795-3.842-6.957-4.799
		c-4.577-0.857-11.388,0.476-14.873,0.364c1.322,1.555,5.163,2.516,8.879,2.875c1.325,8.035,10.671,4.439,11.996,4.916
		c3.562,1.298,8.752,3.357,5.516,9.122c-13.315,6.114-30.109,2.758-34.184-10.922c-1.079,0.597-1.439,2.516-1.617,3.785
		c-13.536-2.129-33.718,4.933-28.435,22.116c7.847,25.521,56.065,36.298,68.631,62.989c3.9,10.251,3.9,27.409-14.86,44.159
		c-1.443,0.981-2.383,1.442-2.383,1.442s7.196-20.466-6.817-29.176c7.578,14.771,0.125,32.967-11.757,36.991
		c-14.189,12.835-38.62,21.74-45.187,22.5c-22.726,12.628-37.753,21.093-52.901,36.004c2.02-9.601,12.752-68.968,70.325-105.852
		C54.164,317.663,42.044,392.58,42.55,408.109c40.55-32.551,60.229-36.841,59.596-31.196c5.175-4.131,13.676-17.099,30.303-17.438
		c9.312-0.189-1.377,12.243-4.798,19.464c-7.203,15.152-10.225,24.241-9.849,28.789c0.441,5.34-5.807,3.024-7.069-2.646
		c0,2.398-0.505,3.028-0.505,7.069c0,4.03,9.092,15.021,9.849,25.372c6.307-1.266,6.5,2.844,17.608,3.35c0.073,0,0.141,0,0.21,0.003
		c-16.065,9.275-30.908,17.619-40.572,20.546c-4.797,1.449-10.113,2.854-15.154,3.438c1.854-3.867,4.581-7.033,7.859-8.837
		c-5.678-9.287-14.015-17.234-22.604-21.909c-15.147-0.379-23.736,25.253-13.632,33.839c6.45,0.763,19.454,22.365,31.1,30.511
		c2.915,2.279,6.558,3.692,11.296,3.692c1.84,0,3.847-0.213,6.039-0.662c18.438-3.802,39.306-15.931,61.408-28.771
		c23.243-13.497,47.079-27.344,67.604-30.616c3.814,7.265-9.807,15.022-14.7,16.889c-3.069,1.162-8.76,1.475-6.364,4.423
		c0.305,0.391,0.582,0.733,0.828,1.038c7.377,9.26,14.688,19.652,21.196,35.276l0.245,0.594l0.526,0.379
		c7.339,5.251,36.662,8.013,54.493,8.107c0.016,0,0.027,0,0.039,0c0.016,0,0.025,0,0.043,0c17.83-0.095,47.183-2.718,55.035-8.441
		c5-12.158,10.645-22.519,22.211-36.924c0.479-0.594,0.702-1.076,0.615-1.49c-0.343-1.641-4.494-2.034-6.943-2.962
		c-4.896-1.866-18.511-9.624-14.704-16.889c20.524,3.272,44.362,17.119,67.609,30.616c22.091,12.838,42.97,24.97,61.398,28.771
		c2.194,0.449,4.2,0.659,6.044,0.659c4.732,0,8.366-1.398,11.278-3.678c11.649-8.137,24.663-29.76,31.125-30.525
		c10.096-8.583,1.51-34.215-13.64-33.836c-8.59,4.675-16.925,12.622-22.604,21.909c3.281,1.804,6.012,4.97,7.863,8.837
		c-5.042-0.585-10.356-1.989-15.158-3.438c-9.656-2.927-24.506-11.271-40.568-20.546c0.075-0.003,0.132-0.003,0.21-0.003
		c11.108-0.509,11.302-4.615,17.608-3.35c0.753-10.352,9.854-21.342,9.854-25.372c0-4.041-0.508-4.671-0.503-7.075
		c-1.27,5.677-7.521,7.986-7.075,2.652c0.378-4.548-2.647-13.637-9.852-28.795c-1.712-3.61-6.085-9.678-7.599-13.462
		C438.712,362.877,437.549,359.462,442.351,359.486z M439.004,199.924c6.055,0.296,11.251,1.866,14.656,5.994
		c0.855,1.043,1.321,1.942,1.779,3.181c-5.839,0.893-11.783,2.79-18.105,5.424C438.723,209.717,439.277,204.743,439.004,199.924z
		 M435.71,219.189c6.615-3.213,13.67-5.15,20.649-6.034c0.198,5.625-3.128,12.396-10.783,19.027
		c-0.437,0.379-0.92,0.766-1.446,1.168c-13.779,4.42-27.117,9.671-37.183,10.948C421.695,240.954,431.933,226.407,435.71,219.189z
		 M325.25,230.985c12.995,18.733,33.241,39.233,58.46,29.988c-19.984-1.729-29.247-14.396-31.674-21.952
		c7.621,4.8,20.312,10.413,34.681,11.14c15.274,0.763,29.709-3.028,41.327-6.842c-24.201,14.087-59.457,35.292-43.568,64.748
		c1.515,11.619,7.064,22.733,11.11,31.326c4.039,8.589,9.092,14.656,11.104,17.175c2.022,2.531,3.411,13.146-9.717,12.129
		c-13.132-1.006-14.883-2.782-17.807-8.459c-4.29-8.341-0.501-16.925-2.779-19.961c-2.751-3.663-2.264-11.191-4.793-14.023
		c-0.569-0.627-1.548-1.479-2.54-1.783c0.008-11.149,0-20.989-0.004-31.125c-0.012-7.013-0.014-14.223-0.014-22.168v-2.637
		l-2.636-0.014c-4.502-0.021-15.403-0.015-25.048-0.008c-1.801-3.123-8.802-11.262-19.967-12.586
		C320.251,252.022,322.663,238.807,325.25,230.985z M363.688,350.726c-0.012,3.622-0.025,7.409-0.049,11.389
		c-0.046,9.462-3.429,20.251-8.873,31.238l-58.415-42.411v-50.267c3.648-2.145,7.268-5.06,10.152-7.827l1.737-1.664l-1.755-1.639
		c-2.142-1.991-2.161-4.21-1.794-5.727c0.605-2.552,2.72-4.831,5.13-5.521c1.994-0.579,3.938,0,5.641,1.651l2.067,2.024l1.478-2.488
		c1.516-2.57,3.293-4.365,5.132-5.64c2.835-0.006,28.748-0.048,39.599-0.023c0,6.918,0.005,13.302,0.008,19.532
		c0.011,14.521,0.026,28.455-0.021,46.494c-1.145,0.136-3.116,0.438-5.518,2.2C360.761,343.188,362.442,346.657,363.688,350.726z
		 M287.501,465.312c-17.354-7.756-41.905-31.276-58.401-56.564l58.404-42.379l58.392,42.379
		C329.401,434.036,304.856,457.557,287.501,465.312z M319.953,447.98c0.756,6.593,7.52,14.266,11.186,17.982
		c-12.454,1.318-25.779,1.913-37.382,2.149C301.714,463.754,310.852,456.696,319.953,447.98z M287.513,468.21l-0.012,0.05
		l-0.009-0.05l0.009-0.023L287.513,468.21z M281.25,468.112c-11.602-0.236-24.934-0.831-37.39-2.149
		c3.664-3.717,10.431-11.39,11.179-17.982C264.151,456.696,273.295,463.754,281.25,468.112z M211.274,339.848
		c-0.046-18.039-0.033-31.974-0.021-46.494c0.004-6.23,0.01-12.614,0.01-19.532c10.853-0.024,36.763,0.021,39.596,0.023
		c1.839,1.274,3.617,3.069,5.136,5.64l1.473,2.497l2.071-2.033c1.701-1.651,3.652-2.23,5.646-1.651
		c2.413,0.689,4.518,2.969,5.13,5.521c0.363,1.517,0.34,3.736-1.79,5.727l-1.758,1.639l1.735,1.664
		c2.887,2.773,6.517,5.689,10.168,7.842v50.243l-58.437,42.42c-5.446-10.987-8.831-21.776-8.877-31.238
		c-0.018-3.979-0.031-7.767-0.046-11.389c1.242-4.068,2.929-7.537,5.481-8.678C214.391,340.285,212.417,339.983,211.274,339.848z
		 M261.149,216.171c2.47,0.695,4.501,1.274,5.294,1.499c12.301,3.745,21.049,8.193,21.049,8.193l0.009-0.048l0.012,0.048
		c0,0,8.74-4.448,21.043-8.193c0.795-0.225,2.828-0.804,5.303-1.499c0.68-0.183,1.358-0.359,2.06-0.535
		c-0.024-0.012-0.045-0.023-0.068-0.031c0.251-0.073,0.506-0.145,0.757-0.214c1.044-0.302,4.143-3.139,5.021-7.146
		c-0.524,9.92-2.232,19.506-3.639,27.407c-1.624,9.146-2.852,16.163-2.047,20.983c-2.868,0.856-5.396,2.062-7.659,3.518
		c-5.299,3.634-9.24,7.944-11.102,9.938c-3.433,3.669-6.419,6.845-9.68,7.84c-3.263-0.995-6.248-4.171-9.681-7.84
		c-1.862-1.993-12.05-12.108-18.76-13.455c0.8-4.82-0.428-11.837-2.051-20.983c-1.403-7.901-3.112-17.487-3.638-27.407
		c0.873,4.008,3.979,6.845,5.022,7.146c0.25,0.074,0.506,0.141,0.755,0.214c-0.021,0.008-0.045,0.025-0.065,0.034
		C259.783,215.812,260.468,215.993,261.149,216.171z M258.25,261.102c7.069,2.294,11.939,7.477,16.259,12.096
		c3.843,4.106,7.486,7.99,12.135,9.205c0.204,0.076,0.393,0.126,0.562,0.141c0.081,0.018,0.181,0.023,0.305,0.023
		c0.112,0,0.201-0.006,0.282-0.016c0.173-0.022,0.371-0.072,0.584-0.148c4.639-1.22,8.278-5.099,12.119-9.205
		c4.255-4.542,9.021-9.633,15.904-11.978c1.334-0.508,2.167-0.508,2.167-0.508c6.528,0.526,10.98,3.343,13.688,5.791
		c-4.986,0.308-11.188,2.383-15.74,8.521c-2.438-1.504-5.188-1.901-7.959-1.104c-3.964,1.151-7.295,4.699-8.288,8.842
		c-0.697,2.945-0.153,5.855,1.519,8.264c-5.279,4.71-10.832,7.96-14.285,8.306c-3.454-0.352-9-3.596-14.281-8.306
		c1.665-2.409,2.216-5.319,1.52-8.264c-0.993-4.143-4.324-7.69-8.29-8.834c-2.773-0.805-5.526-0.407-7.963,1.101
		c-4.555-6.143-10.762-8.218-15.742-8.522c2.706-2.451,7.162-5.26,13.688-5.794C256.432,260.712,256.881,260.661,258.25,261.102z
		 M286.868,303.832l-0.115,0.062l-0.148-0.098C286.693,303.812,286.782,303.829,286.868,303.832z M314.446,173.474
		c2.529,0.578,4.896,1.218,6.933,1.898c4.604,1.536,6.809,6.064,5.968,9.329c-0.628,2.438-2.848,3.489-6.235,3.027
		c-4.099-4.106-3.457-9.928-8.064-14.57C313.31,173.214,314.446,173.474,314.446,173.474z M316.592,199.861
		c0.329,2.893,1.813,10.656-6.877,11.95c-0.982-0.571-2.047-1.135-3.265-1.722c-10.985,0.944-18.938,5.838-18.938,5.838
		l-0.012,0.047l-0.009-0.044c0,0-7.951-4.896-18.938-5.841c-1.218,0.587-2.277,1.151-3.261,1.722
		c-4.822-0.377-8.605-4.287-6.883-11.95c4.149-5.761,9.067-9.607,16.354-11.469c3.16-0.483,6.456-0.854,10.271-1.054
		c0.193,3.145,0.949,14.414,2.42,25.262c0.013,0.13,0.028,0.259,0.037,0.387c0.004-0.015,0.009-0.033,0.009-0.05
		c0.003,0.017,0.009,0.035,0.012,0.05c0.009-0.128,0.021-0.257,0.038-0.381c1.47-10.854,2.227-22.131,2.42-25.268
		c3.816,0.195,7.106,0.571,10.269,1.054C307.529,190.253,312.44,194.1,316.592,199.861z M309.321,185.345
		c-1.993-0.509-4.092-0.88-6.283-1.103c-1.879-0.325-3.775-0.609-5.769-0.849c-4.413-3.672-4.793-9.722-11.17-13.187
		c0.499-0.012,0.99-0.015,1.475-0.015c4.015,0.01,8.579,0.349,13.188,0.908C306.175,175.419,306.571,181.88,309.321,185.345z
		 M288.888,137.362c-0.537-0.359-0.937-0.853-0.877-1.489c0.437-4.385,0.746-6.975,0.746-6.975s1.763-1.322,3.47-2.655
		c1.291,1.866,3.267,6.18,5.351,11.119H288.888z M297.802,152.938c0,0,0.006,0.017,0.006,0.02c0.054,0.026,4.917,2.342,4.982,5.393
		c0.07,3.521,0.104,6.504,0.115,8.428c-3.45-0.457-6.907-0.789-10.199-0.973c0.017-1.892,0.046-4.49,0.107-7.47
		C292.876,155.264,297.802,152.938,297.802,152.938z M269.312,82.681c-0.249-3.916-0.565-9.346,2.467-12.57
		c1.447-1.322,3.47-1.196,5.426-1.236c2.115-0.034,3.956,0.526,4.862,1.428c2.652,2.652,2.022,9.988,2.3,11.336
		c0.353,1.677,1.325,2.277,1.896,2.842c14.327,9.253,19.366,34.621,19.366,34.621s-26.212-14.442-23.688-30.101
		c-6.186,5.556-2.477,15.428,1.261,19.319c3.737,3.891,10.109,9.882,10.109,9.882s-0.505,3.785-6.058,6.434
		c-0.09-0.356-0.721-2.092-1.119-3.668c-2.538,2.28-5.583,3.389-5.583,3.389s-0.498-1.634-1.079-5.784l-0.039,0.008l-1.255-8.323
		C264.505,99.71,268.064,87.372,269.312,82.681z M283.119,137.362h-2.48l-0.813-1.36c0,0-1.044-5.46,0.476-6.85
		c1.39-1.01,4.418-2.782,4.418-2.782S285.292,131.998,283.119,137.362z M272.216,158.351c0.063-3.048,4.925-5.367,4.982-5.393
		c0-0.003,0.004-0.02,0.004-0.02s4.926,2.326,4.99,5.397c0.058,2.983,0.093,5.578,0.104,7.47c-3.289,0.184-6.75,0.516-10.196,0.973
		C272.111,164.855,272.146,161.872,272.216,158.351z M274.701,171.042c5.776,2.926,7.575,8.503,10.369,11.746
		c-4.095,0.201-7.604,0.594-10.945,1.103c-4.684-2.755-6.191-8.213-12.268-10.709C265.894,172.292,270.316,171.565,274.701,171.042z
		 M247.647,184.701c-0.704-2.756,0.771-6.39,4.016-8.382c5.369,2.451,7.864,7.459,11.193,9.698
		c-2.543,0.521-5.262,1.067-8.347,1.634C250.752,188.337,248.315,187.291,247.647,184.701z M121.334,205.918
		c3.412-4.122,8.602-5.695,14.656-5.994c-0.266,4.818,0.284,9.793,1.678,14.599c-5.89-2.774-12.303-4.535-18.142-5.424
		C119.984,207.86,120.477,206.961,121.334,205.918z M129.415,232.182c-7.643-6.62-10.973-13.391-10.777-19.018
		c6.981,0.881,14.034,2.812,20.652,6.024c0.343,0.823,10.418,20.629,28.766,25.109c-10.065-1.272-23.399-6.517-37.175-10.937
		C130.343,232.959,129.86,232.561,129.415,232.182z M168.301,356.57c2.022-2.521,7.073-8.589,11.114-17.178
		c4.042-8.593,9.596-19.707,11.108-31.326c15.737-29.183-18.392-50.051-43.969-64.968c42.765,14.963,65.095,2.649,76.385-4.101
		c-1.871,7.39-12.209,20.46-31.656,21.976c31.538,11.181,53.544-23.679,58.59-29.985c3.531,11.857,4.543,21.547,3.815,24.945
		c-12.016,1.419-18.166,9.935-19.958,12.585c-1.709-0.001-20.382-0.015-25.133,0.008l-2.638,0.018v2.638
		c0,7.94-0.008,15.15-0.012,22.164c-0.014,10.136-0.015,19.976-0.009,31.128c-0.984,0.308-1.97,1.153-2.534,1.78
		c-2.531,2.832-2.043,10.36-4.8,14.023c-2.273,3.036,1.519,11.62-2.775,19.961c-2.924,5.677-4.674,7.453-17.807,8.465
		C164.896,369.713,166.282,359.099,168.301,356.57z M126.511,423.641c-2.272-6.821-1.135-18.56,2.401-25.132
		c2.398-4.459,7.824-11.759,11.852-15.363c0.771-0.694,1.969-1.644,3.586-3.116c2.046,1.649,2.046,4.109,5.646,5.724
		c2.914,1.308,16.545-7.072,42.801-8.84c0.757-3.797,8.584-6.324,13.388-8.087c0.114-0.038,0.222-0.121,0.331-0.219
		c1.617,12.46,7.409,25.25,13.971,36.314c-11.546-1.197-28.914,6.221-47.984,16.371c-1.764-1.556-5.981-4.391-9.751-0.178
		c-3.285,1.769-11.86,6.759-20.708,9.083C131.248,433.049,127.801,427.499,126.511,423.641z M161.353,468.792
		c-21.767,12.644-42.334,24.594-60.044,28.245c-6.59,1.366-11.015,0.249-14.398-2.8c-1.157-1.144-2.17-2.359-3.038-3.618
		c-0.03-0.042-0.065-0.092-0.093-0.148c-0.12-0.162-0.226-0.343-0.338-0.521c-0.51-0.825-0.994-1.703-1.47-2.638
		c-2.732-5.747-2.986-12.137-1.524-17.746c6.077-0.422,12.484-2.066,18.195-3.796c11.142-3.374,28.298-13.302,46.463-23.816
		c1.18-0.683,2.375-1.375,3.572-2.066c2.294-0.494,3.294-0.659,3.971,0.984c3.094-1.83,3.222-3.409,3.599-4.733
		c3.03-1.712,6.63-4.166,8.143-2.088c0.715-1.682,0.804-2.776,0.667-3.494c23.998-13.364,48.225-24.961,58.843-20.13
		c4.13,6.396,8.324,12.002,11.779,16.333c2.826,3.545,5.763,6.989,8.755,10.292C219.976,434.743,190.216,452.031,161.353,468.792z
		 M356.182,466.427c-6.38,9.137-12.611,17.778-18.229,31.19c-6.494,3.826-31.366,6.566-50.451,6.661
		c-19.086-0.095-43.963-2.835-50.453-6.661c-5.621-13.412-11.848-22.054-18.229-31.182c18.79,4.784,46.271,5.736,68.674,5.97
		l0.009-0.041l0.012,0.041C309.909,472.172,337.391,471.22,356.182,466.427z M476.358,465.771
		c5.708,1.729,12.118,3.374,18.195,3.796c1.465,5.618,1.203,12.011-1.536,17.759c-0.467,0.922-0.949,1.785-1.438,2.593
		c-0.134,0.195-0.245,0.394-0.375,0.585c-0.02,0.033-0.04,0.062-0.06,0.098c-0.866,1.26-1.891,2.483-3.047,3.637
		c-3.39,3.043-7.812,4.157-14.409,2.8c-17.709-3.651-38.27-15.602-60.046-28.245c-28.865-16.761-58.618-34.049-83.08-31.74
		c2.995-3.303,5.927-6.747,8.756-10.292c3.458-4.338,7.65-9.94,11.779-16.342c10.619-4.822,34.841,6.774,58.845,20.139
		c-0.141,0.718-0.051,1.812,0.668,3.494c1.513-2.081,5.112,0.376,8.143,2.088c0.374,1.324,0.497,2.903,3.591,4.733
		c0.685-1.644,1.678-1.479,3.971-0.984c1.199,0.686,2.396,1.384,3.575,2.066C448.054,452.469,465.216,462.396,476.358,465.771z
		 M446.088,398.509c3.533,6.572,4.664,18.311,2.396,25.126c-1.289,3.864-4.737,9.414-15.529,6.563
		c-8.845-2.324-17.425-7.314-20.71-9.083c-3.767-4.219-7.987-1.378-9.752,0.169c-19.066-10.142-36.443-17.56-47.983-16.362
		c6.56-11.064,12.354-23.857,13.972-36.314c0.108,0.098,0.216,0.181,0.33,0.219c4.805,1.763,12.633,4.29,13.388,8.087
		c26.259,1.768,39.499,9.952,42.523,8.926c3.53-1.197,4.541-5.233,6.056-5.738c1.561,1.419,2.699,2.365,3.453,3.045
		C438.259,386.75,443.686,394.05,446.088,398.509z"/>
</g>
</svg>
