<?xml version="1.0" encoding="utf-8"?>
<!-- Generator: Adobe Illustrator 15.1.0, SVG Export Plug-In . SVG Version: 6.00 Build 0)  -->
<!DOCTYPE svg PUBLIC "-//W3C//DTD SVG 1.1//EN" "http://www.w3.org/Graphics/SVG/1.1/DTD/svg11.dtd">
<svg version="1.1" id="Layer_1" xmlns="http://www.w3.org/2000/svg" xmlns:xlink="http://www.w3.org/1999/xlink" x="0px" y="0px"
	 width="575px" height="575px" viewBox="0 0 575 575" enable-background="new 0 0 575 575" xml:space="preserve">
<g>
	<path d="M50.928,435.8c0,7.195,3.569,10.52,11.364,10.52c7.555,0,11.06-3.015,11.06-9.611v-17.23c0-2.415-0.845-3.515-3.137-3.992
		c-1.031-0.241-1.332-0.423-1.332-0.97c0-0.539,0.301-0.721,0.965-0.721c0.718,0,2.781,0.238,4.594,0.238
		c1.81,0,3.566-0.238,4.291-0.238c0.728,0,1.028,0.182,1.028,0.659c0,0.549-0.486,0.91-1.691,1.33
		c-1.207,0.426-2.18,0.911-2.18,3.692v16.926c0,8.285-5.377,12.828-15.407,12.828c-10.034,0-15.536-4.059-15.536-11.431v-18.748
		c0-2.058-1.019-3.09-3.382-3.514c-1.148-0.234-1.452-0.478-1.452-1.023c0-0.721,0.721-0.721,2.058-0.721
		c1.204,0,3.981,0.238,5.859,0.238c2.181,0,4.47-0.238,5.804-0.238c0.847,0,1.757-0.063,1.757,0.779c0,0.429-0.311,0.607-1.335,0.79
		c-2.417,0.361-3.326,1.45-3.326,3.808V435.8H50.928z"/>
	<path d="M93.006,418.562c-1.999-2.354-2.904-3.024-4.588-3.26c-0.673-0.184-0.854-0.302-0.854-0.789
		c0-0.481,0.251-0.721,0.731-0.721c0.362,0,4.416,0.238,4.771,0.238c0.363,0,2.538-0.238,2.96-0.238c0.608,0,0.912,0.118,1.63,0.843
		l23.395,24.794v-19.354c0-2.96-1.333-4.477-4.237-4.835c-0.722-0.062-1.388-0.182-1.388-0.729c0-0.603,0.301-0.721,1.03-0.721
		c0.727,0,4.537,0.238,5.5,0.238c0.968,0,4.534-0.238,5.138-0.238s0.905,0.118,0.905,0.604c0,0.421-0.181,0.541-1.026,0.722
		c-2.477,0.48-3.505,2.056-3.505,5.321v27.454c0,0.968-0.121,1.204-0.731,1.204c-0.292,0-0.599-0.121-0.78-0.236L95.24,420.747
		v20.434c0,3.989,1.088,5.619,4.172,6.039c0.91,0.124,1.149,0.187,1.149,0.793c0,0.543-0.364,0.725-1.688,0.725
		c-1.033,0-3.568-0.239-5.086-0.239c-1.451,0-4.407,0.239-5.012,0.239c-0.356,0-0.546-0.239-0.546-0.604
		c0-0.48,0.19-0.599,1.028-0.788c2.839-0.48,3.75-2.174,3.75-6.949L93.006,418.562L93.006,418.562z"/>
	<path d="M147.564,442.028c0,3.26,0.841,4.476,3.506,4.95c1.145,0.242,1.451,0.429,1.451,0.978c0,0.843-0.971,0.782-2.24,0.782
		c-1.332,0-3.496-0.239-5.504-0.239c-1.927,0-5.251,0.239-6.401,0.239c-1.031,0-1.632-0.06-1.632-0.782
		c0-0.304,0.306-0.489,1.209-0.668c2.714-0.486,3.747-1.871,3.747-5.202v-22.188c0-2.836-1.332-4.297-4.226-4.655
		c-0.793-0.122-1.211-0.181-1.211-0.789c0-0.479,0.298-0.659,1.211-0.659c0.542,0,5.011,0.238,7.008,0.238
		c2.172,0,5.316-0.238,5.919-0.238c0.908,0,1.632,0,1.632,0.605c0,0.42-0.181,0.603-1.028,0.843
		c-2.421,0.72-3.441,2.237-3.441,4.896V442.028z"/>
	<path d="M164.822,418.386c-0.905-1.812-1.929-2.66-3.81-3.021c-0.903-0.183-1.149-0.361-1.149-0.85
		c0-0.539,0.548-0.721,1.388-0.721c0.485,0,4.176,0.238,6.173,0.238c1.813,0,4.646-0.238,6.043-0.238c0.541,0,1.14,0,1.14,0.659
		c0,0.428-0.239,0.607-1.206,0.789c-0.905,0.121-2.354,0.425-2.354,1.991c0,0.671,0.302,1.694,0.966,2.962l10.088,20.803
		l8.95-19.285c1.209-2.479,1.572-3.629,1.572-4.414c0-1.032-0.476-1.573-1.874-1.995c-0.782-0.242-1.024-0.423-1.024-0.851
		c0-0.479,0.48-0.659,1.024-0.659s3.019,0.238,4.414,0.238c1.326,0,3.44-0.238,4.107-0.238c0.675,0,0.97,0.118,0.97,0.539
		c0,0.548-0.295,0.729-1.331,0.971c-2.361,0.539-3.085,1.271-4.773,4.893l-13.054,28.124c-0.248,0.544-0.367,1.022-0.845,1.022
		c-0.49,0-0.731-0.544-1.333-1.75L164.822,418.386z"/>
	<path d="M236.64,448.72l-14.807-0.238l-13.471,0.238c-1.455,0-1.455-0.417-1.455-0.723c0-0.547,0.476-0.729,1.874-0.905
		c2.365-0.365,3.027-1.277,3.027-4.116v-23.276c0-2.776-0.553-3.509-3.395-4.048c-1.14-0.186-1.446-0.364-1.446-0.975
		c0-0.297,0.186-0.662,1.087-0.662h21.758l5.5-0.238l2.358,8.886c0.119,0.238,0.119,0.486,0.119,0.666
		c0,0.481-0.237,0.726-0.664,0.726c-0.422,0-0.659-0.181-1.028-0.726c-2.595-4.416-7.25-7.323-12.388-7.323h-5.981v12.639h9.972
		c2.472,0,3.267-0.597,3.745-2.895c0.304-1.277,0.543-1.695,1.091-1.695c0.485,0,0.843,0.541,0.843,1.456
		c0,0.357-0.244,3.315-0.244,3.927c0,0.661,0.244,4.052,0.244,4.837c0,0.66-0.244,1.079-0.664,1.079
		c-0.541,0-0.78-0.354-1.084-1.508c-0.602-2.776-1.514-3.32-5.5-3.32h-8.402v13.127c0,2.232,1.512,3.076,5.317,3.076
		c6.461,0,11.604-2.6,14.931-7.619c0.608-0.905,1.086-1.573,1.564-1.573c0.43,0,0.667,0.249,0.667,0.725
		c0,0.307-0.054,0.667-0.237,1.213L236.64,448.72z"/>
	<path d="M262.598,417.682c0-1.634,0.842-2.292,3.018-2.292c4.228,0,6.893,3.388,6.893,8.704c0,5.268-2.595,7.798-7.923,7.798
		c-0.485,0-1.091-0.057-1.987-0.057L262.598,417.682L262.598,417.682z M273.953,443.989c2.665,3.993,3.564,4.835,5.328,4.835
		c0.651,0,2.11-0.24,2.896-0.24c0.664,0,2.473,0.24,3.264,0.24c0.659,0,2.231,0,2.231-0.842c0-0.432-0.177-0.553-0.959-0.608
		c-2.786-0.067-4.349-1.208-9.196-8.406l-0.727-1.141c-1.504-2.243-2.292-3.332-3.738-5.085c1.934-1.516,5.437-4.234,5.437-9.435
		c0-5.925-4.478-9.43-11.48-9.43c-0.605,0-5.686,0.239-7.315,0.239c-1.562,0-5.258-0.239-6.472-0.239c-0.901,0-1.628,0-1.628,0.541
		c0,0.607,0.358,0.786,1.628,0.907c2.601,0.241,3.573,1.275,3.573,3.811v23.033c0,3.203-1.084,4.717-3.626,5.203
		c-0.966,0.178-1.216,0.363-1.216,0.847c0,0.604,0.423,0.604,1.453,0.604c1.396,0,5.082-0.24,6.347-0.24
		c1.63,0,6.225,0.24,7.204,0.24c0.534,0,0.841-0.061,0.841-0.604c0-0.429-0.307-0.601-1.275-0.847
		c-2.781-0.604-3.923-2.119-3.923-5.316v-8.834c3.378,0,4.228,0.183,6.589,3.751L273.953,443.989z"/>
	<path d="M316.283,424.19c0.176,0.967,0.245,1.451,0.245,1.812c0,0.661-0.245,1.085-0.608,1.085c-0.604,0-0.973-0.479-1.328-1.987
		c-1.697-6.171-5.201-9.736-9.613-9.736c-3.19,0-5.431,1.932-5.431,4.65c0,3.634,3.201,5.265,7.673,7.565
		c7.728,3.867,10.631,6.045,10.631,11.486c0,6.163-4.467,9.972-11.664,9.972c-1.025,0-5.854-0.42-6.77-0.42
		c-1.756,0-1.928,0.42-2.65,0.42c-0.49,0-0.664-0.3-0.664-1.387c0-2.657-0.36-5.198-1.162-9.079
		c-0.176-0.653-0.465-2.045-0.465-2.658c0-0.485,0.227-0.783,0.649-0.783c0.616,0,0.911,0.427,1.334,2.06
		c2.604,9.251,9.365,9.732,11.359,9.732c3.697,0,5.8-1.929,5.8-5.318c0-4.171-4.338-6.353-8.458-8.344
		c-4.415-2.234-9.724-4.833-9.724-11.004c0-4.897,4.228-8.832,9.541-8.832c1.27,0,2.905,0.246,5.502,0.73
		c1.27,0.238,2.061,0.354,2.349,0.354c0.79,0,1.156-0.183,1.572-0.78c0.241-0.364,0.383-0.427,0.609-0.427
		c0.36,0,0.794,0.121,0.671,2.539c-0.061,2.908,0.237,5.742,0.483,7.319L316.283,424.19z"/>
	<path d="M340.057,442.028c0,3.26,0.849,4.476,3.511,4.95c1.145,0.242,1.454,0.429,1.454,0.978c0,0.843-0.979,0.782-2.236,0.782
		c-1.333,0-3.503-0.239-5.509-0.239c-1.937,0-5.253,0.239-6.401,0.239c-1.035,0-1.631-0.06-1.631-0.782
		c0-0.304,0.304-0.489,1.204-0.668c2.72-0.486,3.747-1.871,3.747-5.202v-22.188c0-2.836-1.323-4.297-4.22-4.655
		c-0.788-0.122-1.21-0.181-1.21-0.789c0-0.479,0.291-0.659,1.21-0.659c0.53,0,5.008,0.238,7.006,0.238
		c2.173,0,5.324-0.238,5.922-0.238c0.907,0,1.639,0,1.639,0.605c0,0.42-0.181,0.603-1.028,0.843
		c-2.423,0.72-3.456,2.237-3.456,4.896L340.057,442.028L340.057,442.028z"/>
	<path d="M355.794,414.032h30.991l2.186,9.252c0.059,0.427,0.059,0.903-0.423,0.903c-0.48,0-0.912-0.417-1.817-1.811
		c-2.351-3.449-5.801-6.287-9.963-6.287h-2.542v26.965c0,2.175,1.021,3.326,3.433,3.864c0.857,0.189,1.456,0.368,1.456,1.036
		c0,0.657-0.96,0.782-2.163,0.782c-1.457,0-3.869-0.239-5.688-0.239c-1.817,0-5.563,0.239-6.407,0.239
		c-0.967,0-1.576-0.363-1.576-0.842c0-0.552,0.368-0.787,1.445-0.978c2.479-0.48,3.575-1.689,3.575-3.685v-27.089h-1.879
		c-1.868,0-6.767,0-11.129,6.957c-0.529,0.904-0.836,1.205-1.131,1.205c-0.369,0-0.553-0.237-0.553-0.721
		c0-0.186,0.119-0.671,0.242-1.145L355.794,414.032z"/>
	<path d="M411.982,432.533l-10.195-14.688c-1.046-1.458-1.958-2.178-3.402-2.48c-0.66-0.183-0.839-0.302-0.839-0.728
		c0-0.843,0.96-0.843,2.051-0.843c1.214,0,3.634,0.238,5.438,0.238c1.748,0,4.289-0.238,5.201-0.238
		c0.781,0,1.268,0.238,1.268,0.779c0,0.367-0.243,0.547-1.035,0.729c-1.311,0.234-1.789,0.719-1.789,1.637
		c0,0.478,0.171,1.203,0.479,1.624l7.432,10.766l6.409-9.854c0.589-0.851,0.897-1.758,0.897-2.415c0-1.1-0.676-1.642-2.061-1.818
		c-0.722-0.062-0.964-0.24-0.964-0.669c0-0.478,0.608-0.779,1.57-0.779c0.491,0,2.178,0.238,3.448,0.238
		c1.319,0,3.502-0.238,4.229-0.238c0.909,0,1.395,0.182,1.395,0.539c0,0.424-0.308,0.729-1.09,0.909
		c-1.88,0.541-3.024,1.452-4.467,3.687l-8.044,12.396v11.73c0,2.536,0.842,3.567,3.324,3.925c1.266,0.184,1.63,0.428,1.63,1.034
		c0,0.543-0.364,0.725-1.508,0.725c-0.907,0-4.708-0.239-6.045-0.239c-1.336,0-5.018,0.239-6.114,0.239
		c-1.147,0-1.808,0-1.808-0.663c0-0.54,0.428-0.729,1.633-0.966c2.353-0.365,2.958-1.146,2.958-3.687L411.982,432.533
		L411.982,432.533z"/>
	<path d="M476.964,414.881c7.555,0,12.632,6.771,12.632,16.869c0,11.485-6.099,15.902-11.899,15.902
		c-7.552,0-12.335-6.772-12.335-17.475C465.36,422.075,468.386,415.062,476.964,414.881z M477.565,413.001
		c-11.409,0-18.366,8.234-18.366,19.169c0,6.05,3.206,17.173,17.891,17.173c11.311,0,18.793-7.439,18.793-18.734
		C495.883,420.623,488.515,413.001,477.565,413.001z"/>
	<path d="M514.927,430.294v11.124c0,4.118,1.082,5.562,4.22,5.691c1.021,0.054,1.327,0.179,1.327,0.596
		c0,0.67-0.484,1.033-1.45,1.033c-0.541,0-5.312-0.239-6.228-0.239c-1.03,0-6.043,0.239-7.191,0.239
		c-0.96,0-1.382-0.239-1.382-0.842c0-0.431,0.172-0.676,0.848-0.733c1.632-0.185,3.931-0.479,3.931-4.531v-20.13
		c0-4.716-0.966-6.599-3.637-6.9c-1.013-0.182-1.391-0.358-1.391-0.906c0-0.662,0.492-0.662,1.521-0.662h21.578l5.181-0.238
		l2.298,9.068c0.12,0.422,0.249,1.446-0.355,1.446c-0.367,0-0.558-0.237-1.091-1.146c-1.812-3.025-4.77-7.261-14.266-7.261
		c-1.204,0-2.049,0.059-3.8,0.188c-0.112,0.971-0.185,2.231-0.185,4.59v7.562h6.471c5.865,0,6.646-0.297,6.833-2.778
		c0.108-1.032,0.231-1.275,0.774-1.275c0.848,0,0.848,0.485,0.848,2.722c0,4.841,0.296,6.657,0.296,7.381
		c0,0.726-0.172,1.331-0.781,1.331c-0.531,0-0.96-0.671-1.197-2.18c-0.436-2.54-0.906-3.147-7.442-3.147h-5.729V430.294z"/>
	<path d="M60.571,524.484c0,5.981,1.697,7.449,8.24,7.449c5.99,0,19.762,0,29.364-14.793c1.133-1.582,1.585-2.038,2.491-2.038
		c0.565,0,1.008,0.57,1.008,1.247c0,0.678-0.565,2.261-1.583,4.629c-2.256,5.426-3.727,9.155-4.961,14.689l-26.766-0.452
		l-25.184,0.452c-2.488,0-3.164-0.226-3.164-1.24c0-1.019,0.907-1.134,2.486-1.471c7.114-1.36,7.114-3.841,7.114-16.379v-35.817
		c0-5.428-1.017-6.776-5.98-7.228c-2.602-0.233-3.282-0.57-3.282-1.697c0-0.9,0.907-1.47,2.261-1.47c1.241,0,9.6,0.452,11.41,0.452
		c4.515,0,11.967-0.452,13.324-0.452c1.125,0,2.144,0,2.144,1.356c0,1.016-0.682,1.576-2.936,1.689
		c-2.598,0.234-5.986,0.682-5.986,6.439V524.484z"/>
	<path d="M132.236,523.124c0,6.103,1.585,8.367,6.553,9.274c2.148,0.441,2.712,0.782,2.712,1.806c0,1.576-1.812,1.465-4.177,1.465
		c-2.486,0-6.558-0.452-10.277-0.452c-3.618,0-9.824,0.452-11.973,0.452c-1.918,0-3.052-0.111-3.052-1.465
		c0-0.57,0.566-0.909,2.261-1.246c5.078-0.906,7.007-3.503,7.007-9.715v-41.469c0-5.311-2.489-8.016-7.912-8.692
		c-1.467-0.232-2.256-0.343-2.256-1.472c0-0.904,0.562-1.243,2.256-1.243c1.015,0,9.376,0.452,13.106,0.452
		c4.066,0,9.933-0.452,11.062-0.452c1.7,0,3.049,0,3.049,1.129c0,0.787-0.342,1.129-1.92,1.586c-4.519,1.35-6.439,4.18-6.439,9.146
		V523.124z"/>
	<path d="M165.211,479.295c-3.72-4.409-5.421-5.646-8.585-6.105c-1.241-0.34-1.579-0.563-1.579-1.465
		c0-0.904,0.452-1.356,1.359-1.356c0.675,0,8.246,0.452,8.92,0.452c0.674,0,4.74-0.452,5.533-0.452c1.127,0,1.686,0.228,3.052,1.585
		l43.7,46.318v-36.155c0-5.531-2.489-8.355-7.901-9.033c-1.361-0.118-2.603-0.343-2.603-1.356c0-1.131,0.564-1.357,1.923-1.357
		c1.348,0,8.465,0.452,10.269,0.452c1.812,0,8.465-0.452,9.607-0.452c1.118,0,1.692,0.228,1.692,1.129
		c0,0.787-0.339,1.02-1.925,1.354c-4.623,0.909-6.55,3.844-6.55,9.942v51.294c0,1.807-0.222,2.256-1.355,2.256
		c-0.561,0-1.127-0.221-1.46-0.45l-49.914-52.523v38.182c0,7.451,2.036,10.502,7.791,11.291c1.692,0.231,2.145,0.342,2.145,1.476
		c0,1.01-0.676,1.354-3.168,1.354c-1.918,0-6.66-0.452-9.479-0.452c-2.708,0-8.246,0.452-9.376,0.452
		c-0.68,0-1.017-0.452-1.017-1.126c0-0.909,0.337-1.133,1.923-1.471c5.307-0.912,7-4.071,7-12.996v-40.785H165.211z"/>
	<path d="M271.399,468.669c5.305,0,11.628,1.355,17.619,3.614c1.352,0.565,2.484,0.905,2.83,0.905c0.672,0,1.117-0.34,2.133-1.236
		c0.908-0.91,1.362-1.133,1.935-1.133c0.896,0,1.344,1.018,1.344,6.212c0,4.065,0.111,9.15,0.565,12.771
		c0.107,0.905,0.339,3.05,0.339,3.725c0,1.018-0.229,1.695-0.793,1.695c-0.897,0-1.354-0.791-1.912-3.158
		c-4.751-18.078-19.652-20.11-23.15-20.11c-12.872,0-20.666,11.182-20.666,29.712c0,19.093,9.598,31.294,24.497,31.294
		c7.34,0,15.364-3.282,21.349-8.701c0.557-0.561,0.904-0.795,1.351-0.795c0.455,0,0.683,0.456,0.683,1.022
		c0,1.243-9.151,12.317-25.748,12.317c-20.665,0-33.654-13.341-33.654-34.688C240.12,482.228,252.758,468.669,271.399,468.669z"/>
	<path d="M345.333,473.102c14.109,0,23.596,12.65,23.596,31.522c0,21.466-11.399,29.71-22.24,29.71
		c-14.12,0-23.029-12.656-23.029-32.653C323.658,486.55,329.287,473.443,345.333,473.102z M346.462,469.594
		c-21.343,0-34.322,15.367-34.322,35.823c0,11.291,5.979,32.083,33.413,32.083c21.121,0,35.125-13.894,35.125-35.025
		C380.678,483.837,366.892,469.594,346.462,469.594z"/>
	<path d="M410.147,524.484c0,5.981,1.69,7.449,8.252,7.449c5.974,0,19.75,0,29.345-14.793c1.133-1.582,1.581-2.038,2.49-2.038
		c0.562,0,1.01,0.57,1.01,1.247c0,0.678-0.563,2.261-1.578,4.629c-2.261,5.426-3.726,9.155-4.971,14.689l-26.767-0.452l-25.17,0.452
		c-2.487,0-3.164-0.226-3.164-1.24c0-1.019,0.894-1.134,2.479-1.471c7.125-1.36,7.125-3.841,7.125-16.379v-35.817
		c0-5.428-1.021-6.776-5.995-7.228c-2.604-0.233-3.278-0.57-3.278-1.697c0-0.9,0.912-1.47,2.261-1.47
		c1.247,0,9.596,0.452,11.405,0.452c4.523,0,11.971-0.452,13.333-0.452c1.126,0,2.145,0,2.145,1.356
		c0,1.016-0.668,1.576-2.941,1.689c-2.607,0.234-5.979,0.682-5.979,6.439L410.147,524.484L410.147,524.484z"/>
	<path d="M469.602,479.348c-3.72-4.41-5.409-5.646-8.578-6.106c-1.235-0.331-1.588-0.562-1.588-1.461
		c0-0.903,0.465-1.366,1.365-1.366c0.677,0,8.244,0.463,8.925,0.463c0.674,0,4.736-0.463,5.521-0.463
		c1.14,0,1.708,0.235,3.063,1.587l43.696,46.322v-36.149c0-5.54-2.479-8.359-7.913-9.045c-1.355-0.111-2.593-0.333-2.593-1.349
		c0-1.131,0.563-1.366,1.914-1.366c1.356,0,8.469,0.463,10.284,0.463c1.8,0,8.468-0.463,9.586-0.463
		c1.139,0,1.697,0.235,1.697,1.138c0,0.79-0.334,1.016-1.919,1.358c-4.631,0.903-6.544,3.834-6.544,9.935v51.295
		c0,1.811-0.226,2.26-1.36,2.26c-0.562,0-1.128-0.228-1.46-0.449l-49.913-52.536v38.189c0,7.455,2.039,10.5,7.791,11.293
		c1.692,0.224,2.148,0.341,2.148,1.47c0,1.021-0.683,1.354-3.171,1.354c-1.918,0-6.66-0.447-9.482-0.447
		c-2.707,0-8.24,0.447-9.37,0.447c-0.682,0-1.014-0.447-1.014-1.125c0-0.905,0.332-1.125,1.916-1.475
		c5.314-0.896,6.995-4.062,6.995-12.989v-40.783H469.602z"/>
</g>
<g>
	<g>
		<path fill="#747678" d="M174.305,338.13c1.61-2.629-1.422-7.08-6.434-4.29c-1.605,0.905-3.83,2.139-4.012,2.238
			c-0.203,1.02-0.389,2.014-0.604,3.045c0.315-0.102,1.219-0.114,1.682,0.706c1.004,1.802,4.276,7.688,5.245,9.419
			c3.579-1.701,4.871-2.412,6.095-3.293C180.63,342.841,177.634,337.991,174.305,338.13z M166.424,337.048
			c0.506-0.28,1.056-0.59,1.881-1.051c3.3-1.84,5.547,2.303,1.835,3.474c-0.094,0.486-0.302,1.6-0.525,2.607
			c-0.941-1.684-1.866-3.346-2.062-3.7C167.234,337.809,166.836,337.374,166.424,337.048z M173.972,344.868
			c-0.496,0.28-0.961,0.591-2.193,1.094c-0.188-0.34-1.12-2.006-2.059-3.69c0.002-0.01,0.004-0.019,0.004-0.024
			c-0.002,0-0.006,0.007-0.013,0.007c-0.031-0.056-0.062-0.109-0.094-0.166c0.599-0.34,1.263-0.708,1.611-0.887
			C175.01,339.212,177.065,343.143,173.972,344.868z"/>
		<path fill="#747678" d="M158.711,352.02c-0.317,0.129-2.481,1.051-3.016,1.277c-0.982-2.309-2.918-6.869-3.388-7.975
			c-0.881-2.081-2.814-2.62-3.43-2.684c-0.306,0.983-0.597,1.957-0.921,2.959c0.324-0.07,1.223,0.014,1.592,0.885
			c0.807,1.895,3.121,7.34,4.212,9.916c1.295-0.556,7.955-3.383,8.907-3.783c-0.756-0.479-1.965-1.256-2.75-1.779
			C159.894,351.507,159,351.889,158.711,352.02z"/>
		<path fill="#747678" d="M207.602,324.57c-1.188-2.217-3.054-5.715-3.626-6.771c-0.26-0.497-0.612-1.018-1.113-1.212
			c1.068-0.571,1.732-0.926,1.88-1.006c0.877-0.466,1.431-0.445,1.704-0.19c0.239-1.084,0.429-2.039,0.722-3.488
			c-1.663,0.897-8.775,4.703-10.513,5.631c-0.118,0.543-0.559,2.615-0.746,3.499c0.391-0.608,0.8-1.16,1.8-1.699
			c0.773-0.411,0.85-0.451,1.73-0.921c0.642-0.346,1.391-0.156,1.824,0.648c0.973,1.823,4.089,7.646,5.408,10.106
			c0.769-1.14,1.784-2.649,2.327-3.461C208.665,325.677,208.132,325.572,207.602,324.57z"/>
		<path fill="#747678" d="M404.305,334.518c1.054,0.604,1.701,0.971,1.851,1.056c0.869,0.487,1.145,0.971,1.073,1.342
			c1.044-0.383,1.947-0.726,3.332-1.245c-1.645-0.939-8.649-4.926-10.36-5.902c-0.525,0.189-2.508,0.92-3.357,1.229
			c0.722,0.007,1.408,0.062,2.394,0.621c0.758,0.437,0.832,0.479,1.698,0.975c0.636,0.365,0.878,1.093,0.423,1.892
			c-1.021,1.789-4.295,7.531-5.67,9.955c1.375,0.041,3.192,0.096,4.172,0.129c-0.16-0.297-0.349-0.807,0.209-1.784
			c1.241-2.187,3.209-5.629,3.803-6.683C404.148,335.611,404.402,335.043,404.305,334.518z"/>
		<path fill="#747678" d="M366.004,311.016c-1.641-0.82-2.287-1.139-4.074-2.025l-0.004-0.004c-0.004,0-0.004,0-0.004,0
			c-0.949,0.404-1.877,0.814-2.838,1.223c0.254,0.197,0.779,0.941,0.355,1.784c-0.921,1.845-3.722,7.485-4.964,9.979
			c1.168-0.021,2.943-0.066,4.152-0.104c-0.213-0.324-0.395-0.74,0.113-1.755c0.449-0.907,0.746-1.51,0.965-1.947
			C367.732,324.475,372.246,314.121,366.004,311.016z M362.221,317.078c-0.721,0.314-1.907,0.826-2.51,1.076
			c0.969-1.932,1.994-4,2.408-4.82c0.291-0.586,0.426-1.158,0.463-1.682c0.508,0.25,1.061,0.522,1.887,0.938
			C367.855,314.275,365.277,319.484,362.221,317.078z"/>
		<path fill="#747678" d="M198.789,330.088c-1.471-0.21-2.662-0.574-4.484-1.479c5.023-3.914-0.076-10.006-5.236-7.051
			c-1.594,0.916-3.808,2.188-3.988,2.291c-0.188,1.016-0.36,2.016-0.562,3.051c0.309-0.107,1.217-0.131,1.684,0.686
			c1.028,1.789,4.563,7.955,5.547,9.672c0.693-1.055,1.663-2.598,2.236-3.515c-0.345-0.024-0.872-0.103-1.451-1.11
			c-0.39-0.685-0.926-1.637-1.371-2.412c-0.973-1.695-1.947-3.393-2.36-4.113c-0.324-0.572-0.725-1.002-1.141-1.321
			c0.496-0.288,1.044-0.603,1.862-1.071c3.28-1.882,5.824,2.665,2.129,3.877c-0.146,0.78-0.434,2.309-0.49,2.629
			c3.457,2.032,5.782,2.643,7.239,2.727c2.712,0.175,3.984-2.913,4.3-4.241C202.542,329.236,201.273,330.428,198.789,330.088z"/>
		<path fill="#747678" d="M355.379,314.859c-0.197,0.396-1.02,1.102-2.672,0.824c-0.32-3.771-0.809-11.041-0.809-11.041
			l-11.562,11.396l2.496,0.979c0,0,0.914-0.908,2.076-2.039c1.004,0.396,3.5,1.366,4.852,1.9c0.027,0.241,0.193,2.79,0.242,3.378
			c1.18-0.141,2.016-0.239,3.631-0.423c-0.69-0.465-0.766-1.533-0.83-2.389C354.287,317.092,355.139,315.708,355.379,314.859z
			 M346.568,313.352c1.118-1.103,2.198-2.16,2.764-2.711c0.082,1.127,0.172,2.506,0.283,3.907
			C348.426,314.085,347.236,313.615,346.568,313.352z"/>
		<path fill="#747678" d="M423.416,350.773c-0.223,0.389-1.084,1.039-2.715,0.653c-0.084-3.782-0.119-11.06-0.119-11.06
			l-12.24,10.65l2.426,1.129c0,0,0.97-0.836,2.195-1.897c0.98,0.451,3.406,1.574,4.732,2.188c0.006,0.244,0.016,2.795,0.032,3.392
			c1.185-0.065,2.025-0.113,3.648-0.201c-0.66-0.505-0.672-1.58-0.682-2.433C422.193,352.932,423.135,351.607,423.416,350.773z
			 M414.725,348.721c1.187-1.027,2.326-2.015,2.918-2.535c0.021,1.141,0.021,2.516,0.043,3.922
			C416.527,349.562,415.373,349.023,414.725,348.721z"/>
		<path fill="#747678" d="M186.21,337.625c-0.973,0.566-1.393,0.807-2.814,1.637c-0.617-1.054-1.354-2.33-2.117-3.631
			c0.508-0.293,0.91-0.531,1.319-0.765c0.862-0.507,1.41-0.507,1.696-0.259c0.188-1.09,0.345-2.045,0.588-3.5
			c-0.366,0.205-3.146,1.828-4.654,2.717c-0.642-1.092-1.026-1.758-1.2-2.053c-0.331-0.57-0.733-0.996-1.156-1.316
			c1.361-0.794,1.607-0.941,2.568-1.494c0.861-0.505,1.416-0.505,1.697-0.257c0.194-1.103,0.349-2.05,0.593-3.511
			c-3.114,1.824-4.458,2.604-7.437,4.343c-0.071,0.47-0.349,2.021-0.541,3.054c0.307-0.107,1.212-0.132,1.688,0.686
			c1.039,1.781,4.018,6.896,5.426,9.307c1.505-0.878,6.685-3.895,8.364-4.876c-0.978-0.449-2.023-0.947-2.963-1.422
			C187.342,336.959,186.479,337.466,186.21,337.625z"/>
		<path fill="#747678" d="M376.713,331.016c-0.975-0.566-1.393-0.812-2.818-1.625c0.609-1.067,1.343-2.334,2.095-3.646
			c0.508,0.295,0.908,0.522,1.317,0.758c0.863,0.499,1.144,0.978,1.072,1.347c1.033-0.375,1.939-0.721,3.33-1.236
			c-0.367-0.209-3.156-1.815-4.678-2.684c0.629-1.098,1.016-1.757,1.188-2.062c0.326-0.574,0.496-1.132,0.562-1.656
			c1.367,0.784,1.619,0.927,2.576,1.481c0.864,0.496,1.139,0.979,1.063,1.345c1.049-0.371,1.955-0.714,3.344-1.229
			c-3.131-1.8-4.475-2.568-7.469-4.289c-0.443,0.17-1.93,0.698-2.918,1.049c0.244,0.216,0.721,0.983,0.246,1.803
			c-1.027,1.791-3.98,6.92-5.375,9.344c1.514,0.867,6.715,3.854,8.395,4.831c-0.096-1.08-0.182-2.239-0.245-3.276
			C377.855,331.662,376.982,331.164,376.713,331.016z"/>
		<path fill="#747678" d="M165.392,347.909c-1.089-2.273-2.748-5.737-3.267-6.821c-0.975-2.031-2.927-2.49-3.544-2.521
			c-0.264,1.004-0.51,1.98-0.784,2.998c0.317-0.08,1.221-0.037,1.627,0.815c0.893,1.858,3.62,7.562,4.827,10.081
			c0.825-1.117,1.907-2.572,2.481-3.359C166.402,349.057,165.881,348.922,165.392,347.909z"/>
		<path fill="#747678" d="M408.389,347.434c1.273-2.168,3.209-5.483,3.814-6.521c1.139-1.951,0.424-3.823,0.104-4.354
			c-0.977,0.346-1.932,0.688-2.922,1.031c0.244,0.217,0.715,0.988,0.236,1.807c-1.039,1.783-4.225,7.242-5.639,9.654
			c1.383,0.057,3.202,0.125,4.174,0.17C408.008,348.92,407.826,348.408,408.389,347.434z"/>
		<path fill="#747678" d="M373.291,319.249c1.109-1.974,0.357-3.832,0.031-4.354c-0.974,0.357-1.918,0.721-2.906,1.073
			c0.25,0.214,0.734,0.983,0.266,1.804c-1.006,1.801-4.104,7.312-5.471,9.75c1.377,0.031,3.195,0.076,4.172,0.092
			c-0.154-0.287-0.35-0.795,0.205-1.778C370.814,323.641,372.703,320.289,373.291,319.249z"/>
		<path fill="#747678" d="M275.969,348.92c-1.838,0-2.549,0-4.553,0c0,0-0.002,0-0.004-0.007c0,0.007,0,0.007,0,0.007l0,0
			c-0.674,0.787-1.316,1.564-2.002,2.354c0.316,0.066,1.117,0.498,1.117,1.443c0,2.064,0,8.35,0,11.145
			c1.037-0.537,2.605-1.371,3.676-1.943c-0.338-0.189-0.689-0.488-0.689-1.623c0-1.001,0-1.681,0.002-2.168
			C283.51,360.201,282.941,348.92,275.969,348.92z M275.289,356.036c-0.512,0.597-1.354,1.585-1.773,2.079c0-2.162,0-4.469,0-5.395
			c0-0.654-0.127-1.227-0.328-1.705c0.564,0,1.186,0,2.109,0C279.072,351.018,279.094,356.823,275.289,356.036z"/>
		<path fill="#747678" d="M294.121,352.781c0,2.059,0,9.166,0,11.146c1.127-0.571,2.736-1.428,3.689-1.942
			c-0.287-0.186-0.707-0.521-0.707-1.678c0-0.785,0.01-1.886,0.01-2.785c0-1.955,0-3.912,0-4.738c0-0.655-0.133-1.223-0.334-1.717
			c0.58,0,1.207,0,2.15,0c3.782,0,3.723,5.216-0.082,4.424c-0.513,0.6-1.525,1.791-1.734,2.031c1.981,3.488,3.705,5.17,4.922,5.973
			c2.275,1.496,4.908-0.551,5.842-1.545c-0.402,0.385-2.096,0.787-4.076-0.746c-1.174-0.908-2.029-1.818-3.162-3.508
			c6.3-0.906,4.916-8.725-1.035-8.725c-1.838,0-4.385,0-4.594,0c-0.672,0.795-1.322,1.571-2.002,2.367
			C293.326,351.402,294.121,351.835,294.121,352.781z"/>
		<path fill="#747678" d="M290.373,351.639c0.727-0.855,1.338-1.595,2.281-2.734c-3.609,0-5.158,0.003-8.611,0.003
			c-0.301,0.368-1.32,1.575-2.006,2.368c0.32,0.063,1.119,0.492,1.119,1.438c0,2.062-0.002,7.978-0.002,10.771
			c1.738,0,7.735,0,9.682,0c-0.617-0.881-1.275-1.84-1.848-2.715c-0.279,0.613-1.277,0.621-1.584,0.621c-1.131,0-1.613,0-3.256,0
			c0-1.224,0-2.691,0-4.201c0.58,0,1.051,0,1.52,0c0.998,0,1.477,0.278,1.596,0.635c0.711-0.844,1.33-1.592,2.273-2.736
			c-0.42,0-3.641,0-5.389,0.002c-0.004-1.261-0.004-2.021-0.004-2.369c0-0.654-0.133-1.229-0.336-1.72c1.578,0,1.861,0,2.971,0
			C289.775,351.001,290.256,351.277,290.373,351.639z"/>
		<path fill="#747678" d="M310.699,356.693c2.162,0.141,2.668,1.785,4.992,1.785c2.147,0,3.493-1.31,4.08-2.695
			c-1.177,1.023-2.279,1.16-3.312,1.16c-1.898,0-2.949-1.803-5.07-1.803c-3.041,0-3.948,2.258-4.141,2.694
			C308.932,356.503,310.355,356.676,310.699,356.693z"/>
		<path fill="#747678" d="M258.428,355.077c-3.039,0-3.947,2.247-4.139,2.69c1.678-1.332,3.105-1.166,3.447-1.14
			c2.166,0.132,2.666,1.784,4.994,1.784c2.152,0,3.496-1.312,4.078-2.696c-1.174,1.021-2.275,1.155-3.305,1.155
			C261.604,356.872,260.553,355.077,258.428,355.077z"/>
		<path fill="#747678" d="M220.749,318.335c2.07-1.59,1.377-3.586,0.793-4.562c0.201,0.525,0.19,1.916-2.499,3.178
			c-3.398-2.783-8.612-7.062-8.612-7.062l0.329,16.213l2.433-1.138c0,0-0.027-1.269-0.054-2.894
			c0.979-0.461,3.118-1.463,4.724-2.217c1.221,1.013,2.27,1.875,2.613,2.142c0.695-0.948,1.668-2.259,2.178-2.927
			C222.049,319.2,221.387,318.824,220.749,318.335z M213.093,319.743c-0.031-1.578-0.059-3.101-0.069-3.896
			c0.61,0.498,1.784,1.475,3.029,2.502C214.886,318.9,213.735,319.441,213.093,319.743z"/>
		<path fill="#747678" d="M226.427,309.7c-2.025,0.05-3.289-0.013-3.731-1.146c-0.362-0.918,0.071-2.063,1.688-2.699
			c1.588-0.623,2.37-0.047,2.549,0.535l0.95-2.838c-1.039-0.309-2.651-0.177-4.188,0.43c-3.22,1.264-4.462,3.81-3.546,6.14
			c0.778,1.979,2.748,2.655,5.328,2.56c1.869-0.062,2.971-0.066,3.452,1.151c0.429,1.101-0.105,2.265-1.51,2.817
			c-1.303,0.51-2.379,0.029-2.537-0.625l-1.909,2.228c1.401,1.035,3.51,0.903,5.07,0.289c3.447-1.349,4.4-3.96,3.497-6.247
			C230.704,310.156,229,309.629,226.427,309.7z"/>
		<path fill="#747678" d="M338.896,307.557c-1.513-1.346-2.39-2.261-1.941-3.377c0.369-0.927,1.473-1.468,3.084-0.822
			c1.582,0.637,1.754,1.591,1.488,2.139l2.633-1.42c-0.535-0.943-1.805-1.942-3.344-2.551c-3.207-1.285-5.861-0.274-6.789,2.043
			c-0.787,1.982,0.186,3.822,2.139,5.514c1.402,1.238,2.209,1.99,1.725,3.206c-0.438,1.101-1.623,1.581-3.028,1.021
			c-1.299-0.521-1.754-1.608-1.424-2.197l-2.91,0.32c0.305,1.715,1.938,3.062,3.491,3.685c3.443,1.375,5.921,0.12,6.828-2.162
			C341.699,310.814,340.816,309.275,338.896,307.557z"/>
		<path fill="#747678" d="M395.707,330.861c0.855-1.457,0.328-2.861,0.09-3.26c-0.731,0.258-1.449,0.506-2.195,0.758
			c0.187,0.17,0.535,0.752,0.177,1.359c-0.466,0.786-2.056,3.475-3.591,6.076c0,0-0.922-10.785-2.104-12.75
			c-0.84,0.284-1.752,0.605-2.922,1.02c0.221,0.22,0.697,0.979,0.227,1.772c-0.78,1.324-4.629,7.856-5.692,9.654
			c1.032,0.049,2.396,0.108,3.129,0.139c-0.117-0.222-0.254-0.606,0.174-1.333c0.539-0.91,2.174-3.675,3.291-5.568
			c0.457,4.224,1.328,11.438,1.328,11.438s2.391,0.107,3.123,0.141c-0.115-0.222-0.25-0.602,0.178-1.328
			C391.875,337.355,395.25,331.636,395.707,330.861z"/>
		<path fill="#747678" d="M435.521,347.59c0.563,0.271,0.721,1.077,0.198,1.637c-1.108,1.205-2.41,2.436-4.463,4.656
			c-0.805-3.064-1.953-7.732-2.287-9.021c-0.178-0.701-0.596-1.379-1.014-1.779c-0.641,0.439-1.894,1.314-2.545,1.76
			c0.309,0.146,0.918,0.805,0.695,1.635c-0.406,1.494-2.394,8.812-2.939,10.836c1.01-0.228,2.334-0.526,3.051-0.692
			c-0.17-0.183-0.403-0.517-0.184-1.337c0.211-0.78,0.803-2.946,1.25-4.618l2.221,8.37l5.742-6.152
			c-0.674,2.479-1.504,5.528-1.947,7.174c1.347-0.302,3.117-0.699,4.068-0.918c-0.228-0.256-0.535-0.69-0.236-1.781
			c0.658-2.426,1.664-6.135,1.979-7.297c0.584-2.174-0.588-3.803-1.039-4.229C437.219,346.413,436.389,347.006,435.521,347.59z"/>
		<path fill="#747678" d="M149.391,278.856c-2.809,4.608-8.664,8.836-16.994,14.421c-2.388,4.767-10.573,10.397-22.782,15.358
			c6.296-7.44,8.013-16.407,7.317-21.854c-6.875,15.653-13.367,23.299-18.713,28.64c16.613,1.907,54.228-26.637,54.228-26.637
			S153.594,282.297,149.391,278.856z"/>
		<path fill="#747678" d="M113.878,275.414c19.851-18.722,39.716-19.866,41.24-46.994
			C145.952,249.815,123.042,257.459,113.878,275.414z"/>
		<path fill="#747678" d="M243.525,212.14c-1.904-0.4-5.372,1.293-5.352,4.287c0,2.42,0,4.517,0,8.068
			c0.594,0.337,2.858,0.72,4.944,0.787c0.037,0.548-1.576,3.988-4.944,3.8c0,5.08,0,8.226,0,12.621
			c0.43,0.366,2.676,0.956,5.321,1.045c0.041,0.551-2.049,4.36-5.321,3.742c0,1.911,0,2.366,0,3.476c0,0.218,0.014,0.417,0.029,0.6
			c0.016,0.128,0.036,0.239,0.052,0.362c0.002,0.008,0.002,0.021,0.002,0.031c0.48,2.972,3.076,3.819,4.681,2.864
			c5.16,0.244,22.299-0.014,22.607-0.008c0.957-1.668,4.643-3.286,6.041-3.936c0.488-0.011,0.76,0.008,1.139,0.008
			c0-0.502,0.006-37.74,0.006-37.74S247.41,212.125,243.525,212.14z M269.621,247.19c-1.084,0.694-3.303,1.654-3.967,2.475
			l-0.133-30.021c-2.561-0.01-3.85-0.007-6.109,0h-13.795c0.004,0.008,0.008,0.016,0.012,0.023
			c-0.846-0.006-1.703-0.013-2.576-0.023c0,0-2.232,0.38-2.125-2.167c0.061-1.417,1.25-2.298,2.42-2.133
			c0.443-0.014,24.482-0.023,26.307-0.007L269.621,247.19z"/>
		<path fill="#747678" d="M294.949,301.732c2.086-5.164,7.373-8.078,14.988-8.694c-3.578-4.062-9.354-2.11-9.354-2.11
			s4.244-3.674,4.533-8.302c-4.533-0.807-8.976,3.059-8.976,3.059s2.344-4.823,0.863-9.403c-5.062,1.042-6.926,6.68-6.926,6.68
			s0.619-6.017-2.812-8.878c-0.002,0.004-0.006,0.016-0.008,0.022c0-0.006-0.006-0.018-0.008-0.022
			c-3.434,2.861-2.814,8.878-2.814,8.878s-1.865-5.632-6.92-6.68c-1.484,4.581,0.859,9.403,0.859,9.403s-4.443-3.866-8.973-3.059
			c0.283,4.635,4.529,8.308,4.529,8.308s-5.775-1.955-9.355,2.104c7.617,0.617,12.908,3.53,14.996,8.694H294.949L294.949,301.732z"
			/>
		<path fill="#747678" d="M294.473,312.869c0.728,5.156,1.777,7.632,3.891,11.597c0.355,0.865-0.577,2.655-2.436,1.578
			c0,2.339-2.861,3.867-5.084,2.124c-0.525,3.007-3.576,2.518-3.576,2.518v-0.016c-0.006,0.006-0.016,0.018-0.016,0.018
			s-3.055,0.487-3.576-2.52c-2.221,1.743-5.088,0.215-5.088-2.124c-1.857,1.077-2.789-0.713-2.43-1.578
			c2.113-3.965,3.162-6.438,3.891-11.597H294.473L294.473,312.869z"/>
		<path fill="#747678" d="M366.551,80.649c3.244-3.387,9.586-5.342,17.439-0.789c-7.996-0.166-10.188,3.266-10.144,6.321
			c0.097,6.344,4.531,11.876,10.429,17.42c-1.353,1.049-2.451,1.445-3.414,1.826c2.325,1.555,4.655,1.987,6.981,1.544
			c5.168,4.868,10.851,9.812,13.027,15.949c-0.711-4.993-3.773-11.707-9.519-16.986c2.322-1.033,4.117-2.533,4.748-3.544
			c3.625,7.353,17.369,22.438,37.613,18.237c-23.104-7.065-26.16-25.681-37.045-37.715c15.852,4.585,26.83,24.304,41.816,24.779
			c0.571-4.583,12.461-3.726,18.614-6.587c6.168-2.862,11.101-18.069-8.145-23.239c2.373,4.359,3.684,16.08-2.305,18.654
			c5.87-0.287,8.592-7.446,7.301-13.028c11.031,7.157,0.649,20.013-9.447,13.89c-13.461-8.167-18.334-12.174-32.178-16.76
			c5.729-2,19.094-3.052,26.158,1.913c-3.146-8.88-7.826-10.505-12.601-11.075c2.865-2.866,6.017-18.719-11.461-23.588
			c7.449,3.628,7.736,21.776-9.16,22.057c-8.69,0.151-21.805-0.636-31.936,1.388c-12.859,2.563-16.328,13.602-10.455,21.91
			C361.877,89.044,363.309,84.036,366.551,80.649z M386.633,101.75c-2.93-2.807-5.936-6.226-7.58-9.521
			c-2.791-5.63-0.93-10.559,7.854-9.296C389.994,87.794,391.326,96.239,386.633,101.75z"/>
		<path fill="#747678" d="M117.409,101.104c6.159,2.861,18.042,2.007,18.617,6.587c14.985-0.475,25.97-20.193,41.816-24.779
			c-10.886,12.035-13.939,30.65-37.041,37.715c20.239,4.201,33.985-10.885,37.611-18.234c0.631,1.008,2.424,2.508,4.749,3.541
			c-5.748,5.279-8.81,11.993-9.521,16.986c2.178-6.137,7.861-11.079,13.03-15.949c2.323,0.446,4.659,0.011,6.982-1.544
			c-1.402-0.555-2.397-1.029-3.414-1.826c5.694-5.47,10.57-10.966,10.378-17.8c-0.094-3.381-3.014-6.127-10.097-5.94
			c15.058-8.463,23.261,4.987,21.119,13.367c5.873-8.309,2.403-19.347-10.454-21.91c-10.133-2.024-23.245-1.237-31.938-1.388
			c-16.9-0.281-16.609-18.429-9.162-22.057c-17.475,4.872-14.324,20.725-11.461,23.588c-4.772,0.57-9.452,2.195-12.603,11.075
			c7.067-4.961,20.433-3.913,26.16-1.913c-13.841,4.585-18.71,8.595-32.174,16.76c-10.099,6.123-20.478-6.733-9.455-13.89
			c-1.283,5.582,1.438,12.741,7.309,13.028c-6.014-2.433-4.607-14.629-2.318-18.636C106.371,83.035,111.25,98.242,117.409,101.104z
			 M187.61,82.934c8.778-1.263,10.643,3.666,7.848,9.296c-1.641,3.295-4.646,6.713-7.579,9.521
			C183.188,96.239,184.523,87.794,187.61,82.934z"/>
		<path fill="#747678" d="M281.168,46.03c0,0-0.812-1.572-1.695-1.572c-0.885,0-1.572,1.595-1.572,1.595s1.232,1.398,1.572,2.343
			C280.211,46.938,281.168,46.03,281.168,46.03z"/>
		<path fill="#747678" d="M274.889,43.336c0.027,0.218,0.768,0.349,0.814,0.523c0.611,2.349,2.258,0.889,2.527-0.047
			C277.445,42.939,275.895,42.237,274.889,43.336z"/>
		<path fill="#747678" d="M283.111,43.932c0.047-0.177,0.785-0.304,0.814-0.528c-1.002-1.099-2.398-0.556-3.346,0.478
			C280.848,44.819,282.502,46.281,283.111,43.932z"/>
		<path fill="#747678" d="M457.582,286.782c-0.361,5.303,0.443,13.549,7.311,21.848c-4.936-2.075-18.834-7.959-22.774-15.353
			c-8.33-5.592-14.189-9.813-16.994-14.421c-4.195,3.438-3.053,9.929-3.053,9.929s37.614,28.544,54.227,26.637
			C470.949,310.081,464.457,302.438,457.582,286.782z"/>
		<path fill="#747678" d="M264.723,155.471c11.934,5.062,22.529,12.794,22.529,12.794l0.008-0.005l0.008,0.005
			c0,0,10.593-7.732,22.521-12.794c-10.494-0.377-22.521,8.285-22.521,8.285l-0.008,0.009l-0.008-0.009
			C287.252,163.756,275.227,155.093,264.723,155.471z"/>
		<path fill="#747678" d="M460.637,275.414c-9.164-17.956-32.074-25.598-41.242-46.996
			C420.928,255.548,440.783,256.691,460.637,275.414z"/>
	</g>
	<path fill="#747678" d="M296.963,307.396c0,1.422-1.154,2.576-2.576,2.576h-14.022c-1.422,0-2.574-1.154-2.574-2.576l0,0
		c0-1.422,1.152-2.574,2.574-2.574h14.022C295.809,304.822,296.963,305.977,296.963,307.396L296.963,307.396z"/>
	<path fill="#747678" d="M396.471,158.65"/>
	<path fill="#747678" d="M308.488,212.212c-1.902-0.401-5.371,1.292-5.35,4.286c0,2.42,0,4.519,0,8.068
		c0.594,0.337,2.856,0.72,4.942,0.788c0.037,0.548-1.576,3.986-4.942,3.798c0,5.08,0,8.227,0,12.621
		c0.428,0.367,2.676,0.957,5.317,1.044c0.043,0.552-2.049,4.362-5.317,3.745c0,1.909,0,2.363,0,3.474
		c0,0.218,0.01,0.418,0.028,0.601c0.013,0.126,0.035,0.239,0.051,0.361c0,0.009,0.003,0.02,0.003,0.031
		c0.479,2.973,3.075,3.821,4.682,2.864c5.157,0.244,22.299-0.011,22.606-0.007c0.957-1.668,4.644-3.287,6.041-3.936
		c0.488-0.01,0.76,0.008,1.137,0.008c0-0.501,0.009-37.741,0.009-37.741S312.373,212.194,308.488,212.212z M334.586,247.26
		c-1.084,0.694-3.303,1.654-3.967,2.475l-0.137-30.021c-2.558-0.011-3.849-0.008-6.105,0h-13.799
		c0.008,0.007,0.012,0.016,0.016,0.022c-0.85-0.006-1.703-0.012-2.578-0.022c0,0-2.229,0.38-2.123-2.167
		c0.062-1.417,1.25-2.298,2.416-2.134c0.447-0.011,24.486-0.022,26.31-0.006L334.586,247.26z"/>
	<path fill="#747678" d="M404.35,259.281c13.164,0.064,20.58,11.722,23.066,13.175c0.041-1.261,1.166-2.144,4.287-1.31
		c14.643,3.913,34.102,19.795,40.774,24.897c0.382-11.742-8.782-68.388-58.811-90.923c43.537,27.89,51.646,72.779,53.174,80.039
		c-11.455-11.275-22.812-17.673-39.998-27.224c-4.969-0.577-23.438-7.309-34.174-17.014c-8.981-3.043-14.615-16.801-8.887-27.971
		c-10.197,6.66-5.906,19.698-5.156,22.062c-13.125-9.106-17.266-24.869-12.84-34.72c9.504-20.184,45.766-28.097,51.692-47.392
		c3.996-12.997-11.262-18.332-21.497-16.722c-0.132-0.96-0.404-2.411-1.222-2.862c-3.084,10.345-15.778,12.883-25.848,8.258
		c-2.449-4.358,1.475-5.916,4.172-6.897c0.998-0.36,8.066,2.355,9.062-3.717c2.815-0.272,5.717-0.999,6.717-2.175
		c-2.633,0.086-7.783-0.923-11.248-0.274c-3.9,0.723-4.441,1.726-5.265,3.625c-0.709,1.667-1.979-0.754-4.803-1.54
		c2.994-3.265,11.285-9.537,27.978-3.093c19.856,0.188,29.217,8.161,31.315,17.18c6.297,27.115-38.574,39.91-40.865,56.331
		c8.595-1.241,15.277-0.187,21.576,1.429c-2.002-1.523-6.489-4.289-13.174-5.629c2.584-8.332,26.508-18.709,34.557-34.797
		c7.427-0.358,15.048,1.233,19.578,6.821c-2.936-7.99-10.278-10.122-18.268-9.897c1.133-3.118,1.674-6.441,1.42-9.991
		c7.207,1.235,12.301,3.92,16.201,7.573c6.729,6.306,3.299,19.36-6.803,20.553c-7.873,0.928-11.529-4.086-11.31-7.517
		c-5.924,11.453,6.82,18.375,6.82,18.375s-9.262,24.442,16.518,31.03c-13.176-9.163-10.022-24.922-3.147-32.938
		c6.871-8.022,11.375-18.046,3.981-28.444c-3.684-5.179-11.178-10.253-22.733-11.985c-2.521-12.126-12.824-19.71-34.195-21.362
		c-13.008-18.988-46.889-20.932-50.162-37.453c2.287,3.008,7.588,5.585,14.461,6.015c-7.875-2.437-14.963-10.903-18.785-16.06
		c-7.869,27.902,38.818,32.933,50.146,46.409c-19.015-5.883-27.967,6.563-27.967,6.563s-5.984,0.136-5.212,6.692
		c-1.366,2.271-4.651,3.796-7.901,5.064c-0.031-1.592,0.062-3.244,0.17-4.887h0.16c1.727,0,3.125-1.397,3.125-3.125
		c0-1.691-1.338-3.059-3.006-3.118c0.78-9.21,9.157-7.836,12.862-6.631c-2.725-8.557-12.93-6.226-12.93-6.226
		s1.262-11.276-4.184-15.161c-5.445,3.885-4.179,15.161-4.179,15.161s-10.209-2.331-12.932,6.226
		c3.705-1.205,12.082-2.579,12.867,6.631c-1.674,0.059-3.013,1.427-3.013,3.118c0,1.728,1.4,3.125,3.128,3.125h0.163
		c0.404,6.421,0.681,13.033-6.436,15.51c4.355,2.325,8.703,0.528,10.398-2.028c1.694,2.557,6.051,4.354,10.405,2.028
		c-3.489-1.212-5.198-3.42-5.992-6.108c4.939-0.633,9.404,0,14.548-0.966c4.075,1.362,20.131,5.531,29.202-6.258
		c0.808-0.064,1.613-0.112,2.398-0.142c-0.232,7.703-5.033,14.122-11.027,17.718c-9.541,5.731-32.077,10.21-46.205,1.431
		c-8.875-5.519-15.643-17.516-26.174-24.914c3.373-0.409,5.195-2.592,5.783-4.887c0.797-3.1-0.451-7.077-3.666-9.53l0.043-30.316
		v-9.931l-2.213,1.155l-3.518-18.964v-0.588c0.696-0.225,1.202-0.871,1.202-1.654c0-0.958-0.772-1.741-1.723-1.741
		s-1.719,0.783-1.719,1.741c0,0.798,0.524,1.459,1.236,1.669v0.583l-3.509,18.948l-2.211-1.148v7.975h-0.014v5.156h-0.549
		c-1.324-3.041-2.662-6.306-4.799-12.129c1.004,0.862,4.012,2.437,4.727,2.582c-2.719-9.452-5.398-25.654-15.561-31.604
		c-0.414-0.246-1.314-1.217-1.243-3.058c0.078-1.844,0.166-5.44-1.574-7.452c-1.387-1.604-3.992-2.086-6.158-2.148
		c-1.816-0.056-3.383,0.163-4.914,1.097c-4.395,2.677-3.152,10.792-3.152,10.792s-0.963,3.585-0.963,5.116
		c-5.912,8.212,3.92,15.874,7.074,18.812c0.832,6.394,1.145,6.727,1.715,10.167c-0.143,1.233-0.83,5.671-2.629,7.828h-6.715
		l-0.012-13.128l-2.215,1.152l-3.514-18.955v-0.583c0.717-0.209,1.242-0.869,1.242-1.669c0-0.958-0.773-1.741-1.721-1.741
		c-0.953,0-1.719,0.783-1.719,1.741c0,0.783,0.504,1.433,1.197,1.657v0.595l-3.504,18.904l-2.227-1.102v7.972v0.074v1.883h0.002
		l0.043,30.316c-3.213,2.453-4.465,6.43-3.668,9.53c0.59,2.299,2.412,4.482,5.783,4.887c-10.525,7.398-17.295,19.395-26.173,24.914
		c-14.128,8.779-36.661,4.3-46.206-1.431c-5.994-3.597-10.78-10.015-11.02-17.718c0.787,0.03,1.587,0.08,2.395,0.146
		c9.07,11.789,25.123,7.617,29.205,6.257c5.14,0.963,9.604,0.331,14.543,0.966c-0.796,2.685-2.504,4.893-5.993,6.105
		c4.359,2.325,8.712,0.528,10.404-2.028c1.699,2.557,6.046,4.354,10.405,2.028c-7.125-2.477-6.846-9.086-6.438-15.507h0.165
		c1.727,0,3.126-1.398,3.126-3.129c0-1.691-1.337-3.056-3.012-3.118c0.785-9.208,9.162-7.836,12.869-6.631
		c-2.723-8.557-12.931-6.226-12.931-6.226s1.266-11.276-4.184-15.161c-5.443,3.885-4.181,15.161-4.181,15.161
		s-10.208-2.331-12.929,6.226c3.704-1.205,12.082-2.576,12.864,6.631c-1.67,0.062-3.01,1.427-3.01,3.118
		c0,1.731,1.397,3.129,3.13,3.129h0.161c0.107,1.642,0.201,3.292,0.166,4.883c-3.246-1.268-6.533-2.792-7.896-5.064
		c0.765-6.557-5.219-6.692-5.219-6.692s-8.949-12.446-27.964-6.563c11.326-13.473,57.871-18.364,50.145-46.409
		c-3.816,5.156-10.91,13.626-18.784,16.06c6.872-0.43,12.173-3.007,14.463-6.015c-3.277,16.518-37.272,18.538-50.288,37.508
		c-21.159,1.46-31.729,9.384-34.068,21.308c-12.771,2.039-19.102,7.101-22.547,11.793c-7.685,10.463-3.081,20.612,3.791,28.634
		c6.875,8.016,10.025,23.775-3.147,32.938c25.775-6.587,16.516-31.025,16.516-31.025s12.745-6.927,6.825-18.38
		c0.22,3.434-3.437,8.445-11.312,7.517c-10.095-1.193-13.54-14.251-6.801-20.553c3.798-3.555,8.972-6.35,16.188-7.585
		c-0.264,3.555,0.288,6.887,1.422,10.01c-7.99-0.224-15.328,1.896-18.259,9.893c4.527-5.59,12.153-7.179,19.578-6.82
		c8.053,16.083,31.973,26.464,34.558,34.793c-6.685,1.34-11.172,4.105-13.178,5.629c6.308-1.616,12.985-2.667,21.579-1.429
		c-2.289-16.417-47.162-29.215-40.862-56.328c2.095-9.021,11.456-16.994,31.312-17.183c16.692-6.444,24.984-0.171,27.978,3.093
		c-2.821,0.789-4.093,3.207-4.809,1.542c-0.813-1.902-1.357-2.905-5.261-3.628c-3.461-0.648-8.612,0.361-11.246,0.274
		c1,1.176,3.904,1.903,6.714,2.175c1.002,6.075,8.069,3.356,9.07,3.717c2.692,0.981,6.618,2.539,4.17,6.897
		c-10.067,4.625-22.767,2.086-25.847-8.258c-0.816,0.452-1.089,1.902-1.224,2.862c-10.235-1.61-25.496,3.729-21.501,16.722
		c5.934,19.298,42.395,27.447,51.896,47.631c2.948,7.752,2.948,20.725-11.237,33.39c-1.091,0.742-1.802,1.091-1.802,1.091
		s5.441-15.475-5.156-22.062c5.73,11.17,0.097,24.928-8.889,27.971c-10.729,9.705-29.203,16.44-34.169,17.014
		c-17.184,9.55-28.548,15.949-40.001,27.224c1.526-7.26,9.643-52.149,53.177-80.039c-50.029,22.535-59.193,79.183-58.812,90.925
		c30.661-24.613,45.542-27.856,45.063-23.589c3.913-3.121,10.341-12.929,22.914-13.185c7.04-0.144-1.042,9.258-3.629,14.717
		c-5.446,11.458-7.73,18.332-7.447,21.77c0.334,4.037-4.391,2.287-5.345-2.001c0,1.812-0.383,2.289-0.383,5.346
		c0,3.049,6.875,11.357,7.447,19.186c4.769-0.957,4.914,2.152,13.313,2.533c0.056,0,0.107,0,0.159,0.002
		c-12.146,7.016-23.37,13.322-30.679,15.537c-3.626,1.097-7.646,2.156-11.458,2.602c1.401-2.927,3.463-5.32,5.942-6.686
		c-4.295-7.021-10.598-13.031-17.092-16.566c-11.454-0.286-17.948,19.096-10.31,25.59c4.879,0.575,14.711,16.911,23.518,23.068
		c2.205,1.724,4.959,2.793,8.541,2.793c1.393,0,2.908-0.159,4.567-0.501c13.942-2.873,29.722-12.046,46.434-21.757
		c17.575-10.203,35.6-20.676,51.12-23.15c2.885,5.496-7.416,11.359-11.116,12.771c-2.32,0.877-6.624,1.117-4.813,3.344
		c0.23,0.295,0.44,0.557,0.626,0.787c5.578,7.002,11.108,14.857,16.028,26.675l0.186,0.448l0.398,0.283
		c5.549,3.975,27.723,6.061,41.207,6.131c0.01,0,0.02,0,0.029,0c0.009,0,0.018,0,0.031,0c13.482-0.07,35.678-2.053,41.615-6.381
		c3.781-9.192,8.05-17.026,16.795-27.92c0.363-0.451,0.531-0.814,0.466-1.127c-0.259-1.24-3.396-1.539-5.25-2.24
		c-3.703-1.412-13.996-7.275-11.119-12.771c15.52,2.477,33.545,12.947,51.125,23.15c16.703,9.707,32.49,18.884,46.426,21.757
		c1.66,0.342,3.176,0.497,4.57,0.497c3.578,0,6.323-1.057,8.526-2.78c8.81-6.151,18.65-22.502,23.535-23.079
		c7.635-6.492,1.144-25.874-10.312-25.588c-6.496,3.535-12.8,9.547-17.095,16.566c2.482,1.363,4.548,3.758,5.945,6.686
		c-3.811-0.445-7.83-1.505-11.459-2.602c-7.303-2.215-18.533-8.521-30.678-15.537c0.057-0.002,0.1-0.002,0.158-0.002
		c8.399-0.385,8.545-3.49,13.313-2.533c0.57-7.827,7.451-16.137,7.451-19.186c0-3.057-0.385-3.533-0.379-5.349
		c-0.961,4.291-5.688,6.037-5.351,2.004c0.285-3.438-2.004-10.312-7.45-21.774c-1.293-2.728-4.601-7.315-5.744-10.177
		C401.598,261.845,400.719,259.263,404.35,259.281z M401.818,138.625c4.578,0.225,8.508,1.412,11.082,4.533
		c0.646,0.79,1,1.469,1.346,2.405c-4.414,0.675-8.91,2.11-13.691,4.102C401.605,146.03,402.023,142.27,401.818,138.625z
		 M399.328,153.193c5.002-2.429,10.336-3.895,15.613-4.563c0.149,4.253-2.365,9.374-8.152,14.388
		c-0.332,0.287-0.695,0.58-1.094,0.884c-10.42,3.341-20.506,7.313-28.117,8.279C388.73,169.65,396.471,158.65,399.328,153.193z
		 M315.803,162.113c9.826,14.166,25.136,29.666,44.205,22.675c-15.11-1.308-22.115-10.886-23.951-16.6
		c5.765,3.63,15.359,7.875,26.226,8.424c11.551,0.577,22.465-2.29,31.25-5.173c-18.301,10.652-44.959,26.687-32.943,48.959
		c1.146,8.787,5.34,17.19,8.398,23.688c3.055,6.496,6.875,11.083,8.397,12.987c1.529,1.915,2.578,9.94-7.35,9.171
		c-9.928-0.76-11.252-2.104-13.463-6.396c-3.244-6.307-0.381-12.797-2.103-15.093c-2.082-2.77-1.713-8.462-3.625-10.604
		c-0.432-0.474-1.172-1.118-1.92-1.348c0.004-8.431,0-15.87-0.004-23.534c-0.01-5.305-0.01-10.756-0.01-16.764v-1.994l-1.994-0.01
		c-3.402-0.016-11.646-0.012-18.938-0.006c-1.361-2.362-6.654-8.516-15.099-9.518C312.023,178.019,313.848,168.027,315.803,162.113z
		 M344.867,252.655c-0.008,2.739-0.021,5.603-0.037,8.613c-0.033,7.153-2.592,15.31-6.709,23.621l-44.172-32.07V214.81
		c2.76-1.621,5.496-3.826,7.678-5.918l1.314-1.259l-1.328-1.238c-1.619-1.507-1.635-3.186-1.357-4.332
		c0.459-1.929,2.057-3.652,3.879-4.174c1.51-0.438,2.979,0,4.267,1.249l1.562,1.531l1.119-1.882c1.146-1.944,2.49-3.3,3.881-4.264
		c2.146-0.005,21.738-0.036,29.943-0.018c0,5.23,0.002,10.058,0.004,14.769c0.01,10.979,0.02,21.517-0.017,35.157
		c-0.864,0.103-2.354,0.331-4.172,1.664C342.654,246.956,343.926,249.58,344.867,252.655z M287.26,339.302
		c-13.123-5.866-31.688-23.651-44.16-42.771l44.162-32.046l44.152,32.046C318.943,315.65,300.381,333.436,287.26,339.302z
		 M311.797,326.193c0.572,4.988,5.687,10.787,8.457,13.598c-9.416,1-19.492,1.447-28.266,1.626
		C298.004,338.123,304.916,332.784,311.797,326.193z M287.268,341.49l-0.008,0.037l-0.008-0.037l0.008-0.018L287.268,341.49z
		 M282.533,341.417c-8.773-0.179-18.855-0.626-28.273-1.626c2.77-2.811,7.887-8.609,8.453-13.598
		C269.604,332.784,276.516,338.123,282.533,341.417z M229.62,244.43c-0.036-13.64-0.024-24.177-0.016-35.157
		c0.002-4.71,0.007-9.538,0.007-14.769c8.205-0.018,27.799,0.015,29.94,0.018c1.391,0.964,2.734,2.32,3.885,4.264l1.113,1.888
		l1.564-1.537c1.287-1.249,2.764-1.687,4.27-1.249c1.824,0.522,3.416,2.245,3.879,4.174c0.275,1.146,0.258,2.825-1.354,4.332
		l-1.328,1.238l1.312,1.259c2.182,2.097,4.928,4.302,7.688,5.929v37.991l-44.186,32.077c-4.118-8.311-6.679-16.467-6.714-23.621
		c-0.014-3.01-0.022-5.875-0.033-8.613c0.938-3.075,2.213-5.699,4.145-6.562C231.976,244.761,230.483,244.533,229.62,244.43z
		 M267.332,150.912c1.869,0.525,3.404,0.963,4.004,1.132c9.301,2.832,15.916,6.196,15.916,6.196l0.008-0.036l0.008,0.036
		c0,0,6.607-3.364,15.91-6.196c0.602-0.169,2.141-0.607,4.013-1.132c0.514-0.139,1.024-0.272,1.557-0.405
		c-0.021-0.008-0.035-0.017-0.053-0.023c0.19-0.056,0.383-0.109,0.571-0.162c0.789-0.229,3.134-2.373,3.797-5.404
		c-0.396,7.501-1.688,14.749-2.75,20.725c-1.229,6.917-2.157,12.222-1.549,15.867c-2.17,0.647-4.08,1.56-5.791,2.66
		c-4.006,2.747-6.986,6.007-8.395,7.514c-2.596,2.774-4.854,5.176-7.318,5.928c-2.469-0.752-4.725-3.153-7.32-5.928
		c-1.408-1.507-9.113-9.155-14.186-10.174c0.604-3.646-0.324-8.95-1.553-15.867c-1.059-5.976-2.352-13.223-2.75-20.725
		c0.66,3.031,3.01,5.177,3.799,5.404c0.188,0.057,0.383,0.106,0.57,0.162c-0.016,0.006-0.033,0.019-0.049,0.026
		C266.299,150.64,266.818,150.776,267.332,150.912z M265.141,184.886c5.346,1.735,9.027,5.653,12.295,9.146
		c2.904,3.104,5.66,6.042,9.176,6.961c0.154,0.056,0.297,0.095,0.424,0.106c0.061,0.013,0.137,0.019,0.23,0.019
		c0.084,0,0.152-0.006,0.213-0.013c0.131-0.017,0.281-0.055,0.441-0.111c3.508-0.922,6.26-3.856,9.164-6.961
		c3.217-3.434,6.82-7.284,12.025-9.057c1.008-0.384,1.639-0.384,1.639-0.384c4.938,0.398,8.305,2.528,10.352,4.378
		c-3.771,0.234-8.459,1.803-11.901,6.444c-1.842-1.137-3.923-1.438-6.021-0.835c-2.996,0.872-5.516,3.554-6.266,6.687
		c-0.527,2.226-0.117,4.427,1.148,6.25c-3.992,3.562-8.191,6.019-10.801,6.279c-2.611-0.265-6.807-2.717-10.799-6.279
		c1.258-1.822,1.674-4.024,1.148-6.25c-0.752-3.133-3.271-5.815-6.27-6.68c-2.096-0.609-4.178-0.308-6.02,0.832
		c-3.445-4.644-8.139-6.213-11.906-6.444c2.049-1.854,5.418-3.978,10.352-4.381C263.766,184.592,264.105,184.553,265.141,184.886z
		 M286.781,217.197l-0.088,0.047l-0.111-0.074C286.648,217.182,286.715,217.194,286.781,217.197z M307.635,118.625
		c1.91,0.438,3.699,0.921,5.24,1.436c3.48,1.162,5.148,4.586,4.514,7.053c-0.477,1.844-2.151,2.638-4.715,2.29
		c-3.1-3.105-2.613-7.507-6.1-11.018C306.773,118.429,307.635,118.625,307.635,118.625z M309.256,138.578
		c0.25,2.188,1.371,8.058-5.201,9.036c-0.742-0.432-1.547-0.859-2.469-1.303c-8.305,0.715-14.318,4.415-14.318,4.415l-0.008,0.036
		l-0.008-0.033c0,0-6.012-3.703-14.32-4.417c-0.92,0.443-1.723,0.871-2.465,1.303c-3.646-0.286-6.508-3.243-5.205-9.036
		c3.137-4.355,6.857-7.266,12.365-8.672c2.391-0.366,4.881-0.646,7.768-0.797c0.145,2.377,0.717,10.899,1.828,19.103
		c0.012,0.098,0.023,0.195,0.029,0.292c0.002-0.012,0.008-0.026,0.008-0.038c0.002,0.012,0.006,0.026,0.008,0.038
		c0.008-0.098,0.016-0.195,0.029-0.289c1.109-8.207,1.682-16.734,1.83-19.106c2.885,0.147,5.373,0.431,7.764,0.797
		C302.402,131.312,306.115,134.223,309.256,138.578z M303.758,127.602c-1.508-0.384-3.094-0.665-4.752-0.833
		c-1.42-0.246-2.854-0.461-4.361-0.642c-3.336-2.777-3.625-7.351-8.444-9.973c0.377-0.008,0.748-0.011,1.115-0.011
		c3.035,0.009,6.486,0.265,9.973,0.688C301.379,120.096,301.678,124.981,303.758,127.602z M288.307,91.319
		c-0.406-0.272-0.707-0.646-0.664-1.125c0.332-3.316,0.564-5.275,0.564-5.275s1.334-0.999,2.625-2.006
		c0.975,1.41,2.469,4.671,4.045,8.407L288.307,91.319L288.307,91.319z M295.047,103.097c0,0,0.004,0.012,0.004,0.015
		c0.041,0.021,3.719,1.77,3.768,4.077c0.056,2.664,0.078,4.92,0.089,6.374c-2.609-0.345-5.224-0.597-7.712-0.735
		c0.011-1.431,0.033-3.395,0.08-5.649C291.322,104.855,295.047,103.097,295.047,103.097z M273.504,49.972
		c-0.188-2.96-0.426-7.067,1.865-9.505c1.096-0.999,2.625-0.904,4.104-0.934c1.6-0.026,2.99,0.397,3.678,1.079
		c2.004,2.007,1.529,7.552,1.738,8.572c0.266,1.268,1.002,1.723,1.434,2.149c10.834,6.997,14.643,26.179,14.643,26.179
		s-19.82-10.921-17.912-22.761c-4.676,4.201-1.873,11.667,0.953,14.608c2.826,2.942,7.646,7.473,7.646,7.473
		s-0.381,2.862-4.58,4.865c-0.068-0.271-0.545-1.582-0.846-2.773c-1.92,1.724-4.223,2.562-4.223,2.562s-0.377-1.236-0.814-4.374
		l-0.029,0.006l-0.951-6.293C269.869,62.849,272.561,53.52,273.504,49.972z M283.945,91.319h-1.875l-0.615-1.028
		c0,0-0.789-4.128,0.359-5.18c1.051-0.763,3.34-2.104,3.34-2.104S285.588,87.262,283.945,91.319z M275.699,107.189
		c0.051-2.304,3.727-4.057,3.768-4.077c0-0.003,0.006-0.015,0.006-0.015s3.725,1.758,3.771,4.081c0.045,2.257,0.07,4.218,0.08,5.649
		c-2.488,0.139-5.104,0.39-7.711,0.735C275.621,112.109,275.646,109.853,275.699,107.189z M277.58,116.787
		c4.367,2.213,5.729,6.43,7.842,8.882c-3.098,0.151-5.752,0.449-8.277,0.833c-3.541-2.083-4.682-6.211-9.275-8.099
		C270.92,117.732,274.266,117.182,277.58,116.787z M257.123,127.114c-0.531-2.083,0.584-4.83,3.037-6.338
		c4.059,1.853,5.947,5.641,8.465,7.333c-1.924,0.393-3.98,0.807-6.312,1.235C259.471,129.864,257.629,129.073,257.123,127.114z
		 M161.611,143.158c2.58-3.116,6.504-4.306,11.083-4.533c-0.201,3.644,0.215,7.405,1.268,11.04
		c-4.454-2.098-9.303-3.43-13.719-4.102C160.589,144.627,160.962,143.948,161.611,143.158z M167.721,163.018
		c-5.779-5.005-8.297-10.125-8.149-14.38c5.279,0.667,10.611,2.127,15.617,4.556c0.259,0.623,7.876,15.599,21.751,18.987
		c-7.61-0.963-17.693-4.929-28.109-8.271C168.423,163.606,168.057,163.304,167.721,163.018z M197.125,257.075
		c1.529-1.907,5.348-6.494,8.404-12.99c3.057-6.497,7.255-14.901,8.399-23.688c11.898-22.066-13.908-37.846-33.247-49.126
		c32.335,11.314,49.222,2.003,57.758-3.101c-1.416,5.588-9.231,15.471-23.936,16.617c23.846,8.454,40.486-17.905,44.302-22.674
		c2.67,8.967,3.434,16.293,2.885,18.863c-9.086,1.073-13.736,7.512-15.092,9.517c-1.291-0.001-15.411-0.011-19.003,0.006
		l-1.994,0.012v1.995c0,6.004-0.007,11.456-0.009,16.761c-0.012,7.664-0.012,15.103-0.007,23.536
		c-0.744,0.234-1.489,0.872-1.916,1.346c-1.914,2.142-1.545,7.834-3.631,10.604c-1.72,2.296,1.149,8.787-2.097,15.093
		c-2.212,4.292-3.535,5.636-13.466,6.401C194.55,267.013,195.598,258.988,197.125,257.075z M165.526,307.791
		c-1.72-5.16-0.858-14.035,1.815-19.006c1.813-3.371,5.916-8.891,8.961-11.614c0.583-0.528,1.489-1.243,2.712-2.359
		c1.547,1.248,1.547,3.108,4.271,4.329c2.202,0.988,12.511-5.348,32.364-6.685c0.572-2.868,6.49-4.781,10.123-6.113
		c0.085-0.029,0.168-0.092,0.25-0.166c1.224,9.422,5.604,19.092,10.564,27.458c-8.73-0.904-21.863,4.704-36.284,12.379
		c-1.334-1.176-4.522-3.318-7.373-0.134c-2.484,1.337-8.97,5.11-15.659,6.868C169.108,314.902,166.5,310.707,165.526,307.791z
		 M191.872,341.932c-16.459,9.562-32.011,18.596-45.403,21.359c-4.983,1.029-8.33,0.186-10.888-2.119
		c-0.874-0.865-1.641-1.783-2.296-2.736c-0.022-0.031-0.05-0.069-0.071-0.111c-0.09-0.123-0.17-0.26-0.256-0.393
		c-0.387-0.623-0.751-1.289-1.11-1.996c-2.066-4.347-2.259-9.178-1.154-13.416c4.597-0.321,9.441-1.564,13.759-2.873
		c8.427-2.549,21.398-10.059,35.135-18.01c0.892-0.516,1.795-1.039,2.701-1.562c1.734-0.371,2.49-0.496,3.002,0.745
		c2.339-1.385,2.435-2.578,2.721-3.58c2.292-1.294,5.013-3.149,6.157-1.578c0.541-1.271,0.608-2.1,0.503-2.643
		c18.147-10.105,36.467-18.873,44.496-15.222c3.123,4.836,6.293,9.074,8.908,12.353c2.137,2.679,4.357,5.283,6.619,7.783
		C236.2,316.186,213.697,329.257,191.872,341.932z M339.191,340.145c-4.824,6.906-9.535,13.443-13.783,23.582
		c-4.912,2.896-23.719,4.967-38.148,5.041c-14.432-0.074-33.244-2.146-38.15-5.041c-4.252-10.139-8.959-16.676-13.787-23.576
		c14.208,3.617,34.99,4.336,51.929,4.516l0.008-0.033l0.008,0.033C304.203,344.486,324.982,343.768,339.191,340.145z
		 M430.064,339.646c4.313,1.309,9.161,2.552,13.76,2.873c1.104,4.246,0.908,9.078-1.164,13.428
		c-0.354,0.695-0.717,1.349-1.086,1.959c-0.104,0.146-0.187,0.297-0.283,0.441c-0.016,0.027-0.031,0.047-0.045,0.074
		c-0.656,0.954-1.432,1.88-2.305,2.75c-2.562,2.301-5.908,3.146-10.896,2.119c-13.391-2.764-28.938-11.798-45.404-21.359
		c-21.825-12.675-44.323-25.746-62.821-23.998c2.266-2.5,4.481-5.104,6.623-7.783c2.612-3.281,5.782-7.52,8.905-12.358
		c8.029-3.646,26.345,5.122,44.496,15.228c-0.106,0.543-0.039,1.371,0.506,2.644c1.144-1.574,3.865,0.284,6.156,1.578
		c0.281,1.002,0.375,2.194,2.715,3.579c0.519-1.24,1.271-1.115,3.002-0.744c0.908,0.521,1.812,1.047,2.703,1.562
		C408.662,329.588,421.639,337.098,430.064,339.646z M407.176,288.785c2.672,4.971,3.525,13.846,1.812,18.999
		c-0.976,2.923-3.582,7.118-11.742,4.964c-6.688-1.758-13.176-5.531-15.658-6.868c-2.85-3.188-6.041-1.042-7.377,0.127
		c-14.416-7.668-27.555-13.276-36.281-12.372c4.959-8.366,9.343-18.04,10.564-27.458c0.082,0.074,0.162,0.136,0.25,0.166
		c3.633,1.333,9.551,3.245,10.123,6.113c19.854,1.337,29.867,7.528,32.153,6.752c2.671-0.908,3.435-3.959,4.58-4.342
		c1.181,1.076,2.041,1.791,2.611,2.305C401.256,279.894,405.357,285.414,407.176,288.785z"/>
</g>
</svg>
