<?xml version="1.0" encoding="utf-8"?>
<!-- Generator: Adobe Illustrator 15.1.0, SVG Export Plug-In . SVG Version: 6.00 Build 0)  -->
<!DOCTYPE svg PUBLIC "-//W3C//DTD SVG 1.1//EN" "http://www.w3.org/Graphics/SVG/1.1/DTD/svg11.dtd">
<svg version="1.1" id="Layer_1" xmlns="http://www.w3.org/2000/svg" xmlns:xlink="http://www.w3.org/1999/xlink" x="0px" y="0px"
	 width="1102.14px" height="250px" viewBox="0 0 1102.14 250" enable-background="new 0 0 1102.14 250" xml:space="preserve">
<g>
	<path d="M299.533,61.626c0,11.557,5.732,16.897,18.256,16.897c12.136,0,17.766-4.843,17.766-15.439V35.401
		c0-3.879-1.357-5.644-5.038-6.413c-1.659-0.388-2.142-0.679-2.142-1.557c0-0.865,0.483-1.159,1.549-1.159
		c1.152,0,4.468,0.385,7.38,0.385c2.91,0,5.729-0.385,6.892-0.385c1.169,0,1.652,0.293,1.652,1.061c0,0.881-0.779,1.461-2.714,2.137
		c-1.942,0.682-3.504,1.461-3.504,5.931v27.192c0,13.311-8.64,20.608-24.751,20.608c-16.119,0-24.956-6.521-24.956-18.363V34.721
		c0-3.307-1.636-4.964-5.436-5.646c-1.842-0.375-2.33-0.765-2.33-1.643c0-1.159,1.159-1.159,3.304-1.159
		c1.937,0,6.396,0.385,9.414,0.385c3.501,0,7.183-0.385,9.323-0.385c1.361,0,2.819-0.101,2.819,1.253
		c0,0.688-0.499,0.978-2.14,1.268c-3.884,0.582-5.344,2.333-5.344,6.116V61.626z"/>
	<path d="M367.128,33.936c-3.211-3.784-4.664-4.861-7.37-5.235c-1.083-0.295-1.372-0.486-1.372-1.269
		c0-0.774,0.405-1.159,1.177-1.159c0.578,0,7.089,0.385,7.664,0.385c0.58,0,4.077-0.385,4.754-0.385c0.975,0,1.463,0.191,2.62,1.354
		l37.582,39.83v-31.09c0-4.753-2.144-7.19-6.809-7.767c-1.156-0.096-2.228-0.291-2.228-1.169c0-0.967,0.484-1.159,1.652-1.159
		c1.167,0,7.288,0.385,8.836,0.385c1.554,0,7.283-0.385,8.253-0.385s1.454,0.191,1.454,0.972c0,0.677-0.291,0.871-1.645,1.16
		c-3.982,0.771-5.635,3.301-5.635,8.547v44.105c0,1.552-0.194,1.934-1.175,1.934c-0.471,0-0.963-0.194-1.253-0.382l-42.92-45.165
		v32.827c0,6.409,1.75,9.028,6.703,9.703c1.461,0.197,1.848,0.298,1.848,1.272c0,0.874-0.585,1.163-2.71,1.163
		c-1.661,0-5.736-0.385-8.173-0.385c-2.331,0-7.08,0.385-8.052,0.385c-0.571,0-0.875-0.385-0.875-0.97
		c0-0.774,0.303-0.964,1.648-1.268c4.564-0.774,6.025-3.491,6.025-11.163V33.936z"/>
	<path d="M454.775,71.631c0,5.237,1.35,7.19,5.627,7.954c1.839,0.39,2.332,0.688,2.332,1.569c0,1.354-1.557,1.255-3.599,1.255
		c-2.137,0-5.614-0.385-8.839-0.385c-3.098,0-8.438,0.385-10.283,0.385c-1.657,0-2.625-0.095-2.625-1.255
		c0-0.488,0.492-0.787,1.943-1.074c4.364-0.781,6.02-3.006,6.02-8.356V36.08c0-4.558-2.137-6.903-6.788-7.479
		c-1.271-0.195-1.947-0.291-1.947-1.267c0-0.767,0.481-1.061,1.947-1.061c0.869,0,8.049,0.385,11.255,0.385
		c3.493,0,8.541-0.385,9.515-0.385c1.455,0,2.618,0,2.618,0.972c0,0.677-0.291,0.969-1.65,1.355
		c-3.891,1.157-5.525,3.595-5.525,7.866V71.631z"/>
	<path d="M482.494,33.65c-1.455-2.909-3.1-4.274-6.119-4.856c-1.452-0.29-1.847-0.58-1.847-1.363c0-0.865,0.884-1.159,2.232-1.159
		c0.781,0,6.708,0.385,9.915,0.385c2.913,0,7.465-0.385,9.708-0.385c0.869,0,1.833,0,1.833,1.061c0,0.687-0.382,0.977-1.936,1.267
		c-1.457,0.194-3.782,0.685-3.782,3.2c0,1.076,0.487,2.722,1.552,4.757l16.203,33.418l14.378-30.979
		c1.945-3.983,2.527-5.831,2.527-7.091c0-1.657-0.768-2.528-3.013-3.205c-1.258-0.39-1.645-0.68-1.645-1.367
		c0-0.767,0.771-1.061,1.645-1.061c0.872,0,4.849,0.385,7.094,0.385c2.129,0,5.524-0.385,6.596-0.385
		c1.086,0,1.559,0.191,1.559,0.868c0,0.88-0.473,1.169-2.138,1.56c-3.795,0.865-4.956,2.042-7.67,7.857l-20.971,45.18
		c-0.397,0.872-0.587,1.644-1.355,1.644c-0.789,0-1.173-0.874-2.141-2.812L482.494,33.65z"/>
	<path d="M597.866,82.381l-23.783-0.385l-21.642,0.385c-2.339,0-2.339-0.672-2.339-1.162c0-0.879,0.765-1.167,3.012-1.455
		c3.799-0.587,4.861-2.051,4.861-6.61V35.758c0-4.458-0.888-5.635-5.449-6.502c-1.836-0.296-2.327-0.586-2.327-1.564
		c0-0.476,0.298-1.063,1.746-1.063H586.9l8.833-0.384l3.789,14.275c0.19,0.382,0.19,0.778,0.19,1.068
		c0,0.775-0.382,1.167-1.067,1.167c-0.677,0-1.059-0.29-1.648-1.167c-4.172-7.094-11.646-11.764-19.904-11.764h-9.607v20.304h16.019
		c3.973,0,5.246-0.96,6.015-4.65c0.489-2.053,0.878-2.723,1.758-2.723c0.775,0,1.35,0.87,1.35,2.338c0,0.575-0.39,5.327-0.39,6.309
		c0,1.063,0.39,6.507,0.39,7.769c0,1.061-0.39,1.734-1.066,1.734c-0.865,0-1.249-0.569-1.742-2.42
		c-0.964-4.462-2.43-5.337-8.833-5.337h-13.499v21.087c0,3.588,2.427,4.942,8.541,4.942c10.384,0,18.641-4.175,23.984-12.238
		c0.979-1.457,1.749-2.528,2.515-2.528c0.69,0,1.073,0.398,1.073,1.163c0,0.492-0.09,1.073-0.383,1.947L597.866,82.381z"/>
	<path d="M639.566,32.519c0-2.623,1.354-3.681,4.849-3.681c6.792,0,11.072,5.441,11.072,13.981c0,8.462-4.169,12.528-12.729,12.528
		c-0.779,0-1.753-0.091-3.192-0.091V32.519z M657.807,74.779c4.281,6.416,5.726,7.768,8.559,7.768c1.046,0,3.39-0.385,4.65-0.385
		c1.067,0,3.974,0.385,5.245,0.385c1.059,0,3.584,0,3.584-1.352c0-0.691-0.284-0.887-1.543-0.977
		c-4.474-0.107-6.983-1.941-14.77-13.504l-1.168-1.833c-2.416-3.603-3.681-5.352-6.005-8.167c3.106-2.433,8.734-6.803,8.734-15.154
		c0-9.516-7.195-15.148-18.441-15.148c-0.974,0-9.137,0.382-11.752,0.382c-2.511,0-8.446-0.382-10.398-0.382
		c-1.449,0-2.613,0-2.613,0.867c0,0.978,0.575,1.266,2.613,1.459c4.176,0.388,5.738,2.049,5.738,6.122v37.002
		c0,5.145-1.741,7.576-5.826,8.357c-1.552,0.286-1.95,0.585-1.95,1.361c0,0.968,0.68,0.968,2.333,0.968
		c2.243,0,8.162-0.385,10.196-0.385c2.617,0,9.999,0.385,11.571,0.385c0.859,0,1.352-0.095,1.352-0.968
		c0-0.691-0.492-0.966-2.048-1.361c-4.467-0.969-6.303-3.402-6.303-8.542v-14.19c5.427,0,6.791,0.293,10.582,6.027L657.807,74.779z"
		/>
	<path d="M725.808,42.976c0.279,1.552,0.392,2.332,0.392,2.909c0,1.063-0.392,1.742-0.978,1.742c-0.971,0-1.562-0.771-2.133-3.191
		c-2.725-9.913-8.354-15.643-15.443-15.643c-5.125,0-8.724,3.103-8.724,7.472c0,5.838,5.145,8.457,12.325,12.154
		c12.412,6.214,17.078,9.712,17.078,18.452c0,9.901-7.176,16.02-18.737,16.02c-1.648,0-9.405-0.675-10.875-0.675
		c-2.819,0-3.096,0.675-4.26,0.675c-0.786,0-1.066-0.483-1.066-2.227c0-4.271-0.578-8.353-1.866-14.587
		c-0.281-1.049-0.745-3.285-0.745-4.27c0-0.78,0.363-1.258,1.042-1.258c0.991,0,1.468,0.684,2.146,3.306
		c4.184,14.862,15.042,15.636,18.248,15.636c5.941,0,9.314-3.098,9.314-8.542c0-6.702-6.968-10.204-13.587-13.404
		c-7.094-3.591-15.619-7.765-15.619-17.678c0-7.869,6.791-14.188,15.325-14.188c2.04,0,4.669,0.397,8.839,1.175
		c2.042,0.382,3.312,0.571,3.775,0.571c1.267,0,1.856-0.293,2.524-1.258c0.387-0.582,0.613-0.683,0.979-0.683
		c0.579,0,1.275,0.194,1.078,4.079c-0.097,4.672,0.38,9.225,0.776,11.759L725.808,42.976z"/>
	<path d="M763.997,71.631c0,5.237,1.361,7.19,5.64,7.954c1.839,0.39,2.334,0.688,2.334,1.569c0,1.354-1.569,1.255-3.591,1.255
		c-2.141,0-5.629-0.385-8.848-0.385c-3.11,0-8.442,0.385-10.284,0.385c-1.664,0-2.622-0.095-2.622-1.255
		c0-0.488,0.487-0.787,1.937-1.074c4.368-0.781,6.018-3.006,6.018-8.356V36.08c0-4.558-2.126-6.903-6.777-7.479
		c-1.266-0.195-1.941-0.291-1.941-1.267c0-0.767,0.469-1.061,1.941-1.061c0.852,0,8.041,0.385,11.253,0.385
		c3.492,0,8.556-0.385,9.515-0.385c1.457,0,2.632,0,2.632,0.972c0,0.677-0.291,0.969-1.652,1.355
		c-3.894,1.157-5.553,3.595-5.553,7.866V71.631z"/>
	<path d="M789.278,26.658h49.79l3.506,14.861c0.094,0.685,0.094,1.452-0.68,1.452c-0.771,0-1.465-0.67-2.92-2.908
		c-3.773-5.54-9.316-10.099-16.004-10.099h-4.083v43.318c0,3.49,1.638,5.342,5.517,6.208c1.376,0.304,2.338,0.591,2.338,1.665
		c0,1.056-1.541,1.255-3.477,1.255c-2.342,0-6.216-0.385-9.138-0.385c-2.919,0-8.938,0.385-10.289,0.385
		c-1.556,0-2.536-0.583-2.536-1.352c0-0.886,0.594-1.265,2.328-1.568c3.979-0.773,5.739-2.717,5.739-5.919V30.055h-3.017
		c-3.004,0-10.868,0-17.875,11.173c-0.855,1.455-1.348,1.939-1.821,1.939c-0.592,0-0.888-0.384-0.888-1.159
		c0-0.299,0.19-1.079,0.392-1.84L789.278,26.658z"/>
	<path d="M879.541,56.378l-16.377-23.596c-1.68-2.343-3.144-3.497-5.462-3.987c-1.063-0.29-1.352-0.484-1.352-1.167
		c0-1.354,1.546-1.354,3.294-1.354c1.95,0,5.836,0.385,8.738,0.385c2.805,0,6.885-0.385,8.35-0.385c1.258,0,2.037,0.385,2.037,1.253
		c0,0.589-0.392,0.879-1.662,1.174c-2.105,0.375-2.874,1.152-2.874,2.628c0,0.767,0.272,1.932,0.769,2.607l11.942,17.295
		l10.293-15.829c0.944-1.365,1.44-2.823,1.44-3.879c0-1.765-1.081-2.637-3.308-2.922c-1.161-0.096-1.548-0.386-1.548-1.074
		c0-0.767,0.977-1.253,2.521-1.253c0.791,0,3.498,0.385,5.546,0.385c2.119,0,5.621-0.385,6.788-0.385
		c1.459,0,2.237,0.293,2.237,0.868c0,0.679-0.492,1.169-1.75,1.46c-3.017,0.87-4.858,2.331-7.175,5.922l-12.923,19.914v18.845
		c0,4.074,1.357,5.73,5.342,6.303c2.032,0.295,2.617,0.688,2.617,1.662c0,0.874-0.585,1.163-2.417,1.163
		c-1.461,0-7.567-0.385-9.712-0.385c-2.147,0-8.06,0.385-9.826,0.385c-1.839,0-2.902,0-2.902-1.065c0-0.869,0.689-1.173,2.622-1.552
		c3.779-0.587,4.751-1.843,4.751-5.921V56.378z"/>
	<path d="M983.93,28.021c12.136,0,20.292,10.875,20.292,27.098c0,18.452-9.797,25.547-19.118,25.547
		c-12.128,0-19.814-10.881-19.814-28.07C965.29,39.576,970.15,28.31,983.93,28.021z M984.896,25
		c-18.327,0-29.504,13.228-29.504,30.794c0,9.716,5.149,27.587,28.739,27.587c18.169,0,30.19-11.951,30.19-30.098
		C1014.322,37.246,1002.484,25,984.896,25z"/>
	<path d="M1044.915,52.781v17.871c0,6.615,1.738,8.934,6.778,9.142c1.637,0.087,2.133,0.288,2.133,0.957
		c0,1.076-0.779,1.66-2.331,1.66c-0.869,0-8.533-0.385-10.003-0.385c-1.655,0-9.708,0.385-11.554,0.385
		c-1.542,0-2.22-0.385-2.22-1.352c0-0.69,0.276-1.083,1.361-1.177c2.621-0.295,6.314-0.769,6.314-7.279V40.263
		c0-7.575-1.552-10.601-5.844-11.086c-1.623-0.291-2.23-0.576-2.23-1.457c0-1.062,0.79-1.062,2.442-1.062h34.666l8.325-0.385
		l3.691,14.568c0.194,0.678,0.402,2.327-0.57,2.327c-0.59,0-0.895-0.384-1.753-1.84c-2.914-4.861-7.665-11.666-22.921-11.666
		c-1.936,0-3.294,0.095-6.106,0.302c-0.18,1.559-0.294,3.584-0.294,7.373v12.148h10.395c9.424,0,10.68-0.479,10.979-4.464
		c0.177-1.658,0.374-2.051,1.246-2.051c1.361,0,1.361,0.781,1.361,4.373c0,7.775,0.474,10.694,0.474,11.855
		c0,1.167-0.276,2.139-1.253,2.139c-0.854,0-1.545-1.077-1.925-3.501c-0.701-4.08-1.458-5.055-11.96-5.055H1044.915z"/>
	<path d="M315.023,204.092c0,9.611,2.726,11.968,13.238,11.968c9.619,0,31.742,0,47.168-23.765c1.821-2.541,2.546-3.274,4.003-3.274
		c0.909,0,1.622,0.919,1.622,2.005c0,1.087-0.913,3.629-2.543,7.435c-3.625,8.716-5.991,14.707-7.974,23.599l-42.995-0.728
		l-40.455,0.728c-4.001,0-5.085-0.363-5.085-1.993c0-1.634,1.458-1.821,3.994-2.361c11.428-2.186,11.428-6.171,11.428-26.312
		v-57.539c0-8.718-1.631-10.887-9.604-11.609c-4.185-0.375-5.277-0.917-5.277-2.728c0-1.445,1.459-2.36,3.635-2.36
		c1.993,0,15.419,0.727,18.327,0.727c7.255,0,19.222-0.727,21.403-0.727c1.81,0,3.444,0,3.444,2.181
		c0,1.631-1.092,2.533-4.715,2.714c-4.172,0.377-9.615,1.095-9.615,10.347V204.092z"/>
	<path d="M430.147,201.904c0,9.806,2.546,13.443,10.526,14.899c3.456,0.711,4.356,1.259,4.356,2.9c0,2.532-2.905,2.354-6.709,2.354
		c-3.99,0-10.532-0.728-16.51-0.728c-5.808,0-15.782,0.728-19.231,0.728c-3.082,0-4.903-0.179-4.903-2.354
		c0-0.916,0.907-1.46,3.633-2c8.153-1.457,11.256-5.629,11.256-15.607V135.48c0-8.53-4.001-12.876-12.711-13.965
		c-2.357-0.373-3.627-0.549-3.627-2.363c0-1.452,0.906-1.998,3.627-1.998c1.628,0,15.062,0.727,21.051,0.727
		c6.534,0,15.959-0.727,17.773-0.727c2.728,0,4.899,0,4.899,1.815c0,1.264-0.55,1.814-3.087,2.546
		c-7.257,2.168-10.344,6.715-10.344,14.694V201.904z"/>
	<path d="M483.119,131.498c-5.976-7.084-8.709-9.071-13.791-9.812c-1.992-0.544-2.536-0.903-2.536-2.351
		c0-1.454,0.728-2.181,2.186-2.181c1.083,0,13.244,0.727,14.333,0.727c1.081,0,7.61-0.727,8.887-0.727c1.81,0,2.71,0.366,4.9,2.548
		l70.201,74.406v-58.082c0-8.884-3.997-13.422-12.693-14.511c-2.187-0.189-4.177-0.549-4.177-2.18c0-1.814,0.903-2.181,3.085-2.181
		c2.168,0,13.602,0.727,16.5,0.727c2.907,0,13.596-0.727,15.432-0.727c1.796,0,2.721,0.366,2.721,1.815
		c0,1.264-0.546,1.636-3.096,2.173c-7.428,1.462-10.521,6.176-10.521,15.976v82.399c0,2.9-0.355,3.622-2.177,3.622
		c-0.902,0-1.812-0.352-2.345-0.722l-80.188-84.379v61.339c0,11.969,3.272,16.869,12.519,18.137
		c2.717,0.372,3.446,0.548,3.446,2.368c0,1.624-1.088,2.176-5.09,2.176c-3.085,0-10.703-0.728-15.23-0.728
		c-4.351,0-13.247,0.728-15.064,0.728c-1.091,0-1.632-0.728-1.632-1.811c0-1.46,0.541-1.816,3.086-2.361
		c8.529-1.463,11.245-6.54,11.245-20.879V131.498z"/>
	<path d="M653.704,114.427c8.522,0,18.68,2.18,28.303,5.807c2.172,0.909,3.993,1.453,4.548,1.453c1.079,0,1.794-0.544,3.427-1.984
		c1.462-1.464,2.189-1.821,3.104-1.821c1.441,0,2.159,1.634,2.159,9.981c0,6.531,0.18,14.7,0.909,20.515
		c0.176,1.453,0.546,4.897,0.546,5.98c0,1.634-0.37,2.726-1.275,2.726c-1.442,0-2.172-1.271-3.07-5.076
		c-7.631-29.041-31.568-32.304-37.189-32.304c-20.678,0-33.194,17.961-33.194,47.73c0,30.672,15.417,50.271,39.348,50.271
		c11.794,0,24.683-5.273,34.298-13.979c0.894-0.901,1.455-1.276,2.171-1.276c0.73,0,1.093,0.732,1.093,1.643
		c0,1.997-14.7,19.787-41.361,19.787c-33.191,0-54.062-21.43-54.062-55.725C603.455,136.21,623.757,114.427,653.704,114.427z"/>
	<path d="M772.473,121.549c22.667,0,37.905,20.32,37.905,50.637c0,34.485-18.31,47.729-35.729,47.729
		c-22.684,0-36.995-20.333-36.995-52.457C737.655,143.151,746.697,122.097,772.473,121.549z M774.287,115.911
		c-34.285,0-55.137,24.687-55.137,57.55c0,18.137,9.607,51.539,53.677,51.539c33.928,0,56.426-22.318,56.426-56.267
		C829.252,138.793,807.107,115.911,774.287,115.911z"/>
	<path d="M876.593,204.092c0,9.611,2.719,11.968,13.256,11.968c9.597,0,31.728,0,47.139-23.765c1.821-2.541,2.544-3.274,4.002-3.274
		c0.904,0,1.622,0.919,1.622,2.005c0,1.087-0.904,3.629-2.534,7.435c-3.632,8.716-5.983,14.707-7.981,23.599l-42.998-0.728
		l-40.437,0.728c-3.998,0-5.083-0.363-5.083-1.993c0-1.634,1.437-1.821,3.98-2.361c11.446-2.186,11.446-6.171,11.446-26.312v-57.539
		c0-8.718-1.642-10.887-9.634-11.609c-4.18-0.375-5.264-0.917-5.264-2.728c0-1.445,1.468-2.36,3.63-2.36
		c2.008,0,15.415,0.727,18.328,0.727c7.263,0,19.227-0.727,21.413-0.727c1.813,0,3.444,0,3.444,2.181
		c0,1.631-1.074,2.533-4.724,2.714c-4.188,0.377-9.606,1.095-9.606,10.347V204.092z"/>
	<path d="M972.103,131.582c-5.977-7.083-8.691-9.073-13.78-9.811c-1.985-0.531-2.551-0.902-2.551-2.348
		c0-1.45,0.743-2.195,2.191-2.195c1.088,0,13.245,0.745,14.337,0.745c1.082,0,7.611-0.745,8.872-0.745
		c1.831,0,2.744,0.377,4.924,2.548l70.192,74.415v-58.073c0-8.899-3.979-13.431-12.71-14.527c-2.181-0.18-4.167-0.537-4.167-2.168
		c0-1.817,0.906-2.195,3.076-2.195c2.179,0,13.604,0.745,16.521,0.745c2.891,0,13.609-0.745,15.407-0.745
		c1.829,0,2.727,0.377,2.727,1.827c0,1.27-0.536,1.63-3.082,2.184c-7.441,1.448-10.52,6.158-10.52,15.958v82.402
		c0,2.906-0.362,3.629-2.188,3.629c-0.901,0-1.811-0.368-2.345-0.723l-80.182-84.396v61.35c0,11.977,3.275,16.869,12.517,18.141
		c2.719,0.358,3.451,0.548,3.451,2.361c0,1.641-1.095,2.176-5.092,2.176c-3.082,0-10.699-0.721-15.236-0.721
		c-4.349,0-13.238,0.721-15.053,0.721c-1.091,0-1.627-0.721-1.627-1.807c0-1.456,0.536-1.809,3.078-2.372
		c8.537-1.437,11.238-6.522,11.238-20.864V131.582z"/>
</g>
<g>
	<g>
		<path d="M69.666,202.335c0.943-1.54-0.833-4.147-3.769-2.513c-0.94,0.53-2.243,1.252-2.349,1.311
			c-0.12,0.598-0.229,1.18-0.354,1.783c0.185-0.059,0.714-0.066,0.984,0.414c0.588,1.056,2.505,4.504,3.073,5.518
			c2.096-0.997,2.853-1.413,3.569-1.93C73.37,205.094,71.616,202.254,69.666,202.335z M65.05,201.701
			c0.295-0.164,0.618-0.346,1.101-0.615c1.933-1.078,3.249,1.349,1.075,2.033c-0.055,0.286-0.177,0.938-0.308,1.529
			c-0.551-0.986-1.094-1.959-1.207-2.168C65.524,202.146,65.291,201.893,65.05,201.701z M69.471,206.282
			c-0.291,0.163-0.564,0.346-1.285,0.64c-0.11-0.199-0.656-1.174-1.206-2.162c0.001-0.004,0.002-0.01,0.002-0.014
			c-0.001,0-0.003,0.004-0.008,0.004c-0.019-0.033-0.037-0.064-0.055-0.098c0.352-0.198,0.74-0.414,0.944-0.52
			C70.078,202.969,71.282,205.271,69.471,206.282z"/>
		<path d="M60.533,210.47c-0.187,0.076-1.455,0.616-1.768,0.749c-0.575-1.353-1.708-4.023-1.984-4.671
			c-0.516-1.22-1.648-1.534-2.008-1.571c-0.18,0.576-0.351,1.146-0.541,1.732c0.19-0.041,0.717,0.008,0.933,0.519
			c0.473,1.108,1.828,4.299,2.467,5.808c0.757-0.324,4.659-1.981,5.216-2.216c-0.442-0.28-1.15-0.735-1.611-1.042
			C61.225,210.17,60.701,210.395,60.533,210.47z"/>
		<path d="M89.169,194.393c-0.696-1.297-1.79-3.347-2.125-3.966c-0.152-0.291-0.359-0.597-0.651-0.71
			c0.625-0.336,1.014-0.542,1.101-0.59c0.513-0.271,0.838-0.26,0.998-0.111c0.14-0.635,0.251-1.193,0.423-2.043
			c-0.974,0.525-5.14,2.754-6.157,3.298c-0.069,0.318-0.327,1.532-0.438,2.05c0.229-0.356,0.469-0.68,1.055-0.996
			c0.453-0.24,0.497-0.264,1.014-0.539c0.375-0.201,0.814-0.092,1.068,0.38c0.57,1.069,2.395,4.479,3.168,5.921
			c0.45-0.668,1.045-1.553,1.364-2.027C89.79,195.041,89.479,194.979,89.169,194.393z"/>
		<path d="M204.38,200.219c0.617,0.354,0.997,0.568,1.083,0.618c0.509,0.286,0.67,0.568,0.63,0.786
			c0.61-0.225,1.141-0.424,1.951-0.729c-0.962-0.55-5.067-2.885-6.068-3.457c-0.308,0.111-1.47,0.538-1.967,0.72
			c0.422,0.004,0.825,0.035,1.401,0.364c0.444,0.255,0.487,0.282,0.995,0.571c0.372,0.213,0.513,0.639,0.248,1.107
			c-0.599,1.048-2.516,4.41-3.321,5.83c0.805,0.025,1.87,0.057,2.443,0.076c-0.094-0.174-0.204-0.473,0.122-1.045
			c0.728-1.281,1.88-3.298,2.227-3.914C204.289,200.861,204.438,200.527,204.38,200.219z"/>
		<path d="M181.947,186.453c-0.961-0.48-1.339-0.666-2.387-1.186l-0.001-0.003c-0.003,0-0.003,0-0.003,0
			c-0.556,0.237-1.1,0.478-1.662,0.716c0.148,0.115,0.456,0.552,0.208,1.045c-0.539,1.08-2.18,4.385-2.907,5.846
			c0.684-0.013,1.723-0.039,2.432-0.061c-0.125-0.19-0.23-0.434,0.067-1.029c0.263-0.531,0.436-0.883,0.564-1.141
			C182.96,194.337,185.604,188.272,181.947,186.453z M179.732,190.005c-0.423,0.185-1.119,0.484-1.471,0.63
			c0.567-1.131,1.168-2.343,1.41-2.823c0.17-0.343,0.25-0.679,0.271-0.985c0.297,0.146,0.622,0.307,1.105,0.551
			C183.032,188.363,181.522,191.414,179.732,190.005z"/>
		<path d="M84.006,197.625c-0.861-0.123-1.56-0.336-2.626-0.865c2.942-2.293-0.045-5.861-3.067-4.131
			c-0.934,0.537-2.23,1.282-2.336,1.342c-0.11,0.596-0.211,1.181-0.328,1.787c0.181-0.062,0.712-0.076,0.985,0.402
			c0.603,1.047,2.673,4.658,3.249,5.664c0.406-0.617,0.975-1.521,1.31-2.059c-0.202-0.014-0.511-0.061-0.849-0.65
			c-0.229-0.4-0.543-0.959-0.803-1.413c-0.57-0.993-1.141-1.986-1.384-2.409c-0.189-0.336-0.424-0.587-0.667-0.774
			c0.291-0.169,0.611-0.353,1.091-0.627c1.921-1.103,3.411,1.562,1.246,2.271c-0.085,0.457-0.254,1.352-0.286,1.54
			c2.024,1.19,3.386,1.548,4.239,1.597c1.589,0.102,2.334-1.707,2.519-2.484C86.205,197.126,85.461,197.824,84.006,197.625z"/>
		<path d="M175.724,188.706c-0.115,0.231-0.598,0.644-1.565,0.481c-0.188-2.209-0.473-6.467-0.473-6.467l-6.771,6.676l1.461,0.573
			c0,0,0.535-0.532,1.216-1.194c0.588,0.231,2.049,0.8,2.842,1.113c0.016,0.141,0.112,1.634,0.141,1.979
			c0.691-0.082,1.181-0.141,2.127-0.248c-0.405-0.271-0.448-0.898-0.486-1.398C175.084,190.013,175.583,189.202,175.724,188.706z
			 M170.564,187.822c0.655-0.646,1.287-1.266,1.619-1.589c0.047,0.66,0.101,1.468,0.165,2.289
			C171.651,188.252,170.954,187.977,170.564,187.822z"/>
		<path d="M215.575,209.74c-0.13,0.229-0.635,0.609-1.59,0.384c-0.05-2.216-0.069-6.478-0.069-6.478l-7.169,6.238l1.42,0.661
			c0,0,0.567-0.489,1.286-1.112c0.574,0.266,1.994,0.922,2.771,1.282c0.004,0.144,0.009,1.638,0.02,1.987
			c0.694-0.04,1.187-0.067,2.137-0.119c-0.386-0.295-0.393-0.926-0.399-1.424C214.858,211.004,215.41,210.229,215.575,209.74z
			 M210.484,208.538c0.694-0.603,1.362-1.18,1.709-1.485c0.012,0.668,0.012,1.474,0.025,2.297
			C211.54,209.031,210.864,208.717,210.484,208.538z"/>
		<path d="M76.639,202.039c-0.569,0.333-0.816,0.473-1.648,0.959c-0.361-0.617-0.794-1.365-1.24-2.127
			c0.297-0.172,0.533-0.312,0.772-0.447c0.506-0.297,0.827-0.297,0.994-0.15c0.11-0.64,0.202-1.199,0.344-2.051
			c-0.215,0.119-1.842,1.07-2.726,1.59c-0.376-0.639-0.602-1.029-0.704-1.201c-0.194-0.334-0.429-0.583-0.677-0.771
			c0.797-0.465,0.941-0.551,1.504-0.875c0.504-0.296,0.829-0.296,0.995-0.15c0.114-0.646,0.204-1.201,0.346-2.057
			c-1.823,1.069-2.61,1.526-4.355,2.543c-0.042,0.275-0.205,1.185-0.317,1.789c0.18-0.062,0.71-0.076,0.988,0.4
			c0.609,1.045,2.354,4.041,3.179,5.452c0.88-0.515,3.915-2.281,4.898-2.856c-0.572-0.263-1.185-0.555-1.735-0.832
			C77.301,201.648,76.796,201.946,76.639,202.039z"/>
		<path d="M188.22,198.168c-0.571-0.332-0.815-0.477-1.651-0.951c0.357-0.627,0.786-1.367,1.227-2.137
			c0.297,0.174,0.531,0.307,0.771,0.444c0.505,0.292,0.669,0.572,0.628,0.788c0.605-0.22,1.136-0.422,1.95-0.725
			c-0.215-0.121-1.848-1.062-2.74-1.57c0.368-0.644,0.595-1.029,0.695-1.207c0.191-0.338,0.291-0.663,0.33-0.971
			c0.8,0.459,0.948,0.542,1.509,0.867c0.507,0.291,0.667,0.574,0.623,0.787c0.614-0.217,1.146-0.417,1.959-0.72
			c-1.834-1.054-2.622-1.505-4.375-2.512c-0.259,0.1-1.13,0.409-1.708,0.614c0.143,0.126,0.421,0.576,0.144,1.056
			c-0.601,1.049-2.331,4.053-3.148,5.472c0.887,0.509,3.933,2.258,4.917,2.83c-0.057-0.633-0.107-1.312-0.144-1.92
			C188.889,198.547,188.377,198.255,188.22,198.168z"/>
		<path d="M64.445,208.062c-0.638-1.332-1.609-3.359-1.914-3.994c-0.571-1.191-1.714-1.459-2.075-1.479
			c-0.155,0.589-0.298,1.161-0.46,1.757c0.186-0.048,0.715-0.022,0.954,0.478c0.522,1.088,2.121,4.43,2.828,5.904
			c0.482-0.654,1.116-1.507,1.453-1.968C65.037,208.734,64.731,208.656,64.445,208.062z"/>
		<path d="M206.773,207.784c0.745-1.271,1.879-3.212,2.234-3.819c0.667-1.145,0.248-2.24,0.062-2.552
			c-0.572,0.203-1.131,0.403-1.711,0.604c0.143,0.128,0.419,0.58,0.139,1.059c-0.609,1.044-2.475,4.242-3.303,5.654
			c0.81,0.033,1.875,0.074,2.445,0.1C206.549,208.654,206.443,208.355,206.773,207.784z"/>
		<path d="M186.215,191.276c0.649-1.156,0.209-2.245,0.018-2.551c-0.569,0.21-1.124,0.421-1.702,0.628
			c0.146,0.127,0.431,0.576,0.156,1.057c-0.589,1.055-2.403,4.283-3.205,5.711c0.807,0.02,1.872,0.045,2.444,0.055
			c-0.09-0.17-0.205-0.467,0.12-1.043C184.764,193.848,185.871,191.885,186.215,191.276z"/>
		<path d="M129.211,208.654c-1.077,0-1.493,0-2.666,0c0,0-0.001,0-0.003-0.004c0,0.004,0,0.004,0,0.004l0,0
			c-0.393,0.461-0.771,0.917-1.172,1.379c0.185,0.04,0.653,0.293,0.653,0.847c0,1.208,0,4.89,0,6.526
			c0.608-0.314,1.527-0.803,2.153-1.139c-0.197-0.11-0.402-0.286-0.402-0.95c0-0.587,0-0.984,0-1.271
			C133.628,215.263,133.296,208.654,129.211,208.654z M128.813,212.822c-0.299,0.351-0.792,0.93-1.039,1.219c0-1.267,0-2.617,0-3.16
			c0-0.383-0.075-0.717-0.192-0.998c0.331,0,0.695,0,1.236,0C131.029,209.883,131.042,213.284,128.813,212.822z"/>
		<path d="M139.844,210.916c0,1.207,0,5.369,0,6.529c0.66-0.335,1.603-0.836,2.161-1.138c-0.167-0.108-0.414-0.306-0.414-0.983
			c0-0.459,0.005-1.104,0.005-1.631c0-1.146,0-2.291,0-2.775c0-0.384-0.077-0.717-0.195-1.006c0.339,0,0.707,0,1.26,0
			c2.216,0,2.18,3.055-0.049,2.592c-0.3,0.351-0.893,1.049-1.016,1.189c1.162,2.043,2.17,3.027,2.884,3.498
			c1.332,0.876,2.875-0.322,3.422-0.904c-0.236,0.225-1.229,0.461-2.389-0.438c-0.688-0.532-1.188-1.064-1.852-2.055
			c3.689-0.531,2.879-5.109-0.606-5.109c-1.077,0-2.568,0-2.691,0c-0.393,0.466-0.774,0.92-1.172,1.387
			C139.378,210.109,139.844,210.362,139.844,210.916z"/>
		<path d="M137.648,210.247c0.425-0.501,0.784-0.934,1.337-1.602c-2.115,0-3.022,0.001-5.044,0.001
			c-0.177,0.217-0.774,0.924-1.175,1.387c0.188,0.039,0.655,0.29,0.655,0.844c0,1.207-0.001,4.672-0.001,6.309
			c1.02,0,4.531,0,5.671,0c-0.361-0.516-0.747-1.077-1.082-1.59c-0.164,0.359-0.749,0.363-0.929,0.363c-0.663,0-0.945,0-1.907,0
			c0-0.716,0-1.576,0-2.461c0.34,0,0.615,0,0.89,0c0.585,0,0.865,0.164,0.935,0.373c0.417-0.494,0.779-0.933,1.332-1.604
			c-0.246,0-2.133,0-3.157,0.002c-0.001-0.738-0.001-1.186-0.001-1.389c0-0.383-0.079-0.721-0.198-1.007c0.924,0,1.091,0,1.741,0
			C137.299,209.874,137.58,210.036,137.648,210.247z"/>
		<path d="M149.554,213.208c1.266,0.083,1.562,1.046,2.924,1.046c1.258,0,2.047-0.768,2.39-1.579
			c-0.688,0.601-1.335,0.68-1.939,0.68c-1.112,0-1.727-1.056-2.97-1.056c-1.781,0-2.312,1.322-2.425,1.578
			C148.519,213.097,149.353,213.197,149.554,213.208z"/>
		<path d="M118.938,212.262c-1.779,0-2.311,1.315-2.424,1.576c0.983-0.78,1.818-0.684,2.019-0.668
			c1.27,0.077,1.562,1.045,2.926,1.045c1.261,0,2.048-0.769,2.388-1.579c-0.688,0.597-1.332,0.677-1.935,0.677
			C120.798,213.312,120.183,212.262,118.938,212.262z"/>
		<path d="M96.868,190.74c1.213-0.931,0.807-2.1,0.465-2.671c0.118,0.308,0.112,1.122-1.464,1.86
			c-1.99-1.63-5.044-4.137-5.044-4.137l0.192,9.497l1.425-0.667c0,0-0.016-0.742-0.032-1.693c0.574-0.271,1.828-0.857,2.767-1.3
			c0.716,0.593,1.329,1.099,1.532,1.255c0.406-0.556,0.976-1.322,1.274-1.715C97.631,191.248,97.243,191.027,96.868,190.74z
			 M92.384,191.566c-0.019-0.926-0.034-1.816-0.041-2.281c0.357,0.29,1.045,0.862,1.774,1.465
			C93.435,191.072,92.76,191.389,92.384,191.566z"/>
		<path d="M100.195,185.684c-1.187,0.029-1.927-0.008-2.186-0.672c-0.212-0.537,0.042-1.209,0.988-1.58
			c0.93-0.365,1.389-0.027,1.493,0.312l0.557-1.662c-0.609-0.18-1.553-0.104-2.453,0.252c-1.885,0.74-2.613,2.231-2.077,3.596
			c0.456,1.16,1.609,1.556,3.121,1.5c1.095-0.037,1.74-0.04,2.021,0.674c0.252,0.645-0.061,1.326-0.883,1.65
			c-0.764,0.299-1.394,0.017-1.487-0.365l-1.118,1.304c0.822,0.606,2.057,0.528,2.97,0.169c2.02-0.789,2.577-2.319,2.048-3.658
			C102.699,185.951,101.702,185.642,100.195,185.684z"/>
		<path d="M166.07,184.428c-0.885-0.789-1.399-1.324-1.137-1.979c0.216-0.543,0.862-0.859,1.806-0.48
			c0.927,0.371,1.028,0.931,0.872,1.252l1.542-0.832c-0.313-0.553-1.057-1.138-1.958-1.494c-1.879-0.753-3.433-0.161-3.977,1.197
			c-0.461,1.161,0.108,2.238,1.253,3.229c0.821,0.727,1.294,1.166,1.01,1.879c-0.257,0.644-0.951,0.926-1.774,0.598
			c-0.761-0.305-1.027-0.943-0.834-1.287l-1.704,0.188c0.178,1.004,1.134,1.793,2.046,2.158c2.017,0.805,3.467,0.07,3.999-1.267
			C167.712,186.336,167.194,185.435,166.07,184.428z"/>
		<path d="M199.344,198.078c0.501-0.854,0.192-1.676,0.054-1.909c-0.43,0.15-0.85,0.296-1.286,0.444
			c0.109,0.1,0.313,0.439,0.102,0.795c-0.272,0.461-1.203,2.035-2.102,3.561c0,0-0.541-6.318-1.232-7.469
			c-0.492,0.166-1.026,0.355-1.711,0.598c0.13,0.128,0.409,0.572,0.132,1.038c-0.457,0.774-2.71,4.602-3.334,5.654
			c0.605,0.028,1.404,0.063,1.832,0.081c-0.068-0.129-0.148-0.355,0.102-0.78c0.316-0.533,1.273-2.153,1.928-3.263
			c0.267,2.475,0.778,6.7,0.778,6.7s1.4,0.062,1.829,0.083c-0.068-0.131-0.146-0.354,0.104-0.778
			C197.1,201.883,199.077,198.531,199.344,198.078z"/>
		<path d="M222.666,207.875c0.33,0.159,0.421,0.632,0.117,0.959c-0.649,0.706-1.412,1.426-2.614,2.729
			c-0.472-1.796-1.145-4.53-1.34-5.284c-0.105-0.411-0.35-0.808-0.594-1.042c-0.375,0.258-1.108,0.77-1.49,1.029
			c0.181,0.086,0.538,0.473,0.407,0.958c-0.238,0.874-1.401,5.162-1.722,6.347c0.592-0.133,1.367-0.309,1.788-0.406
			c-0.1-0.106-0.237-0.302-0.107-0.782c0.123-0.457,0.47-1.726,0.732-2.706l1.3,4.903l3.363-3.604
			c-0.394,1.453-0.88,3.239-1.141,4.203c0.789-0.178,1.827-0.41,2.383-0.539c-0.132-0.148-0.313-0.404-0.139-1.043
			c0.386-1.421,0.976-3.594,1.159-4.273c0.343-1.273-0.344-2.227-0.607-2.477C223.659,207.188,223.174,207.533,222.666,207.875z"/>
		<path d="M55.072,167.617c-1.645,2.699-5.074,5.176-9.953,8.447c-1.398,2.791-6.192,6.09-13.343,8.996
			c3.688-4.358,4.693-9.611,4.285-12.801c-4.026,9.169-7.83,13.646-10.96,16.775c9.731,1.116,31.762-15.602,31.762-15.602
			S57.534,169.633,55.072,167.617z"/>
		<path d="M34.272,165.602c11.627-10.967,23.262-11.637,24.156-27.525C53.059,150.607,39.641,155.085,34.272,165.602z"/>
		<path d="M110.209,128.541c-1.115-0.234-3.146,0.758-3.134,2.511c0,1.417,0,2.646,0,4.726c0.349,0.197,1.674,0.422,2.896,0.461
			c0.022,0.32-0.923,2.335-2.896,2.225c0,2.976,0,4.818,0,7.393c0.251,0.215,1.568,0.561,3.116,0.612
			c0.024,0.323-1.2,2.554-3.116,2.192c0,1.119,0,1.385,0,2.035c0,0.128,0.007,0.244,0.017,0.352c0.009,0.074,0.021,0.141,0.03,0.213
			c0,0.004,0.001,0.012,0.001,0.018c0.281,1.74,1.802,2.236,2.742,1.678c3.022,0.143,13.061-0.008,13.242-0.004
			c0.56-0.978,2.718-1.925,3.538-2.307c0.285-0.006,0.445,0.006,0.666,0.006c0-0.295,0.004-22.105,0.004-22.105
			S112.484,128.531,110.209,128.541z M125.494,149.07c-0.635,0.406-1.934,0.969-2.323,1.449l-0.079-17.584
			c-1.499-0.006-2.254-0.004-3.577,0h-8.082c0.003,0.004,0.006,0.009,0.008,0.014c-0.497-0.004-0.998-0.008-1.51-0.014
			c0,0-1.307,0.223-1.244-1.27c0.035-0.829,0.732-1.346,1.416-1.249c0.261-0.008,14.341-0.014,15.409-0.004L125.494,149.07z"/>
		<path d="M140.329,181.017c1.222-3.024,4.319-4.731,8.779-5.093c-2.095-2.378-5.478-1.236-5.478-1.236s2.485-2.151,2.654-4.862
			c-2.654-0.473-5.256,1.792-5.256,1.792s1.372-2.825,0.505-5.508c-2.965,0.609-4.057,3.912-4.057,3.912s0.363-3.523-1.647-5.199
			c-0.001,0.002-0.004,0.009-0.005,0.013c0-0.004-0.002-0.011-0.004-0.013c-2.011,1.676-1.648,5.199-1.648,5.199
			s-1.092-3.299-4.053-3.912c-0.87,2.683,0.502,5.508,0.502,5.508s-2.602-2.265-5.255-1.792c0.167,2.715,2.653,4.866,2.653,4.866
			s-3.382-1.146-5.48,1.232c4.461,0.361,7.561,2.068,8.784,5.093H140.329z"/>
		<path d="M140.05,187.539c0.426,3.021,1.041,4.471,2.279,6.793c0.208,0.506-0.338,1.555-1.426,0.924
			c0,1.37-1.676,2.266-2.978,1.244c-0.308,1.762-2.095,1.475-2.095,1.475v-0.01c-0.004,0.004-0.009,0.012-0.009,0.012
			s-1.789,0.285-2.094-1.477c-1.301,1.021-2.98,0.126-2.98-1.244c-1.088,0.631-1.634-0.418-1.423-0.924
			c1.237-2.322,1.852-3.771,2.278-6.793H140.05z"/>
		<path d="M182.267,51.524c1.9-1.983,5.615-3.129,10.215-0.462c-4.684-0.097-5.967,1.914-5.941,3.703
			c0.057,3.715,2.654,6.956,6.108,10.203c-0.791,0.615-1.436,0.847-2,1.07c1.363,0.91,2.728,1.164,4.09,0.904
			c3.027,2.851,6.355,5.747,7.63,9.342c-0.417-2.924-2.21-6.857-5.575-9.949c1.361-0.604,2.412-1.484,2.782-2.076
			c2.123,4.307,10.174,13.143,22.031,10.682c-13.534-4.138-15.322-15.042-21.699-22.091c9.285,2.686,15.716,14.235,24.493,14.514
			c0.335-2.684,7.298-2.183,10.903-3.858c3.613-1.677,6.502-10.584-4.771-13.611c1.391,2.553,2.158,9.418-1.35,10.926
			c3.439-0.168,5.033-4.361,4.277-7.631c6.461,4.192,0.381,11.722-5.534,8.136c-7.885-4.784-10.738-7.131-18.847-9.816
			c3.356-1.171,11.183-1.788,15.321,1.121c-1.842-5.201-4.584-6.153-7.38-6.487c1.679-1.679,3.524-10.964-6.712-13.816
			c4.363,2.125,4.531,12.755-5.365,12.919c-5.091,0.089-12.772-0.372-18.705,0.813c-7.532,1.501-9.565,7.967-6.125,12.833
			C179.53,56.441,180.368,53.508,182.267,51.524z M194.03,63.883c-1.717-1.645-3.477-3.646-4.44-5.577
			c-1.634-3.297-0.545-6.184,4.6-5.444C195.999,55.709,196.779,60.655,194.03,63.883z"/>
		<path d="M36.34,63.505c3.608,1.675,10.568,1.175,10.905,3.858c8.777-0.278,15.21-11.828,24.492-14.514
			c-6.376,7.049-8.165,17.953-21.696,22.091c11.855,2.46,19.906-6.375,22.03-10.68c0.369,0.59,1.419,1.469,2.781,2.074
			c-3.366,3.092-5.159,7.025-5.575,9.949c1.275-3.595,4.604-6.489,7.632-9.342c1.36,0.261,2.729,0.006,4.089-0.904
			c-0.821-0.326-1.404-0.603-2-1.07c3.336-3.204,6.191-6.422,6.079-10.426c-0.055-1.98-1.766-3.589-5.914-3.479
			c8.82-4.957,13.625,2.921,12.37,7.83c3.44-4.867,1.408-11.333-6.124-12.833c-5.935-1.185-13.615-0.724-18.706-0.813
			c-9.898-0.165-9.729-10.794-5.366-12.919c-10.235,2.854-8.39,12.139-6.712,13.816c-2.796,0.334-5.537,1.286-7.382,6.487
			c4.139-2.906,11.967-2.292,15.322-1.121c-8.106,2.686-10.959,5.034-18.844,9.816c-5.916,3.586-11.995-3.944-5.538-8.136
			c-0.752,3.27,0.841,7.463,4.28,7.631c-3.522-1.425-2.698-8.569-1.357-10.916C29.875,52.921,32.733,61.829,36.34,63.505z
			 M77.458,52.862c5.141-0.74,6.233,2.147,4.596,5.444c-0.961,1.93-2.721,3.932-4.439,5.577
			C74.869,60.655,75.65,55.709,77.458,52.862z"/>
		<path d="M132.257,31.247c0,0-0.477-0.92-0.993-0.92c-0.518,0-0.921,0.934-0.921,0.934s0.722,0.819,0.921,1.373
			C131.697,31.778,132.257,31.247,132.257,31.247z"/>
		<path d="M128.579,29.669c0.016,0.127,0.449,0.204,0.477,0.306c0.358,1.376,1.323,0.521,1.481-0.028
			C130.077,29.437,129.168,29.025,128.579,29.669z"/>
		<path d="M133.396,30.018c0.027-0.104,0.459-0.178,0.476-0.309c-0.586-0.644-1.405-0.326-1.959,0.279
			C132.069,30.538,133.038,31.394,133.396,30.018z"/>
		<path d="M235.586,172.26c-0.212,3.105,0.259,7.936,4.282,12.797c-2.892-1.216-11.031-4.662-13.34-8.992
			c-4.879-3.275-8.311-5.748-9.953-8.447c-2.458,2.015-1.789,5.816-1.789,5.816s22.033,16.718,31.762,15.602
			C243.416,185.906,239.613,181.429,235.586,172.26z"/>
		<path d="M122.625,95.348c6.99,2.965,13.195,7.494,13.195,7.494l0.004-0.003l0.005,0.003c0,0,6.206-4.529,13.192-7.494
			c-6.147-0.221-13.192,4.853-13.192,4.853l-0.005,0.005l-0.004-0.005C135.82,100.201,128.777,95.127,122.625,95.348z"/>
		<path d="M237.375,165.602c-5.368-10.518-18.786-14.994-24.156-27.527C214.117,153.965,225.747,154.635,237.375,165.602z"/>
	</g>
	<path d="M141.509,184.335c0,0.833-0.676,1.509-1.509,1.509h-8.213c-0.833,0-1.509-0.676-1.509-1.509l0,0
		c0-0.833,0.676-1.509,1.509-1.509H140C140.833,182.826,141.509,183.502,141.509,184.335L141.509,184.335z"/>
	<path d="M199.792,97.211"/>
	<path d="M148.259,128.582c-1.115-0.234-3.146,0.758-3.134,2.511c0,1.417,0,2.646,0,4.726c0.348,0.197,1.673,0.422,2.896,0.461
		c0.022,0.321-0.923,2.336-2.896,2.226c0,2.976,0,4.818,0,7.392c0.251,0.215,1.567,0.561,3.115,0.611
		c0.025,0.324-1.199,2.555-3.115,2.193c0,1.119,0,1.385,0,2.035c0,0.128,0.006,0.245,0.017,0.352
		c0.008,0.074,0.021,0.141,0.03,0.212c0,0.005,0.001,0.012,0.001,0.019c0.282,1.74,1.802,2.238,2.742,1.678
		c3.021,0.143,13.061-0.007,13.242-0.004c0.561-0.978,2.719-1.926,3.539-2.306c0.285-0.006,0.445,0.005,0.665,0.005
		c0-0.294,0.005-22.105,0.005-22.105S150.535,128.572,148.259,128.582z M163.545,149.111c-0.635,0.406-1.934,0.969-2.323,1.449
		l-0.08-17.584c-1.498-0.006-2.254-0.004-3.576,0h-8.083c0.004,0.005,0.007,0.01,0.009,0.014c-0.498-0.003-0.998-0.007-1.51-0.014
		c0,0-1.307,0.223-1.244-1.27c0.036-0.829,0.732-1.346,1.416-1.249c0.262-0.007,14.342-0.013,15.409-0.003L163.545,149.111z"/>
	<path d="M204.407,156.151c7.71,0.038,12.054,6.866,13.51,7.718c0.025-0.739,0.684-1.256,2.512-0.768
		c8.576,2.291,19.974,11.594,23.883,14.582c0.223-6.877-5.145-40.056-34.446-53.255c25.5,16.335,30.251,42.628,31.145,46.88
		c-6.71-6.604-13.362-10.352-23.428-15.945c-2.91-0.338-13.729-4.28-20.016-9.965c-5.262-1.782-8.56-9.841-5.205-16.383
		c-5.973,3.9-3.46,11.537-3.02,12.922c-7.688-5.334-10.113-14.566-7.521-20.336c5.567-11.822,26.806-16.457,30.277-27.758
		c2.342-7.612-6.596-10.737-12.591-9.794c-0.078-0.562-0.237-1.412-0.715-1.677c-1.807,6.059-9.242,7.546-15.14,4.837
		c-1.434-2.552,0.864-3.465,2.443-4.04c0.585-0.211,4.725,1.38,5.309-2.177c1.65-0.16,3.349-0.585,3.934-1.274
		c-1.541,0.05-4.558-0.541-6.588-0.161c-2.284,0.423-2.601,1.011-3.083,2.123c-0.415,0.977-1.159-0.441-2.813-0.902
		c1.753-1.912,6.609-5.586,16.386-1.812c11.631,0.11,17.113,4.78,18.343,10.062c3.689,15.882-22.593,23.376-23.936,32.994
		c5.034-0.727,8.948-0.109,12.639,0.837c-1.173-0.892-3.802-2.512-7.717-3.297c1.514-4.88,15.527-10.958,20.241-20.381
		c4.349-0.21,8.813,0.722,11.467,3.995c-1.719-4.68-6.021-5.928-10.7-5.797c0.664-1.826,0.981-3.772,0.832-5.852
		c4.222,0.724,7.205,2.296,9.49,4.436c3.94,3.693,1.932,11.339-3.985,12.039c-4.612,0.543-6.753-2.394-6.624-4.403
		c-3.47,6.708,3.994,10.763,3.994,10.763s-5.424,14.316,9.674,18.175c-7.717-5.367-5.87-14.597-1.844-19.292
		c4.024-4.699,6.663-10.57,2.333-16.66c-2.157-3.033-6.546-6.006-13.315-7.02c-1.478-7.103-7.512-11.544-20.029-12.512
		c-7.619-11.122-27.464-12.26-29.381-21.937c1.339,1.762,4.444,3.271,8.47,3.523c-4.612-1.427-8.763-6.386-11.002-9.406
		c-4.609,16.343,22.737,19.289,29.371,27.183c-11.138-3.446-16.381,3.844-16.381,3.844s-3.505,0.08-3.052,3.92
		c-0.802,1.331-2.725,2.224-4.629,2.966c-0.018-0.932,0.037-1.9,0.1-2.862h0.094c1.011,0,1.831-0.818,1.831-1.831
		c0-0.99-0.784-1.792-1.761-1.826c0.458-5.395,5.365-4.589,7.535-3.884c-1.596-5.012-7.573-3.646-7.573-3.646
		s0.738-6.604-2.452-8.88c-3.188,2.276-2.446,8.88-2.446,8.88s-5.98-1.365-7.574,3.646c2.169-0.706,7.076-1.511,7.536,3.884
		c-0.981,0.035-1.764,0.836-1.764,1.826c0,1.012,0.82,1.831,1.831,1.831h0.097c0.237,3.761,0.398,7.634-3.77,9.085
		c2.551,1.362,5.098,0.309,6.09-1.188c0.994,1.497,3.545,2.55,6.096,1.188c-2.044-0.71-3.046-2.003-3.509-3.578
		c2.893-0.371,5.508,0,8.52-0.566c2.387,0.798,11.791,3.24,17.105-3.666c0.473-0.038,0.945-0.065,1.405-0.083
		c-0.136,4.512-2.948,8.271-6.458,10.378c-5.589,3.357-18.789,5.98-27.063,0.838c-5.199-3.232-9.163-10.259-15.331-14.592
		c1.977-0.239,3.043-1.519,3.388-2.863c0.466-1.815-0.264-4.145-2.147-5.582l0.025-17.757v-5.817l-1.296,0.677l-2.06-11.108v-0.344
		c0.408-0.132,0.704-0.51,0.704-0.969c0-0.561-0.453-1.02-1.008-1.02c-0.556,0-1.007,0.458-1.007,1.02
		c0,0.467,0.308,0.855,0.724,0.978v0.342l-2.055,11.098l-1.295-0.673v4.671h-0.008v3.02h-0.322c-0.775-1.781-1.558-3.694-2.81-7.104
		c0.588,0.505,2.349,1.427,2.768,1.512c-1.592-5.536-3.162-15.026-9.114-18.511c-0.242-0.144-0.769-0.713-0.728-1.791
		c0.046-1.081,0.097-3.187-0.921-4.365c-0.812-0.939-2.338-1.222-3.607-1.258c-1.064-0.033-1.982,0.095-2.879,0.643
		c-2.573,1.568-1.847,6.32-1.847,6.32s-0.562,2.1-0.562,2.997c-3.464,4.81,2.294,9.297,4.143,11.018
		c0.487,3.745,0.67,3.94,1.004,5.955c-0.083,0.722-0.485,3.321-1.54,4.585h-3.933l-0.008-7.689l-1.296,0.675l-2.059-11.102v-0.342
		c0.42-0.123,0.728-0.508,0.728-0.978c0-0.561-0.453-1.02-1.008-1.02c-0.558,0-1.007,0.458-1.007,1.02
		c0,0.459,0.296,0.839,0.702,0.971v0.349l-2.052,11.072l-1.304-0.645v4.669v0.043v1.103h0.001l0.025,17.757
		c-1.882,1.437-2.615,3.766-2.149,5.582c0.346,1.347,1.414,2.625,3.388,2.863c-6.165,4.333-10.13,11.36-15.33,14.592
		c-8.275,5.142-21.474,2.519-27.063-0.838c-3.511-2.107-6.314-5.866-6.455-10.378c0.461,0.018,0.93,0.047,1.403,0.085
		c5.313,6.905,14.714,4.461,17.105,3.665c3.011,0.564,5.625,0.194,8.519,0.566c-0.466,1.573-1.467,2.866-3.511,3.576
		c2.554,1.362,5.103,0.309,6.094-1.188c0.995,1.497,3.541,2.55,6.094,1.188c-4.173-1.451-4.01-5.322-3.771-9.083h0.097
		c1.011,0,1.831-0.819,1.831-1.833c0-0.99-0.783-1.79-1.763-1.826c0.459-5.393,5.367-4.589,7.537-3.884
		c-1.595-5.012-7.574-3.646-7.574-3.646s0.741-6.604-2.45-8.88c-3.188,2.276-2.449,8.88-2.449,8.88s-5.979-1.365-7.572,3.646
		c2.169-0.706,7.076-1.509,7.535,3.884c-0.979,0.036-1.763,0.836-1.763,1.826c0,1.014,0.817,1.833,1.833,1.833h0.094
		c0.063,0.962,0.118,1.928,0.097,2.86c-1.901-0.742-3.826-1.635-4.625-2.966c0.449-3.84-3.056-3.92-3.056-3.92
		s-5.242-7.29-16.379-3.844c6.634-7.892,33.897-10.756,29.372-27.183c-2.235,3.02-6.391,7.981-11.003,9.406
		c4.025-0.252,7.13-1.761,8.471-3.523c-1.919,9.675-21.83,10.858-29.454,21.969c-12.394,0.855-18.585,5.497-19.955,12.48
		c-7.48,1.194-11.188,4.159-13.206,6.907c-4.501,6.129-1.805,12.073,2.221,16.772c4.026,4.695,5.871,13.925-1.844,19.292
		c15.097-3.858,9.673-18.172,9.673-18.172s7.465-4.057,3.998-10.765c0.128,2.011-2.013,4.946-6.626,4.403
		c-5.912-0.699-7.93-8.348-3.983-12.039c2.226-2.082,5.256-3.719,9.483-4.443c-0.155,2.083,0.169,4.034,0.833,5.863
		c-4.68-0.131-8.978,1.111-10.694,5.794c2.651-3.274,7.118-4.205,11.467-3.995c4.717,9.42,18.727,15.501,20.241,20.379
		c-3.916,0.785-6.544,2.405-7.719,3.297c3.694-0.946,7.606-1.562,12.639-0.837c-1.34-9.616-27.624-17.112-23.934-32.992
		c1.227-5.284,6.71-9.954,18.339-10.064c9.777-3.774,14.634-0.101,16.387,1.812c-1.652,0.462-2.397,1.878-2.817,0.904
		c-0.477-1.114-0.794-1.702-3.081-2.125c-2.027-0.38-5.043,0.211-6.587,0.161c0.585,0.689,2.287,1.114,3.933,1.274
		c0.586,3.558,4.726,1.966,5.312,2.177c1.578,0.575,3.876,1.487,2.443,4.04c-5.897,2.709-13.335,1.222-15.14-4.837
		c-0.478,0.265-0.638,1.114-0.716,1.677c-5.995-0.943-14.934,2.185-12.594,9.794c3.476,11.303,24.831,16.076,30.396,27.898
		c1.727,4.54,1.727,12.14-6.582,19.558c-0.639,0.435-1.056,0.639-1.056,0.639s3.188-9.063-3.019-12.922
		c3.356,6.542,0.056,14.601-5.207,16.383c-6.284,5.685-17.105,9.629-20.013,9.965c-10.065,5.594-16.72,9.342-23.43,15.945
		c0.895-4.252,5.648-30.545,31.146-46.88c-29.303,13.199-34.67,46.379-34.446,53.257c17.959-14.417,26.675-16.316,26.394-13.816
		c2.292-1.828,6.057-7.574,13.421-7.724c4.124-0.085-0.61,5.423-2.125,8.62c-3.19,6.711-4.528,10.736-4.362,12.75
		c0.195,2.365-2.572,1.34-3.131-1.172c0,1.062-0.224,1.342-0.224,3.131c0,1.787,4.027,6.652,4.362,11.237
		c2.793-0.561,2.879,1.261,7.799,1.483c0.032,0,0.062,0,0.093,0.002c-7.115,4.109-13.689,7.803-17.969,9.101
		c-2.125,0.642-4.479,1.263-6.712,1.522c0.821-1.713,2.029-3.115,3.48-3.914c-2.515-4.112-6.207-7.634-10.011-9.704
		c-6.708-0.167-10.513,11.185-6.037,14.989c2.856,0.336,8.616,9.904,13.774,13.511c1.291,1.01,2.904,1.636,5.003,1.636
		c0.815,0,1.704-0.094,2.675-0.293c8.166-1.684,17.408-7.057,27.197-12.743c10.294-5.977,20.852-12.11,29.942-13.56
		c1.689,3.219-4.343,6.653-6.511,7.48c-1.359,0.514-3.879,0.654-2.819,1.958c0.135,0.173,0.258,0.326,0.367,0.461
		c3.267,4.102,6.506,8.703,9.388,15.624l0.108,0.263l0.233,0.167c3.25,2.326,16.237,3.549,24.135,3.59c0.006,0,0.012,0,0.017,0
		c0.007,0,0.011,0,0.019,0c7.897-0.041,20.897-1.201,24.375-3.736c2.214-5.385,4.714-9.974,9.837-16.354
		c0.212-0.265,0.311-0.479,0.272-0.66c-0.152-0.727-1.99-0.902-3.076-1.312c-2.168-0.827-8.197-4.262-6.512-7.48
		c9.09,1.449,19.647,7.583,29.944,13.56c9.783,5.686,19.031,11.06,27.193,12.743c0.972,0.199,1.859,0.291,2.677,0.291
		c2.095,0,3.705-0.619,4.994-1.629c5.16-3.604,10.924-13.18,13.785-13.518c4.472-3.803,0.669-15.154-6.041-14.987
		c-3.804,2.07-7.496,5.592-10.011,9.704c1.454,0.799,2.662,2.201,3.482,3.914c-2.232-0.26-4.586-0.881-6.712-1.522
		c-4.277-1.298-10.854-4.991-17.968-9.101c0.033-0.002,0.058-0.002,0.093-0.002c4.92-0.225,5.005-2.044,7.798-1.483
		c0.334-4.585,4.365-9.45,4.365-11.237c0-1.789-0.226-2.068-0.223-3.132c-0.563,2.513-3.332,3.536-3.134,1.173
		c0.167-2.014-1.173-6.039-4.363-12.753c-0.758-1.597-2.695-4.284-3.366-5.96C202.795,157.654,202.28,156.141,204.407,156.151z
		 M202.924,85.482c2.682,0.131,4.983,0.827,6.492,2.655c0.378,0.462,0.585,0.86,0.788,1.409c-2.586,0.396-5.22,1.236-8.02,2.402
		C202.8,89.819,203.045,87.616,202.924,85.482z M201.466,94.014c2.929-1.423,6.054-2.281,9.146-2.672
		c0.088,2.491-1.385,5.49-4.775,8.427c-0.194,0.168-0.407,0.339-0.641,0.518c-6.104,1.957-12.011,4.283-16.469,4.849
		C195.259,103.653,199.792,97.211,201.466,94.014z M152.544,99.239c5.755,8.297,14.721,17.376,25.892,13.281
		c-8.851-0.766-12.954-6.376-14.029-9.723c3.376,2.126,8.996,4.612,15.36,4.934c6.765,0.338,13.158-1.341,18.303-3.03
		c-10.719,6.239-26.333,15.631-19.296,28.676c0.67,5.146,3.128,10.069,4.92,13.875c1.789,3.805,4.027,6.49,4.918,7.606
		c0.896,1.122,1.51,5.822-4.304,5.372c-5.815-0.445-6.591-1.232-7.886-3.747c-1.9-3.694-0.223-7.495-1.231-8.841
		c-1.219-1.622-1.003-4.956-2.123-6.211c-0.252-0.277-0.686-0.654-1.125-0.789c0.002-4.938,0-9.295-0.003-13.785
		c-0.005-3.106-0.005-6.299-0.005-9.818v-1.168l-1.168-0.005c-1.993-0.01-6.821-0.007-11.093-0.004
		c-0.797-1.383-3.898-4.988-8.843-5.574C150.33,108.555,151.398,102.703,152.544,99.239z M169.567,152.271
		c-0.005,1.604-0.012,3.281-0.022,5.045c-0.02,4.189-1.518,8.967-3.93,13.834l-25.872-18.783v-22.264
		c1.616-0.949,3.219-2.24,4.497-3.465l0.77-0.738l-0.778-0.726c-0.948-0.883-0.957-1.866-0.795-2.537
		c0.269-1.13,1.205-2.14,2.272-2.445c0.884-0.256,1.744,0,2.499,0.732l0.916,0.896l0.655-1.102c0.672-1.139,1.458-1.934,2.273-2.498
		c1.256-0.003,12.732-0.021,17.539-0.011c0,3.063,0.001,5.891,0.002,8.65c0.005,6.431,0.012,12.603-0.009,20.592
		c-0.507,0.061-1.38,0.193-2.443,0.975C168.271,148.934,169.016,150.47,169.567,152.271z M135.824,203.021
		c-7.686-3.436-18.56-13.854-25.865-25.053l25.867-18.77l25.861,18.77C154.382,189.168,143.511,199.586,135.824,203.021z
		 M150.197,195.344c0.335,2.922,3.33,6.318,4.954,7.965c-5.516,0.585-11.417,0.847-16.556,0.951
		C142.119,202.331,146.167,199.204,150.197,195.344z M135.83,204.303l-0.005,0.023l-0.004-0.023l0.004-0.01L135.83,204.303z
		 M133.056,204.26c-5.139-0.104-11.043-0.366-16.56-0.951c1.623-1.646,4.62-5.043,4.951-7.965
		C125.483,199.204,129.533,202.331,133.056,204.26z M102.064,147.453c-0.02-7.989-0.014-14.161-0.009-20.592
		c0.001-2.759,0.004-5.587,0.004-8.65c4.807-0.01,16.283,0.009,17.537,0.011c0.814,0.564,1.602,1.358,2.274,2.498l0.652,1.105
		l0.917-0.9c0.753-0.732,1.618-0.988,2.5-0.732c1.068,0.306,2.001,1.315,2.272,2.445c0.161,0.671,0.15,1.654-0.793,2.537
		l-0.779,0.726l0.769,0.738c1.279,1.228,2.886,2.519,4.503,3.473v22.251l-25.881,18.788c-2.412-4.867-3.911-9.645-3.932-13.834
		c-0.008-1.764-0.014-3.441-0.021-5.045c0.55-1.802,1.297-3.338,2.428-3.844C103.444,147.646,102.57,147.514,102.064,147.453z
		 M124.153,92.678c1.094,0.308,1.994,0.564,2.345,0.663c5.448,1.659,9.322,3.629,9.322,3.629l0.004-0.021l0.005,0.021
		c0,0,3.871-1.97,9.319-3.629c0.353-0.099,1.253-0.355,2.35-0.663c0.301-0.081,0.601-0.159,0.911-0.237
		c-0.01-0.005-0.02-0.01-0.03-0.014c0.111-0.033,0.224-0.064,0.335-0.095c0.462-0.133,1.834-1.39,2.224-3.165
		c-0.232,4.394-0.989,8.639-1.611,12.139c-0.72,4.051-1.264,7.158-0.907,9.293c-1.271,0.379-2.39,0.914-3.392,1.558
		c-2.347,1.609-4.092,3.519-4.917,4.401c-1.521,1.625-2.843,3.031-4.287,3.472c-1.445-0.44-2.767-1.847-4.287-3.472
		c-0.825-0.883-5.337-5.363-8.309-5.959c0.354-2.135-0.189-5.242-0.908-9.293c-0.622-3.5-1.378-7.745-1.611-12.139
		c0.387,1.775,1.762,3.032,2.225,3.165c0.111,0.033,0.224,0.062,0.334,0.095c-0.009,0.003-0.02,0.011-0.029,0.015
		C123.548,92.519,123.852,92.599,124.153,92.678z M122.87,112.578c3.131,1.016,5.288,3.311,7.201,5.357
		c1.702,1.818,3.316,3.539,5.375,4.077c0.09,0.033,0.174,0.055,0.249,0.062c0.036,0.007,0.08,0.011,0.135,0.011
		c0.05,0,0.089-0.003,0.125-0.007c0.077-0.01,0.164-0.033,0.258-0.065c2.054-0.541,3.667-2.259,5.367-4.077
		c1.885-2.011,3.996-4.267,7.044-5.305c0.591-0.225,0.96-0.225,0.96-0.225c2.892,0.233,4.863,1.481,6.063,2.564
		c-2.209,0.137-4.955,1.056-6.972,3.775c-1.079-0.667-2.297-0.842-3.525-0.49c-1.754,0.511-3.23,2.082-3.67,3.917
		c-0.309,1.304-0.068,2.593,0.673,3.661c-2.338,2.086-4.798,3.525-6.327,3.678c-1.529-0.156-3.986-1.592-6.325-3.678
		c0.737-1.067,0.981-2.357,0.673-3.661c-0.44-1.835-1.916-3.406-3.672-3.913c-1.229-0.356-2.448-0.181-3.527,0.487
		c-2.017-2.72-4.767-3.64-6.972-3.774c1.199-1.085,3.172-2.33,6.062-2.566C122.064,112.405,122.263,112.382,122.87,112.578z
		 M135.544,131.503l-0.051,0.027l-0.065-0.044C135.467,131.494,135.506,131.501,135.544,131.503z M147.759,73.767
		c1.12,0.256,2.167,0.54,3.069,0.841c2.039,0.681,3.016,2.687,2.644,4.131c-0.279,1.08-1.261,1.545-2.762,1.341
		c-1.815-1.819-1.531-4.397-3.572-6.453C147.255,73.652,147.759,73.767,147.759,73.767z M148.708,85.454
		c0.146,1.281,0.804,4.719-3.046,5.292c-0.435-0.253-0.906-0.503-1.446-0.763c-4.865,0.419-8.387,2.586-8.387,2.586l-0.005,0.021
		l-0.004-0.02c0,0-3.521-2.168-8.387-2.587c-0.54,0.26-1.009,0.51-1.444,0.763c-2.136-0.167-3.812-1.899-3.048-5.292
		c1.838-2.551,4.016-4.255,7.243-5.08c1.4-0.214,2.859-0.378,4.549-0.467c0.085,1.393,0.42,6.384,1.072,11.188
		c0.006,0.058,0.012,0.114,0.016,0.171c0.002-0.007,0.004-0.015,0.004-0.022c0.001,0.007,0.004,0.016,0.005,0.022
		c0.004-0.057,0.009-0.114,0.017-0.169c0.65-4.806,0.986-9.801,1.072-11.19c1.689,0.086,3.146,0.252,4.548,0.467
		C144.695,81.199,146.87,82.903,148.708,85.454z M145.488,79.025c-0.883-0.225-1.812-0.39-2.783-0.488
		c-0.832-0.144-1.672-0.27-2.555-0.376c-1.954-1.626-2.123-4.306-4.947-5.841c0.221-0.005,0.439-0.006,0.654-0.006
		c1.778,0.005,3.8,0.155,5.841,0.403C144.095,74.629,144.271,77.49,145.488,79.025z M136.438,57.774
		c-0.237-0.16-0.415-0.378-0.388-0.66c0.193-1.942,0.331-3.089,0.331-3.089s0.78-0.585,1.537-1.175
		c0.571,0.826,1.446,2.736,2.369,4.924H136.438z M140.386,64.672c0,0,0.003,0.007,0.003,0.008c0.023,0.012,2.178,1.037,2.207,2.388
		c0.031,1.56,0.046,2.882,0.051,3.733c-1.528-0.203-3.059-0.35-4.517-0.431c0.007-0.838,0.02-1.988,0.047-3.309
		C138.205,65.702,140.386,64.672,140.386,64.672z M127.769,33.556c-0.11-1.734-0.25-4.139,1.093-5.567
		c0.641-0.585,1.537-0.53,2.403-0.547c0.937-0.015,1.752,0.233,2.153,0.632c1.175,1.175,0.896,4.423,1.019,5.021
		c0.156,0.743,0.586,1.009,0.839,1.259c6.345,4.098,8.577,15.333,8.577,15.333s-11.609-6.396-10.491-13.331
		c-2.74,2.46-1.097,6.833,0.559,8.556s4.478,4.377,4.478,4.377s-0.224,1.676-2.683,2.85c-0.04-0.158-0.319-0.927-0.496-1.624
		c-1.124,1.009-2.473,1.5-2.473,1.5s-0.22-0.724-0.478-2.562l-0.017,0.003l-0.556-3.686
		C125.64,41.098,127.216,35.634,127.769,33.556z M133.884,57.774h-1.099l-0.36-0.603c0,0-0.462-2.417,0.211-3.034
		c0.615-0.447,1.957-1.232,1.957-1.232S134.846,55.397,133.884,57.774z M129.055,67.069c0.028-1.35,2.181-2.376,2.207-2.388
		c0-0.001,0.002-0.008,0.002-0.008s2.182,1.029,2.209,2.39c0.025,1.322,0.042,2.471,0.046,3.309
		c-1.457,0.081-2.989,0.229-4.516,0.431C129.008,69.951,129.023,68.629,129.055,67.069z M130.156,72.69
		c2.558,1.296,3.355,3.766,4.592,5.202c-1.813,0.088-3.368,0.263-4.848,0.488c-2.074-1.22-2.742-3.638-5.433-4.744
		C126.254,73.244,128.213,72.922,130.156,72.69z M118.174,78.739c-0.312-1.221,0.342-2.829,1.778-3.712
		c2.378,1.085,3.483,3.304,4.958,4.295c-1.126,0.23-2.33,0.473-3.697,0.724C119.549,80.35,118.47,79.887,118.174,78.739z
		 M62.23,88.137c1.511-1.825,3.81-2.522,6.491-2.655c-0.118,2.134,0.125,4.337,0.743,6.466c-2.609-1.229-5.449-2.009-8.035-2.402
		C61.632,88.997,61.851,88.599,62.23,88.137z M65.809,99.769c-3.385-2.932-4.859-5.931-4.773-8.423
		c3.092,0.391,6.215,1.246,9.147,2.668c0.152,0.365,4.614,9.137,12.74,11.122c-4.458-0.564-10.363-2.887-16.464-4.845
		C66.22,100.114,66.006,99.937,65.809,99.769z M83.032,154.859c0.896-1.117,3.132-3.803,4.922-7.607
		c1.79-3.806,4.25-8.729,4.92-13.875c6.97-12.924-8.146-22.167-19.474-28.774c18.94,6.627,28.83,1.173,33.83-1.816
		c-0.829,3.273-5.407,9.062-14.02,9.733c13.968,4.952,23.714-10.487,25.949-13.28c1.564,5.252,2.012,9.543,1.69,11.048
		c-5.322,0.628-8.045,4.4-8.839,5.574c-0.757,0-9.027-0.006-11.131,0.004l-1.168,0.007v1.168c0,3.517-0.003,6.71-0.005,9.816
		c-0.006,4.49-0.006,8.847-0.004,13.786c-0.436,0.138-0.872,0.511-1.122,0.788c-1.121,1.255-0.905,4.589-2.126,6.211
		c-1.007,1.346,0.672,5.146-1.229,8.841c-1.295,2.515-2.07,3.302-7.887,3.749C81.523,160.681,82.137,155.98,83.032,154.859z
		 M64.523,184.565c-1.007-3.022-0.503-8.222,1.063-11.132c1.062-1.975,3.465-5.209,5.25-6.803c0.341-0.31,0.872-0.729,1.588-1.383
		c0.906,0.731,0.906,1.82,2.5,2.535c1.291,0.58,7.328-3.132,18.956-3.914c0.335-1.681,3.802-2.801,5.93-3.582
		c0.05-0.017,0.098-0.053,0.146-0.096c0.716,5.518,3.282,11.182,6.188,16.082c-5.114-0.53-12.806,2.756-21.252,7.25
		c-0.781-0.688-2.649-1.943-4.319-0.078c-1.455,0.783-5.253,2.994-9.172,4.023C66.621,188.73,65.094,186.273,64.523,184.565z
		 M79.955,204.562c-9.641,5.601-18.75,10.892-26.594,12.511c-2.918,0.604-4.878,0.109-6.376-1.241
		c-0.513-0.507-0.961-1.045-1.346-1.603c-0.013-0.019-0.029-0.041-0.041-0.066c-0.053-0.071-0.1-0.151-0.15-0.229
		c-0.226-0.365-0.44-0.756-0.651-1.17c-1.21-2.545-1.323-5.375-0.675-7.857c2.692-0.189,5.53-0.917,8.059-1.684
		c4.935-1.492,12.533-5.891,20.578-10.548c0.522-0.302,1.051-0.608,1.582-0.915c1.016-0.217,1.458-0.291,1.758,0.436
		c1.371-0.811,1.427-1.51,1.594-2.096c1.342-0.759,2.937-1.846,3.606-0.925c0.317-0.745,0.356-1.229,0.295-1.548
		c10.628-5.919,21.358-11.054,26.061-8.915c1.829,2.832,3.687,5.315,5.217,7.235c1.252,1.568,2.552,3.094,3.877,4.558
		C105.918,189.48,92.738,197.138,79.955,204.562z M166.243,203.516c-2.826,4.045-5.585,7.873-8.073,13.812
		c-2.877,1.695-13.893,2.908-22.345,2.951c-8.453-0.043-19.471-1.256-22.345-2.951c-2.489-5.939-5.247-9.768-8.074-13.811
		c8.322,2.119,20.493,2.541,30.415,2.646l0.004-0.021l0.005,0.021C145.749,206.059,157.921,205.637,166.243,203.516z
		 M219.469,203.223c2.527,0.767,5.367,1.494,8.059,1.684c0.648,2.486,0.533,5.317-0.681,7.864c-0.207,0.407-0.42,0.79-0.636,1.147
		c-0.061,0.086-0.109,0.174-0.167,0.26c-0.009,0.016-0.018,0.027-0.026,0.043c-0.383,0.559-0.838,1.102-1.35,1.61
		c-1.501,1.347-3.46,1.843-6.381,1.241c-7.844-1.619-16.951-6.91-26.595-12.511c-12.783-7.424-25.961-15.081-36.796-14.057
		c1.327-1.464,2.626-2.989,3.879-4.558c1.531-1.923,3.388-4.404,5.217-7.239c4.702-2.135,15.43,3,26.062,8.919
		c-0.063,0.318-0.022,0.803,0.296,1.548c0.669-0.922,2.264,0.166,3.606,0.925c0.165,0.586,0.22,1.285,1.59,2.096
		c0.304-0.727,0.744-0.652,1.759-0.436c0.532,0.305,1.061,0.613,1.583,0.915C206.933,197.332,214.534,201.73,219.469,203.223z
		 M206.062,173.434c1.564,2.91,2.065,8.109,1.061,11.127c-0.571,1.713-2.098,4.17-6.878,2.908c-3.917-1.029-7.717-3.24-9.172-4.023
		c-1.668-1.867-3.538-0.609-4.32,0.074c-8.444-4.49-16.14-7.776-21.25-7.246c2.904-4.9,5.471-10.566,6.187-16.082
		c0.049,0.043,0.096,0.079,0.147,0.096c2.128,0.781,5.594,1.901,5.929,3.582c11.63,0.782,17.494,4.408,18.833,3.954
		c1.563-0.532,2.011-2.319,2.682-2.543c0.691,0.63,1.196,1.049,1.53,1.351C202.594,168.225,204.998,171.459,206.062,173.434z"/>
</g>
</svg>
