<?xml version="1.0" encoding="utf-8"?>
<!-- Generator: Adobe Illustrator 15.1.0, SVG Export Plug-In . SVG Version: 6.00 Build 0)  -->
<!DOCTYPE svg PUBLIC "-//W3C//DTD SVG 1.1//EN" "http://www.w3.org/Graphics/SVG/1.1/DTD/svg11.dtd">
<svg version="1.1" id="Layer_1" xmlns="http://www.w3.org/2000/svg" xmlns:xlink="http://www.w3.org/1999/xlink" x="0px" y="0px"
	 width="1102.14px" height="250px" viewBox="0 0 1102.14 250" enable-background="new 0 0 1102.14 250" xml:space="preserve">
<g>
	<g>
		<path d="M69.562,202.334c0.945-1.54-0.832-4.148-3.767-2.513c-0.941,0.529-2.245,1.252-2.349,1.31
			c-0.119,0.598-0.23,1.182-0.355,1.785c0.185-0.06,0.713-0.069,0.984,0.412c0.589,1.056,2.507,4.504,3.075,5.521
			c2.096-0.998,2.852-1.416,3.568-1.933C73.265,205.094,71.512,202.253,69.562,202.334z M64.946,201.702
			c0.295-0.168,0.619-0.35,1.102-0.619c1.934-1.076,3.25,1.352,1.076,2.034c-0.056,0.286-0.178,0.938-0.31,1.529
			c-0.549-0.987-1.091-1.959-1.207-2.166C65.421,202.145,65.187,201.892,64.946,201.702z M69.368,206.28
			c-0.291,0.164-0.564,0.346-1.285,0.639c-0.112-0.199-0.658-1.173-1.207-2.161c0.001-0.003,0.003-0.011,0.003-0.013
			c-0.001,0-0.003,0.002-0.008,0.002c-0.018-0.033-0.037-0.062-0.057-0.097c0.352-0.197,0.742-0.414,0.949-0.518
			C69.975,202.97,71.178,205.27,69.368,206.28z"/>
		<path d="M60.428,210.468c-0.187,0.076-1.453,0.619-1.767,0.75c-0.575-1.353-1.709-4.025-1.982-4.672
			c-0.518-1.217-1.649-1.535-2.01-1.57c-0.178,0.575-0.351,1.146-0.539,1.732c0.188-0.039,0.717,0.006,0.932,0.518
			c0.473,1.109,1.827,4.299,2.467,5.808c0.758-0.323,4.658-1.979,5.215-2.217c-0.441-0.279-1.148-0.734-1.609-1.041
			C61.122,210.168,60.597,210.394,60.428,210.468z"/>
		<path d="M89.064,194.391c-0.695-1.297-1.789-3.346-2.123-3.965c-0.154-0.292-0.359-0.597-0.653-0.709
			c0.625-0.338,1.015-0.542,1.102-0.592c0.512-0.271,0.837-0.261,0.999-0.108c0.139-0.636,0.25-1.196,0.424-2.044
			c-0.977,0.524-5.143,2.755-6.16,3.297c-0.068,0.318-0.327,1.531-0.438,2.049c0.23-0.357,0.468-0.68,1.057-0.995
			c0.452-0.239,0.497-0.264,1.012-0.539c0.375-0.202,0.815-0.093,1.069,0.38c0.569,1.066,2.394,4.478,3.169,5.918
			c0.449-0.668,1.044-1.549,1.361-2.026C89.686,195.04,89.376,194.978,89.064,194.391z"/>
		<path d="M204.278,200.218c0.618,0.352,0.999,0.569,1.084,0.619c0.508,0.282,0.67,0.565,0.628,0.783
			c0.61-0.221,1.142-0.424,1.953-0.727c-0.965-0.553-5.066-2.889-6.068-3.459c-0.308,0.113-1.469,0.539-1.968,0.719
			c0.423,0.007,0.826,0.036,1.402,0.365c0.444,0.255,0.487,0.28,0.997,0.571c0.37,0.213,0.51,0.641,0.245,1.108
			c-0.597,1.047-2.512,4.409-3.323,5.827c0.811,0.026,1.871,0.058,2.447,0.079c-0.094-0.176-0.205-0.474,0.123-1.047
			c0.728-1.28,1.877-3.295,2.225-3.913C204.188,200.859,204.337,200.526,204.278,200.218z"/>
		<path d="M181.845,186.452c-0.961-0.479-1.338-0.667-2.387-1.186l-0.001-0.005l0,0c-0.557,0.237-1.101,0.479-1.663,0.716
			c0.147,0.117,0.453,0.554,0.207,1.048c-0.537,1.079-2.178,4.383-2.908,5.844c0.686-0.014,1.725-0.039,2.436-0.062
			c-0.126-0.188-0.233-0.432,0.064-1.028c0.264-0.529,0.437-0.884,0.566-1.14C182.858,194.335,185.501,188.269,181.845,186.452z
			 M179.628,190.003c-0.422,0.186-1.117,0.484-1.469,0.629c0.568-1.128,1.167-2.34,1.41-2.822c0.17-0.342,0.249-0.678,0.271-0.984
			c0.298,0.147,0.621,0.307,1.106,0.549C182.929,188.362,181.421,191.411,179.628,190.003z"/>
		<path d="M83.903,197.62c-0.862-0.119-1.56-0.332-2.626-0.864c2.942-2.292-0.045-5.86-3.07-4.127
			c-0.93,0.535-2.227,1.28-2.334,1.34c-0.108,0.596-0.213,1.182-0.327,1.785c0.179-0.061,0.711-0.075,0.984,0.403
			c0.604,1.051,2.672,4.661,3.25,5.667c0.406-0.619,0.973-1.524,1.308-2.061c-0.201-0.012-0.511-0.06-0.848-0.652
			c-0.229-0.398-0.542-0.958-0.804-1.41c-0.57-0.994-1.142-1.986-1.381-2.409c-0.191-0.335-0.425-0.588-0.669-0.773
			c0.291-0.17,0.612-0.354,1.092-0.627c1.922-1.104,3.41,1.558,1.247,2.27c-0.085,0.455-0.255,1.351-0.288,1.54
			c2.025,1.189,3.387,1.547,4.242,1.596c1.587,0.103,2.334-1.706,2.517-2.483C86.101,197.125,85.358,197.822,83.903,197.62z"/>
		<path d="M175.621,188.704c-0.113,0.233-0.596,0.644-1.563,0.482c-0.189-2.209-0.474-6.467-0.474-6.467l-6.771,6.674l1.462,0.574
			c0,0,0.535-0.532,1.216-1.193c0.587,0.23,2.05,0.799,2.842,1.114c0.016,0.141,0.114,1.633,0.142,1.976
			c0.69-0.081,1.179-0.141,2.127-0.246c-0.402-0.271-0.45-0.9-0.487-1.399C174.981,190.011,175.482,189.202,175.621,188.704z
			 M170.463,187.82c0.654-0.646,1.286-1.264,1.618-1.587c0.046,0.659,0.099,1.468,0.164,2.288
			C171.551,188.25,170.855,187.975,170.463,187.82z"/>
		<path d="M215.473,209.739c-0.129,0.228-0.634,0.606-1.591,0.384c-0.048-2.218-0.068-6.479-0.068-6.479l-7.17,6.238l1.424,0.661
			c0,0,0.563-0.488,1.284-1.113c0.573,0.265,1.994,0.923,2.771,1.283c0.003,0.144,0.011,1.637,0.022,1.988
			c0.691-0.041,1.183-0.068,2.133-0.118c-0.385-0.297-0.392-0.927-0.399-1.427C214.757,211.005,215.306,210.228,215.473,209.739z
			 M210.383,208.536c0.691-0.602,1.361-1.18,1.71-1.483c0.011,0.666,0.011,1.473,0.025,2.296
			C211.439,209.027,210.76,208.716,210.383,208.536z"/>
		<path d="M76.535,202.039c-0.569,0.331-0.815,0.473-1.647,0.959c-0.363-0.618-0.797-1.366-1.241-2.129
			c0.296-0.17,0.532-0.312,0.771-0.447c0.506-0.297,0.827-0.297,0.994-0.152c0.112-0.637,0.202-1.197,0.345-2.048
			c-0.216,0.122-1.843,1.069-2.727,1.59c-0.377-0.64-0.601-1.03-0.704-1.202c-0.194-0.334-0.431-0.584-0.675-0.773
			c0.797-0.463,0.941-0.548,1.503-0.873c0.504-0.297,0.828-0.297,0.993-0.149c0.115-0.646,0.205-1.201,0.348-2.057
			c-1.824,1.066-2.611,1.523-4.356,2.543c-0.043,0.275-0.205,1.184-0.316,1.79c0.18-0.064,0.709-0.079,0.987,0.398
			c0.611,1.045,2.357,4.041,3.179,5.452c0.883-0.515,3.915-2.28,4.899-2.854c-0.571-0.262-1.186-0.557-1.735-0.833
			C77.198,201.647,76.691,201.946,76.535,202.039z"/>
		<path d="M188.119,198.167c-0.571-0.334-0.815-0.477-1.652-0.951c0.36-0.629,0.786-1.369,1.229-2.137
			c0.296,0.173,0.529,0.307,0.77,0.444c0.508,0.292,0.669,0.571,0.628,0.787c0.605-0.219,1.137-0.422,1.95-0.723
			c-0.215-0.123-1.848-1.066-2.74-1.572c0.368-0.643,0.594-1.029,0.695-1.208c0.191-0.335,0.291-0.663,0.331-0.97
			c0.801,0.458,0.948,0.543,1.508,0.868c0.506,0.291,0.668,0.573,0.625,0.788c0.615-0.219,1.144-0.419,1.958-0.722
			c-1.835-1.054-2.622-1.505-4.375-2.513c-0.262,0.101-1.131,0.41-1.709,0.616c0.144,0.126,0.422,0.575,0.144,1.053
			c-0.6,1.05-2.331,4.055-3.146,5.474c0.885,0.51,3.929,2.259,4.917,2.83c-0.057-0.632-0.107-1.312-0.146-1.917
			C188.788,198.543,188.275,198.254,188.119,198.167z"/>
		<path d="M64.341,208.06c-0.637-1.329-1.609-3.357-1.912-3.992c-0.571-1.191-1.717-1.461-2.076-1.479
			c-0.156,0.589-0.298,1.161-0.459,1.757c0.187-0.047,0.714-0.021,0.952,0.478c0.524,1.088,2.122,4.43,2.831,5.905
			c0.481-0.654,1.114-1.508,1.45-1.967C64.932,208.733,64.627,208.654,64.341,208.06z"/>
		<path d="M206.671,207.782c0.746-1.271,1.878-3.213,2.236-3.818c0.665-1.146,0.245-2.241,0.061-2.554
			c-0.574,0.205-1.133,0.406-1.712,0.607c0.144,0.126,0.42,0.578,0.139,1.057c-0.61,1.044-2.476,4.243-3.304,5.654
			c0.809,0.034,1.875,0.073,2.445,0.102C206.447,208.653,206.34,208.354,206.671,207.782z"/>
		<path d="M186.113,191.274c0.648-1.156,0.21-2.243,0.018-2.55c-0.568,0.209-1.122,0.421-1.7,0.628
			c0.146,0.126,0.429,0.576,0.158,1.058c-0.594,1.056-2.407,4.28-3.208,5.71c0.807,0.018,1.872,0.045,2.442,0.054
			c-0.09-0.168-0.205-0.467,0.12-1.044C184.665,193.847,185.771,191.883,186.113,191.274z"/>
		<path d="M129.108,208.653c-1.075,0-1.496,0-2.667,0c0,0,0,0-0.004-0.005c0,0.005,0,0.005,0,0.005l0,0
			c-0.395,0.463-0.77,0.917-1.171,1.377c0.187,0.041,0.654,0.294,0.654,0.847c0,1.21,0,4.889,0,6.526
			c0.607-0.313,1.527-0.801,2.152-1.138c-0.194-0.109-0.402-0.286-0.402-0.948c0-0.587,0-0.988,0-1.272
			C133.524,215.26,133.191,208.653,129.108,208.653z M128.708,212.821c-0.298,0.35-0.791,0.929-1.038,1.217c0-1.266,0-2.616,0-3.159
			c0-0.382-0.074-0.717-0.194-0.996c0.334,0,0.696,0,1.237,0C130.923,209.883,130.938,213.283,128.708,212.821z"/>
		<path d="M139.739,210.914c0,1.206,0,5.369,0,6.528c0.661-0.333,1.604-0.836,2.161-1.136c-0.166-0.109-0.414-0.306-0.414-0.984
			c0-0.461,0.006-1.104,0.006-1.631c0-1.146,0-2.291,0-2.774c0-0.385-0.078-0.718-0.196-1.006c0.341,0,0.707,0,1.261,0
			c2.215,0,2.18,3.053-0.05,2.591c-0.298,0.352-0.891,1.048-1.015,1.189c1.162,2.042,2.171,3.03,2.886,3.499
			c1.329,0.873,2.873-0.321,3.422-0.904c-0.237,0.224-1.232,0.46-2.388-0.44c-0.691-0.528-1.19-1.064-1.855-2.054
			c3.69-0.529,2.879-5.109-0.605-5.109c-1.078,0-2.568,0-2.693,0c-0.392,0.467-0.772,0.921-1.171,1.387
			C139.274,210.108,139.739,210.36,139.739,210.914z"/>
		<path d="M137.543,210.244c0.426-0.499,0.783-0.933,1.339-1.601c-2.115,0-3.021,0.002-5.046,0.002
			c-0.176,0.218-0.772,0.923-1.174,1.385c0.187,0.039,0.653,0.29,0.653,0.845c0,1.208,0,4.672,0,6.311c1.02,0,4.531,0,5.671,0
			c-0.361-0.517-0.747-1.078-1.081-1.59c-0.164,0.358-0.748,0.363-0.929,0.363c-0.662,0-0.944,0-1.907,0c0-0.718,0-1.578,0-2.464
			c0.34,0,0.616,0,0.889,0c0.585,0,0.866,0.167,0.936,0.374c0.417-0.491,0.78-0.933,1.331-1.601c-0.245,0-2.134,0-3.155,0.001
			c-0.001-0.741-0.001-1.187-0.001-1.391c0-0.382-0.079-0.721-0.198-1.007c0.926,0,1.092,0,1.741,0
			C137.194,209.872,137.477,210.033,137.543,210.244z"/>
		<path d="M149.453,213.205c1.268,0.086,1.562,1.049,2.925,1.049c1.259,0,2.045-0.769,2.388-1.581
			c-0.687,0.601-1.334,0.681-1.938,0.681c-1.113,0-1.727-1.056-2.97-1.056c-1.781,0-2.315,1.32-2.428,1.578
			C148.418,213.094,149.25,213.194,149.453,213.205z"/>
		<path d="M118.834,212.258c-1.781,0-2.309,1.318-2.424,1.577c0.984-0.781,1.818-0.682,2.018-0.668
			c1.27,0.08,1.562,1.048,2.924,1.048c1.261,0,2.051-0.769,2.389-1.581c-0.686,0.599-1.329,0.678-1.936,0.678
			C120.694,213.312,120.078,212.258,118.834,212.258z"/>
		<path d="M96.762,190.739c1.217-0.934,0.81-2.1,0.465-2.67c0.119,0.308,0.115,1.121-1.462,1.859
			c-1.991-1.632-5.046-4.137-5.046-4.137l0.193,9.496l1.425-0.666c0,0-0.014-0.743-0.031-1.695c0.575-0.269,1.828-0.854,2.766-1.298
			c0.718,0.594,1.328,1.097,1.533,1.253c0.406-0.555,0.977-1.321,1.275-1.713C97.526,191.246,97.138,191.025,96.762,190.739z
			 M92.281,191.564c-0.017-0.925-0.035-1.816-0.042-2.281c0.358,0.29,1.045,0.864,1.776,1.466
			C93.331,191.07,92.655,191.386,92.281,191.564z"/>
		<path d="M100.09,185.682c-1.187,0.03-1.925-0.008-2.186-0.673c-0.214-0.536,0.042-1.208,0.99-1.578
			c0.928-0.365,1.388-0.028,1.492,0.312l0.554-1.662c-0.606-0.179-1.551-0.103-2.451,0.251c-1.884,0.74-2.613,2.231-2.076,3.598
			c0.456,1.157,1.609,1.553,3.119,1.499c1.096-0.038,1.742-0.042,2.023,0.676c0.25,0.643-0.062,1.323-0.884,1.647
			c-0.766,0.298-1.395,0.019-1.488-0.365l-1.117,1.303c0.821,0.607,2.054,0.528,2.969,0.168c2.02-0.787,2.577-2.317,2.049-3.657
			C102.597,185.948,101.599,185.64,100.09,185.682z"/>
		<path d="M165.966,184.426c-0.883-0.788-1.397-1.323-1.135-1.979c0.218-0.542,0.861-0.857,1.807-0.48
			c0.927,0.373,1.027,0.933,0.872,1.254l1.541-0.833c-0.315-0.553-1.057-1.136-1.959-1.493c-1.88-0.755-3.432-0.163-3.978,1.195
			c-0.459,1.162,0.108,2.24,1.254,3.231c0.823,0.724,1.292,1.163,1.012,1.876c-0.259,0.645-0.951,0.928-1.775,0.599
			c-0.759-0.306-1.025-0.941-0.833-1.285l-1.705,0.186c0.177,1.006,1.135,1.793,2.044,2.159c2.018,0.804,3.47,0.068,3.999-1.269
			C167.609,186.333,167.092,185.435,165.966,184.426z"/>
		<path d="M199.243,198.078c0.5-0.855,0.19-1.678,0.054-1.91c-0.431,0.149-0.85,0.295-1.286,0.443
			c0.107,0.099,0.314,0.44,0.101,0.795c-0.271,0.463-1.2,2.035-2.1,3.561c0,0-0.542-6.315-1.234-7.469
			c-0.492,0.165-1.027,0.355-1.712,0.599c0.131,0.127,0.409,0.572,0.134,1.037c-0.458,0.776-2.712,4.604-3.335,5.655
			c0.604,0.029,1.405,0.063,1.833,0.08c-0.07-0.129-0.148-0.354,0.103-0.78c0.313-0.532,1.271-2.151,1.926-3.264
			c0.266,2.474,0.776,6.7,0.776,6.7s1.402,0.064,1.83,0.083c-0.068-0.129-0.146-0.351,0.104-0.777
			C196.998,201.881,198.975,198.53,199.243,198.078z"/>
		<path d="M222.562,207.873c0.33,0.16,0.423,0.633,0.119,0.962c-0.65,0.703-1.414,1.424-2.613,2.725
			c-0.472-1.795-1.146-4.528-1.341-5.282c-0.104-0.414-0.349-0.809-0.594-1.042c-0.377,0.258-1.109,0.769-1.491,1.028
			c0.18,0.085,0.537,0.473,0.406,0.958c-0.239,0.876-1.399,5.163-1.721,6.35c0.591-0.133,1.371-0.312,1.786-0.41
			c-0.099-0.107-0.233-0.301-0.106-0.78c0.124-0.458,0.471-1.726,0.732-2.706l1.3,4.901l3.361-3.603
			c-0.395,1.452-0.877,3.236-1.138,4.2c0.787-0.177,1.828-0.409,2.383-0.538c-0.131-0.149-0.314-0.402-0.138-1.041
			c0.384-1.42,0.975-3.594,1.156-4.275c0.345-1.271-0.344-2.228-0.607-2.474C223.557,207.186,223.072,207.529,222.562,207.873z"/>
		<path d="M54.969,167.617c-1.645,2.698-5.075,5.173-9.954,8.444c-1.397,2.793-3.746,5.089-4.977,4.978
			c0.672-1.229,1.286-2.462,1.817-4.784c-2.097,2.935-3.66,6.459-7.241,8.081c0.949-1.116,2.35-3.353,2.878-5.646
			c-2.236,3.296-4.613,6.204-7.353,7.548c4.139-5.144,5.816-11.071,5.816-13.98c-4.025,9.17-7.828,13.648-10.959,16.776
			c9.732,1.116,31.761-15.603,31.761-15.603S57.432,169.632,54.969,167.617z"/>
		<path d="M34.171,165.6c11.625-10.965,23.261-11.634,24.153-27.521C52.955,150.607,39.536,155.083,34.171,165.6z"/>
		<path d="M71.581,132.762c-1.344,6.379-2.238,13.874-8.951,17.229C73.254,148.313,71.914,138.579,71.581,132.762z"/>
		<path d="M132.012,183.888h6.935c0.003,0,0.003,0,0.008,0h0.502c0.988,0,1.789-0.391,1.789-0.87c0-0.475-0.801-0.862-1.789-0.862
			h-0.51h-6.425h-0.51c-0.988,0-1.789,0.388-1.789,0.862C130.223,183.497,131.024,183.888,132.012,183.888z"/>
		<path d="M132.012,186.397h6.935c0.003,0,0.003,0,0.008,0h0.502c0.988,0,1.789-0.39,1.789-0.868c0-0.481-0.801-0.866-1.789-0.866
			h-0.51h-6.425h-0.51c-0.988,0-1.789,0.385-1.789,0.866C130.223,186.008,131.024,186.397,132.012,186.397z"/>
		<path d="M121.758,131.642h-10.839c0.704,1.048,1.512,2.251,2.246,3.327h6.349C120.238,133.9,121.046,132.704,121.758,131.642z"/>
		<path d="M113.146,150.442c-0.748,1.098-1.573,2.325-2.288,3.392c2.986-0.003,7.854-0.008,10.906,0
			c-0.723-1.082-1.546-2.303-2.286-3.392H113.146z"/>
		<rect x="113.28" y="136.198" width="6.123" height="13.015"/>
		<path d="M106.278,152.026c0.002,0.005,0.003,0.011,0.003,0.018c0.302,1.871,1.939,2.407,2.951,1.804
			c0.81-1.212,1.876-2.801,2.819-4.186v-13.941c-0.917-1.346-1.948-2.882-2.75-4.079c0,0-1.859,0.164-1.801-1.154
			c0.034-0.893,1.251-0.989,1.988-0.887c0.279-0.006,15.429-0.012,16.574-0.002l-0.021,20.795c-0.722,0.46-1.503,1.11-1.904,1.646
			l-0.007-20.398h-0.759c-0.819,1.223-1.835,2.735-2.741,4.064v14.05c0.914,1.34,1.938,2.87,2.752,4.085
			c0.323,0.003,0.568,0,0.762,0.003c0.603-1.053,1.533-2.07,2.415-2.48c0.307-0.006,0.479,0.006,0.717,0.006
			c0-0.316,0.003-23.061,0.003-23.061s-15.234-0.014-17.68-0.002c-1.201-0.253-3.385,0.093-3.374,1.98c0,1.523,0,3.567,0,5.804
			c0.374,0.214,1.081,0.453,2.394,0.495c0.025,0.345-0.204,0.679-0.612,0.851c-0.532,0.225-1.302,0.17-1.782,0.101
			c0,3.2,0,6.628,0,9.396c0.271,0.229,0.966,0.602,2.632,0.656c0.025,0.35-0.204,0.68-0.614,0.854
			c-0.632,0.265-1.602,0.138-2.019,0.063c0,1.204,0,2.213,0,2.91c0,0.14,0.007,0.263,0.02,0.38
			C106.257,151.876,106.269,151.947,106.278,152.026z"/>
		<path d="M159.703,131.647h-10.837c0.705,1.05,1.51,2.248,2.244,3.329h6.349C158.187,133.907,158.988,132.711,159.703,131.647z"/>
		<path d="M151.09,150.45c-0.747,1.095-1.573,2.324-2.288,3.386c2.989-0.003,7.855-0.007,10.908,0.005
			c-0.725-1.081-1.548-2.305-2.288-3.391H151.09z"/>
		<rect x="151.227" y="136.206" width="6.12" height="13.012"/>
		<path d="M147.545,128.312c-1.196-0.254-3.383,0.09-3.373,1.98c0,1.522,0,3.572,0,5.805c0.377,0.21,1.083,0.45,2.396,0.493
			c0.025,0.349-0.208,0.683-0.614,0.851c-0.532,0.224-1.302,0.17-1.782,0.105c0,3.199,0,6.624,0,9.391
			c0.273,0.232,0.964,0.608,2.632,0.662c0.027,0.341-0.204,0.678-0.612,0.849c-0.634,0.265-1.603,0.138-2.02,0.066
			c0,1.201,0,2.207,0,2.909c0,0.139,0.008,0.264,0.021,0.378c0.008,0.082,0.019,0.156,0.031,0.232c0,0.004,0.002,0.011,0.003,0.015
			c0.302,1.872,1.938,2.41,2.947,1.807c0.817-1.217,1.881-2.804,2.825-4.188v-13.938c-0.918-1.351-1.949-2.888-2.75-4.08
			c0,0-1.86,0.167-1.802-1.156c0.038-0.891,1.251-0.988,1.986-0.887c0.283-0.004,15.429-0.012,16.577,0l-0.02,20.795
			c-0.722,0.458-1.505,1.109-1.909,1.648l-0.004-20.4h-0.761c-0.815,1.221-1.835,2.737-2.738,4.065v14.048
			c0.911,1.343,1.938,2.869,2.751,4.087c0.324,0.004,0.571-0.004,0.762,0.004c0.607-1.052,1.534-2.073,2.413-2.482
			c0.309-0.012,0.483,0.004,0.719,0.004c0-0.312,0.007-23.059,0.007-23.059S149.994,128.297,147.545,128.312z"/>
		<path d="M143.526,174.687c0,0,2.485-2.153,2.654-4.863c-2.654-0.473-5.255,1.792-5.255,1.792s1.371-2.827,0.504-5.507
			c-2.963,0.609-4.055,3.912-4.055,3.912s0.361-3.523-1.648-5.201c-0.002,0.004-0.003,0.011-0.005,0.015
			c0-0.004-0.001-0.011-0.003-0.015c-2.011,1.678-1.648,5.201-1.648,5.201s-1.092-3.3-4.054-3.912
			c-0.869,2.68,0.503,5.507,0.503,5.507s-2.602-2.265-5.254-1.792c0.167,2.715,2.652,4.866,2.652,4.866s-3.384-1.146-5.481,1.231
			c4.462,0.363,7.562,2.068,8.783,5.096h1.625c-0.354-1.959-1.007-3.83-2.077-5.494c0,0-0.205-0.274,0.228-0.583
			c0.46-0.332,0.619,0.037,0.619,0.037c1.148,1.784,1.872,3.887,2.26,6.04h1.343c0.003-2.248,0.003-4.524,0.003-6.689
			c0,0,0-0.378,0.486-0.378c0.481,0,0.524,0.378,0.524,0.378c0,2.153-0.003,4.433-0.011,6.689h1.351
			c0.388-2.153,1.113-4.254,2.263-6.04c0,0,0.156-0.369,0.617-0.037c0.435,0.309,0.23,0.583,0.23,0.583
			c-1.072,1.664-1.731,3.535-2.079,5.494h1.626c1.219-3.027,4.319-4.732,8.779-5.096
			C146.91,173.544,143.526,174.687,143.526,174.687z"/>
		<path d="M139.946,187.538h-1.606c0.073,2.599,0.243,4.992,1.074,7.089c0,0,0.395,0.838-0.167,1.091
			c-0.308,0.139-0.643-0.14-0.923-0.759c-0.687-1.51-0.942-4.445-1.054-7.421h-1.068c-0.006,1.326-0.009,2.586-0.014,3.717
			c-0.009,2.502,0.044,4.413,0.044,5.317c0,0,0.023,0.394-0.518,0.383c-0.515-0.013-0.551-0.375-0.551-0.375
			c0-0.898,0.02-2.892,0.029-5.392c0.005-1.118,0.009-2.349,0.011-3.65h-1.032c-0.108,2.973-0.367,5.908-1.053,7.421
			c-0.28,0.619-0.615,0.897-0.923,0.759c-0.56-0.253-0.169-1.091-0.169-1.091c0.833-2.097,1.003-4.49,1.078-7.089h-1.607
			c-0.428,3.02-1.04,4.471-2.279,6.791c-0.208,0.509,0.336,1.555,1.424,0.928c0,1.368,1.679,2.263,2.982,1.239
			c0.306,1.765,2.093,1.478,2.093,1.478s0.005-0.008,0.009-0.01v0.01c0,0,1.789,0.287,2.093-1.478
			c1.302,1.023,2.979,0.129,2.979-1.239c1.088,0.627,1.633-0.419,1.426-0.928C140.987,192.009,140.371,190.558,139.946,187.538z"/>
		<path d="M181.02,51.51c0.125-0.123,0.259-0.23,0.397-0.342c-0.573,1.312-0.83,3.338,0.327,6.271
			c-0.794-3.669,0.765-6.156,1.857-7.388c0.282-0.09,0.569-0.164,0.867-0.23c-0.685,0.938-1.5,2.905-0.515,6.472
			c-0.582-4.232,1.562-6.496,4.12-6.684c1.583,0.158,3.121,0.631,4.308,1.452c-4.148-0.112-5.537,1.436-5.593,3.416
			c-0.112,4.004,2.744,7.222,6.08,10.426c-0.597,0.464-1.296,0.875-2.119,1.199c1.363,0.911,2.848,1.037,4.209,0.776
			c3.028,2.85,6.034,5.809,7.311,9.404c-0.417-2.926-2.21-6.856-5.576-9.951c1.361-0.604,2.412-1.481,2.783-2.074
			c2.122,4.305,10.174,13.142,22.029,10.682c-13.532-4.14-15.323-15.042-21.698-22.091c9.284,2.686,15.716,14.236,24.494,14.513
			c0.334-2.684,7.299-2.182,10.903-3.858c3.611-1.677,4.53-9.98-3.689-12.666c0.925,1.758,1.09,8.554-2.431,9.98
			c3.439-0.167,5.03-4.361,4.277-7.629c6.459,4.191,0.378,11.721-5.537,8.135c-7.885-4.783-10.738-7.131-18.847-9.815
			c3.356-1.172,11.186-1.789,15.323,1.119c-1.844-5.199-4.584-6.152-7.38-6.486c1.677-1.679,3.523-10.963-6.712-13.815
			c4.363,2.124,4.531,12.753-5.366,12.918c-5.091,0.088-12.771-0.374-18.704,0.814c-7.534,1.5-9.565,7.966-6.124,12.834
			C179.343,57.13,178.819,53.664,181.02,51.51z M193.927,63.882c-1.717-1.645-3.473-3.645-4.439-5.576
			c-1.634-3.295-0.542-6.183,4.6-5.442C195.895,55.71,196.676,60.655,193.927,63.882z"/>
		<path d="M36.236,63.505c3.609,1.676,10.569,1.174,10.905,3.858c8.778-0.277,15.21-11.828,24.493-14.513
			c-6.378,7.05-8.164,17.952-21.698,22.091c11.856,2.46,19.907-6.377,22.031-10.682c0.37,0.593,1.418,1.471,2.78,2.074
			c-3.366,3.094-5.157,7.025-5.574,9.951c1.275-3.596,4.283-6.553,7.309-9.404c1.36,0.26,2.848,0.134,4.21-0.776
			c-0.822-0.325-1.524-0.73-2.119-1.199c3.335-3.204,6.189-6.422,6.079-10.426c-0.058-1.98-1.444-3.525-5.592-3.416
			c1.185-0.819,2.722-1.294,4.306-1.451c2.557,0.187,4.702,2.45,4.12,6.682c0.987-3.567,0.172-5.534-0.514-6.472
			c0.294,0.066,0.585,0.141,0.868,0.23c1.094,1.231,2.648,3.719,1.855,7.388c1.157-2.933,0.901-4.959,0.329-6.271
			c0.138,0.111,0.274,0.219,0.396,0.342c2.198,2.159,1.68,5.621,1.006,7.384c3.44-4.869,1.411-11.335-6.121-12.834
			c-5.937-1.188-13.616-0.726-18.709-0.814c-9.896-0.166-9.728-10.794-5.365-12.918c-10.234,2.852-8.39,12.138-6.71,13.815
			c-2.796,0.334-5.537,1.288-7.383,6.486c4.137-2.904,11.967-2.291,15.323-1.119c-8.107,2.684-10.959,5.035-18.845,9.815
			c-5.917,3.586-11.994-3.943-5.54-8.135c-0.75,3.269,0.844,7.462,4.282,7.629c-3.521-1.423-3.354-8.218-2.432-9.978
			C31.707,53.524,32.63,61.828,36.236,63.505z M77.355,52.864c5.14-0.74,6.231,2.147,4.597,5.442
			c-0.963,1.931-2.722,3.932-4.439,5.576C74.767,60.655,75.545,55.71,77.355,52.864z"/>
		<path d="M132.151,31.246c0,0-0.475-0.917-0.991-0.917c-0.519,0-0.923,0.934-0.923,0.934s0.722,0.817,0.923,1.371
			C131.593,31.777,132.151,31.246,132.151,31.246z"/>
		<path d="M128.475,29.669c0.016,0.128,0.448,0.205,0.477,0.308c0.36,1.377,1.323,0.519,1.48-0.027
			C129.972,29.437,129.063,29.027,128.475,29.669z"/>
		<path d="M133.291,30.019c0.029-0.103,0.461-0.178,0.478-0.311c-0.586-0.643-1.405-0.325-1.957,0.282
			C131.965,30.538,132.933,31.395,133.291,30.019z"/>
		<path d="M235.482,172.258c0,2.909,1.677,8.837,5.817,13.98c-2.739-1.344-5.115-4.252-7.353-7.55
			c0.532,2.295,1.929,4.526,2.879,5.647c-3.58-1.622-5.146-5.146-7.242-8.081c0.531,2.322,1.147,3.555,1.817,4.784
			c-1.229,0.111-3.578-2.185-4.975-4.978c-4.88-3.273-8.311-5.746-9.954-8.444c-2.461,2.012-1.789,5.814-1.789,5.814
			s22.031,16.719,31.76,15.603C243.314,185.906,239.511,181.428,235.482,172.258z"/>
		<path d="M122.52,95.348c6.988,2.965,13.197,7.495,13.197,7.495l0.003-0.003l0.005,0.003c0,0,6.206-4.53,13.195-7.495
			c-6.15-0.221-13.195,4.854-13.195,4.854l-0.005,0.004l-0.003-0.004C135.717,100.202,128.672,95.127,122.52,95.348z"/>
		<path d="M208.81,149.99c-6.711-3.354-7.603-10.854-8.948-17.229C199.53,138.579,198.186,148.313,208.81,149.99z"/>
		<path d="M205.567,134.718c0.896,14.21,6.037,18.573,12.079,18.688C214.406,151.616,208.587,148.147,205.567,134.718z"/>
		<path d="M198.524,143.727c-2.942-2.514-3.692-6.713-3.917-13.313C192.817,136.008,193.04,141.267,198.524,143.727z"/>
		<path d="M237.273,165.6c-5.37-10.517-18.788-14.992-24.157-27.526C214.012,153.966,225.644,154.635,237.273,165.6z"/>
		<path d="M53.796,153.406c6.039-0.111,11.183-4.479,12.079-18.688C62.852,148.147,57.038,151.616,53.796,153.406z"/>
		<path d="M76.833,130.413c-0.225,6.601-0.971,10.8-3.912,13.313C78.4,141.267,78.625,136.008,76.833,130.413z"/>
	</g>
	<path d="M209.762,124.429c25.499,16.335,30.252,42.628,31.146,46.879c-6.71-6.604-13.365-10.351-23.43-15.944
		c-2.908-0.338-13.729-4.281-20.014-9.965c-5.262-1.784-8.562-9.842-5.204-16.383c-6.21,3.857-3.021,12.922-3.021,12.922
		s-0.417-0.204-1.058-0.642c-3.328-2.846-4.701-7.79-1.571-13.01c-2.716,2.036-3.724,4.311-4.087,5.94
		c-0.476-2.535-0.426-5.626,2.353-9.408c-2.279,1.006-3.513,2.471-4.17,3.86c-0.018-0.117-0.032-0.237-0.049-0.364
		c0.146-2.308,0.886-5.88,3.885-8.024c-1.245,0.289-2.202,0.81-2.941,1.452c5.567-11.824,26.922-16.598,30.395-27.899
		c2.342-7.612-6.596-10.737-12.592-9.794c-0.075-0.563-0.237-1.412-0.714-1.677c-1.807,6.059-9.243,7.546-15.139,4.838
		c-1.433-2.553,0.864-3.466,2.442-4.041c0.586-0.21,4.727,1.38,5.31-2.176c1.648-0.158,3.345-0.585,3.931-1.272
		c-1.54,0.049-4.558-0.542-6.587-0.161c-2.284,0.421-2.602,1.008-3.081,2.122c-0.417,0.977-1.16-0.442-2.816-0.901
		c1.756-1.916,6.613-5.589,16.389-1.814c11.63,0.112,17.111,4.781,18.34,10.063c3.69,15.882-22.591,23.376-23.935,32.994
		c5.033-0.728,8.948-0.109,12.637,0.835c-1.171-0.891-3.8-2.512-7.714-3.294c1.512-4.882,14.857-10.961,19.57-20.381
		c4.35-0.212,9.482,0.722,12.136,3.994c-1.717-4.68-6.684-5.928-11.361-5.797c0.661-1.825,0.981-3.771,0.83-5.851
		c4.222,0.724,7.867,2.295,10.152,4.435c3.942,3.692,1.93,11.339-3.985,12.036c-4.611,0.546-6.75-2.392-6.624-4.4
		c-3.468,6.708,4,10.762,4,10.762s-5.428,14.315,9.671,18.176c-7.718-5.368-5.87-14.599-1.842-19.292
		c4.024-4.699,6.68-10.564,2.178-16.694c-2.017-2.747-7.05-5.924-13.82-6.938c-0.062-0.303-0.133-0.609-0.214-0.917
		c-1.68-6.236-7.417-10.492-19.157-11.645c-7.618-11.119-27.463-12.258-29.381-21.934c1.34,1.761,4.445,3.269,8.471,3.523
		c-4.613-1.429-8.471-5.398-10.71-8.418c-3.57,15.44,22.443,18.299,29.077,26.195c-11.137-3.448-16.377,3.842-16.377,3.842
		s-3.505,0.079-3.056,3.921c-0.799,1.329-2.725,2.224-4.629,2.967c-0.019-0.934,0.036-1.902,0.101-2.862h0.093
		c1.009,0,1.833-0.821,1.833-1.832c0-0.991-0.785-1.792-1.762-1.828c0.456-5.393,5.363-4.59,7.534-3.883
		c-1.597-5.012-7.574-3.647-7.574-3.647s0.74-6.603-2.449-8.88c-3.189,2.277-2.449,8.88-2.449,8.88s-5.979-1.365-7.572,3.647
		c2.169-0.708,7.076-1.51,7.536,3.883c-0.981,0.036-1.764,0.836-1.764,1.828c0,1.011,0.819,1.832,1.832,1.832h0.093
		c0.241,3.758,0.403,7.632-3.768,9.083c2.551,1.363,5.1,0.309,6.092-1.188c0.991,1.496,3.542,2.55,6.095,1.188
		c-2.044-0.709-3.046-2.002-3.509-3.577c2.893-0.37,5.505,0,8.519-0.567c2.389,0.8,11.792,3.241,17.103-3.664
		c0.474-0.04,0.946-0.066,1.408-0.082c-0.136,4.51-2.948,8.269-6.461,10.376c-5.588,3.358-18.785,5.98-27.062,0.838
		c-5.201-3.23-9.162-10.26-15.328-14.591c1.973-0.24,3.042-1.519,3.387-2.864c0.467-1.815-0.266-4.145-2.148-5.582l0.025-17.756l0,0
		v-5.818l-1.296,0.677l-2.06-11.105v-0.345c0.407-0.133,0.702-0.512,0.702-0.969c0-0.561-0.451-1.021-1.006-1.021
		c-0.557,0-1.007,0.46-1.007,1.021c0,0.467,0.308,0.855,0.724,0.977v0.341l-2.054,11.098l-1.297-0.673v4.67h-0.009v3.02h-0.321
		c-0.776-1.781-1.559-3.691-2.812-7.104c0.59,0.506,2.353,1.429,2.771,1.512c-1.592-5.534-3.164-15.025-9.117-18.51
		c-0.241-0.144-0.769-0.714-0.726-1.792c0.044-1.079,0.098-3.184-0.92-4.364c-0.814-0.937-2.34-1.22-3.608-1.256
		c-1.065-0.033-1.982,0.093-2.88,0.641c-2.572,1.568-1.846,6.321-1.846,6.321s-0.45,2.128-0.45,3.024
		c-3.465,4.811,2.184,9.27,4.03,10.99c0.487,3.746,0.672,3.941,1.005,5.956c-0.085,0.72-0.486,3.319-1.54,4.583h-3.933l-0.007-7.689
		l-1.297,0.676l-2.058-11.102v-0.341c0.418-0.122,0.726-0.51,0.726-0.977c0-0.561-0.453-1.021-1.006-1.021
		c-0.558,0-1.007,0.46-1.007,1.021c0,0.458,0.295,0.838,0.7,0.969v0.349l-2.051,11.073l-1.306-0.647v4.669v0.043V55.9h0.004
		l0.023,17.756c-1.881,1.437-2.616,3.767-2.149,5.582c0.344,1.345,1.414,2.627,3.387,2.864c-6.164,4.331-10.128,11.36-15.329,14.591
		c-8.275,5.142-21.472,2.52-27.064-0.838c-3.511-2.107-6.314-5.866-6.454-10.376c0.46,0.016,0.929,0.046,1.404,0.083
		c5.312,6.905,14.713,4.462,17.104,3.664c3.01,0.566,5.626,0.196,8.519,0.566c-0.467,1.575-1.469,2.868-3.513,3.577
		c2.554,1.363,5.104,0.309,6.096-1.188c0.994,1.496,3.541,2.55,6.093,1.188c-4.172-1.451-4.01-5.323-3.77-9.083h0.097
		c1.009,0,1.831-0.819,1.831-1.832c0-0.991-0.782-1.79-1.762-1.828c0.456-5.393,5.364-4.59,7.536-3.883
		c-1.595-5.012-7.575-3.647-7.575-3.647s0.741-6.603-2.449-8.88c-3.19,2.277-2.45,8.88-2.45,8.88s-5.976-1.365-7.571,3.647
		c2.169-0.708,7.075-1.51,7.536,3.883c-0.981,0.038-1.764,0.836-1.764,1.828c0,1.013,0.819,1.832,1.832,1.832h0.097
		c0.063,0.962,0.115,1.928,0.097,2.862c-1.904-0.743-3.829-1.638-4.626-2.967c0.447-3.842-3.058-3.921-3.058-3.921
		s-5.242-7.29-16.38-3.842c6.636-7.892,32.647-10.755,29.077-26.195c-2.238,3.021-6.094,6.991-10.708,8.418
		c4.024-0.254,7.131-1.763,8.47-3.523c-1.917,9.674-21.754,10.811-29.378,21.923c-11.755,1.152-17.477,5.417-19.157,11.656
		c-0.082,0.307-0.155,0.613-0.216,0.917c-6.77,1.014-11.802,4.191-13.822,6.938c-4.502,6.129-1.844,11.995,2.182,16.694
		c4.027,4.694,5.873,13.924-1.846,19.292c15.099-3.86,9.675-18.174,9.675-18.174s7.464-4.057,3.998-10.764
		c0.125,2.011-2.011,4.946-6.627,4.4c-5.911-0.697-7.926-8.344-3.982-12.036c2.286-2.14,5.926-3.721,10.154-4.444
		c-0.155,2.085,0.168,4.035,0.833,5.863c-4.68-0.131-9.65,1.114-11.365,5.795c2.652-3.273,7.789-4.203,12.138-3.992
		c4.716,9.417,18.054,15.498,19.567,20.378c-3.914,0.782-6.54,2.403-7.717,3.294c3.694-0.944,7.607-1.561,12.641-0.835
		c-1.343-9.616-27.626-17.112-23.934-32.994c1.228-5.283,6.709-9.952,18.338-10.063c9.778-3.774,14.636-0.101,16.389,1.814
		c-1.654,0.461-2.399,1.877-2.817,0.901c-0.476-1.114-0.796-1.701-3.082-2.122c-2.025-0.382-5.043,0.209-6.585,0.161
		c0.585,0.687,2.285,1.114,3.932,1.272c0.587,3.56,4.728,1.966,5.313,2.176c1.577,0.574,3.875,1.487,2.442,4.041
		c-5.898,2.708-13.335,1.221-15.138-4.838c-0.481,0.266-0.64,1.114-0.718,1.677c-5.994-0.943-14.934,2.184-12.593,9.794
		c3.473,11.303,24.833,16.075,30.396,27.899c-0.737-0.643-1.696-1.164-2.942-1.452c3,2.145,3.741,5.717,3.886,8.024
		c-0.014,0.127-0.03,0.247-0.046,0.364c-0.661-1.39-1.893-2.854-4.174-3.857c2.78,3.779,2.828,6.87,2.353,9.405
		c-0.363-1.63-1.371-3.904-4.085-5.94c3.13,5.22,1.752,10.166-1.573,13.01c-0.642,0.438-1.057,0.642-1.057,0.642
		s3.188-9.064-3.018-12.922c3.354,6.541,0.056,14.599-5.208,16.383c-6.283,5.684-17.105,9.629-20.012,9.965
		c-10.065,5.594-16.721,9.341-23.432,15.944c0.896-4.251,5.649-30.544,31.146-46.879c-29.3,13.199-34.669,46.378-34.445,53.256
		c2.483-2.658,6.811-6.925,14.382-11.098c-0.621,1.67-1.562,4.37-2.192,6.985c1.598-3.677,3.572-6.408,5.206-8.271
		c-0.48,1.538-1.074,3.812-1.261,6.091c1.602-3.256,3.534-6.073,4.994-8.011c-0.508,1.467-1.06,3.495-1.391,6.083
		c1.152-2.654,2.623-5.147,3.949-7.164c4.19-1.41,2.707,1.568,2.707,1.568s5.816-7.497,13.423-7.722
		c-2.015,0.896-6.464,4.268-5.818,4.029c2.123-0.784,4.112-1.569,4.92-1.569c2.907,0,0.287,2.962-1.228,6.157
		c-3.189,6.712-4.531,10.739-4.364,12.75c0.193,2.365-2.572,1.341-3.13-1.172c0,1.063-0.225,1.343-0.225,3.132
		c0,1.787,4.026,6.651,4.361,11.238c2.796-0.562,2.88,1.258,7.8,1.482c0.033,0,0.062,0,0.094,0
		c-7.115,4.109-13.691,7.804-17.969,9.101c-2.126,0.644-4.479,1.265-6.712,1.522c0.82-1.713,2.029-3.113,3.479-3.914
		c-2.514-4.112-6.206-7.633-10.011-9.701c-6.707-0.168-10.512,11.183-6.037,14.988c2.857,0.335,8.618,9.901,13.775,13.512
		c1.29,1.007,2.903,1.634,5.001,1.634c0.816,0,1.705-0.093,2.674-0.292c8.167-1.686,17.412-7.057,27.199-12.743
		c10.293-5.979,20.852-12.111,29.941-13.561c1.687,3.218-4.344,6.653-6.512,7.48c-1.36,0.516-3.468,0.776-2.405,2.081
		c0.133,0.175,0.255,0.326,0.365,0.46c3.268,4.103,6.506,8.705,9.388,15.624l0.109,0.265l0.23,0.166
		c3.253,2.325,15.828,3.425,23.726,3.468c0.005,0,0.01,0,0.016,0c0.007,0,0.011,0,0.02,0c7.896-0.043,20.468-1.144,23.723-3.468
		l0.231-0.166l0.11-0.265c2.881-6.919,6.116-11.521,9.388-15.624c0.105-0.13,0.229-0.285,0.363-0.46
		c1.064-1.305-1.046-1.565-2.403-2.081c-2.167-0.827-8.2-4.263-6.513-7.48c9.09,1.449,19.647,7.582,29.945,13.561
		c9.783,5.687,19.027,11.058,27.195,12.743c0.97,0.199,1.859,0.292,2.676,0.292c2.093,0,3.702-0.621,4.994-1.63
		c5.159-3.603,10.923-13.181,13.785-13.52c4.473-3.802,0.669-15.152-6.042-14.984c-3.805,2.068-7.497,5.589-10.011,9.701
		c1.453,0.801,2.662,2.201,3.482,3.914c-2.233-0.258-4.587-0.879-6.712-1.522c-4.28-1.297-10.853-4.991-17.967-9.101
		c0.031,0,0.058,0,0.091,0c4.92-0.226,5.005-2.044,7.8-1.482c0.334-4.587,4.361-9.451,4.361-11.238c0-1.789-0.224-2.068-0.223-3.132
		c-0.559,2.513-3.328,3.534-3.129,1.172c0.165-2.011-1.175-6.038-4.364-12.751c-1.518-3.196-4.137-6.156-1.232-6.156
		c0.811,0,2.798,0.782,4.921,1.569c0.65,0.238-3.8-3.134-5.817-4.029c7.605,0.223,13.424,7.722,13.424,7.722
		s-1.483-2.979,2.707-1.57c1.327,2.019,2.795,4.512,3.948,7.166c-0.332-2.588-0.881-4.616-1.392-6.083
		c1.462,1.938,3.395,4.755,4.998,8.011c-0.19-2.279-0.782-4.553-1.261-6.091c1.631,1.863,3.606,4.595,5.203,8.271
		c-0.628-2.618-1.572-5.315-2.193-6.985c7.571,4.173,11.896,8.439,14.384,11.097C244.432,170.806,239.062,137.628,209.762,124.429z
		 M189.179,80.515c0.557,0,1.007,0.404,1.007,0.901c0,0.5-0.451,0.904-1.007,0.904s-1.009-0.404-1.009-0.904
		C188.169,80.919,188.622,80.515,189.179,80.515z M82.265,82.321c-0.56,0-1.011-0.402-1.011-0.905c0-0.497,0.451-0.901,1.011-0.901
		c0.555,0,1.008,0.404,1.008,0.901C83.273,81.919,82.82,82.321,82.265,82.321z M196.9,156.703c0,0-7.157-3.354-9.617-11.411
		C190.861,149.547,196.9,156.703,196.9,156.703z M202.823,85.482c2.681,0.132,4.983,0.827,6.49,2.654
		c0.381,0.464,0.664,0.974,0.868,1.521c-2.586,0.396-5.298,1.122-8.099,2.29C202.697,89.819,202.945,87.615,202.823,85.482z
		 M195.146,102.034c1.008-0.44,4.317-1.833,7.122-2.489c-1.873-0.101-3.699,0.238-4.868,0.529c0.377-0.392,0.729-0.794,1.068-1.21
		c1.687-0.565,4.257-1.371,6.373-1.781c-2.004-0.161-4.042,0.182-5.409,0.503c0.257-0.375,0.492-0.757,0.722-1.146
		c1.621-0.585,3.933-1.367,5.861-1.817c-2.023,0.029-3.819,0.25-5.143,0.474c0.172-0.355,0.341-0.718,0.492-1.081
		c2.929-1.423,6.052-2.282,9.144-2.671c0.088,2.488-1.386,5.488-4.774,8.426c-0.194,0.168-0.409,0.337-0.642,0.518
		c-6.104,1.957-12.01,4.282-16.467,4.848C191.125,104.478,193.298,103.4,195.146,102.034z M158.204,109.387
		c-3.707-5.354-3.707-10.476-3.582-12.164c3.942,8.754,9.745,20.249,23.711,15.296c-8.609-0.669-13.308-6.826-14.135-10.097
		c4.573,2.604,9.224,4.688,15.59,5.008c6.763,0.338,13.402-1.624,19.892-3.725c-10.652,6.217-28.43,15.913-21.008,29.671
		c0.671,5.146,3.13,10.068,4.92,13.874c1.791,3.804,4.028,6.49,4.919,7.607c0.896,1.122,1.512,5.82-4.303,5.371
		c-5.816-0.445-6.592-1.232-7.887-3.745c-1.901-3.697-0.222-7.497-1.232-8.842c-1.217-1.624-1.002-4.955-2.123-6.211
		c-0.251-0.277-0.686-0.653-1.124-0.789c0.003-4.94,0-9.295-0.004-13.785c-0.003-3.105-0.003-6.3-0.003-9.819v-1.168l-1.167-0.003
		c-2.106-0.011-7.371-0.007-11.802-0.004l-0.126-0.217c-0.111-0.189-2.632-4.409-8.418-5.177c-0.323-1.505,0.075-4.203,0.628-7.356
		C152.23,104.632,155.26,107.978,158.204,109.387z M169.467,152.271c-0.006,1.604-0.013,3.28-0.022,5.044
		c-0.021,4.19-1.519,8.966-3.931,13.834l-25.874-18.782v-22.264c1.614-0.949,3.219-2.24,4.497-3.465l0.769-0.736l-0.779-0.726
		c-0.947-0.883-0.955-1.865-0.792-2.539c0.268-1.13,1.206-2.139,2.272-2.446c0.883-0.255,1.745,0,2.5,0.733l0.916,0.898l0.655-1.104
		c0.67-1.139,1.46-1.933,2.275-2.496c1.253-0.003,12.729-0.021,17.536-0.011c0,3.062,0.002,5.89,0.002,8.647
		c0.007,6.435,0.012,12.604-0.008,20.593c-0.506,0.062-1.381,0.193-2.444,0.977C168.168,148.933,168.913,150.467,169.467,152.271z
		 M135.72,203.021c-7.685-3.438-18.559-13.854-25.865-25.053l25.867-18.769l25.865,18.769
		C154.283,189.166,143.408,199.583,135.72,203.021z M150.097,195.342c0.332,2.922,3.329,6.32,4.951,7.965
		c-5.515,0.586-11.419,0.848-16.557,0.951C142.015,202.327,146.062,199.203,150.097,195.342z M135.726,204.302l-0.005,0.022
		l-0.003-0.022l0.003-0.011L135.726,204.302z M132.949,204.258c-5.136-0.104-11.041-0.365-16.557-0.951
		c1.623-1.645,4.618-5.043,4.95-7.965C125.379,199.203,129.428,202.327,132.949,204.258z M101.96,147.452
		c-0.02-7.989-0.015-14.158-0.009-20.593c0.001-2.758,0.003-5.586,0.003-8.647c4.809-0.011,16.281,0.008,17.538,0.011
		c0.813,0.563,1.602,1.357,2.274,2.496l0.653,1.106l0.916-0.901c0.754-0.733,1.62-0.988,2.502-0.733
		c1.068,0.307,2.002,1.316,2.271,2.446c0.162,0.674,0.151,1.656-0.792,2.539l-0.779,0.726l0.77,0.736
		c1.277,1.228,2.886,2.52,4.504,3.473v22.252l-25.881,18.786c-2.416-4.868-3.914-9.644-3.935-13.834
		c-0.006-1.764-0.013-3.44-0.02-5.044c0.549-1.804,1.297-3.338,2.428-3.842C103.341,147.646,102.468,147.514,101.96,147.452z
		 M124.049,92.677c1.093,0.307,1.994,0.566,2.344,0.663c5.448,1.66,9.321,3.632,9.321,3.632l0.006-0.022l0.005,0.022
		c0,0,3.872-1.972,9.32-3.632c0.352-0.096,1.253-0.355,2.349-0.663c0.302-0.081,0.604-0.16,0.913-0.235
		c-0.011-0.005-0.02-0.01-0.029-0.014c0.111-0.032,0.225-0.065,0.334-0.095c0.464-0.134,1.835-1.392,2.227-3.167l0,0
		c-0.233,4.395-0.989,8.639-1.613,12.14c-0.72,4.052-1.264,7.158-0.908,9.293c-1.27,0.379-2.392,0.914-3.394,1.557
		c0.079-1.984,0.377-6.544,1.537-12.333c-3.239,2.917-3.721,11.263-3.79,14.057c-0.973,0.87-1.839,1.794-2.662,2.679
		c-1.521,1.624-2.844,3.032-4.289,3.47c-1.445-0.438-2.768-1.846-4.287-3.47c-0.826-0.885-1.691-1.81-2.664-2.679
		c-0.068-2.794-0.551-11.141-3.789-14.054c1.159,5.786,1.46,10.346,1.536,12.33c-1.001-0.643-2.124-1.177-3.392-1.557
		c0.354-2.135-0.19-5.242-0.909-9.293c-0.624-3.501-1.377-7.745-1.613-12.14l0,0c0.39,1.775,1.764,3.032,2.225,3.167
		c0.111,0.032,0.225,0.063,0.334,0.095c-0.007,0.004-0.018,0.011-0.027,0.017C123.446,92.518,123.748,92.598,124.049,92.677z
		 M122.766,112.577c3.129,1.016,5.288,3.311,7.2,5.357c1.701,1.818,3.315,3.54,5.376,4.078c0.087,0.032,0.172,0.054,0.248,0.061
		c0.036,0.008,0.079,0.012,0.134,0.012c0.05,0,0.09-0.004,0.126-0.008c0.077-0.011,0.163-0.032,0.256-0.064
		c2.057-0.54,3.669-2.26,5.369-4.078c1.884-2.01,3.998-4.265,7.047-5.305c0.591-0.225,0.959-0.225,0.959-0.225
		c2.892,0.233,4.863,1.479,6.062,2.565c-2.209,0.136-4.956,1.056-6.971,3.774c-1.081-0.667-2.298-0.844-3.526-0.489
		c-1.756,0.511-3.233,2.082-3.671,3.917c-0.309,1.303-0.069,2.592,0.671,3.66c-2.337,2.085-4.798,3.525-6.326,3.679
		c-1.529-0.156-3.987-1.594-6.325-3.679c0.738-1.068,0.982-2.357,0.672-3.66c-0.44-1.834-1.913-3.406-3.672-3.912
		c-1.228-0.359-2.446-0.182-3.525,0.488c-2.017-2.722-4.765-3.641-6.971-3.774c1.198-1.088,3.171-2.33,6.061-2.568
		C121.959,112.404,122.16,112.383,122.766,112.577z M135.44,131.504l-0.052,0.024l-0.064-0.042
		C135.362,131.494,135.402,131.501,135.44,131.504z M148.386,52.154l1.175-2.072l1.191,2.072c0,0-0.004,1.812-0.008,4.358h-2.359
		C148.386,53.975,148.386,52.154,148.386,52.154z M148.386,57.922h2.359c0,1.182,0,2.458-0.003,3.748h-2.36
		C148.381,60.384,148.381,59.106,148.386,57.922z M148.381,63h2.36c-0.004,4.815-0.007,9.426-0.004,9.501
		c-0.678-0.23-1.58-0.484-2.356-0.663C148.38,71.617,148.381,67.447,148.381,63z M147.657,73.766
		c1.121,0.257,2.169,0.54,3.071,0.841c2.038,0.68,3.015,2.686,2.643,4.132c-0.276,1.081-1.26,1.545-2.761,1.341
		c-1.814-1.819-1.532-4.396-3.574-6.455C147.151,73.651,147.657,73.766,147.657,73.766z M148.605,85.455
		c0.147,1.281,0.082,2.124-0.108,2.768c-0.806-1.551-2.769-4.371-6.985-6.015c3.012,2.085,4.525,5.795,5.206,8.205
		c-0.329,0.117-0.723,0.23-1.158,0.334c-0.435-0.252-0.908-0.505-1.446-0.765c-4.866,0.419-8.388,2.587-8.388,2.587l-0.005,0.02
		l-0.003-0.019c0,0-3.521-2.169-8.389-2.589c-0.539,0.26-1.009,0.512-1.444,0.765c-0.438-0.104-0.833-0.217-1.16-0.334
		c0.679-2.408,2.195-6.118,5.204-8.205c-4.213,1.644-6.178,4.463-6.981,6.018c-0.19-0.646-0.255-1.49-0.112-2.771
		c1.838-2.552,4.017-4.257,7.244-5.081c1.401-0.214,2.859-0.38,4.549-0.468c0.085,1.396,0.421,6.386,1.071,11.19
		c0.007,0.057,0.011,0.115,0.017,0.172c0.002-0.008,0.003-0.014,0.003-0.022c0.002,0.008,0.003,0.014,0.005,0.022
		c0.003-0.057,0.007-0.115,0.016-0.169c0.652-4.808,0.986-9.802,1.072-11.193c1.692,0.088,3.147,0.254,4.549,0.468
		C144.59,81.198,146.766,82.903,148.605,85.455z M141.593,72.718c2.397,1.91,2.572,4.773,3.794,6.307
		c-0.886-0.225-1.814-0.388-2.786-0.487c-0.832-0.146-1.672-0.271-2.556-0.377c-1.953-1.627-2.122-4.305-4.945-5.84
		c0.22-0.005,0.437-0.009,0.652-0.009C137.529,72.319,139.552,72.469,141.593,72.718z M138.024,70.372
		c0.008-0.838,0.022-1.99,0.05-3.309c0.025-1.362,2.209-2.39,2.209-2.39l0.001,0.006c0.023,0.015,2.178,1.038,2.208,2.391
		c0.032,1.559,0.046,2.88,0.049,3.731C141.014,70.603,139.482,70.453,138.024,70.372z M127.664,33.557
		c-0.109-1.736-0.25-4.141,1.094-5.569c0.64-0.585,1.535-0.528,2.403-0.546c0.936-0.016,1.752,0.231,2.152,0.63
		c1.176,1.177,0.897,4.425,1.019,5.022c0.157,0.743,0.587,1.007,0.84,1.258c2.258,2.127,5.114,5.266,7.039,11.482
		c-1.596-1.21-3.905-3.688-6.434-6.269c0.658,3.683,7.973,10.122,7.973,10.122s-11.61-6.399-10.493-13.333
		c-2.738,2.462-0.867,7.384,0.559,8.557c-0.053,0.784-0.165,1.176-0.165,2.236C125.206,42.229,127.056,35.843,127.664,33.557z
		 M136.277,54.025c0,0,0.781-0.584,1.535-1.176c0.571,0.825,1.447,2.736,2.37,4.923h-3.847c-0.24-0.158-0.415-0.377-0.39-0.658
		C136.139,55.173,136.277,54.025,136.277,54.025z M135.493,51.958c-0.112-0.448-0.95-2.459-0.781-5.257
		c2.515,1.622,2.346,4.419,2.346,4.419S136.25,51.958,135.493,51.958z M132.533,54.139c0.614-0.448,1.955-1.234,1.955-1.234
		s0.253,2.495-0.707,4.868h-1.1l-0.361-0.599C132.32,57.173,131.859,54.752,132.533,54.139z M131.943,47.652
		c0.503,0.334,1.035,0.586,1.843,0.925c0.144,0.778,0.282,1.619,0.366,2.149c-0.616,1.117-1.512,1.29-1.512,1.29
		S132.281,50.839,131.943,47.652z M125.547,61.72l20.348-0.003v1.314h-20.348V61.72z M133.417,70.372
		c-1.459,0.081-2.99,0.23-4.517,0.429c0.004-0.851,0.02-2.173,0.052-3.731c0.03-1.351,2.181-2.375,2.206-2.391l0.001-0.006
		c0,0,2.182,1.028,2.211,2.39C133.395,68.384,133.409,69.534,133.417,70.372z M130.051,72.69c2.559,1.296,3.354,3.766,4.593,5.203
		c-1.813,0.087-3.369,0.262-4.849,0.488c-2.072-1.221-2.742-3.638-5.435-4.744C126.15,73.244,128.11,72.922,130.051,72.69z
		 M123.104,71.847c-0.782,0.174-1.68,0.433-2.362,0.659c0.007-0.076,0-4.68,0-9.493h2.359
		C123.104,67.453,123.104,71.622,123.104,71.847z M123.101,61.683h-2.363c0-1.291-0.001-2.564-0.004-3.746h2.364
		C123.098,59.12,123.098,60.398,123.101,61.683z M121.923,50.089l1.174,2.073c0,0,0,1.824,0,4.363h-2.364
		c-0.003-2.548-0.003-4.363-0.003-4.363L121.923,50.089z M118.069,78.739c-0.313-1.219,0.341-2.829,1.779-3.712
		c2.378,1.085,3.482,3.304,4.956,4.295c-1.125,0.23-2.331,0.475-3.693,0.722C119.445,80.349,118.364,79.887,118.069,78.739z
		 M62.128,88.136c1.51-1.824,3.809-2.521,6.489-2.654c-0.118,2.133,0.125,4.337,0.744,6.465c-2.804-1.167-5.513-1.894-8.099-2.288
		C61.463,89.111,61.746,88.6,62.128,88.136z M65.707,99.77c-3.385-2.933-4.861-5.933-4.775-8.423
		c3.092,0.39,6.217,1.245,9.147,2.668c0.151,0.363,0.316,0.726,0.491,1.081c-1.324-0.224-3.12-0.445-5.142-0.47
		c1.925,0.447,4.238,1.23,5.859,1.814c0.23,0.388,0.466,0.77,0.72,1.146c-1.364-0.321-3.402-0.664-5.404-0.501
		c2.113,0.408,4.685,1.214,6.372,1.779c0.337,0.417,0.689,0.823,1.068,1.21c-1.171-0.291-2.998-0.63-4.868-0.529
		c2.805,0.655,6.115,2.049,7.122,2.491c1.846,1.365,4.023,2.442,6.522,3.099c-4.458-0.564-10.362-2.887-16.463-4.843
		C66.117,100.114,65.902,99.938,65.707,99.77z M87.851,147.251c1.79-3.806,4.25-8.728,4.92-13.874
		c7.42-13.759-10.354-23.452-21.009-29.671c6.488,2.101,13.129,4.062,19.888,3.725c6.37-0.32,11.019-2.403,15.595-5.008
		c-0.83,3.271-5.526,9.428-14.137,10.097c13.968,4.953,19.771-6.542,23.711-15.296c0.125,1.688,0.123,6.81-3.58,12.164
		c2.941-1.41,5.972-4.755,7.251-6.274c0.55,3.153,0.951,5.851,0.631,7.356c-5.79,0.769-8.311,4.988-8.42,5.177l-0.125,0.217
		c-4.434-0.003-9.699-0.007-11.801,0.004l-1.169,0.005v1.169c0,3.516-0.004,6.711-0.006,9.816c-0.006,4.49-0.006,8.845-0.003,13.787
		c-0.435,0.138-0.873,0.51-1.122,0.787c-1.123,1.256-0.904,4.587-2.125,6.211c-1.008,1.345,0.672,5.145-1.231,8.842
		c-1.295,2.513-2.069,3.3-7.884,3.747c-5.816,0.447-5.2-4.251-4.306-5.371C83.824,153.741,86.062,151.055,87.851,147.251z
		 M84.16,145.292c-2.46,8.057-9.618,11.414-9.618,11.414S80.581,149.547,84.16,145.292z M64.419,184.563
		c-1.005-3.021-0.503-8.222,1.063-11.132c1.062-1.975,3.466-5.207,5.25-6.804c0.844-0.759,2.83-2.201,5.936-6.146
		c-0.756,2.855-2.269,4.366-3.439,5.958c0.238,0.338,0.92,1.119,1.592,1.343c1.343,0.449,7.327-3.132,18.956-3.914
		c0.337-1.682,3.804-2.799,5.93-3.582c0.05-0.017,0.101-0.054,0.148-0.097c0.714,5.518,3.282,11.183,6.188,16.082
		c-5.115-0.53-12.808,2.754-21.251,7.252c-0.783-0.688-2.65-1.946-4.321-0.078c-1.455,0.781-5.253,2.992-9.17,4.022
		C66.516,188.729,64.99,186.272,64.419,184.563z M79.849,204.559c-9.641,5.602-18.747,10.896-26.591,12.512
		c-2.919,0.604-4.88,0.111-6.377-1.239c-0.512-0.509-0.96-1.047-1.346-1.604c-0.013-0.02-0.027-0.041-0.042-0.066
		c-0.052-0.071-0.099-0.15-0.149-0.229c-0.226-0.362-0.442-0.754-0.65-1.167c-1.21-2.546-1.324-5.378-0.675-7.86
		c2.69-0.189,5.531-0.914,8.058-1.681c4.936-1.494,12.535-5.892,20.577-10.549c0.524-0.304,1.053-0.608,1.583-0.916
		c1.017-0.217,1.46-0.29,1.758,0.437c1.372-0.812,1.43-1.511,1.595-2.097c1.343-0.757,2.936-1.846,3.605-0.923
		c0.319-0.748,0.355-1.231,0.298-1.549c10.627-5.919,21.355-11.055,26.059-8.916c1.83,2.834,3.686,5.314,5.217,7.233
		c1.253,1.571,2.553,3.098,3.876,4.559C105.813,189.479,92.634,197.136,79.849,204.559z M166.142,203.515
		c-2.826,4.045-5.586,7.873-8.075,13.813c-2.875,1.692-13.894,2.905-22.347,2.948c-8.453-0.043-19.472-1.256-22.345-2.948
		c-2.489-5.94-5.248-9.769-8.074-13.812c8.322,2.118,20.494,2.54,30.415,2.643l0.003-0.019l0.005,0.019
		C145.646,206.057,157.819,205.635,166.142,203.515z M219.364,203.223c2.53,0.767,5.37,1.491,8.06,1.681
		c0.651,2.486,0.535,5.318-0.68,7.864c-0.206,0.409-0.418,0.793-0.637,1.149c-0.057,0.086-0.109,0.172-0.165,0.258
		c-0.009,0.014-0.019,0.026-0.029,0.044c-0.384,0.558-0.835,1.102-1.348,1.612c-1.5,1.347-3.46,1.84-6.383,1.239
		c-7.842-1.616-16.946-6.91-26.59-12.512c-12.785-7.423-25.963-15.08-36.799-14.057c1.328-1.461,2.626-2.987,3.88-4.559
		c1.532-1.92,3.388-4.4,5.218-7.234c4.703-2.138,15.43,2.998,26.061,8.917c-0.062,0.317-0.022,0.801,0.296,1.549
		c0.669-0.924,2.264,0.166,3.607,0.923c0.166,0.586,0.219,1.285,1.589,2.097c0.304-0.727,0.744-0.653,1.76-0.437
		c0.53,0.304,1.061,0.612,1.582,0.916C206.831,197.331,214.432,201.729,219.364,203.223z M205.958,173.432
		c1.568,2.91,2.067,8.111,1.063,11.129c-0.571,1.712-2.098,4.168-6.878,2.907c-3.917-1.03-7.718-3.241-9.173-4.022
		c-1.667-1.869-3.538-0.61-4.318,0.076c-8.445-4.496-16.139-7.78-21.251-7.25c2.903-4.899,5.472-10.564,6.188-16.082
		c0.049,0.043,0.095,0.08,0.147,0.097c2.125,0.783,5.595,1.9,5.928,3.582c11.63,0.782,17.615,4.363,18.957,3.914
		c0.672-0.224,1.355-1.005,1.595-1.343c-1.175-1.592-2.687-3.103-3.441-5.958c3.105,3.945,5.091,5.388,5.935,6.146
		C202.492,168.225,204.896,171.457,205.958,173.432z"/>
</g>
<g>
	<path d="M299.533,61.626c0,11.557,5.732,16.897,18.256,16.897c12.136,0,17.766-4.843,17.766-15.439V35.401
		c0-3.879-1.357-5.644-5.038-6.413c-1.659-0.388-2.142-0.679-2.142-1.557c0-0.865,0.483-1.159,1.549-1.159
		c1.152,0,4.468,0.385,7.38,0.385c2.91,0,5.729-0.385,6.892-0.385c1.169,0,1.652,0.293,1.652,1.061c0,0.881-0.779,1.461-2.714,2.137
		c-1.942,0.682-3.504,1.461-3.504,5.931v27.192c0,13.311-8.64,20.608-24.751,20.608c-16.119,0-24.956-6.521-24.956-18.363V34.721
		c0-3.307-1.636-4.964-5.436-5.646c-1.842-0.375-2.33-0.765-2.33-1.643c0-1.159,1.159-1.159,3.304-1.159
		c1.937,0,6.396,0.385,9.414,0.385c3.501,0,7.183-0.385,9.323-0.385c1.361,0,2.819-0.101,2.819,1.253
		c0,0.688-0.499,0.978-2.14,1.268c-3.884,0.582-5.344,2.333-5.344,6.116V61.626z"/>
	<path d="M367.128,33.936c-3.211-3.784-4.664-4.861-7.37-5.235c-1.083-0.295-1.372-0.486-1.372-1.269
		c0-0.774,0.405-1.159,1.177-1.159c0.578,0,7.089,0.385,7.664,0.385c0.58,0,4.077-0.385,4.754-0.385c0.975,0,1.463,0.191,2.62,1.354
		l37.582,39.83v-31.09c0-4.753-2.144-7.19-6.809-7.767c-1.156-0.096-2.228-0.291-2.228-1.169c0-0.967,0.484-1.159,1.652-1.159
		c1.167,0,7.288,0.385,8.836,0.385c1.554,0,7.283-0.385,8.253-0.385s1.454,0.191,1.454,0.972c0,0.677-0.291,0.871-1.645,1.16
		c-3.982,0.771-5.635,3.301-5.635,8.547v44.105c0,1.552-0.194,1.934-1.175,1.934c-0.471,0-0.963-0.194-1.253-0.382l-42.92-45.165
		v32.827c0,6.409,1.75,9.028,6.703,9.703c1.461,0.197,1.848,0.298,1.848,1.272c0,0.874-0.585,1.163-2.71,1.163
		c-1.661,0-5.736-0.385-8.173-0.385c-2.331,0-7.08,0.385-8.052,0.385c-0.571,0-0.875-0.385-0.875-0.97
		c0-0.774,0.303-0.964,1.648-1.268c4.564-0.774,6.025-3.491,6.025-11.163V33.936z"/>
	<path d="M454.775,71.631c0,5.237,1.35,7.19,5.627,7.954c1.839,0.39,2.332,0.688,2.332,1.569c0,1.354-1.557,1.255-3.599,1.255
		c-2.137,0-5.614-0.385-8.839-0.385c-3.098,0-8.438,0.385-10.283,0.385c-1.657,0-2.625-0.095-2.625-1.255
		c0-0.488,0.492-0.787,1.943-1.074c4.364-0.781,6.02-3.006,6.02-8.356V36.08c0-4.558-2.137-6.903-6.788-7.479
		c-1.271-0.195-1.947-0.291-1.947-1.267c0-0.767,0.481-1.061,1.947-1.061c0.869,0,8.049,0.385,11.255,0.385
		c3.493,0,8.541-0.385,9.515-0.385c1.455,0,2.618,0,2.618,0.972c0,0.677-0.291,0.969-1.65,1.355
		c-3.891,1.157-5.525,3.595-5.525,7.866V71.631z"/>
	<path d="M482.494,33.65c-1.455-2.909-3.1-4.274-6.119-4.856c-1.452-0.29-1.847-0.58-1.847-1.363c0-0.865,0.884-1.159,2.232-1.159
		c0.781,0,6.708,0.385,9.915,0.385c2.913,0,7.465-0.385,9.708-0.385c0.869,0,1.833,0,1.833,1.061c0,0.687-0.382,0.977-1.936,1.267
		c-1.457,0.194-3.782,0.685-3.782,3.2c0,1.076,0.487,2.722,1.552,4.757l16.203,33.418l14.378-30.979
		c1.945-3.983,2.527-5.831,2.527-7.091c0-1.657-0.768-2.528-3.013-3.205c-1.258-0.39-1.645-0.68-1.645-1.367
		c0-0.767,0.771-1.061,1.645-1.061c0.872,0,4.849,0.385,7.094,0.385c2.129,0,5.524-0.385,6.596-0.385
		c1.086,0,1.559,0.191,1.559,0.868c0,0.88-0.473,1.169-2.138,1.56c-3.795,0.865-4.956,2.042-7.67,7.857l-20.971,45.18
		c-0.397,0.872-0.587,1.644-1.355,1.644c-0.789,0-1.173-0.874-2.141-2.812L482.494,33.65z"/>
	<path d="M597.866,82.381l-23.783-0.385l-21.642,0.385c-2.339,0-2.339-0.672-2.339-1.162c0-0.879,0.765-1.167,3.012-1.455
		c3.799-0.587,4.861-2.051,4.861-6.61V35.758c0-4.458-0.888-5.635-5.449-6.502c-1.836-0.296-2.327-0.586-2.327-1.564
		c0-0.476,0.298-1.063,1.746-1.063H586.9l8.833-0.384l3.789,14.275c0.19,0.382,0.19,0.778,0.19,1.068
		c0,0.775-0.382,1.167-1.067,1.167c-0.677,0-1.059-0.29-1.648-1.167c-4.172-7.094-11.646-11.764-19.904-11.764h-9.607v20.304h16.019
		c3.973,0,5.246-0.96,6.015-4.65c0.489-2.053,0.878-2.723,1.758-2.723c0.775,0,1.35,0.87,1.35,2.338c0,0.575-0.39,5.327-0.39,6.309
		c0,1.063,0.39,6.507,0.39,7.769c0,1.061-0.39,1.734-1.066,1.734c-0.865,0-1.249-0.569-1.742-2.42
		c-0.964-4.462-2.43-5.337-8.833-5.337h-13.499v21.087c0,3.588,2.427,4.942,8.541,4.942c10.384,0,18.641-4.175,23.984-12.238
		c0.979-1.457,1.749-2.528,2.515-2.528c0.69,0,1.073,0.398,1.073,1.163c0,0.492-0.09,1.073-0.383,1.947L597.866,82.381z"/>
	<path d="M639.566,32.519c0-2.623,1.354-3.681,4.849-3.681c6.792,0,11.072,5.441,11.072,13.981c0,8.462-4.169,12.528-12.729,12.528
		c-0.779,0-1.753-0.091-3.192-0.091V32.519z M657.807,74.779c4.281,6.416,5.726,7.768,8.559,7.768c1.046,0,3.39-0.385,4.65-0.385
		c1.067,0,3.974,0.385,5.245,0.385c1.059,0,3.584,0,3.584-1.352c0-0.691-0.284-0.887-1.543-0.977
		c-4.474-0.107-6.983-1.941-14.77-13.504l-1.168-1.833c-2.416-3.603-3.681-5.352-6.005-8.167c3.106-2.433,8.734-6.803,8.734-15.154
		c0-9.516-7.195-15.148-18.441-15.148c-0.974,0-9.137,0.382-11.752,0.382c-2.511,0-8.446-0.382-10.398-0.382
		c-1.449,0-2.613,0-2.613,0.867c0,0.978,0.575,1.266,2.613,1.459c4.176,0.388,5.738,2.049,5.738,6.122v37.002
		c0,5.145-1.741,7.576-5.826,8.357c-1.552,0.286-1.95,0.585-1.95,1.361c0,0.968,0.68,0.968,2.333,0.968
		c2.243,0,8.162-0.385,10.196-0.385c2.617,0,9.999,0.385,11.571,0.385c0.859,0,1.352-0.095,1.352-0.968
		c0-0.691-0.492-0.966-2.048-1.361c-4.467-0.969-6.303-3.402-6.303-8.542v-14.19c5.427,0,6.791,0.293,10.582,6.027L657.807,74.779z"
		/>
	<path d="M725.808,42.976c0.279,1.552,0.392,2.332,0.392,2.909c0,1.063-0.392,1.742-0.978,1.742c-0.971,0-1.562-0.771-2.133-3.191
		c-2.725-9.913-8.354-15.643-15.443-15.643c-5.125,0-8.724,3.103-8.724,7.472c0,5.838,5.145,8.457,12.325,12.154
		c12.412,6.214,17.078,9.712,17.078,18.452c0,9.901-7.176,16.02-18.737,16.02c-1.648,0-9.405-0.675-10.875-0.675
		c-2.819,0-3.096,0.675-4.26,0.675c-0.786,0-1.066-0.483-1.066-2.227c0-4.271-0.578-8.353-1.866-14.587
		c-0.281-1.049-0.745-3.285-0.745-4.27c0-0.78,0.363-1.258,1.042-1.258c0.991,0,1.468,0.684,2.146,3.306
		c4.184,14.862,15.042,15.636,18.248,15.636c5.941,0,9.314-3.098,9.314-8.542c0-6.702-6.968-10.204-13.587-13.404
		c-7.094-3.591-15.619-7.765-15.619-17.678c0-7.869,6.791-14.188,15.325-14.188c2.04,0,4.669,0.397,8.839,1.175
		c2.042,0.382,3.312,0.571,3.775,0.571c1.267,0,1.856-0.293,2.524-1.258c0.387-0.582,0.613-0.683,0.979-0.683
		c0.579,0,1.275,0.194,1.078,4.079c-0.097,4.672,0.38,9.225,0.776,11.759L725.808,42.976z"/>
	<path d="M763.997,71.631c0,5.237,1.361,7.19,5.64,7.954c1.839,0.39,2.334,0.688,2.334,1.569c0,1.354-1.569,1.255-3.591,1.255
		c-2.141,0-5.629-0.385-8.848-0.385c-3.11,0-8.442,0.385-10.284,0.385c-1.664,0-2.622-0.095-2.622-1.255
		c0-0.488,0.487-0.787,1.937-1.074c4.368-0.781,6.018-3.006,6.018-8.356V36.08c0-4.558-2.126-6.903-6.777-7.479
		c-1.266-0.195-1.941-0.291-1.941-1.267c0-0.767,0.469-1.061,1.941-1.061c0.852,0,8.041,0.385,11.253,0.385
		c3.492,0,8.556-0.385,9.515-0.385c1.457,0,2.632,0,2.632,0.972c0,0.677-0.291,0.969-1.652,1.355
		c-3.894,1.157-5.553,3.595-5.553,7.866V71.631z"/>
	<path d="M789.278,26.658h49.79l3.506,14.861c0.094,0.685,0.094,1.452-0.68,1.452c-0.771,0-1.465-0.67-2.92-2.908
		c-3.773-5.54-9.316-10.099-16.004-10.099h-4.083v43.318c0,3.49,1.638,5.342,5.517,6.208c1.376,0.304,2.338,0.591,2.338,1.665
		c0,1.056-1.541,1.255-3.477,1.255c-2.342,0-6.216-0.385-9.138-0.385c-2.919,0-8.938,0.385-10.289,0.385
		c-1.556,0-2.536-0.583-2.536-1.352c0-0.886,0.594-1.265,2.328-1.568c3.979-0.773,5.739-2.717,5.739-5.919V30.055h-3.017
		c-3.004,0-10.868,0-17.875,11.173c-0.855,1.455-1.348,1.939-1.821,1.939c-0.592,0-0.888-0.384-0.888-1.159
		c0-0.299,0.19-1.079,0.392-1.84L789.278,26.658z"/>
	<path d="M879.541,56.378l-16.377-23.596c-1.68-2.343-3.144-3.497-5.462-3.987c-1.063-0.29-1.352-0.484-1.352-1.167
		c0-1.354,1.546-1.354,3.294-1.354c1.95,0,5.836,0.385,8.738,0.385c2.805,0,6.885-0.385,8.35-0.385c1.258,0,2.037,0.385,2.037,1.253
		c0,0.589-0.392,0.879-1.662,1.174c-2.105,0.375-2.874,1.152-2.874,2.628c0,0.767,0.272,1.932,0.769,2.607l11.942,17.295
		l10.293-15.829c0.944-1.365,1.44-2.823,1.44-3.879c0-1.765-1.081-2.637-3.308-2.922c-1.161-0.096-1.548-0.386-1.548-1.074
		c0-0.767,0.977-1.253,2.521-1.253c0.791,0,3.498,0.385,5.546,0.385c2.119,0,5.621-0.385,6.788-0.385
		c1.459,0,2.237,0.293,2.237,0.868c0,0.679-0.492,1.169-1.75,1.46c-3.017,0.87-4.858,2.331-7.175,5.922l-12.923,19.914v18.845
		c0,4.074,1.357,5.73,5.342,6.303c2.032,0.295,2.617,0.688,2.617,1.662c0,0.874-0.585,1.163-2.417,1.163
		c-1.461,0-7.567-0.385-9.712-0.385c-2.147,0-8.06,0.385-9.826,0.385c-1.839,0-2.902,0-2.902-1.065c0-0.869,0.689-1.173,2.622-1.552
		c3.779-0.587,4.751-1.843,4.751-5.921V56.378z"/>
	<path d="M983.93,28.021c12.136,0,20.292,10.875,20.292,27.098c0,18.452-9.797,25.547-19.118,25.547
		c-12.128,0-19.814-10.881-19.814-28.07C965.29,39.576,970.15,28.31,983.93,28.021z M984.896,25
		c-18.327,0-29.504,13.228-29.504,30.794c0,9.716,5.149,27.587,28.739,27.587c18.169,0,30.19-11.951,30.19-30.098
		C1014.322,37.246,1002.484,25,984.896,25z"/>
	<path d="M1044.915,52.781v17.871c0,6.615,1.738,8.934,6.778,9.142c1.637,0.087,2.133,0.288,2.133,0.957
		c0,1.076-0.779,1.66-2.331,1.66c-0.869,0-8.533-0.385-10.003-0.385c-1.655,0-9.708,0.385-11.554,0.385
		c-1.542,0-2.22-0.385-2.22-1.352c0-0.69,0.276-1.083,1.361-1.177c2.621-0.295,6.314-0.769,6.314-7.279V40.263
		c0-7.575-1.552-10.601-5.844-11.086c-1.623-0.291-2.23-0.576-2.23-1.457c0-1.062,0.79-1.062,2.442-1.062h34.666l8.325-0.385
		l3.691,14.568c0.194,0.678,0.402,2.327-0.57,2.327c-0.59,0-0.895-0.384-1.753-1.84c-2.914-4.861-7.665-11.666-22.921-11.666
		c-1.936,0-3.294,0.095-6.106,0.302c-0.18,1.559-0.294,3.584-0.294,7.373v12.148h10.395c9.424,0,10.68-0.479,10.979-4.464
		c0.177-1.658,0.374-2.051,1.246-2.051c1.361,0,1.361,0.781,1.361,4.373c0,7.775,0.474,10.694,0.474,11.855
		c0,1.167-0.276,2.139-1.253,2.139c-0.854,0-1.545-1.077-1.925-3.501c-0.701-4.08-1.458-5.055-11.96-5.055H1044.915z"/>
	<path d="M315.023,204.092c0,9.611,2.726,11.968,13.238,11.968c9.619,0,31.742,0,47.168-23.765c1.821-2.541,2.546-3.274,4.003-3.274
		c0.909,0,1.622,0.919,1.622,2.005c0,1.087-0.913,3.629-2.543,7.435c-3.625,8.716-5.991,14.707-7.974,23.599l-42.995-0.728
		l-40.455,0.728c-4.001,0-5.085-0.363-5.085-1.993c0-1.634,1.458-1.821,3.994-2.361c11.428-2.186,11.428-6.171,11.428-26.312
		v-57.539c0-8.718-1.631-10.887-9.604-11.609c-4.185-0.375-5.277-0.917-5.277-2.728c0-1.445,1.459-2.36,3.635-2.36
		c1.993,0,15.419,0.727,18.327,0.727c7.255,0,19.222-0.727,21.403-0.727c1.81,0,3.444,0,3.444,2.181
		c0,1.631-1.092,2.533-4.715,2.714c-4.172,0.377-9.615,1.095-9.615,10.347V204.092z"/>
	<path d="M430.147,201.904c0,9.806,2.546,13.443,10.526,14.899c3.456,0.711,4.356,1.259,4.356,2.9c0,2.532-2.905,2.354-6.709,2.354
		c-3.99,0-10.532-0.728-16.51-0.728c-5.808,0-15.782,0.728-19.231,0.728c-3.082,0-4.903-0.179-4.903-2.354
		c0-0.916,0.907-1.46,3.633-2c8.153-1.457,11.256-5.629,11.256-15.607V135.48c0-8.53-4.001-12.876-12.711-13.965
		c-2.357-0.373-3.627-0.549-3.627-2.363c0-1.452,0.906-1.998,3.627-1.998c1.628,0,15.062,0.727,21.051,0.727
		c6.534,0,15.959-0.727,17.773-0.727c2.728,0,4.899,0,4.899,1.815c0,1.264-0.55,1.814-3.087,2.546
		c-7.257,2.168-10.344,6.715-10.344,14.694V201.904z"/>
	<path d="M483.119,131.498c-5.976-7.084-8.709-9.071-13.791-9.812c-1.992-0.544-2.536-0.903-2.536-2.351
		c0-1.454,0.728-2.181,2.186-2.181c1.083,0,13.244,0.727,14.333,0.727c1.081,0,7.61-0.727,8.887-0.727c1.81,0,2.71,0.366,4.9,2.548
		l70.201,74.406v-58.082c0-8.884-3.997-13.422-12.693-14.511c-2.187-0.189-4.177-0.549-4.177-2.18c0-1.814,0.903-2.181,3.085-2.181
		c2.168,0,13.602,0.727,16.5,0.727c2.907,0,13.596-0.727,15.432-0.727c1.796,0,2.721,0.366,2.721,1.815
		c0,1.264-0.546,1.636-3.096,2.173c-7.428,1.462-10.521,6.176-10.521,15.976v82.399c0,2.9-0.355,3.622-2.177,3.622
		c-0.902,0-1.812-0.352-2.345-0.722l-80.188-84.379v61.339c0,11.969,3.272,16.869,12.519,18.137
		c2.717,0.372,3.446,0.548,3.446,2.368c0,1.624-1.088,2.176-5.09,2.176c-3.085,0-10.703-0.728-15.23-0.728
		c-4.351,0-13.247,0.728-15.064,0.728c-1.091,0-1.632-0.728-1.632-1.811c0-1.46,0.541-1.816,3.086-2.361
		c8.529-1.463,11.245-6.54,11.245-20.879V131.498z"/>
	<path d="M653.704,114.427c8.522,0,18.68,2.18,28.303,5.807c2.172,0.909,3.993,1.453,4.548,1.453c1.079,0,1.794-0.544,3.427-1.984
		c1.462-1.464,2.189-1.821,3.104-1.821c1.441,0,2.159,1.634,2.159,9.981c0,6.531,0.18,14.7,0.909,20.515
		c0.176,1.453,0.546,4.897,0.546,5.98c0,1.634-0.37,2.726-1.275,2.726c-1.442,0-2.172-1.271-3.07-5.076
		c-7.631-29.041-31.568-32.304-37.189-32.304c-20.678,0-33.194,17.961-33.194,47.73c0,30.672,15.417,50.271,39.348,50.271
		c11.794,0,24.683-5.273,34.298-13.979c0.894-0.901,1.455-1.276,2.171-1.276c0.73,0,1.093,0.732,1.093,1.643
		c0,1.997-14.7,19.787-41.361,19.787c-33.191,0-54.062-21.43-54.062-55.725C603.455,136.21,623.757,114.427,653.704,114.427z"/>
	<path d="M772.473,121.549c22.667,0,37.905,20.32,37.905,50.637c0,34.485-18.31,47.729-35.729,47.729
		c-22.684,0-36.995-20.333-36.995-52.457C737.655,143.151,746.697,122.097,772.473,121.549z M774.287,115.911
		c-34.285,0-55.137,24.687-55.137,57.55c0,18.137,9.607,51.539,53.677,51.539c33.928,0,56.426-22.318,56.426-56.267
		C829.252,138.793,807.107,115.911,774.287,115.911z"/>
	<path d="M876.593,204.092c0,9.611,2.719,11.968,13.256,11.968c9.597,0,31.728,0,47.139-23.765c1.821-2.541,2.544-3.274,4.002-3.274
		c0.904,0,1.622,0.919,1.622,2.005c0,1.087-0.904,3.629-2.534,7.435c-3.632,8.716-5.983,14.707-7.981,23.599l-42.998-0.728
		l-40.437,0.728c-3.998,0-5.083-0.363-5.083-1.993c0-1.634,1.437-1.821,3.98-2.361c11.446-2.186,11.446-6.171,11.446-26.312v-57.539
		c0-8.718-1.642-10.887-9.634-11.609c-4.18-0.375-5.264-0.917-5.264-2.728c0-1.445,1.468-2.36,3.63-2.36
		c2.008,0,15.415,0.727,18.328,0.727c7.263,0,19.227-0.727,21.413-0.727c1.813,0,3.444,0,3.444,2.181
		c0,1.631-1.074,2.533-4.724,2.714c-4.188,0.377-9.606,1.095-9.606,10.347V204.092z"/>
	<path d="M972.103,131.582c-5.977-7.083-8.691-9.073-13.78-9.811c-1.985-0.531-2.551-0.902-2.551-2.348
		c0-1.45,0.743-2.195,2.191-2.195c1.088,0,13.245,0.745,14.337,0.745c1.082,0,7.611-0.745,8.872-0.745
		c1.831,0,2.744,0.377,4.924,2.548l70.192,74.415v-58.073c0-8.899-3.979-13.431-12.71-14.527c-2.181-0.18-4.167-0.537-4.167-2.168
		c0-1.817,0.906-2.195,3.076-2.195c2.179,0,13.604,0.745,16.521,0.745c2.891,0,13.609-0.745,15.407-0.745
		c1.829,0,2.727,0.377,2.727,1.827c0,1.27-0.536,1.63-3.082,2.184c-7.441,1.448-10.52,6.158-10.52,15.958v82.402
		c0,2.906-0.362,3.629-2.188,3.629c-0.901,0-1.811-0.368-2.345-0.723l-80.182-84.396v61.35c0,11.977,3.275,16.869,12.517,18.141
		c2.719,0.358,3.451,0.548,3.451,2.361c0,1.641-1.095,2.176-5.092,2.176c-3.082,0-10.699-0.721-15.236-0.721
		c-4.349,0-13.238,0.721-15.053,0.721c-1.091,0-1.627-0.721-1.627-1.807c0-1.456,0.536-1.809,3.078-2.372
		c8.537-1.437,11.238-6.522,11.238-20.864V131.582z"/>
</g>
</svg>
