<?xml version="1.0" encoding="utf-8"?>
<!-- Generator: Adobe Illustrator 15.1.0, SVG Export Plug-In . SVG Version: 6.00 Build 0)  -->
<!DOCTYPE svg PUBLIC "-//W3C//DTD SVG 1.1//EN" "http://www.w3.org/Graphics/SVG/1.1/DTD/svg11.dtd">
<svg version="1.1" id="Layer_1" xmlns="http://www.w3.org/2000/svg" xmlns:xlink="http://www.w3.org/1999/xlink" x="0px" y="0px"
	 width="575px" height="575px" viewBox="0 0 575 575" enable-background="new 0 0 575 575" xml:space="preserve">
<g>
	<g>
		<path d="M174.127,338.13c1.61-2.63-1.422-7.082-6.435-4.291c-1.604,0.905-3.83,2.138-4.01,2.237
			c-0.204,1.019-0.389,2.015-0.604,3.045c0.315-0.101,1.219-0.113,1.681,0.708c1.004,1.802,4.277,7.688,5.245,9.419
			c3.58-1.702,4.872-2.412,6.095-3.294C180.452,342.84,177.456,337.99,174.127,338.13z M166.246,337.047
			c0.505-0.282,1.055-0.59,1.88-1.05c3.3-1.842,5.547,2.303,1.836,3.472c-0.094,0.488-0.302,1.601-0.525,2.609
			c-0.941-1.685-1.867-3.345-2.061-3.701C167.056,337.807,166.658,337.374,166.246,337.047z M173.794,344.868
			c-0.497,0.28-0.961,0.59-2.193,1.094c-0.188-0.342-1.121-2.007-2.06-3.691c0.003-0.009,0.005-0.019,0.005-0.024
			c-0.002,0-0.007,0.006-0.014,0.006c-0.031-0.057-0.062-0.109-0.094-0.166c0.599-0.339,1.263-0.709,1.612-0.886
			C174.832,339.212,176.886,343.142,173.794,344.868z"/>
		<path d="M158.533,352.018c-0.317,0.13-2.481,1.051-3.016,1.279c-0.981-2.31-2.917-6.871-3.388-7.975
			c-0.88-2.082-2.814-2.62-3.429-2.684c-0.306,0.984-0.597,1.956-0.921,2.958c0.324-0.069,1.223,0.013,1.592,0.886
			c0.807,1.894,3.121,7.339,4.212,9.915c1.294-0.554,7.955-3.382,8.907-3.782c-0.756-0.479-1.966-1.257-2.75-1.78
			C159.715,351.505,158.821,351.888,158.533,352.018z"/>
		<path d="M207.424,324.57c-1.188-2.216-3.055-5.716-3.627-6.773c-0.259-0.494-0.612-1.017-1.113-1.21
			c1.068-0.573,1.732-0.926,1.88-1.007c0.876-0.465,1.431-0.445,1.704-0.19c0.239-1.084,0.429-2.038,0.722-3.487
			c-1.664,0.897-8.775,4.702-10.512,5.63c-0.119,0.544-0.559,2.616-0.747,3.498c0.391-0.609,0.801-1.161,1.8-1.699
			c0.774-0.41,0.85-0.453,1.73-0.921c0.641-0.344,1.391-0.157,1.825,0.648c0.973,1.823,4.089,7.646,5.408,10.107
			c0.77-1.141,1.784-2.648,2.328-3.461C208.486,325.675,207.954,325.571,207.424,324.57z"/>
		<path d="M404.127,334.516c1.055,0.604,1.7,0.971,1.849,1.056c0.869,0.487,1.146,0.971,1.077,1.342
			c1.039-0.383,1.947-0.725,3.331-1.245c-1.646-0.939-8.649-4.926-10.362-5.902c-0.523,0.19-2.509,0.918-3.356,1.229
			c0.72,0.008,1.407,0.061,2.393,0.623c0.758,0.435,0.829,0.48,1.699,0.975c0.635,0.364,0.874,1.091,0.423,1.892
			c-1.022,1.788-4.296,7.529-5.672,9.953c1.376,0.043,3.194,0.097,4.174,0.13c-0.163-0.298-0.349-0.808,0.207-1.785
			c1.243-2.187,3.21-5.63,3.804-6.682C403.97,335.612,404.227,335.042,404.127,334.516z"/>
		<path d="M365.826,311.014c-1.641-0.819-2.288-1.138-4.076-2.025v-0.004c-0.007,0-0.007,0-0.007,0
			c-0.947,0.404-1.877,0.815-2.837,1.224c0.255,0.195,0.778,0.94,0.355,1.783c-0.919,1.845-3.72,7.486-4.963,9.98
			c1.168-0.022,2.941-0.066,4.153-0.104c-0.214-0.325-0.395-0.74,0.114-1.756c0.448-0.906,0.744-1.51,0.963-1.946
			C367.557,324.474,372.068,314.12,365.826,311.014z M362.045,317.077c-0.723,0.316-1.909,0.826-2.511,1.076
			c0.968-1.932,1.992-4,2.408-4.82c0.288-0.586,0.426-1.158,0.463-1.682c0.508,0.251,1.062,0.523,1.887,0.939
			C367.677,314.274,365.102,319.482,362.045,317.077z"/>
		<path d="M198.61,330.089c-1.471-0.211-2.662-0.576-4.484-1.479c5.023-3.915-0.076-10.008-5.236-7.052
			c-1.594,0.917-3.808,2.189-3.989,2.291c-0.188,1.017-0.36,2.015-0.561,3.05c0.308-0.106,1.216-0.13,1.683,0.687
			c1.028,1.79,4.563,7.956,5.547,9.673c0.693-1.056,1.663-2.599,2.235-3.516c-0.344-0.023-0.872-0.103-1.45-1.111
			c-0.39-0.683-0.926-1.637-1.371-2.411c-0.973-1.695-1.947-3.392-2.361-4.114c-0.324-0.572-0.724-1.002-1.14-1.322
			c0.497-0.286,1.044-0.6,1.862-1.069c3.28-1.883,5.824,2.664,2.128,3.877c-0.145,0.779-0.434,2.307-0.49,2.629
			c3.457,2.032,5.782,2.642,7.239,2.725c2.712,0.174,3.984-2.914,4.3-4.24C202.365,329.235,201.095,330.427,198.61,330.089z"/>
		<path d="M355.199,314.86c-0.194,0.396-1.018,1.101-2.672,0.822c-0.32-3.771-0.806-11.041-0.806-11.041l-11.562,11.396l2.497,0.98
			c0,0,0.913-0.909,2.074-2.04c1.005,0.396,3.501,1.367,4.853,1.9c0.025,0.241,0.193,2.789,0.243,3.378
			c1.178-0.142,2.014-0.24,3.63-0.424c-0.69-0.464-0.765-1.533-0.831-2.388C354.108,317.092,354.961,315.707,355.199,314.86z
			 M346.393,313.352c1.116-1.104,2.195-2.161,2.762-2.714c0.082,1.128,0.172,2.508,0.283,3.909
			C348.249,314.085,347.059,313.615,346.393,313.352z"/>
		<path d="M423.237,350.772c-0.219,0.389-1.083,1.04-2.715,0.653c-0.082-3.781-0.118-11.06-0.118-11.06l-12.24,10.652l2.428,1.129
			c0,0,0.965-0.836,2.195-1.898c0.977,0.45,3.405,1.573,4.73,2.189c0.007,0.243,0.016,2.795,0.034,3.392
			c1.185-0.068,2.025-0.115,3.646-0.2c-0.657-0.507-0.668-1.582-0.682-2.434C422.015,352.931,422.956,351.605,423.237,350.772z
			 M414.546,348.72c1.188-1.027,2.326-2.016,2.921-2.535c0.021,1.141,0.021,2.516,0.042,3.921
			C416.351,349.561,415.195,349.024,414.546,348.72z"/>
		<path d="M186.032,337.625c-0.972,0.566-1.393,0.807-2.814,1.636c-0.617-1.054-1.355-2.33-2.118-3.631
			c0.507-0.292,0.91-0.532,1.319-0.766c0.863-0.505,1.411-0.505,1.697-0.256c0.188-1.091,0.344-2.045,0.588-3.501
			c-0.367,0.205-3.146,1.829-4.655,2.715c-0.642-1.09-1.026-1.756-1.201-2.052c-0.331-0.569-0.733-0.994-1.156-1.316
			c1.362-0.793,1.607-0.941,2.569-1.493c0.861-0.505,1.416-0.505,1.697-0.257c0.194-1.103,0.349-2.051,0.593-3.511
			c-3.115,1.824-4.458,2.604-7.436,4.342c-0.072,0.468-0.349,2.021-0.542,3.054c0.307-0.106,1.212-0.132,1.688,0.684
			c1.04,1.782,4.018,6.898,5.426,9.308c1.504-0.877,6.685-3.894,8.364-4.876c-0.978-0.448-2.023-0.949-2.963-1.421
			C187.164,336.958,186.301,337.466,186.032,337.625z"/>
		<path d="M376.537,331.015c-0.976-0.566-1.395-0.813-2.819-1.624c0.61-1.07,1.339-2.334,2.096-3.646
			c0.507,0.295,0.904,0.522,1.316,0.758c0.862,0.497,1.143,0.976,1.073,1.345c1.032-0.374,1.938-0.721,3.329-1.235
			c-0.369-0.208-3.157-1.815-4.677-2.683c0.625-1.099,1.012-1.758,1.184-2.062c0.326-0.575,0.498-1.131,0.565-1.658
			c1.367,0.786,1.617,0.928,2.574,1.484c0.868,0.496,1.141,0.978,1.064,1.343c1.051-0.372,1.955-0.713,3.347-1.229
			c-3.136-1.8-4.477-2.571-7.47-4.29c-0.445,0.173-1.932,0.698-2.92,1.049c0.245,0.216,0.722,0.985,0.248,1.804
			c-1.028,1.79-3.979,6.92-5.375,9.342c1.512,0.868,6.712,3.854,8.396,4.832c-0.096-1.079-0.186-2.24-0.248-3.277
			C377.677,331.662,376.803,331.163,376.537,331.015z"/>
		<path d="M165.213,347.907c-1.089-2.271-2.748-5.735-3.267-6.819c-0.975-2.034-2.926-2.491-3.543-2.522
			c-0.264,1.005-0.51,1.981-0.785,2.998c0.317-0.08,1.221-0.039,1.628,0.816c0.893,1.857,3.62,7.562,4.827,10.081
			c0.825-1.118,1.907-2.574,2.482-3.36C166.224,349.056,165.703,348.92,165.213,347.907z"/>
		<path d="M408.213,347.432c1.272-2.169,3.209-5.483,3.814-6.521c1.139-1.953,0.42-3.824,0.103-4.355
			c-0.975,0.347-1.932,0.688-2.92,1.032c0.243,0.217,0.713,0.988,0.235,1.807c-1.038,1.782-4.225,7.242-5.637,9.654
			c1.382,0.056,3.201,0.125,4.172,0.17C407.831,348.918,407.647,348.408,408.213,347.432z"/>
		<path d="M373.112,319.247c1.108-1.972,0.359-3.832,0.03-4.354c-0.972,0.357-1.916,0.72-2.905,1.072
			c0.252,0.215,0.737,0.983,0.269,1.806c-1.007,1.799-4.104,7.311-5.474,9.748c1.379,0.032,3.195,0.076,4.172,0.093
			c-0.154-0.288-0.35-0.797,0.205-1.78C370.637,323.641,372.526,320.288,373.112,319.247z"/>
		<path d="M275.791,348.918c-1.838,0-2.549,0-4.552,0c0,0-0.002,0-0.005-0.005c0,0.005,0,0.005,0,0.005l0,0
			c-0.673,0.788-1.317,1.566-2.001,2.355c0.315,0.067,1.116,0.499,1.116,1.444c0,2.062,0,8.349,0,11.143
			c1.038-0.538,2.607-1.371,3.675-1.942c-0.337-0.19-0.688-0.49-0.688-1.623c0-1.002,0-1.683,0.002-2.169
			C283.332,360.2,282.764,348.918,275.791,348.918z M275.111,356.035c-0.512,0.598-1.353,1.586-1.773,2.079c0-2.162,0-4.469,0-5.395
			c0-0.652-0.127-1.225-0.329-1.704c0.565,0,1.185,0,2.11,0C278.894,351.016,278.916,356.822,275.111,356.035z"/>
		<path d="M293.944,352.78c0,2.06,0,9.166,0,11.146c1.127-0.57,2.737-1.427,3.689-1.941c-0.286-0.186-0.706-0.52-0.706-1.679
			c0-0.784,0.006-1.885,0.006-2.783c0-1.957,0-3.912,0-4.74c0-0.656-0.132-1.223-0.331-1.717c0.579,0,1.208,0,2.151,0
			c3.781,0,3.723,5.216-0.085,4.425c-0.51,0.6-1.524,1.79-1.735,2.032c1.985,3.488,3.707,5.168,4.926,5.972
			c2.273,1.495,4.907-0.551,5.84-1.545c-0.402,0.384-2.097,0.786-4.076-0.747c-1.175-0.907-2.028-1.818-3.161-3.509
			c6.298-0.904,4.914-8.723-1.035-8.723c-1.838,0-4.384,0-4.597,0c-0.671,0.797-1.318,1.571-1.999,2.367
			C293.148,351.403,293.944,351.833,293.944,352.78z"/>
		<path d="M290.195,351.638c0.727-0.856,1.337-1.594,2.283-2.734c-3.611,0-5.161,0.003-8.612,0.003
			c-0.302,0.368-1.322,1.576-2.008,2.367c0.322,0.064,1.12,0.493,1.12,1.438c0,2.062-0.002,7.979-0.002,10.773
			c1.739,0,7.733,0,9.682,0c-0.616-0.882-1.273-1.841-1.846-2.717c-0.281,0.615-1.279,0.622-1.588,0.622c-1.128,0-1.611,0-3.255,0
			c0-1.224,0-2.692,0-4.201c0.581,0,1.051,0,1.52,0c0.998,0,1.478,0.278,1.596,0.634c0.711-0.843,1.331-1.593,2.271-2.735
			c-0.42,0-3.639,0-5.388,0.002c-0.002-1.261-0.002-2.023-0.002-2.37c0-0.654-0.134-1.23-0.337-1.719c1.578,0,1.862,0,2.974,0
			C289.598,351.001,290.08,351.277,290.195,351.638z"/>
		<path d="M310.522,356.692c2.162,0.142,2.666,1.787,4.989,1.787c2.152,0,3.498-1.311,4.084-2.697
			c-1.179,1.024-2.281,1.161-3.312,1.161c-1.897,0-2.948-1.802-5.069-1.802c-3.041,0-3.951,2.257-4.142,2.694
			C308.755,356.503,310.176,356.676,310.522,356.692z"/>
		<path d="M258.249,355.076c-3.038,0-3.946,2.247-4.138,2.691c1.679-1.332,3.105-1.168,3.447-1.14
			c2.167,0.133,2.667,1.784,4.995,1.784c2.153,0,3.497-1.312,4.078-2.697c-1.174,1.021-2.276,1.157-3.304,1.157
			C261.426,356.872,260.375,355.076,258.249,355.076z"/>
		<path d="M220.57,318.335c2.07-1.592,1.376-3.587,0.793-4.562c0.201,0.526,0.19,1.914-2.5,3.176
			c-3.398-2.783-8.612-7.062-8.612-7.062l0.328,16.214l2.433-1.139c0,0-0.027-1.267-0.054-2.893c0.979-0.46,3.119-1.462,4.724-2.219
			c1.221,1.013,2.27,1.876,2.614,2.144c0.695-0.949,1.668-2.259,2.177-2.928C221.871,319.199,221.209,318.823,220.57,318.335z
			 M212.915,319.742c-0.031-1.577-0.058-3.101-0.069-3.894c0.61,0.497,1.784,1.473,3.029,2.502
			C214.708,318.899,213.556,319.44,212.915,319.742z"/>
		<path d="M226.249,309.699c-2.026,0.05-3.289-0.013-3.731-1.146c-0.362-0.917,0.071-2.064,1.688-2.699
			c1.587-0.624,2.37-0.047,2.549,0.534l0.95-2.837c-1.04-0.309-2.651-0.176-4.187,0.429c-3.22,1.263-4.463,3.81-3.546,6.14
			c0.778,1.981,2.747,2.655,5.328,2.561c1.869-0.063,2.971-0.069,3.452,1.151c0.43,1.1-0.105,2.264-1.509,2.816
			c-1.304,0.511-2.379,0.029-2.538-0.624l-1.909,2.227c1.402,1.035,3.51,0.903,5.07,0.289c3.447-1.348,4.4-3.959,3.497-6.246
			C230.526,310.156,228.822,309.628,226.249,309.699z"/>
		<path d="M338.718,307.556c-1.509-1.348-2.388-2.26-1.938-3.379c0.368-0.926,1.469-1.466,3.083-0.819
			c1.58,0.635,1.756,1.59,1.488,2.138l2.632-1.42c-0.536-0.945-1.806-1.942-3.343-2.552c-3.21-1.285-5.861-0.275-6.791,2.044
			c-0.785,1.983,0.186,3.823,2.139,5.514c1.404,1.237,2.209,1.988,1.727,3.206c-0.44,1.1-1.626,1.58-3.029,1.021
			c-1.3-0.521-1.753-1.608-1.425-2.196l-2.91,0.319c0.306,1.715,1.938,3.061,3.494,3.685c3.441,1.373,5.918,0.12,6.827-2.162
			C341.521,310.812,340.64,309.274,338.718,307.556z"/>
		<path d="M395.529,330.861c0.856-1.457,0.326-2.862,0.09-3.26c-0.733,0.258-1.451,0.505-2.193,0.757
			c0.183,0.171,0.535,0.752,0.175,1.358c-0.466,0.789-2.055,3.475-3.588,6.079c0,0-0.927-10.786-2.104-12.751
			c-0.844,0.284-1.754,0.606-2.924,1.02c0.22,0.22,0.696,0.979,0.227,1.772c-0.78,1.324-4.628,7.857-5.694,9.654
			c1.032,0.05,2.396,0.108,3.13,0.139c-0.116-0.221-0.253-0.605,0.175-1.332c0.539-0.911,2.173-3.676,3.29-5.569
			c0.457,4.222,1.327,11.438,1.327,11.438s2.392,0.107,3.124,0.141c-0.116-0.221-0.252-0.602,0.175-1.328
			C391.695,337.356,395.071,331.635,395.529,330.861z"/>
		<path d="M435.347,347.589c0.562,0.27,0.717,1.078,0.196,1.637c-1.107,1.205-2.408,2.435-4.461,4.657
			c-0.806-3.065-1.954-7.733-2.286-9.021c-0.18-0.704-0.6-1.381-1.016-1.781c-0.64,0.441-1.895,1.314-2.544,1.76
			c0.306,0.146,0.918,0.805,0.692,1.634c-0.406,1.494-2.392,8.814-2.938,10.837c1.011-0.229,2.334-0.527,3.05-0.692
			c-0.171-0.184-0.402-0.516-0.185-1.338c0.211-0.779,0.806-2.946,1.253-4.619l2.22,8.37l5.74-6.151
			c-0.673,2.478-1.501,5.529-1.946,7.174c1.347-0.301,3.118-0.699,4.067-0.92c-0.224-0.253-0.532-0.689-0.235-1.78
			c0.657-2.425,1.667-6.136,1.979-7.296c0.583-2.175-0.589-3.803-1.038-4.229C437.04,346.413,436.211,347.004,435.347,347.589z"/>
		<path d="M149.212,278.856c-2.808,4.606-8.664,8.835-16.994,14.419c-2.387,4.768-6.398,8.685-8.494,8.494
			c1.145-2.097,2.193-4.2,3.104-8.162c-3.582,5.01-6.256,11.026-12.366,13.794c1.621-1.906,4.008-5.726,4.916-9.641
			c-3.82,5.632-7.877,10.596-12.556,12.889c7.067-8.781,9.931-18.901,9.931-23.868c-6.875,15.654-13.368,23.297-18.713,28.639
			c16.613,1.907,54.228-26.636,54.228-26.636S153.416,282.297,149.212,278.856z"/>
		<path d="M113.7,275.413c19.851-18.721,39.716-19.865,41.24-46.993C145.774,249.816,122.864,257.46,113.7,275.413z"/>
		<path d="M177.572,219.345c-2.294,10.892-3.821,23.689-15.276,29.418C180.432,245.901,178.145,229.281,177.572,219.345z"/>
		<path d="M280.751,306.636h11.835c0.01,0,0.012,0,0.019,0h0.854c1.688,0,3.057-0.667,3.057-1.481c0-0.813-1.368-1.478-3.057-1.478
			h-0.872h-10.968h-0.868c-1.688,0-3.056,0.664-3.056,1.478C277.695,305.969,279.064,306.636,280.751,306.636z"/>
		<path d="M280.751,310.922h11.835c0.01,0,0.012,0,0.019,0h0.854c1.688,0,3.057-0.665,3.057-1.483s-1.368-1.479-3.057-1.479h-0.872
			h-10.968h-0.868c-1.688,0-3.056,0.66-3.056,1.479S279.064,310.922,280.751,310.922z"/>
		<path d="M263.244,217.434h-18.507c1.203,1.794,2.582,3.845,3.836,5.683h10.836C260.652,221.291,262.025,219.249,263.244,217.434z"
			/>
		<path d="M248.537,249.532c-1.277,1.875-2.685,3.975-3.906,5.793c5.1-0.005,13.413-0.014,18.622,0
			c-1.234-1.85-2.643-3.929-3.905-5.793H248.537z"/>
		<rect x="248.77" y="225.214" width="10.452" height="22.221"/>
		<path d="M236.815,252.235c0.002,0.009,0.004,0.021,0.004,0.034c0.517,3.197,3.309,4.109,5.037,3.081
			c1.386-2.07,3.204-4.787,4.818-7.15v-23.797c-1.569-2.303-3.329-4.923-4.697-6.968c0,0-3.172,0.283-3.074-1.97
			c0.062-1.523,2.135-1.688,3.392-1.511c0.48-0.012,26.341-0.023,28.302-0.006l-0.036,35.499c-1.232,0.79-2.569,1.904-3.255,2.817
			l-0.012-34.829h-1.296c-1.397,2.085-3.13,4.674-4.677,6.943v23.985c1.561,2.286,3.307,4.898,4.702,6.976
			c0.548,0.006,0.968-0.002,1.299,0.003c1.031-1.794,2.616-3.535,4.123-4.235c0.523-0.011,0.818,0.009,1.223,0.009
			c0-0.54,0.007-39.371,0.007-39.371s-26.008-0.024-30.187-0.005c-2.048-0.432-5.779,0.159-5.756,3.379c0,2.604,0,6.092,0,9.911
			c0.639,0.363,1.842,0.775,4.084,0.847c0.043,0.589-0.351,1.16-1.044,1.452c-0.91,0.381-2.225,0.29-3.04,0.171
			c0,5.464,0,11.314,0,16.042c0.462,0.394,1.647,1.028,4.491,1.124c0.044,0.594-0.349,1.157-1.044,1.455
			c-1.083,0.453-2.739,0.232-3.447,0.109c0,2.055,0,3.775,0,4.97c0,0.235,0.013,0.449,0.031,0.646
			C236.777,251.982,236.799,252.103,236.815,252.235z"/>
		<path d="M327.991,217.449h-18.503c1.203,1.788,2.581,3.839,3.832,5.683h10.838C325.399,221.302,326.771,219.264,327.991,217.449z"
			/>
		<path d="M313.289,249.547c-1.274,1.873-2.688,3.968-3.906,5.786c5.101-0.008,13.412-0.015,18.622,0.002
			c-1.239-1.842-2.644-3.93-3.906-5.788H313.289z"/>
		<rect x="313.521" y="225.227" width="10.452" height="22.221"/>
		<path d="M307.237,211.749c-2.042-0.431-5.772,0.154-5.754,3.384c0,2.601,0,6.097,0,9.911c0.641,0.36,1.846,0.771,4.086,0.842
			c0.044,0.594-0.352,1.164-1.044,1.458c-0.91,0.378-2.223,0.283-3.042,0.171c0,5.467,0,11.314,0,16.04
			c0.464,0.394,1.645,1.033,4.491,1.126c0.044,0.587-0.348,1.16-1.046,1.449c-1.079,0.456-2.735,0.235-3.445,0.113
			c0,2.054,0,3.771,0,4.972c0,0.235,0.015,0.447,0.034,0.644c0.012,0.139,0.032,0.264,0.055,0.396c0,0.009,0.002,0.02,0.007,0.025
			c0.511,3.194,3.304,4.118,5.029,3.084c1.391-2.08,3.208-4.786,4.816-7.153v-23.793c-1.566-2.305-3.324-4.93-4.69-6.967
			c0,0-3.175,0.285-3.076-1.977c0.062-1.521,2.134-1.689,3.391-1.512c0.479-0.009,26.338-0.018,28.297-0.003l-0.035,35.505
			c-1.229,0.784-2.567,1.897-3.258,2.812l-0.01-34.826h-1.293c-1.395,2.083-3.137,4.672-4.68,6.939v23.983
			c1.557,2.294,3.31,4.903,4.701,6.978c0.549,0.004,0.972-0.006,1.301,0.004c1.031-1.792,2.618-3.532,4.12-4.233
			c0.524-0.021,0.823,0.006,1.225,0.006c0-0.535,0.009-39.37,0.009-39.37S311.416,211.729,307.237,211.749z"/>
		<path d="M300.408,290.926c0,0,4.244-3.672,4.53-8.302c-4.53-0.807-8.973,3.06-8.973,3.06s2.343-4.824,0.863-9.405
			c-5.062,1.043-6.927,6.681-6.927,6.681s0.619-6.016-2.812-8.879c-0.003,0.006-0.007,0.017-0.01,0.024
			c0-0.007-0.004-0.018-0.006-0.024c-3.434,2.863-2.814,8.879-2.814,8.879s-1.865-5.631-6.92-6.681
			c-1.484,4.581,0.858,9.405,0.858,9.405s-4.442-3.867-8.972-3.06c0.284,4.636,4.529,8.308,4.529,8.308s-5.775-1.954-9.356,2.104
			c7.617,0.619,12.909,3.532,14.997,8.697h2.772c-0.601-3.339-1.719-6.535-3.548-9.379c0,0-0.351-0.471,0.389-0.992
			c0.785-0.57,1.058,0.062,1.058,0.062c1.958,3.047,3.195,6.632,3.861,10.31h2.292c0.004-3.839,0.009-7.725,0.009-11.418
			c0,0,0-0.646,0.823-0.646s0.892,0.646,0.892,0.646c0,3.672-0.004,7.568-0.014,11.418h2.302c0.666-3.678,1.906-7.261,3.866-10.31
			c0,0,0.267-0.632,1.056-0.062c0.74,0.521,0.389,0.992,0.389,0.992c-1.827,2.844-2.951,6.04-3.551,9.379h2.779
			c2.085-5.165,7.374-8.078,14.986-8.697C306.184,288.978,300.408,290.926,300.408,290.926z"/>
		<path d="M294.295,312.868h-2.742c0.125,4.437,0.416,8.522,1.838,12.103c0,0,0.668,1.433-0.289,1.861
			c-0.525,0.238-1.098-0.237-1.576-1.289c-1.172-2.583-1.609-7.595-1.797-12.675h-1.827c-0.009,2.267-0.016,4.415-0.022,6.348
			c-0.016,4.27,0.079,7.535,0.079,9.08c0,0,0.038,0.671-0.888,0.649c-0.878-0.021-0.941-0.638-0.941-0.638
			c0-1.535,0.033-4.94,0.051-9.206c0.01-1.909,0.016-4.011,0.018-6.233h-1.762c-0.188,5.077-0.626,10.09-1.797,12.675
			c-0.479,1.052-1.051,1.527-1.576,1.289c-0.957-0.429-0.289-1.861-0.289-1.861c1.424-3.58,1.715-7.666,1.838-12.103h-2.741
			c-0.729,5.157-1.777,7.632-3.89,11.596c-0.359,0.866,0.572,2.656,2.431,1.58c0,2.337,2.866,3.866,5.086,2.123
			c0.523,3.007,3.577,2.52,3.577,2.52s0.009-0.011,0.016-0.019v0.016c0,0,3.05,0.49,3.577-2.517c2.22,1.743,5.081,0.214,5.081-2.123
			c1.861,1.076,2.793-0.714,2.436-1.58C296.073,320.5,295.021,318.025,294.295,312.868z"/>
		<path d="M364.419,80.622c0.206-0.206,0.443-0.393,0.676-0.579c-0.978,2.24-1.418,5.696,0.559,10.703
			c-1.354-6.262,1.307-10.507,3.17-12.611c0.481-0.154,0.973-0.281,1.481-0.395c-1.17,1.604-2.562,4.964-0.88,11.05
			c-0.995-7.225,2.668-11.089,7.03-11.409c2.707,0.27,5.331,1.08,7.356,2.48c-7.08-0.193-9.449,2.452-9.548,5.833
			c-0.19,6.834,4.686,12.331,10.381,17.801c-1.019,0.791-2.214,1.492-3.619,2.047c2.328,1.555,4.862,1.766,7.187,1.323
			c5.169,4.868,10.302,9.919,12.482,16.057c-0.713-4.993-3.773-11.707-9.518-16.986c2.32-1.032,4.116-2.533,4.748-3.543
			c3.625,7.352,17.368,22.438,37.612,18.237c-23.106-7.065-26.16-25.681-37.044-37.716c15.852,4.586,26.831,24.305,41.815,24.779
			c0.574-4.582,12.461-3.726,18.617-6.587c6.166-2.862,7.733-17.042-6.296-21.625c1.576,3.005,1.856,14.606-4.154,17.041
			c5.868-0.287,8.592-7.446,7.3-13.028c11.031,7.157,0.652,20.013-9.448,13.89c-13.462-8.167-18.333-12.174-32.177-16.76
			c5.73-2,19.095-3.052,26.158,1.913c-3.146-8.879-7.825-10.505-12.599-11.075c2.863-2.867,6.014-18.72-11.463-23.588
			c7.452,3.628,7.738,21.777-9.159,22.057c-8.691,0.152-21.806-0.635-31.934,1.389c-12.862,2.562-16.332,13.602-10.456,21.91
			C361.554,90.219,360.656,84.304,364.419,80.622z M386.457,101.75c-2.934-2.808-5.936-6.226-7.581-9.521
			c-2.792-5.63-0.931-10.559,7.852-9.295C389.815,87.794,391.147,96.239,386.457,101.75z"/>
		<path d="M117.23,101.104c6.16,2.861,18.042,2.008,18.617,6.587c14.986-0.475,25.971-20.193,41.817-24.779
			c-10.886,12.036-13.939,30.651-37.042,37.716c20.24,4.201,33.985-10.885,37.612-18.234c0.63,1.007,2.423,2.508,4.749,3.541
			c-5.748,5.28-8.809,11.994-9.52,16.986c2.178-6.137,7.313-11.187,12.481-16.057c2.323,0.446,4.863,0.231,7.186-1.323
			c-1.401-0.555-2.6-1.25-3.617-2.047c5.694-5.47,10.571-10.966,10.378-17.801c-0.094-3.381-2.466-6.019-9.549-5.833
			c2.025-1.397,4.653-2.21,7.355-2.477c4.364,0.317,8.029,4.181,7.034,11.406c1.686-6.086,0.291-9.447-0.879-11.047
			c0.506,0.111,1,0.238,1.482,0.392c1.865,2.104,4.523,6.35,3.168,12.614c1.974-5.009,1.536-8.465,0.559-10.705
			c0.235,0.189,0.474,0.373,0.68,0.579c3.753,3.685,2.864,9.598,1.719,12.606c5.873-8.309,2.403-19.348-10.455-21.91
			c-10.132-2.024-23.245-1.237-31.937-1.389c-16.9-0.28-16.61-18.429-9.163-22.057c-17.475,4.873-14.324,20.725-11.46,23.588
			c-4.774,0.57-9.453,2.195-12.603,11.075c7.067-4.961,20.432-3.913,26.161-1.913c-13.842,4.585-18.711,8.595-32.174,16.76
			c-10.099,6.123-20.478-6.733-9.455-13.89c-1.284,5.582,1.438,12.741,7.308,13.028c-6.014-2.433-5.73-14.033-4.151-17.038
			C109.497,84.062,111.07,98.242,117.23,101.104z M187.432,82.934c8.777-1.263,10.642,3.666,7.848,9.295
			c-1.641,3.295-4.646,6.713-7.579,9.521C183.01,96.239,184.344,87.794,187.432,82.934z"/>
		<path d="M280.991,46.03c0,0-0.813-1.572-1.697-1.572c-0.882,0-1.571,1.595-1.571,1.595s1.231,1.399,1.571,2.343
			C280.034,46.937,280.991,46.03,280.991,46.03z"/>
		<path d="M274.71,43.335c0.027,0.218,0.767,0.349,0.814,0.524c0.612,2.349,2.258,0.889,2.528-0.048
			C277.268,42.939,275.717,42.236,274.71,43.335z"/>
		<path d="M282.934,43.932c0.047-0.176,0.785-0.304,0.813-0.528c-1.001-1.099-2.399-0.556-3.344,0.478
			C280.669,44.819,282.323,46.281,282.934,43.932z"/>
		<path d="M457.403,286.782c0,4.966,2.861,15.086,9.933,23.868c-4.679-2.293-8.735-7.257-12.557-12.891
			c0.909,3.917,3.3,7.732,4.918,9.643c-6.107-2.768-8.784-8.784-12.365-13.794c0.909,3.962,1.958,6.065,3.105,8.162
			c-2.101,0.19-6.11-3.727-8.496-8.494c-8.33-5.59-14.192-9.813-16.996-14.419c-4.196,3.437-3.054,9.929-3.054,9.929
			s37.615,28.543,54.228,26.636C470.771,310.079,464.278,302.436,457.403,286.782z"/>
		<path d="M264.544,155.471c11.935,5.062,22.53,12.795,22.53,12.795l0.006-0.005l0.01,0.005c0,0,10.595-7.733,22.52-12.795
			c-10.492-0.377-22.52,8.285-22.52,8.285l-0.01,0.01l-0.006-0.01C287.074,163.756,275.048,155.093,264.544,155.471z"/>
		<path d="M411.861,248.764c-11.451-5.729-12.982-18.529-15.274-29.418C396.018,229.281,393.725,245.901,411.861,248.764z"/>
		<path d="M406.328,222.688c1.527,24.262,10.31,31.711,20.62,31.906C421.415,251.535,411.481,245.615,406.328,222.688z"/>
		<path d="M394.3,238.071c-5.021-4.294-6.305-11.464-6.685-22.736C384.56,224.89,384.943,233.869,394.3,238.071z"/>
		<path d="M460.46,275.413c-9.166-17.956-32.076-25.597-41.244-46.996C420.749,255.548,440.606,256.692,460.46,275.413z"/>
		<path d="M147.211,254.594c10.309-0.189,19.091-7.644,20.62-31.906C162.676,245.615,152.744,251.535,147.211,254.594z"/>
		<path d="M186.54,215.335c-0.38,11.271-1.655,18.441-6.68,22.736C189.218,233.869,189.601,224.89,186.54,215.335z"/>
	</g>
	<path d="M413.488,205.12c43.538,27.89,51.651,72.779,53.177,80.039c-11.454-11.275-22.814-17.672-40.001-27.222
		c-4.965-0.577-23.437-7.309-34.173-17.014c-8.983-3.043-14.615-16.802-8.885-27.972c-10.6,6.588-5.155,22.062-5.155,22.062
		s-0.713-0.349-1.807-1.091c-5.679-4.861-8.028-13.308-2.686-22.215c-4.63,3.476-6.354,7.358-6.974,10.142
		c-0.811-4.33-0.728-9.607,4.017-16.063c-3.892,1.716-5.997,4.22-7.121,6.592c-0.029-0.203-0.059-0.407-0.082-0.623
		c0.249-3.938,1.51-10.041,6.63-13.702c-2.125,0.494-3.76,1.38-5.019,2.479c9.504-20.184,45.967-28.336,51.894-47.631
		c3.995-12.997-11.262-18.332-21.499-16.722c-0.132-0.96-0.404-2.411-1.221-2.862c-3.083,10.345-15.78,12.882-25.85,8.258
		c-2.445-4.358,1.478-5.916,4.173-6.897c1-0.36,8.068,2.355,9.064-3.717c2.817-0.272,5.715-0.999,6.717-2.175
		c-2.634,0.086-7.784-0.923-11.25-0.274c-3.899,0.723-4.438,1.726-5.261,3.625c-0.709,1.667-1.981-0.754-4.806-1.54
		c2.996-3.265,11.287-9.537,27.977-3.093c19.857,0.188,29.217,8.161,31.315,17.179c6.3,27.116-38.569,39.911-40.862,56.332
		c8.594-1.242,15.275-0.187,21.575,1.429c-2.001-1.523-6.487-4.289-13.175-5.629c2.584-8.332,25.366-18.71,33.414-34.797
		c7.426-0.358,16.189,1.234,20.721,6.821c-2.935-7.99-11.408-10.119-19.396-9.895c1.132-3.118,1.675-6.441,1.42-9.99
		c7.206,1.235,13.433,3.917,17.331,7.57c6.729,6.306,3.298,19.36-6.804,20.554c-7.874,0.928-11.527-4.086-11.308-7.517
		c-5.923,11.453,6.821,18.375,6.821,18.375s-9.261,24.443,16.518,31.03c-13.176-9.163-10.025-24.921-3.149-32.938
		c6.872-8.022,11.406-18.036,3.722-28.5c-3.442-4.692-12.037-10.114-23.594-11.845c-0.111-0.519-0.228-1.044-0.369-1.566
		c-2.871-10.647-12.658-17.914-32.706-19.88c-13.006-18.989-46.891-20.933-50.161-37.453c2.286,3.008,7.588,5.584,14.459,6.015
		c-7.874-2.436-14.459-9.216-18.282-14.372c-6.093,26.363,38.318,31.245,49.645,44.721c-19.015-5.882-27.967,6.563-27.967,6.563
		s-5.984,0.135-5.214,6.692c-1.365,2.271-4.652,3.796-7.9,5.064c-0.031-1.592,0.06-3.245,0.167-4.887h0.161
		c1.726,0,3.128-1.397,3.128-3.125c0-1.691-1.339-3.059-3.01-3.118c0.783-9.21,9.16-7.836,12.864-6.631
		c-2.723-8.557-12.926-6.226-12.926-6.226s1.261-11.276-4.187-15.161c-5.443,3.885-4.178,15.161-4.178,15.161
		s-10.209-2.331-12.933,6.226c3.705-1.205,12.086-2.579,12.868,6.631c-1.674,0.059-3.012,1.427-3.012,3.118
		c0,1.729,1.398,3.125,3.127,3.125h0.166c0.404,6.421,0.68,13.033-6.438,15.51c4.354,2.325,8.705,0.528,10.399-2.028
		c1.695,2.557,6.05,4.354,10.405,2.028c-3.49-1.212-5.198-3.42-5.989-6.108c4.938-0.633,9.402,0,14.544-0.967
		c4.077,1.363,20.133,5.532,29.203-6.258c0.809-0.064,1.614-0.111,2.401-0.142c-0.233,7.703-5.033,14.121-11.029,17.718
		c-9.54,5.731-32.076,10.211-46.203,1.432c-8.879-5.52-15.646-17.517-26.175-24.915c3.371-0.408,5.196-2.592,5.784-4.887
		c0.796-3.1-0.451-7.077-3.667-9.529l0.043-30.316l0,0v-9.931l-2.215,1.154l-3.516-18.964v-0.588
		c0.695-0.225,1.201-0.871,1.201-1.654c0-0.958-0.774-1.741-1.72-1.741c-0.952,0-1.719,0.783-1.719,1.741
		c0,0.798,0.522,1.459,1.236,1.669v0.583l-3.509,18.949l-2.211-1.148v7.975h-0.013v5.156h-0.551
		c-1.325-3.041-2.66-6.306-4.798-12.129c1.004,0.862,4.012,2.437,4.727,2.581c-2.72-9.451-5.401-25.653-15.563-31.604
		c-0.411-0.246-1.312-1.217-1.241-3.058c0.078-1.844,0.166-5.44-1.574-7.452c-1.386-1.604-3.993-2.086-6.16-2.148
		c-1.815-0.057-3.382,0.162-4.914,1.097c-4.393,2.677-3.152,10.791-3.152,10.791s-0.767,3.633-0.767,5.165
		c-5.916,8.212,3.725,15.825,6.879,18.763c0.832,6.395,1.145,6.728,1.715,10.167c-0.143,1.233-0.83,5.671-2.629,7.828h-6.714
		l-0.014-13.128l-2.213,1.152l-3.515-18.955v-0.583c0.718-0.209,1.243-0.868,1.243-1.669c0-0.958-0.773-1.741-1.721-1.741
		c-0.953,0-1.719,0.783-1.719,1.741c0,0.783,0.505,1.433,1.198,1.657v0.595l-3.503,18.904l-2.227-1.102v7.972v0.074v1.882h0.002
		l0.042,30.316c-3.213,2.452-4.465,6.43-3.668,9.529c0.59,2.299,2.413,4.483,5.783,4.887c-10.525,7.398-17.295,19.395-26.173,24.915
		c-14.127,8.779-36.662,4.299-46.206-1.432c-5.994-3.597-10.781-10.015-11.021-17.718c0.788,0.03,1.587,0.08,2.395,0.146
		c9.07,11.79,25.123,7.617,29.206,6.257c5.14,0.964,9.604,0.331,14.543,0.967c-0.796,2.685-2.504,4.893-5.994,6.105
		c4.359,2.325,8.713,0.528,10.405-2.028c1.699,2.557,6.045,4.354,10.405,2.028c-7.125-2.477-6.846-9.086-6.439-15.507h0.165
		c1.726,0,3.125-1.398,3.125-3.129c0-1.691-1.337-3.057-3.011-3.118c0.785-9.208,9.162-7.836,12.869-6.631
		c-2.723-8.557-12.931-6.226-12.931-6.226s1.266-11.276-4.183-15.161c-5.444,3.885-4.181,15.161-4.181,15.161
		s-10.208-2.331-12.929,6.226c3.705-1.205,12.082-2.576,12.864,6.631c-1.67,0.061-3.01,1.427-3.01,3.118
		c0,1.731,1.397,3.129,3.13,3.129h0.161c0.107,1.642,0.201,3.292,0.166,4.883c-3.247-1.268-6.533-2.792-7.897-5.064
		c0.765-6.557-5.218-6.692-5.218-6.692s-8.95-12.446-27.965-6.563c11.326-13.473,55.739-18.358,49.64-44.721
		c-3.816,5.156-10.405,11.938-18.279,14.372c6.873-0.43,12.173-3.007,14.463-6.015c-3.278,16.518-37.145,18.46-50.164,37.431
		c-20.068,1.968-29.837,9.249-32.707,19.902c-0.141,0.525-0.261,1.047-0.369,1.566c-11.556,1.731-20.15,7.153-23.596,11.845
		c-7.684,10.464-3.15,20.478,3.723,28.5c6.875,8.016,10.025,23.774-3.148,32.938c25.775-6.587,16.515-31.025,16.515-31.025
		s12.746-6.927,6.825-18.38c0.22,3.434-3.436,8.445-11.312,7.517c-10.094-1.193-13.535-14.248-6.801-20.554
		c3.903-3.653,10.119-6.35,17.336-7.585c-0.264,3.556,0.288,6.888,1.422,10.011c-7.993-0.224-16.476,1.897-19.406,9.894
		c4.527-5.591,13.3-7.18,20.726-6.82c8.053,16.083,30.826,26.464,33.411,34.792c-6.685,1.341-11.172,4.106-13.178,5.629
		c6.307-1.616,12.985-2.667,21.579-1.429c-2.289-16.418-47.163-29.216-40.862-56.328c2.095-9.021,11.456-16.994,31.312-17.183
		c16.692-6.444,24.984-0.172,27.978,3.093c-2.822,0.79-4.094,3.207-4.81,1.543c-0.813-1.902-1.356-2.905-5.26-3.628
		c-3.461-0.648-8.612,0.36-11.246,0.274c0.999,1.176,3.903,1.902,6.713,2.175c1.002,6.075,8.069,3.356,9.071,3.717
		c2.692,0.981,6.618,2.539,4.169,6.897c-10.067,4.624-22.766,2.086-25.847-8.258c-0.816,0.451-1.089,1.902-1.223,2.862
		c-10.235-1.609-25.497,3.729-21.5,16.722c5.933,19.298,42.394,27.447,51.895,47.631c-1.259-1.099-2.893-1.985-5.019-2.479
		c5.12,3.661,6.383,9.763,6.633,13.702c-0.025,0.216-0.051,0.42-0.083,0.623c-1.124-2.372-3.23-4.875-7.125-6.587
		c4.749,6.451,4.832,11.729,4.02,16.058c-0.619-2.784-2.343-6.666-6.978-10.142c5.346,8.907,2.991,17.357-2.686,22.215
		c-1.091,0.742-1.801,1.091-1.801,1.091s5.441-15.475-5.156-22.062c5.73,11.17,0.096,24.929-8.89,27.972
		c-10.729,9.705-29.203,16.44-34.168,17.014c-17.184,9.55-28.548,15.947-40.002,27.222c1.527-7.26,9.643-52.148,53.177-80.039
		c-50.029,22.535-59.193,79.182-58.811,90.924c4.239-4.534,11.631-11.822,24.553-18.943c-1.058,2.846-2.667,7.458-3.74,11.926
		c2.728-6.276,6.097-10.942,8.885-14.125c-0.816,2.628-1.831,6.505-2.153,10.401c2.739-5.56,6.034-10.371,8.531-13.677
		c-0.87,2.506-1.813,5.966-2.377,10.383c1.97-4.532,4.476-8.788,6.743-12.229c7.152-2.408,4.622,2.676,4.622,2.676
		s9.929-12.796,22.914-13.184c-3.437,1.531-11.036,7.291-9.929,6.881c3.625-1.341,7.022-2.678,8.397-2.678
		c4.966,0,0.49,5.055-2.097,10.512c-5.446,11.458-7.731,18.331-7.447,21.77c0.333,4.037-4.391,2.287-5.345-2.001
		c0,1.813-0.383,2.289-0.383,5.346c0,3.049,6.875,11.357,7.447,19.185c4.769-0.957,4.915,2.152,13.314,2.533
		c0.056,0,0.107,0,0.159,0.003c-12.146,7.014-23.37,13.321-30.678,15.536c-3.627,1.096-7.646,2.157-11.459,2.601
		c1.402-2.926,3.463-5.32,5.943-6.684c-4.295-7.021-10.598-13.033-17.093-16.567c-11.454-0.286-17.948,19.095-10.309,25.59
		c4.878,0.576,14.711,16.911,23.517,23.069c2.205,1.724,4.959,2.793,8.541,2.793c1.393,0,2.909-0.161,4.567-0.501
		c13.942-2.875,29.722-12.047,46.434-21.757c17.575-10.205,35.6-20.676,51.12-23.15c2.884,5.493-7.417,11.359-11.116,12.771
		c-2.32,0.878-5.92,1.327-4.109,3.556c0.23,0.294,0.44,0.555,0.626,0.785c5.578,7.003,11.107,14.86,16.025,26.674l0.188,0.451
		l0.398,0.284c5.549,3.972,27.019,5.849,40.502,5.92c0.011,0,0.02,0,0.029,0c0.012,0,0.019,0,0.032,0
		c13.483-0.071,34.944-1.951,40.498-5.92l0.397-0.284l0.186-0.451c4.919-11.813,10.441-19.671,16.029-26.674
		c0.183-0.225,0.393-0.491,0.62-0.785c1.818-2.229-1.786-2.678-4.104-3.556c-3.702-1.411-13.997-7.277-11.117-12.771
		c15.518,2.475,33.544,12.945,51.121,23.15c16.706,9.707,32.492,18.882,46.428,21.757c1.659,0.34,3.177,0.499,4.569,0.499
		c3.58,0,6.327-1.059,8.529-2.783c8.81-6.151,18.648-22.501,23.536-23.079c7.633-6.493,1.141-25.874-10.313-25.588
		c-6.498,3.534-12.8,9.546-17.095,16.567c2.482,1.363,4.547,3.758,5.947,6.684c-3.812-0.443-7.832-1.505-11.463-2.601
		c-7.302-2.215-18.529-8.522-30.676-15.536c0.058-0.003,0.101-0.003,0.158-0.003c8.399-0.385,8.547-3.49,13.316-2.533
		c0.567-7.827,7.449-16.136,7.449-19.185c0-3.057-0.382-3.532-0.38-5.35c-0.959,4.292-5.688,6.038-5.351,2.005
		c0.286-3.438-2.001-10.311-7.449-21.774c-2.587-5.456-7.06-10.508-2.102-10.508c1.381,0,4.777,1.334,8.399,2.678
		c1.113,0.41-6.485-5.35-9.927-6.881c12.983,0.382,22.917,13.182,22.917,13.184c0,0-2.531-5.084,4.621-2.683
		c2.264,3.449,4.773,7.705,6.738,12.236c-0.565-4.417-1.506-7.876-2.374-10.383c2.498,3.307,5.792,8.118,8.532,13.677
		c-0.323-3.896-1.333-7.773-2.154-10.401c2.786,3.183,6.16,7.849,8.883,14.125c-1.071-4.474-2.68-9.08-3.737-11.926
		c12.922,7.121,20.309,14.409,24.557,18.94C472.681,284.299,463.519,227.655,413.488,205.12z M378.346,130.145
		c0.952,0,1.722,0.688,1.722,1.54c0,0.855-0.77,1.543-1.722,1.543c-0.95,0-1.719-0.688-1.719-1.543
		C376.627,130.833,377.396,130.145,378.346,130.145z M195.814,133.23c-0.953,0-1.724-0.688-1.724-1.545
		c0-0.851,0.771-1.54,1.724-1.54c0.95,0,1.719,0.688,1.719,1.54C197.533,132.542,196.764,133.23,195.814,133.23z M391.527,260.224
		c0,0-12.218-5.726-16.419-19.485C381.219,248.005,391.527,260.224,391.527,260.224z M401.641,138.625
		c4.578,0.225,8.509,1.412,11.082,4.533c0.648,0.79,1.135,1.66,1.482,2.597c-4.415,0.675-9.046,1.918-13.826,3.91
		C401.428,146.03,401.847,142.269,401.641,138.625z M388.534,166.887c1.722-0.754,7.366-3.133,12.16-4.25
		c-3.195-0.171-6.314,0.409-8.311,0.901c0.642-0.665,1.245-1.356,1.822-2.066c2.877-0.963,7.268-2.339,10.882-3.04
		c-3.421-0.275-6.902,0.311-9.232,0.857c0.438-0.639,0.841-1.292,1.228-1.955c2.769-1,6.717-2.333,10.008-3.104
		c-3.454,0.051-6.52,0.428-8.778,0.81c0.296-0.609,0.58-1.223,0.837-1.846c5.004-2.43,10.338-3.895,15.614-4.563
		c0.149,4.253-2.365,9.374-8.154,14.387c-0.329,0.287-0.694,0.58-1.093,0.885c-10.418,3.341-20.504,7.313-28.116,8.278
		C381.668,171.061,385.38,169.219,388.534,166.887z M325.462,179.437c-6.329-9.138-6.329-17.884-6.113-20.766
		c6.728,14.945,16.637,34.572,40.48,26.117c-14.702-1.146-22.719-11.653-24.135-17.241c7.812,4.444,15.751,8.002,26.619,8.552
		c11.548,0.577,22.883-2.775,33.963-6.362c-18.188,10.617-48.54,27.169-35.867,50.661c1.145,8.787,5.34,17.19,8.4,23.688
		c3.056,6.497,6.876,11.083,8.396,12.987c1.529,1.916,2.581,9.94-7.346,9.171c-9.932-0.76-11.255-2.104-13.466-6.396
		c-3.244-6.307-0.378-12.797-2.102-15.093c-2.08-2.77-1.711-8.462-3.625-10.604c-0.429-0.474-1.168-1.118-1.921-1.349
		c0.008-8.431,0-15.87-0.002-23.534c-0.008-5.305-0.011-10.756-0.011-16.764v-1.994l-1.992-0.009
		c-3.595-0.018-12.583-0.012-20.15-0.006l-0.215-0.369c-0.188-0.319-4.489-7.529-14.371-8.842c-0.55-2.57,0.132-7.174,1.073-12.555
		C315.263,171.321,320.438,177.036,325.462,179.437z M344.689,252.655c-0.009,2.739-0.019,5.604-0.036,8.614
		c-0.036,7.153-2.593,15.309-6.709,23.618l-44.172-32.068v-38.008c2.759-1.622,5.496-3.827,7.678-5.919l1.312-1.259l-1.326-1.238
		c-1.62-1.507-1.634-3.186-1.357-4.332c0.458-1.93,2.058-3.653,3.88-4.175c1.507-0.438,2.979,0,4.265,1.249l1.563,1.531l1.117-1.882
		c1.146-1.944,2.489-3.3,3.88-4.264c2.144-0.005,21.738-0.035,29.942-0.018c0,5.231,0.005,10.058,0.007,14.769
		c0.007,10.979,0.021,21.517-0.016,35.157c-0.865,0.103-2.355,0.331-4.171,1.663C342.476,246.957,343.748,249.58,344.689,252.655z
		 M287.081,339.3c-13.121-5.864-31.687-23.65-44.16-42.771l44.163-32.044l44.154,32.044
		C318.765,315.649,300.205,333.436,287.081,339.3z M311.62,326.192c0.57,4.987,5.687,10.788,8.458,13.598
		c-9.417,0.998-19.493,1.446-28.267,1.627C297.828,338.122,304.737,332.783,311.62,326.192z M287.09,341.49l-0.01,0.038
		l-0.006-0.038l0.006-0.018L287.09,341.49z M282.354,341.417c-8.773-0.181-18.854-0.629-28.273-1.627
		c2.771-2.81,7.888-8.61,8.454-13.598C269.425,332.783,276.338,338.122,282.354,341.417z M229.441,244.43
		c-0.036-13.64-0.024-24.178-0.016-35.157c0.002-4.711,0.007-9.538,0.007-14.769c8.206-0.018,27.799,0.015,29.941,0.018
		c1.391,0.964,2.734,2.32,3.884,4.264l1.113,1.888l1.564-1.537c1.289-1.249,2.764-1.687,4.271-1.249
		c1.824,0.522,3.416,2.245,3.879,4.175c0.275,1.146,0.257,2.824-1.354,4.332l-1.329,1.238l1.313,1.259
		c2.182,2.097,4.928,4.302,7.688,5.93v37.99l-44.187,32.075c-4.118-8.309-6.678-16.465-6.714-23.618
		c-0.014-3.01-0.022-5.875-0.033-8.614c0.938-3.075,2.213-5.698,4.145-6.562C231.798,244.761,230.304,244.533,229.441,244.43z
		 M267.154,150.912c1.869,0.525,3.405,0.963,4.004,1.132c9.301,2.832,15.916,6.196,15.916,6.196l0.006-0.036l0.01,0.036
		c0,0,6.609-3.364,15.912-6.196c0.601-0.169,2.137-0.607,4.009-1.132c0.515-0.139,1.028-0.272,1.559-0.405
		c-0.019-0.008-0.034-0.018-0.053-0.023c0.19-0.056,0.383-0.11,0.572-0.162c0.789-0.228,3.133-2.374,3.797-5.404l0,0
		c-0.397,7.501-1.688,14.749-2.753,20.725c-1.228,6.917-2.154,12.222-1.546,15.867c-2.17,0.647-4.08,1.56-5.793,2.66
		c0.131-3.39,0.646-11.176,2.623-21.057c-5.529,4.977-6.354,19.227-6.471,24.002c-1.659,1.482-3.14,3.062-4.546,4.568
		c-2.596,2.774-4.854,5.176-7.32,5.928c-2.468-0.752-4.724-3.154-7.32-5.928c-1.408-1.506-2.886-3.085-4.542-4.568
		c-0.119-4.775-0.943-19.026-6.473-24c1.979,9.88,2.491,17.664,2.623,21.054c-1.71-1.1-3.628-2.013-5.792-2.66
		c0.604-3.646-0.324-8.951-1.552-15.867c-1.06-5.976-2.352-13.223-2.75-20.725l0,0c0.66,3.031,3.01,5.177,3.799,5.404
		c0.188,0.056,0.382,0.106,0.57,0.162c-0.016,0.006-0.034,0.019-0.049,0.026C266.121,150.64,266.64,150.776,267.154,150.912z
		 M264.963,184.886c5.346,1.735,9.028,5.653,12.294,9.146c2.904,3.105,5.661,6.042,9.175,6.961c0.154,0.056,0.297,0.095,0.425,0.106
		c0.06,0.013,0.137,0.019,0.23,0.019c0.085,0,0.153-0.005,0.212-0.013c0.132-0.017,0.282-0.056,0.443-0.112
		c3.508-0.922,6.259-3.856,9.164-6.961c3.218-3.433,6.821-7.284,12.026-9.056c1.009-0.384,1.64-0.384,1.64-0.384
		c4.937,0.398,8.3,2.528,10.349,4.378c-3.77,0.233-8.46,1.803-11.901,6.444c-1.844-1.137-3.923-1.438-6.018-0.835
		c-2.998,0.872-5.516,3.554-6.268,6.687c-0.527,2.225-0.116,4.426,1.147,6.249c-3.99,3.561-8.188,6.019-10.801,6.279
		c-2.611-0.266-6.805-2.718-10.798-6.279c1.259-1.823,1.675-4.024,1.149-6.249c-0.751-3.133-3.271-5.815-6.27-6.681
		c-2.097-0.609-4.178-0.308-6.021,0.832c-3.445-4.644-8.138-6.213-11.905-6.444c2.048-1.854,5.417-3.978,10.352-4.381
		C263.588,184.592,263.928,184.553,264.963,184.886z M286.603,217.198l-0.087,0.047l-0.112-0.074
		C286.471,217.182,286.537,217.194,286.603,217.198z M308.704,81.725l2.004-3.536l2.032,3.536c0,0-0.007,3.095-0.009,7.44H308.7
		C308.704,84.833,308.704,81.725,308.704,81.725z M308.7,91.572h4.031c-0.005,2.02-0.005,4.198-0.008,6.401h-4.027
		C308.698,95.777,308.698,93.594,308.7,91.572z M308.696,100.242h4.027c-0.01,8.218-0.012,16.092-0.01,16.222
		c-1.155-0.394-2.694-0.827-4.021-1.132C308.693,114.951,308.693,107.834,308.696,100.242z M307.455,118.625
		c1.914,0.438,3.703,0.921,5.243,1.436c3.48,1.162,5.148,4.586,4.512,7.053c-0.474,1.844-2.153,2.638-4.716,2.289
		c-3.098-3.105-2.613-7.507-6.097-11.017C306.597,118.429,307.455,118.625,307.455,118.625z M309.078,138.578
		c0.249,2.188,0.137,3.626-0.186,4.728c-1.379-2.65-4.728-7.467-11.925-10.269c5.142,3.558,7.729,9.893,8.889,14.007
		c-0.561,0.201-1.235,0.392-1.978,0.57c-0.743-0.432-1.548-0.859-2.47-1.303c-8.308,0.715-14.319,4.415-14.319,4.415l-0.01,0.036
		l-0.006-0.033c0,0-6.012-3.702-14.32-4.417c-0.921,0.443-1.724,0.871-2.466,1.303c-0.751-0.178-1.42-0.369-1.983-0.57
		c1.163-4.111,3.75-10.446,8.887-14.007c-7.195,2.802-10.546,7.619-11.921,10.272c-0.324-1.105-0.438-2.543-0.188-4.731
		c3.137-4.356,6.857-7.266,12.366-8.672c2.39-0.366,4.88-0.646,7.767-0.797c0.146,2.378,0.718,10.9,1.829,19.103
		c0.011,0.098,0.022,0.195,0.029,0.292c0.002-0.011,0.006-0.025,0.006-0.038c0.003,0.013,0.007,0.027,0.01,0.038
		c0.006-0.097,0.015-0.194,0.028-0.289c1.111-8.206,1.684-16.733,1.83-19.106c2.886,0.147,5.374,0.431,7.765,0.797
		C302.226,131.312,305.939,134.222,309.078,138.578z M297.108,116.831c4.093,3.265,4.393,8.15,6.473,10.771
		c-1.508-0.384-3.095-0.664-4.751-0.833c-1.423-0.246-2.855-0.461-4.361-0.642c-3.339-2.776-3.625-7.351-8.448-9.972
		c0.378-0.009,0.749-0.011,1.116-0.011C290.17,116.151,293.622,116.408,297.108,116.831z M291.016,112.827
		c0.013-1.431,0.036-3.395,0.083-5.649c0.047-2.323,3.771-4.081,3.771-4.081s0.004,0.012,0.004,0.015
		c0.041,0.02,3.719,1.77,3.769,4.077c0.054,2.663,0.077,4.919,0.087,6.374C296.119,113.217,293.507,112.965,291.016,112.827z
		 M273.327,49.971c-0.188-2.96-0.427-7.067,1.865-9.506c1.096-0.998,2.625-0.903,4.102-0.934c1.601-0.026,2.992,0.397,3.679,1.079
		c2.005,2.006,1.529,7.553,1.739,8.572c0.266,1.267,1.001,1.722,1.434,2.148c3.855,3.631,8.729,8.991,12.017,19.603
		c-2.727-2.066-6.669-6.294-10.988-10.703c1.125,6.291,13.616,17.28,13.616,17.28S280.966,66.59,282.875,54.75
		c-4.677,4.201-1.482,12.604,0.953,14.608c-0.094,1.334-0.282,2.009-0.282,3.817C269.13,64.778,272.29,53.875,273.327,49.971z
		 M288.031,84.919c0,0,1.332-1,2.623-2.007c0.977,1.41,2.471,4.672,4.046,8.408h-6.571c-0.407-0.272-0.708-0.646-0.664-1.126
		C287.796,86.878,288.031,84.919,288.031,84.919z M286.696,81.391c-0.194-0.769-1.625-4.202-1.337-8.977
		c4.293,2.769,4.004,7.544,4.004,7.544S287.982,81.391,286.696,81.391z M281.637,85.111c1.051-0.763,3.34-2.104,3.34-2.104
		s0.434,4.255-1.209,8.312h-1.876l-0.614-1.028C281.277,90.291,280.488,86.163,281.637,85.111z M280.633,74.036
		c0.858,0.571,1.765,1.001,3.148,1.581c0.239,1.326,0.479,2.763,0.622,3.669c-1.051,1.911-2.578,2.2-2.578,2.2
		S281.208,79.479,280.633,74.036z M269.712,98.056l34.741-0.003v2.24h-34.741V98.056z M283.146,112.827
		c-2.488,0.139-5.104,0.39-7.71,0.736c0.008-1.454,0.033-3.71,0.087-6.374c0.049-2.304,3.725-4.057,3.767-4.077
		c0-0.003,0.004-0.015,0.004-0.015s3.725,1.757,3.772,4.081C283.11,109.435,283.137,111.396,283.146,112.827z M277.403,116.786
		c4.366,2.213,5.728,6.43,7.84,8.882c-3.097,0.151-5.75,0.449-8.276,0.833c-3.542-2.083-4.682-6.211-9.276-8.099
		C270.742,117.732,274.087,117.182,277.403,116.786z M265.54,115.344c-1.333,0.301-2.867,0.738-4.029,1.125
		c0.009-0.127,0-7.99-0.004-16.204h4.028C265.54,107.845,265.54,114.96,265.54,115.344z M265.535,97.993h-4.033
		c0-2.205-0.002-4.382-0.007-6.397h4.033C265.531,93.614,265.531,95.804,265.535,97.993z M263.523,78.199l2.005,3.537
		c0,0,0,3.114,0,7.45h-4.033c-0.004-4.35-0.007-7.45-0.007-7.45L263.523,78.199z M256.946,127.114
		c-0.532-2.083,0.583-4.831,3.036-6.338c4.061,1.854,5.947,5.641,8.465,7.334c-1.923,0.393-3.979,0.807-6.312,1.235
		C259.293,129.864,257.451,129.073,256.946,127.114z M161.433,143.158c2.58-3.116,6.504-4.306,11.083-4.533
		c-0.201,3.644,0.214,7.405,1.268,11.04c-4.787-1.992-9.413-3.235-13.828-3.907C160.301,144.822,160.784,143.948,161.433,143.158z
		 M167.543,163.017c-5.779-5.005-8.297-10.125-8.149-14.38c5.279,0.667,10.611,2.126,15.617,4.556
		c0.259,0.623,0.539,1.237,0.836,1.846c-2.26-0.382-5.325-0.759-8.782-0.803c3.295,0.765,7.244,2.1,10.009,3.098
		c0.392,0.663,0.792,1.316,1.232,1.957c-2.334-0.548-5.813-1.134-9.234-0.856c3.611,0.697,8.002,2.074,10.881,3.037
		c0.577,0.71,1.176,1.404,1.822,2.066c-1.998-0.493-5.117-1.072-8.312-0.901c4.793,1.118,10.443,3.499,12.16,4.252
		c3.157,2.331,6.867,4.172,11.139,5.292c-7.61-0.963-17.693-4.928-28.11-8.271C168.245,163.606,167.878,163.304,167.543,163.017z
		 M205.351,244.085c3.057-6.497,7.255-14.901,8.4-23.688c12.667-23.492-17.678-40.041-35.868-50.658
		c11.078,3.587,22.415,6.936,33.957,6.359c10.872-0.546,18.811-4.104,26.623-8.552c-1.415,5.588-9.432,16.096-24.137,17.241
		c23.846,8.455,33.76-11.172,40.487-26.117c0.21,2.881,0.208,11.627-6.115,20.769c5.022-2.404,10.197-8.119,12.381-10.711
		c0.939,5.381,1.624,9.985,1.076,12.555c-9.884,1.312-14.186,8.523-14.372,8.842l-0.214,0.369
		c-7.568-0.005-16.558-0.011-20.151,0.006l-1.994,0.012v1.994c0,6.004-0.007,11.456-0.009,16.761
		c-0.012,7.664-0.012,15.104-0.007,23.537c-0.745,0.234-1.489,0.872-1.916,1.346c-1.914,2.142-1.545,7.834-3.631,10.604
		c-1.719,2.296,1.149,8.786-2.097,15.093c-2.211,4.292-3.535,5.636-13.466,6.401c-9.926,0.765-8.878-7.26-7.351-9.173
		C198.477,255.168,202.295,250.582,205.351,244.085z M199.051,240.739c-4.201,13.759-16.421,19.489-16.421,19.489
		S192.938,248.005,199.051,240.739z M165.348,307.79c-1.719-5.159-0.859-14.035,1.815-19.005c1.813-3.372,5.916-8.892,8.961-11.616
		c1.442-1.298,4.833-3.76,10.134-10.496c-1.292,4.872-3.868,7.458-5.871,10.173c0.402,0.577,1.572,1.912,2.718,2.293
		c2.29,0.768,12.512-5.348,32.365-6.685c0.572-2.869,6.49-4.78,10.124-6.113c0.085-0.029,0.167-0.092,0.25-0.165
		c1.223,9.42,5.604,19.091,10.564,27.458c-8.731-0.907-21.863,4.703-36.284,12.378c-1.335-1.176-4.523-3.319-7.374-0.133
		c-2.484,1.336-8.97,5.109-15.66,6.867C168.929,314.903,166.322,310.706,165.348,307.79z M191.693,341.931
		c-16.459,9.562-32.011,18.597-45.403,21.359c-4.983,1.03-8.331,0.186-10.888-2.119c-0.874-0.865-1.641-1.785-2.296-2.736
		c-0.022-0.031-0.049-0.069-0.071-0.111c-0.089-0.123-0.17-0.26-0.255-0.393c-0.387-0.624-0.751-1.289-1.111-1.996
		c-2.066-4.346-2.258-9.178-1.153-13.418c4.597-0.321,9.441-1.563,13.759-2.871c8.426-2.551,21.398-10.059,35.134-18.008
		c0.893-0.518,1.795-1.041,2.701-1.563c1.735-0.372,2.49-0.498,3.002,0.744c2.338-1.384,2.435-2.578,2.721-3.58
		c2.291-1.293,5.012-3.149,6.157-1.577c0.541-1.272,0.607-2.1,0.502-2.644c18.147-10.105,36.468-18.872,44.496-15.22
		c3.123,4.835,6.293,9.073,8.907,12.351c2.137,2.68,4.357,5.284,6.62,7.782C236.021,316.184,213.519,329.256,191.693,341.931z
		 M339.016,340.143c-4.825,6.908-9.538,13.443-13.786,23.584c-4.911,2.895-23.717,4.966-38.149,5.038
		c-14.431-0.072-33.243-2.144-38.15-5.038c-4.25-10.141-8.958-16.676-13.785-23.578c14.208,3.617,34.989,4.338,51.929,4.515
		l0.006-0.032l0.01,0.032C304.025,344.486,324.805,343.766,339.016,340.143z M429.887,339.646c4.317,1.308,9.164,2.55,13.758,2.871
		c1.11,4.248,0.911,9.082-1.16,13.428c-0.354,0.697-0.717,1.35-1.088,1.961c-0.101,0.146-0.186,0.297-0.284,0.442
		c-0.014,0.025-0.029,0.047-0.045,0.073c-0.655,0.954-1.429,1.88-2.303,2.75c-2.564,2.301-5.909,3.145-10.896,2.119
		c-13.391-2.763-28.938-11.798-45.404-21.359c-21.827-12.675-44.326-25.747-62.822-24c2.265-2.498,4.481-5.103,6.621-7.782
		c2.615-3.281,5.785-7.518,8.907-12.358c8.03-3.645,26.345,5.122,44.494,15.228c-0.104,0.544-0.037,1.371,0.506,2.644
		c1.145-1.574,3.866,0.284,6.157,1.577c0.284,1.002,0.375,2.196,2.717,3.58c0.516-1.242,1.268-1.116,3.003-0.744
		c0.905,0.519,1.811,1.046,2.702,1.563C408.483,329.587,421.462,337.095,429.887,339.646z M406.997,288.785
		c2.671,4.97,3.527,13.846,1.812,18.999c-0.975,2.922-3.581,7.119-11.742,4.963c-6.689-1.758-13.177-5.531-15.661-6.867
		c-2.848-3.19-6.038-1.043-7.373,0.127c-14.419-7.669-27.558-13.279-36.284-12.372c4.961-8.367,9.342-18.041,10.566-27.458
		c0.081,0.073,0.163,0.136,0.248,0.165c3.633,1.333,9.554,3.244,10.123,6.113c19.856,1.337,30.075,7.453,32.365,6.685
		c1.149-0.382,2.315-1.717,2.724-2.293c-2.009-2.714-4.587-5.301-5.874-10.173c5.3,6.736,8.69,9.198,10.13,10.496
		C401.077,279.893,405.182,285.413,406.997,288.785z"/>
</g>
<g>
	<path d="M50.928,435.8c0,7.195,3.569,10.519,11.364,10.519c7.555,0,11.06-3.014,11.06-9.611v-17.23
		c0-2.415-0.845-3.515-3.137-3.993c-1.031-0.241-1.332-0.422-1.332-0.969c0-0.539,0.301-0.721,0.965-0.721
		c0.718,0,2.781,0.238,4.594,0.238c1.81,0,3.566-0.238,4.291-0.238c0.728,0,1.028,0.182,1.028,0.659c0,0.549-0.486,0.91-1.691,1.33
		c-1.207,0.426-2.18,0.911-2.18,3.693v16.925c0,8.286-5.377,12.829-15.407,12.829c-10.034,0-15.536-4.059-15.536-11.431v-18.748
		c0-2.058-1.019-3.09-3.382-3.514c-1.148-0.234-1.452-0.477-1.452-1.023c0-0.721,0.721-0.721,2.058-0.721
		c1.204,0,3.981,0.238,5.859,0.238c2.181,0,4.47-0.238,5.804-0.238c0.847,0,1.757-0.063,1.757,0.779c0,0.429-0.311,0.608-1.335,0.79
		c-2.417,0.362-3.326,1.451-3.326,3.808V435.8z"/>
	<path d="M93.006,418.563c-1.999-2.354-2.904-3.025-4.588-3.26c-0.673-0.184-0.854-0.302-0.854-0.789
		c0-0.482,0.251-0.721,0.731-0.721c0.362,0,4.416,0.238,4.771,0.238c0.363,0,2.538-0.238,2.96-0.238c0.608,0,0.912,0.118,1.63,0.843
		l23.395,24.794v-19.354c0-2.96-1.333-4.476-4.237-4.835c-0.722-0.061-1.388-0.181-1.388-0.728c0-0.603,0.301-0.721,1.03-0.721
		c0.727,0,4.537,0.238,5.5,0.238c0.968,0,4.534-0.238,5.138-0.238s0.905,0.118,0.905,0.605c0,0.42-0.181,0.541-1.026,0.721
		c-2.477,0.481-3.505,2.056-3.505,5.321v27.455c0,0.967-0.121,1.204-0.731,1.204c-0.292,0-0.599-0.121-0.78-0.237l-26.717-28.114
		v20.434c0,3.989,1.088,5.619,4.172,6.039c0.91,0.124,1.149,0.186,1.149,0.793c0,0.543-0.364,0.724-1.688,0.724
		c-1.033,0-3.568-0.239-5.086-0.239c-1.451,0-4.407,0.239-5.012,0.239c-0.356,0-0.546-0.239-0.546-0.604
		c0-0.481,0.19-0.599,1.028-0.788c2.839-0.481,3.75-2.174,3.75-6.949V418.563z"/>
	<path d="M147.564,442.028c0,3.26,0.841,4.476,3.506,4.951c1.145,0.242,1.451,0.428,1.451,0.977c0,0.843-0.971,0.782-2.24,0.782
		c-1.332,0-3.496-0.239-5.504-0.239c-1.927,0-5.251,0.239-6.401,0.239c-1.031,0-1.632-0.059-1.632-0.782
		c0-0.304,0.306-0.489,1.209-0.668c2.714-0.486,3.747-1.871,3.747-5.202v-22.188c0-2.836-1.332-4.296-4.226-4.655
		c-0.793-0.122-1.211-0.181-1.211-0.789c0-0.478,0.298-0.659,1.211-0.659c0.542,0,5.011,0.238,7.008,0.238
		c2.172,0,5.316-0.238,5.919-0.238c0.908,0,1.632,0,1.632,0.605c0,0.42-0.181,0.603-1.028,0.843
		c-2.421,0.72-3.441,2.237-3.441,4.896V442.028z"/>
	<path d="M164.822,418.386c-0.905-1.812-1.929-2.66-3.81-3.022c-0.903-0.182-1.149-0.361-1.149-0.849
		c0-0.539,0.548-0.721,1.388-0.721c0.485,0,4.176,0.238,6.173,0.238c1.813,0,4.646-0.238,6.043-0.238c0.541,0,1.14,0,1.14,0.659
		c0,0.428-0.239,0.608-1.206,0.789c-0.905,0.121-2.354,0.425-2.354,1.991c0,0.671,0.302,1.695,0.966,2.962l10.088,20.803
		l8.95-19.285c1.209-2.479,1.572-3.629,1.572-4.414c0-1.032-0.476-1.573-1.874-1.995c-0.782-0.242-1.024-0.423-1.024-0.851
		c0-0.478,0.48-0.659,1.024-0.659s3.019,0.238,4.414,0.238c1.326,0,3.44-0.238,4.107-0.238c0.675,0,0.97,0.118,0.97,0.539
		c0,0.548-0.295,0.729-1.331,0.971c-2.361,0.539-3.085,1.271-4.773,4.892l-13.054,28.124c-0.248,0.544-0.367,1.023-0.845,1.023
		c-0.49,0-0.731-0.544-1.333-1.75L164.822,418.386z"/>
	<path d="M236.64,448.72l-14.807-0.239l-13.471,0.239c-1.455,0-1.455-0.417-1.455-0.723c0-0.547,0.476-0.728,1.874-0.905
		c2.365-0.365,3.027-1.278,3.027-4.116v-23.277c0-2.776-0.553-3.509-3.395-4.048c-1.14-0.185-1.446-0.364-1.446-0.974
		c0-0.297,0.186-0.662,1.087-0.662h21.758l5.5-0.239l2.358,8.886c0.119,0.238,0.119,0.486,0.119,0.666
		c0,0.482-0.237,0.726-0.664,0.726c-0.422,0-0.659-0.181-1.028-0.726c-2.595-4.416-7.25-7.323-12.388-7.323h-5.981v12.639h9.972
		c2.472,0,3.267-0.597,3.745-2.895c0.304-1.277,0.543-1.695,1.091-1.695c0.485,0,0.843,0.541,0.843,1.456
		c0,0.357-0.244,3.315-0.244,3.927c0,0.661,0.244,4.051,0.244,4.836c0,0.661-0.244,1.08-0.664,1.08c-0.541,0-0.78-0.354-1.084-1.508
		c-0.602-2.777-1.514-3.321-5.5-3.321h-8.402v13.127c0,2.233,1.512,3.077,5.317,3.077c6.461,0,11.604-2.6,14.931-7.62
		c0.608-0.905,1.086-1.573,1.564-1.573c0.43,0,0.667,0.249,0.667,0.725c0,0.306-0.054,0.667-0.237,1.213L236.64,448.72z"/>
	<path d="M262.598,417.682c0-1.634,0.842-2.292,3.018-2.292c4.228,0,6.893,3.387,6.893,8.704c0,5.267-2.595,7.798-7.923,7.798
		c-0.485,0-1.091-0.057-1.987-0.057V417.682z M273.953,443.989c2.665,3.993,3.564,4.835,5.328,4.835c0.651,0,2.11-0.24,2.896-0.24
		c0.664,0,2.473,0.24,3.264,0.24c0.659,0,2.231,0,2.231-0.842c0-0.431-0.177-0.552-0.959-0.608
		c-2.786-0.067-4.349-1.208-9.196-8.406l-0.727-1.141c-1.504-2.243-2.292-3.332-3.738-5.085c1.934-1.515,5.437-4.234,5.437-9.434
		c0-5.925-4.478-9.43-11.48-9.43c-0.605,0-5.686,0.239-7.315,0.239c-1.562,0-5.258-0.239-6.472-0.239c-0.901,0-1.628,0-1.628,0.541
		c0,0.607,0.358,0.786,1.628,0.907c2.601,0.241,3.573,1.276,3.573,3.811v23.033c0,3.203-1.084,4.717-3.626,5.203
		c-0.966,0.178-1.216,0.363-1.216,0.847c0,0.604,0.423,0.604,1.453,0.604c1.396,0,5.082-0.24,6.347-0.24
		c1.63,0,6.225,0.24,7.204,0.24c0.534,0,0.841-0.06,0.841-0.604c0-0.429-0.307-0.601-1.275-0.847
		c-2.781-0.603-3.923-2.119-3.923-5.316v-8.834c3.378,0,4.228,0.182,6.589,3.751L273.953,443.989z"/>
	<path d="M316.283,424.19c0.176,0.967,0.245,1.452,0.245,1.812c0,0.661-0.245,1.085-0.608,1.085c-0.605,0-0.973-0.48-1.328-1.987
		c-1.697-6.171-5.201-9.737-9.613-9.737c-3.191,0-5.431,1.932-5.431,4.651c0,3.633,3.201,5.264,7.673,7.565
		c7.727,3.867,10.631,6.045,10.631,11.486c0,6.164-4.467,9.972-11.664,9.972c-1.026,0-5.854-0.42-6.77-0.42
		c-1.756,0-1.928,0.42-2.651,0.42c-0.49,0-0.664-0.3-0.664-1.387c0-2.657-0.36-5.198-1.162-9.079
		c-0.176-0.653-0.464-2.045-0.464-2.658c0-0.485,0.226-0.783,0.649-0.783c0.616,0,0.911,0.427,1.334,2.059
		c2.604,9.251,9.365,9.733,11.359,9.733c3.698,0,5.8-1.929,5.8-5.318c0-4.171-4.338-6.353-8.458-8.344
		c-4.415-2.235-9.724-4.833-9.724-11.004c0-4.898,4.228-8.832,9.541-8.832c1.27,0,2.906,0.246,5.502,0.73
		c1.27,0.239,2.061,0.355,2.349,0.355c0.79,0,1.156-0.183,1.572-0.781c0.242-0.364,0.383-0.426,0.61-0.426
		c0.36,0,0.794,0.121,0.671,2.539c-0.061,2.908,0.237,5.742,0.483,7.319L316.283,424.19z"/>
	<path d="M340.057,442.028c0,3.26,0.848,4.476,3.51,4.951c1.145,0.242,1.454,0.428,1.454,0.977c0,0.843-0.978,0.782-2.236,0.782
		c-1.333,0-3.503-0.239-5.509-0.239c-1.936,0-5.253,0.239-6.401,0.239c-1.035,0-1.631-0.059-1.631-0.782
		c0-0.304,0.304-0.489,1.204-0.668c2.72-0.486,3.747-1.871,3.747-5.202v-22.188c0-2.836-1.323-4.296-4.219-4.655
		c-0.789-0.122-1.21-0.181-1.21-0.789c0-0.478,0.291-0.659,1.21-0.659c0.53,0,5.007,0.238,7.005,0.238
		c2.173,0,5.325-0.238,5.922-0.238c0.908,0,1.639,0,1.639,0.605c0,0.42-0.181,0.603-1.028,0.843
		c-2.423,0.72-3.456,2.237-3.456,4.896V442.028z"/>
	<path d="M355.794,414.032h30.991l2.186,9.252c0.058,0.427,0.058,0.903-0.423,0.903s-0.912-0.417-1.818-1.81
		c-2.35-3.449-5.8-6.287-9.962-6.287h-2.542v26.965c0,2.174,1.02,3.326,3.432,3.864c0.858,0.189,1.456,0.368,1.456,1.036
		c0,0.657-0.96,0.782-2.163,0.782c-1.457,0-3.869-0.239-5.687-0.239c-1.818,0-5.564,0.239-6.408,0.239
		c-0.966,0-1.576-0.363-1.576-0.842c0-0.551,0.368-0.787,1.446-0.977c2.478-0.481,3.575-1.69,3.575-3.685v-27.089h-1.879
		c-1.868,0-6.767,0-11.129,6.957c-0.529,0.905-0.836,1.206-1.131,1.206c-0.369,0-0.553-0.238-0.553-0.721
		c0-0.186,0.119-0.671,0.243-1.145L355.794,414.032z"/>
	<path d="M411.982,432.533l-10.195-14.688c-1.046-1.458-1.958-2.178-3.402-2.481c-0.66-0.182-0.839-0.302-0.839-0.727
		c0-0.843,0.96-0.843,2.051-0.843c1.214,0,3.633,0.238,5.437,0.238c1.748,0,4.289-0.238,5.201-0.238
		c0.782,0,1.268,0.238,1.268,0.779c0,0.367-0.243,0.547-1.035,0.73c-1.311,0.234-1.789,0.718-1.789,1.636
		c0,0.478,0.171,1.204,0.479,1.624l7.432,10.766l6.409-9.853c0.589-0.851,0.897-1.758,0.897-2.415c0-1.1-0.675-1.642-2.06-1.819
		c-0.722-0.061-0.964-0.24-0.964-0.669c0-0.477,0.608-0.779,1.57-0.779c0.492,0,2.178,0.238,3.449,0.238
		c1.319,0,3.502-0.238,4.228-0.238c0.909,0,1.395,0.182,1.395,0.539c0,0.424-0.308,0.729-1.09,0.909
		c-1.88,0.541-3.025,1.452-4.467,3.687l-8.044,12.396v11.731c0,2.536,0.842,3.567,3.324,3.924c1.266,0.184,1.63,0.428,1.63,1.035
		c0,0.543-0.364,0.724-1.508,0.724c-0.907,0-4.708-0.239-6.045-0.239c-1.335,0-5.017,0.239-6.114,0.239
		c-1.147,0-1.807,0-1.807-0.663c0-0.54,0.427-0.729,1.632-0.966c2.353-0.365,2.958-1.146,2.958-3.686V432.533z"/>
	<path d="M476.964,414.881c7.555,0,12.632,6.771,12.632,16.869c0,11.485-6.099,15.902-11.9,15.902
		c-7.551,0-12.335-6.772-12.335-17.474C465.36,422.075,468.386,415.062,476.964,414.881z M477.565,413.001
		c-11.409,0-18.366,8.234-18.366,19.169c0,6.05,3.206,17.173,17.891,17.173c11.31,0,18.793-7.44,18.793-18.735
		C495.883,420.623,488.515,413.001,477.565,413.001z"/>
	<path d="M514.927,430.294v11.124c0,4.118,1.082,5.562,4.219,5.691c1.021,0.054,1.328,0.179,1.328,0.596
		c0,0.67-0.485,1.033-1.451,1.033c-0.541,0-5.312-0.239-6.227-0.239c-1.03,0-6.043,0.239-7.192,0.239
		c-0.959,0-1.381-0.239-1.381-0.842c0-0.43,0.172-0.675,0.847-0.733c1.632-0.184,3.931-0.478,3.931-4.531v-20.13
		c0-4.716-0.966-6.599-3.637-6.9c-1.012-0.182-1.39-0.359-1.39-0.907c0-0.662,0.492-0.662,1.521-0.662h21.578l5.181-0.238
		l2.298,9.068c0.12,0.422,0.249,1.447-0.356,1.447c-0.367,0-0.557-0.238-1.091-1.146c-1.811-3.025-4.769-7.261-14.265-7.261
		c-1.204,0-2.049,0.059-3.8,0.188c-0.112,0.971-0.184,2.231-0.184,4.59v7.562h6.47c5.865,0,6.647-0.297,6.833-2.778
		c0.109-1.032,0.232-1.276,0.775-1.276c0.847,0,0.847,0.486,0.847,2.722c0,4.841,0.296,6.657,0.296,7.381
		c0,0.726-0.172,1.331-0.781,1.331c-0.531,0-0.96-0.671-1.197-2.18c-0.436-2.54-0.907-3.147-7.443-3.147H514.927z"/>
	<path d="M60.571,524.484c0,5.982,1.697,7.45,8.24,7.45c5.99,0,19.762,0,29.364-14.793c1.133-1.582,1.585-2.038,2.491-2.038
		c0.565,0,1.008,0.57,1.008,1.247s-0.565,2.26-1.583,4.629c-2.256,5.425-3.727,9.155-4.961,14.689l-26.766-0.452l-25.184,0.452
		c-2.488,0-3.164-0.226-3.164-1.24c0-1.019,0.907-1.134,2.486-1.471c7.114-1.36,7.114-3.841,7.114-16.379v-35.817
		c0-5.428-1.017-6.777-5.98-7.228c-2.602-0.233-3.282-0.57-3.282-1.697c0-0.9,0.907-1.47,2.261-1.47c1.241,0,9.6,0.452,11.41,0.452
		c4.515,0,11.967-0.452,13.324-0.452c1.125,0,2.144,0,2.144,1.357c0,1.015-0.682,1.576-2.936,1.689
		c-2.598,0.234-5.986,0.682-5.986,6.44V524.484z"/>
	<path d="M132.236,523.124c0,6.103,1.585,8.367,6.553,9.274c2.148,0.442,2.712,0.783,2.712,1.806c0,1.576-1.812,1.465-4.177,1.465
		c-2.486,0-6.558-0.452-10.277-0.452c-3.618,0-9.824,0.452-11.973,0.452c-1.918,0-3.052-0.111-3.052-1.465
		c0-0.57,0.566-0.909,2.261-1.246c5.078-0.906,7.007-3.503,7.007-9.715v-41.469c0-5.31-2.489-8.015-7.912-8.692
		c-1.467-0.232-2.256-0.343-2.256-1.472c0-0.904,0.562-1.243,2.256-1.243c1.015,0,9.376,0.452,13.106,0.452
		c4.066,0,9.933-0.452,11.062-0.452c1.7,0,3.049,0,3.049,1.129c0,0.787-0.342,1.129-1.92,1.586c-4.519,1.35-6.439,4.18-6.439,9.146
		V523.124z"/>
	<path d="M165.211,479.295c-3.72-4.409-5.421-5.646-8.585-6.106c-1.241-0.339-1.579-0.563-1.579-1.464
		c0-0.905,0.452-1.357,1.359-1.357c0.675,0,8.246,0.452,8.92,0.452s4.74-0.452,5.533-0.452c1.127,0,1.686,0.228,3.052,1.585
		l43.7,46.318v-36.155c0-5.531-2.489-8.355-7.901-9.033c-1.361-0.118-2.603-0.343-2.603-1.357c0-1.13,0.564-1.357,1.923-1.357
		c1.348,0,8.465,0.452,10.269,0.452c1.812,0,8.465-0.452,9.607-0.452c1.118,0,1.692,0.228,1.692,1.129
		c0,0.787-0.339,1.019-1.925,1.354c-4.623,0.91-6.55,3.844-6.55,9.943v51.294c0,1.806-0.222,2.256-1.355,2.256
		c-0.561,0-1.127-0.221-1.46-0.45l-49.914-52.524v38.182c0,7.451,2.036,10.502,7.791,11.291c1.692,0.231,2.145,0.341,2.145,1.475
		c0,1.01-0.676,1.354-3.168,1.354c-1.918,0-6.66-0.452-9.479-0.452c-2.708,0-8.246,0.452-9.376,0.452
		c-0.68,0-1.017-0.452-1.017-1.126c0-0.909,0.337-1.133,1.923-1.471c5.307-0.912,7-4.071,7-12.996V479.295z"/>
	<path d="M271.399,468.669c5.305,0,11.628,1.355,17.618,3.614c1.352,0.566,2.485,0.905,2.83,0.905c0.673,0,1.118-0.339,2.133-1.236
		c0.909-0.91,1.363-1.133,1.935-1.133c0.896,0,1.344,1.018,1.344,6.212c0,4.066,0.111,9.151,0.565,12.771
		c0.108,0.905,0.339,3.05,0.339,3.724c0,1.018-0.23,1.696-0.793,1.696c-0.898,0-1.354-0.791-1.912-3.159
		c-4.751-18.078-19.652-20.11-23.15-20.11c-12.872,0-20.666,11.182-20.666,29.712c0,19.093,9.598,31.294,24.497,31.294
		c7.34,0,15.364-3.282,21.349-8.701c0.557-0.561,0.905-0.795,1.351-0.795c0.455,0,0.682,0.456,0.682,1.022
		c0,1.243-9.151,12.318-25.747,12.318c-20.665,0-33.654-13.341-33.654-34.688C240.12,482.228,252.758,468.669,271.399,468.669z"/>
	<path d="M345.333,473.102c14.109,0,23.596,12.65,23.596,31.522c0,21.466-11.4,29.71-22.241,29.71
		c-14.12,0-23.029-12.656-23.029-32.653C323.658,486.55,329.287,473.443,345.333,473.102z M346.462,469.594
		c-21.343,0-34.322,15.367-34.322,35.823c0,11.291,5.979,32.083,33.413,32.083c21.121,0,35.125-13.894,35.125-35.025
		C380.678,483.837,366.892,469.594,346.462,469.594z"/>
	<path d="M410.147,524.484c0,5.982,1.691,7.45,8.252,7.45c5.974,0,19.75,0,29.345-14.793c1.133-1.582,1.581-2.038,2.49-2.038
		c0.562,0,1.01,0.57,1.01,1.247s-0.563,2.26-1.578,4.629c-2.261,5.425-3.726,9.155-4.971,14.689l-26.766-0.452l-25.17,0.452
		c-2.488,0-3.164-0.226-3.164-1.24c0-1.019,0.893-1.134,2.478-1.471c7.125-1.36,7.125-3.841,7.125-16.379v-35.817
		c0-5.428-1.021-6.777-5.995-7.228c-2.604-0.233-3.278-0.57-3.278-1.697c0-0.9,0.912-1.47,2.261-1.47
		c1.247,0,9.595,0.452,11.405,0.452c4.523,0,11.971-0.452,13.333-0.452c1.126,0,2.144,0,2.144,1.357
		c0,1.015-0.668,1.576-2.941,1.689c-2.607,0.234-5.979,0.682-5.979,6.44V524.484z"/>
	<path d="M469.602,479.348c-3.72-4.41-5.41-5.647-8.579-6.107c-1.235-0.331-1.587-0.561-1.587-1.461
		c0-0.903,0.464-1.366,1.365-1.366c0.677,0,8.244,0.463,8.925,0.463c0.673,0,4.736-0.463,5.521-0.463
		c1.14,0,1.708,0.235,3.064,1.587l43.696,46.322v-36.149c0-5.54-2.479-8.36-7.913-9.045c-1.356-0.111-2.593-0.333-2.593-1.349
		c0-1.131,0.563-1.366,1.914-1.366c1.357,0,8.469,0.463,10.284,0.463c1.8,0,8.468-0.463,9.586-0.463
		c1.139,0,1.697,0.235,1.697,1.138c0,0.79-0.333,1.015-1.918,1.358c-4.631,0.903-6.544,3.834-6.544,9.935v51.295
		c0,1.81-0.226,2.259-1.361,2.259c-0.562,0-1.128-0.227-1.46-0.449l-49.913-52.536v38.189c0,7.456,2.039,10.501,7.791,11.293
		c1.693,0.224,2.149,0.341,2.149,1.47c0,1.021-0.683,1.354-3.171,1.354c-1.918,0-6.66-0.448-9.483-0.448
		c-2.707,0-8.24,0.448-9.37,0.448c-0.681,0-1.013-0.448-1.013-1.125c0-0.906,0.332-1.125,1.916-1.475
		c5.314-0.896,6.995-4.061,6.995-12.989V479.348z"/>
</g>
</svg>
